G04 (created by PCBNEW (2013-07-07 BZR 4022)-stable) date 23/08/2016 11:16:44 p. m.*
%MOIN*%
G04 Gerber Fmt 3.4, Leading zero omitted, Abs format*
%FSLAX34Y34*%
G01*
G70*
G90*
G04 APERTURE LIST*
%ADD10C,0.00590551*%
%ADD11C,0.066*%
%ADD12C,0.15748*%
%ADD13R,0.06X0.06*%
%ADD14C,0.06*%
%ADD15R,0.19685X0.0708661*%
%ADD16R,0.08X0.144*%
%ADD17R,0.08X0.04*%
%ADD18R,0.06X0.08*%
%ADD19R,0.08X0.06*%
%ADD20R,0.0708661X0.15748*%
%ADD21R,0.063X0.1417*%
%ADD22R,0.1417X0.063*%
%ADD23R,0.0512X0.059*%
%ADD24R,0.059X0.0512*%
%ADD25R,0.0787X0.0177*%
%ADD26R,0.0177X0.0787*%
%ADD27R,0.0275591X0.0787402*%
%ADD28C,0.035*%
%ADD29C,0.01*%
%ADD30C,0.0393701*%
%ADD31C,0.00606299*%
G04 APERTURE END LIST*
G54D10*
G54D11*
X42715Y43743D03*
X42715Y44743D03*
X42715Y47302D03*
X42715Y46302D03*
X26574Y44743D03*
X26574Y43743D03*
X26574Y46302D03*
X26574Y47302D03*
X32767Y53456D03*
X33767Y53456D03*
X35523Y53456D03*
X36523Y53456D03*
X27071Y49359D03*
X27737Y50105D03*
X28873Y51444D03*
X29689Y52027D03*
X39601Y52027D03*
X40416Y51444D03*
X41552Y50105D03*
X42219Y49359D03*
G54D12*
X43387Y51802D03*
X25902Y51802D03*
G54D13*
X41275Y48587D03*
G54D14*
X41275Y47587D03*
X41275Y46587D03*
X41275Y45587D03*
G54D13*
X39995Y45587D03*
G54D14*
X38995Y45587D03*
X39995Y46587D03*
X38995Y46587D03*
X39995Y47587D03*
X38995Y47587D03*
X39995Y48587D03*
X38995Y48587D03*
G54D12*
X40550Y32737D03*
X40550Y36540D03*
G54D15*
X36562Y33811D03*
X36562Y32512D03*
G54D16*
X31221Y36491D03*
G54D17*
X33821Y36491D03*
X33821Y37391D03*
X33821Y35591D03*
G54D18*
X41445Y40367D03*
X40145Y40367D03*
G54D19*
X30415Y42577D03*
X30415Y41277D03*
X27215Y42617D03*
X27215Y41317D03*
G54D18*
X30005Y39487D03*
X28705Y39487D03*
X40145Y39267D03*
X41445Y39267D03*
G54D13*
X33081Y43837D03*
G54D14*
X34081Y43837D03*
X35081Y43837D03*
X36081Y43837D03*
G54D13*
X42655Y42507D03*
G54D14*
X42655Y41507D03*
X41655Y42507D03*
X41655Y41507D03*
X40655Y42507D03*
X40655Y41507D03*
G54D13*
X34145Y31291D03*
G54D14*
X35145Y31291D03*
G54D12*
X28739Y32736D03*
X28739Y36539D03*
G54D15*
X32727Y33810D03*
X32727Y32511D03*
G54D20*
X45078Y41566D03*
X46456Y41566D03*
G54D21*
X37335Y37530D03*
X37335Y35364D03*
G54D22*
X37652Y43547D03*
X39818Y43547D03*
G54D23*
X38950Y40407D03*
X38200Y40407D03*
G54D24*
X35586Y37394D03*
X35586Y36644D03*
X31437Y40238D03*
X31437Y40988D03*
G54D23*
X33024Y31551D03*
X32274Y31551D03*
X36990Y31287D03*
X36240Y31287D03*
X38938Y39525D03*
X38188Y39525D03*
G54D24*
X35589Y35160D03*
X35589Y35910D03*
G54D25*
X32799Y39554D03*
X32799Y39869D03*
X32799Y40184D03*
X32799Y40499D03*
X32799Y40814D03*
X32799Y41129D03*
X32799Y41444D03*
X32799Y41759D03*
X36565Y41757D03*
X36565Y39547D03*
X36565Y39867D03*
X36565Y40187D03*
X36565Y40497D03*
X36565Y40817D03*
X36565Y41127D03*
X36565Y41447D03*
G54D26*
X33583Y42547D03*
X33897Y42547D03*
X34213Y42547D03*
X34527Y42547D03*
X34843Y42547D03*
X35157Y42547D03*
X35473Y42547D03*
X35787Y42547D03*
X33585Y38767D03*
X33895Y38767D03*
X34215Y38767D03*
X34525Y38767D03*
X34835Y38767D03*
X35155Y38767D03*
X35475Y38767D03*
X35795Y38767D03*
G54D18*
X35295Y52247D03*
X33995Y52247D03*
G54D27*
X28619Y41059D03*
X29210Y41059D03*
X29249Y42516D03*
X28580Y42516D03*
G54D20*
X24212Y41566D03*
G54D28*
X36990Y31287D03*
X36511Y36846D03*
X38400Y44367D03*
X44857Y45649D03*
X29208Y41066D03*
X35566Y55877D03*
X35566Y55877D03*
X29208Y41066D03*
X44857Y45649D03*
X38400Y44367D03*
X36511Y36846D03*
X36990Y31287D03*
X25054Y42578D03*
X25054Y42578D03*
X37755Y51487D03*
X37755Y51487D03*
X37395Y41787D03*
X39655Y42007D03*
X39675Y42847D03*
X41395Y44647D03*
X41395Y44647D03*
X39675Y42847D03*
X39655Y42007D03*
X37395Y41787D03*
X35775Y41787D03*
X35775Y41787D03*
X39515Y40047D03*
X37395Y40207D03*
X28415Y44247D03*
X28415Y44247D03*
X37395Y40207D03*
X39515Y40047D03*
X28195Y51027D03*
X28955Y52187D03*
X28955Y52187D03*
X28195Y51027D03*
X37315Y41107D03*
X39595Y41087D03*
X39595Y41087D03*
X37315Y41107D03*
X35315Y41647D03*
X35315Y41647D03*
X30931Y32756D03*
X30931Y32756D03*
X32671Y32531D03*
X32671Y32531D03*
X32643Y33783D03*
X32643Y33783D03*
X34215Y37987D03*
X34215Y37987D03*
X30415Y41287D03*
X30415Y41287D03*
X36701Y32735D03*
X38401Y32772D03*
X38401Y32772D03*
X36701Y32735D03*
X36562Y33811D03*
X38401Y33522D03*
X38401Y33522D03*
X36562Y33811D03*
X36535Y43367D03*
X36535Y43367D03*
X30915Y38127D03*
X27215Y41287D03*
X27215Y41287D03*
X30915Y38127D03*
X31605Y31307D03*
X31605Y31307D03*
X35582Y31779D03*
X38790Y34810D03*
X38814Y36236D03*
X38814Y38598D03*
X36534Y38980D03*
X36534Y38980D03*
X38814Y38598D03*
X38814Y36236D03*
X38790Y34810D03*
X35582Y31779D03*
X36275Y38587D03*
X36275Y38587D03*
X36535Y38107D03*
X36535Y38107D03*
X34747Y37984D03*
X34747Y37984D03*
X34637Y34755D03*
X34637Y34755D03*
X34641Y32944D03*
X34641Y32944D03*
X35212Y38019D03*
X35058Y34554D03*
X35101Y32948D03*
X35101Y32948D03*
X35058Y34554D03*
X35212Y38019D03*
X31412Y42432D03*
X36444Y42507D03*
X37432Y42830D03*
X40841Y44511D03*
X44318Y42334D03*
X44318Y42334D03*
X40841Y44511D03*
X37432Y42830D03*
X36444Y42507D03*
X31412Y42432D03*
X35955Y48767D03*
X35955Y48767D03*
X36475Y47547D03*
X34615Y45787D03*
X34615Y45787D03*
X36475Y47547D03*
X31615Y38747D03*
X30035Y39507D03*
X30035Y39507D03*
X31615Y38747D03*
X34955Y43267D03*
X34955Y43267D03*
X37455Y39267D03*
X37455Y39267D03*
X42175Y48047D03*
X43055Y49747D03*
X43055Y49747D03*
X42175Y48047D03*
X44615Y48647D03*
X44615Y48647D03*
X42595Y52767D03*
X44595Y50567D03*
X44595Y50567D03*
X42595Y52767D03*
X33601Y41519D03*
X33601Y41519D03*
X43855Y50687D03*
X42675Y50207D03*
X41889Y50873D03*
X41889Y50873D03*
X42675Y50207D03*
X43855Y50687D03*
X34195Y39507D03*
X34195Y39507D03*
X37655Y46587D03*
X37655Y46587D03*
X35835Y46067D03*
X37255Y46107D03*
X37255Y46107D03*
X35835Y46067D03*
X35799Y34457D03*
X35799Y34457D03*
X32285Y31573D03*
X41455Y39227D03*
X37335Y35364D03*
X39150Y44367D03*
X43975Y41087D03*
X46455Y41587D03*
X34255Y49887D03*
X37735Y50137D03*
X26195Y49127D03*
X31575Y54047D03*
X27775Y44977D03*
X31415Y40967D03*
X31415Y40967D03*
X27775Y44977D03*
X31575Y54047D03*
X26195Y49127D03*
X37735Y50137D03*
X34255Y49887D03*
X46455Y41587D03*
X43975Y41087D03*
X39150Y44367D03*
X37335Y35364D03*
X41455Y39227D03*
X32285Y31573D03*
X42055Y52107D03*
X43675Y45847D03*
X32735Y52067D03*
X32735Y52067D03*
X43675Y45847D03*
X42055Y52107D03*
X32815Y54387D03*
X32815Y54387D03*
X44495Y44727D03*
X45935Y46487D03*
X45675Y50687D03*
X41575Y53407D03*
X40555Y52127D03*
X40555Y52127D03*
X41575Y53407D03*
X45675Y50687D03*
X45935Y46487D03*
X44495Y44727D03*
X34168Y34484D03*
X34168Y34484D03*
G54D29*
X33497Y40777D02*
X33495Y40779D01*
X33495Y40779D02*
X32834Y40779D01*
X32834Y40779D02*
X32799Y40814D01*
X33631Y40643D02*
X33497Y40777D01*
X33631Y40441D02*
X33631Y40643D01*
X33631Y40367D02*
X33631Y40441D01*
X33448Y40184D02*
X33631Y40367D01*
X32799Y40184D02*
X33448Y40184D01*
X35163Y40777D02*
X33497Y40777D01*
X36073Y39867D02*
X35163Y40777D01*
X36565Y39867D02*
X36073Y39867D01*
X31491Y40184D02*
X31437Y40238D01*
X32799Y40184D02*
X31491Y40184D01*
G54D30*
X37191Y37386D02*
X37335Y37530D01*
X36534Y37386D02*
X37191Y37386D01*
X37695Y37530D02*
X38188Y38023D01*
X38188Y38023D02*
X38188Y39525D01*
X37335Y37530D02*
X37695Y37530D01*
G54D29*
X37835Y39867D02*
X36565Y39867D01*
X38188Y39525D02*
X38177Y39525D01*
G54D30*
X36534Y36869D02*
X36534Y37386D01*
X36511Y36846D02*
X36534Y36869D01*
X33823Y37394D02*
X33821Y37391D01*
X35586Y37394D02*
X33823Y37394D01*
X36527Y37394D02*
X36534Y37386D01*
X35586Y37394D02*
X36527Y37394D01*
X36120Y43837D02*
X36444Y44161D01*
X36444Y44161D02*
X37385Y44161D01*
X37385Y44161D02*
X37652Y43894D01*
X37652Y43894D02*
X37652Y43547D01*
X36081Y43837D02*
X36120Y43837D01*
X38093Y44685D02*
X38995Y45587D01*
X38093Y44674D02*
X38400Y44367D01*
X38093Y44685D02*
X38093Y44674D01*
X41406Y45587D02*
X41979Y46161D01*
X41979Y46161D02*
X41979Y46566D01*
X41979Y46566D02*
X42715Y47302D01*
X41275Y45587D02*
X41406Y45587D01*
X45078Y45428D02*
X44857Y45649D01*
X45078Y41566D02*
X45078Y45428D01*
X30030Y40238D02*
X29210Y41059D01*
X31437Y40238D02*
X30030Y40238D01*
X29208Y41066D02*
X29210Y41064D01*
X29210Y41064D02*
X29210Y41059D01*
X25125Y45854D02*
X26574Y47302D01*
X38267Y53456D02*
X36523Y53456D01*
X39601Y52122D02*
X38267Y53456D01*
X39601Y52027D02*
X39601Y52122D01*
X36523Y55547D02*
X36192Y55877D01*
X36192Y55877D02*
X35566Y55877D01*
X36523Y53456D02*
X36523Y55547D01*
X29689Y52972D02*
X29689Y52027D01*
X29689Y53957D02*
X29689Y52972D01*
X31609Y55877D02*
X29689Y53957D01*
X35566Y55877D02*
X31609Y55877D01*
X35845Y52247D02*
X36523Y52925D01*
X36523Y52925D02*
X36523Y53456D01*
X35295Y52247D02*
X35845Y52247D01*
X44337Y41566D02*
X44176Y41728D01*
X44176Y41728D02*
X42875Y41728D01*
X42875Y41728D02*
X42655Y41507D01*
X45078Y41566D02*
X44337Y41566D01*
X26574Y47417D02*
X25605Y48385D01*
X25605Y48385D02*
X25605Y49732D01*
X25605Y49732D02*
X28845Y52972D01*
X28845Y52972D02*
X29689Y52972D01*
X26574Y47302D02*
X26574Y47417D01*
X26574Y47302D02*
X26574Y47417D01*
X28845Y52972D02*
X29689Y52972D01*
X25605Y49732D02*
X28845Y52972D01*
X25605Y48385D02*
X25605Y49732D01*
X26574Y47417D02*
X25605Y48385D01*
X45078Y41566D02*
X44337Y41566D01*
X42875Y41728D02*
X42655Y41507D01*
X44176Y41728D02*
X42875Y41728D01*
X44337Y41566D02*
X44176Y41728D01*
X35295Y52247D02*
X35845Y52247D01*
X36523Y52925D02*
X36523Y53456D01*
X35845Y52247D02*
X36523Y52925D01*
X35566Y55877D02*
X31609Y55877D01*
X31609Y55877D02*
X29689Y53957D01*
X29689Y53957D02*
X29689Y52972D01*
X29689Y52972D02*
X29689Y52027D01*
X36523Y53456D02*
X36523Y55547D01*
X36192Y55877D02*
X35566Y55877D01*
X36523Y55547D02*
X36192Y55877D01*
X39601Y52027D02*
X39601Y52122D01*
X39601Y52122D02*
X38267Y53456D01*
X38267Y53456D02*
X36523Y53456D01*
X25125Y45854D02*
X26574Y47302D01*
X29210Y41064D02*
X29210Y41059D01*
X29208Y41066D02*
X29210Y41064D01*
X31437Y40238D02*
X30030Y40238D01*
X30030Y40238D02*
X29210Y41059D01*
X45078Y41566D02*
X45078Y45428D01*
X45078Y45428D02*
X44857Y45649D01*
X41275Y45587D02*
X41406Y45587D01*
X41979Y46566D02*
X42715Y47302D01*
X41979Y46161D02*
X41979Y46566D01*
X41406Y45587D02*
X41979Y46161D01*
X38093Y44685D02*
X38093Y44674D01*
X38093Y44674D02*
X38400Y44367D01*
X38093Y44685D02*
X38995Y45587D01*
X36081Y43837D02*
X36120Y43837D01*
X37652Y43894D02*
X37652Y43547D01*
X37385Y44161D02*
X37652Y43894D01*
X36444Y44161D02*
X37385Y44161D01*
X36120Y43837D02*
X36444Y44161D01*
X35586Y37394D02*
X36527Y37394D01*
X36527Y37394D02*
X36534Y37386D01*
X35586Y37394D02*
X33823Y37394D01*
X33823Y37394D02*
X33821Y37391D01*
X36511Y36846D02*
X36534Y36869D01*
X36534Y36869D02*
X36534Y37386D01*
G54D29*
X38188Y39525D02*
X38177Y39525D01*
X37835Y39867D02*
X36565Y39867D01*
G54D30*
X37335Y37530D02*
X37695Y37530D01*
X38188Y38023D02*
X38188Y39525D01*
X37695Y37530D02*
X38188Y38023D01*
X36534Y37386D02*
X37191Y37386D01*
X37191Y37386D02*
X37335Y37530D01*
G54D29*
X32799Y40184D02*
X31491Y40184D01*
X31491Y40184D02*
X31437Y40238D01*
X36565Y39867D02*
X36073Y39867D01*
X36073Y39867D02*
X35163Y40777D01*
X35163Y40777D02*
X33497Y40777D01*
X32799Y40184D02*
X33448Y40184D01*
X33448Y40184D02*
X33631Y40367D01*
X33631Y40367D02*
X33631Y40441D01*
X33631Y40441D02*
X33631Y40643D01*
X33631Y40643D02*
X33497Y40777D01*
X32834Y40779D02*
X32799Y40814D01*
X33495Y40779D02*
X32834Y40779D01*
X33497Y40777D02*
X33495Y40779D01*
X38177Y39525D02*
X37835Y39867D01*
X38177Y39525D02*
X37835Y39867D01*
G54D30*
X25054Y42578D02*
X25125Y42649D01*
X25125Y42649D02*
X25125Y45854D01*
X25125Y42649D02*
X25125Y45854D01*
X25054Y42578D02*
X25125Y42649D01*
X37652Y44244D02*
X38093Y44685D01*
X37652Y43547D02*
X37652Y44244D01*
X37652Y43547D02*
X37652Y44244D01*
X37652Y44244D02*
X38093Y44685D01*
G54D29*
X42080Y53107D02*
X40416Y51444D01*
X36565Y41757D02*
X37365Y41757D01*
X37798Y51444D02*
X37755Y51487D01*
X40416Y51444D02*
X37798Y51444D01*
X40416Y51444D02*
X37798Y51444D01*
X37798Y51444D02*
X37755Y51487D01*
X36565Y41757D02*
X37365Y41757D01*
X42080Y53107D02*
X40416Y51444D01*
X37365Y41757D02*
X37395Y41787D01*
X39655Y42007D02*
X39675Y42027D01*
X39675Y42027D02*
X39675Y42847D01*
X41395Y44647D02*
X42175Y45427D01*
X42175Y45427D02*
X44015Y45427D01*
X44015Y45427D02*
X45255Y46667D01*
X45255Y46667D02*
X45255Y51947D01*
X45255Y51947D02*
X44095Y53107D01*
X44095Y53107D02*
X42080Y53107D01*
X44095Y53107D02*
X42080Y53107D01*
X45255Y51947D02*
X44095Y53107D01*
X45255Y46667D02*
X45255Y51947D01*
X44015Y45427D02*
X45255Y46667D01*
X42175Y45427D02*
X44015Y45427D01*
X41395Y44647D02*
X42175Y45427D01*
X39675Y42027D02*
X39675Y42847D01*
X39655Y42007D02*
X39675Y42027D01*
X37365Y41757D02*
X37395Y41787D01*
X35787Y43155D02*
X35575Y43367D01*
X35575Y43367D02*
X35575Y45267D01*
X35575Y45267D02*
X38375Y48067D01*
X38375Y48067D02*
X41715Y48067D01*
X41715Y48067D02*
X42075Y48427D01*
X42075Y48427D02*
X42855Y48427D01*
X42855Y48427D02*
X43375Y47907D01*
X43375Y47907D02*
X43375Y46962D01*
X43375Y46962D02*
X42715Y46302D01*
X35787Y42547D02*
X35787Y43155D01*
X35787Y42547D02*
X35787Y43155D01*
X43375Y46962D02*
X42715Y46302D01*
X43375Y47907D02*
X43375Y46962D01*
X42855Y48427D02*
X43375Y47907D01*
X42075Y48427D02*
X42855Y48427D01*
X41715Y48067D02*
X42075Y48427D01*
X38375Y48067D02*
X41715Y48067D01*
X35575Y45267D02*
X38375Y48067D01*
X35575Y43367D02*
X35575Y45267D01*
X35787Y43155D02*
X35575Y43367D01*
X35473Y42089D02*
X35775Y41787D01*
X35473Y42547D02*
X35473Y42089D01*
X35473Y42547D02*
X35473Y42089D01*
X35473Y42089D02*
X35775Y41787D01*
X40145Y39417D02*
X39515Y40047D01*
X37395Y40207D02*
X37375Y40187D01*
X37375Y40187D02*
X36565Y40187D01*
X40145Y39267D02*
X40145Y39417D01*
X28415Y44247D02*
X28395Y44267D01*
X28395Y44267D02*
X28395Y50307D01*
X28395Y50307D02*
X28635Y50547D01*
X28635Y50547D02*
X28635Y51205D01*
X28635Y51205D02*
X28873Y51444D01*
X28635Y51205D02*
X28873Y51444D01*
X28635Y50547D02*
X28635Y51205D01*
X28395Y50307D02*
X28635Y50547D01*
X28395Y44267D02*
X28395Y50307D01*
X28415Y44247D02*
X28395Y44267D01*
X40145Y39267D02*
X40145Y39417D01*
X37375Y40187D02*
X36565Y40187D01*
X37395Y40207D02*
X37375Y40187D01*
X40145Y39417D02*
X39515Y40047D01*
X39595Y41087D02*
X40145Y40537D01*
X40145Y40537D02*
X40145Y40367D01*
X40145Y40537D02*
X40145Y40367D01*
X39595Y41087D02*
X40145Y40537D01*
X28195Y51027D02*
X28175Y51047D01*
X28175Y51047D02*
X28175Y51607D01*
X28175Y51607D02*
X28755Y52187D01*
X28755Y52187D02*
X28955Y52187D01*
X28755Y52187D02*
X28955Y52187D01*
X28175Y51607D02*
X28755Y52187D01*
X28175Y51047D02*
X28175Y51607D01*
X28195Y51027D02*
X28175Y51047D01*
X37295Y41127D02*
X37315Y41107D01*
X36565Y41127D02*
X37295Y41127D01*
X36565Y41127D02*
X37295Y41127D01*
X37295Y41127D02*
X37315Y41107D01*
X35835Y41127D02*
X35315Y41647D01*
X36565Y41127D02*
X35835Y41127D01*
X36565Y41127D02*
X35835Y41127D01*
X35835Y41127D02*
X35315Y41647D01*
X31176Y32511D02*
X30931Y32756D01*
X32727Y32511D02*
X31176Y32511D01*
X32671Y32531D02*
X32691Y32511D01*
X32691Y32511D02*
X32727Y32511D01*
X32691Y32511D02*
X32727Y32511D01*
X32671Y32531D02*
X32691Y32511D01*
X32727Y32511D02*
X31176Y32511D01*
X31176Y32511D02*
X30931Y32756D01*
X32643Y33783D02*
X32670Y33810D01*
X32670Y33810D02*
X32727Y33810D01*
X32670Y33810D02*
X32727Y33810D01*
X32643Y33783D02*
X32670Y33810D01*
X30415Y41287D02*
X30415Y41277D01*
X34215Y38767D02*
X34215Y37987D01*
X34215Y38767D02*
X34215Y37987D01*
X30415Y41287D02*
X30415Y41277D01*
X36701Y32735D02*
X36562Y32597D01*
X36562Y32597D02*
X36562Y32512D01*
X38140Y32512D02*
X38401Y32772D01*
X36562Y32512D02*
X38140Y32512D01*
X36562Y32512D02*
X38140Y32512D01*
X38140Y32512D02*
X38401Y32772D01*
X36562Y32597D02*
X36562Y32512D01*
X36701Y32735D02*
X36562Y32597D01*
X38111Y33811D02*
X38401Y33522D01*
X36562Y33811D02*
X38111Y33811D01*
X36562Y33811D02*
X38111Y33811D01*
X38111Y33811D02*
X38401Y33522D01*
X37595Y41447D02*
X37755Y41607D01*
X37755Y41607D02*
X37755Y41907D01*
X37755Y41907D02*
X37535Y42127D01*
X37535Y42127D02*
X36335Y42127D01*
X36335Y42127D02*
X36115Y42347D01*
X36115Y42347D02*
X36115Y42947D01*
X36115Y42947D02*
X36535Y43367D01*
X36115Y42947D02*
X36535Y43367D01*
X36115Y42347D02*
X36115Y42947D01*
X36335Y42127D02*
X36115Y42347D01*
X37535Y42127D02*
X36335Y42127D01*
X37755Y41907D02*
X37535Y42127D01*
X37755Y41607D02*
X37755Y41907D01*
X37595Y41447D02*
X37755Y41607D01*
X36565Y41447D02*
X37595Y41447D01*
X36565Y41447D02*
X37595Y41447D01*
X33895Y38187D02*
X33835Y38127D01*
X33835Y38127D02*
X30915Y38127D01*
X27215Y41287D02*
X27215Y41317D01*
X33895Y38767D02*
X33895Y38187D01*
X33895Y38767D02*
X33895Y38187D01*
X27215Y41287D02*
X27215Y41317D01*
X33835Y38127D02*
X30915Y38127D01*
X33895Y38187D02*
X33835Y38127D01*
X33583Y42547D02*
X33055Y42547D01*
X33583Y42547D02*
X33055Y42547D01*
X33055Y42547D02*
X32375Y43227D01*
X32375Y43227D02*
X32375Y44167D01*
X32375Y44167D02*
X35135Y46927D01*
X35135Y46927D02*
X36735Y46927D01*
X36735Y46927D02*
X38395Y48587D01*
X38395Y48587D02*
X38995Y48587D01*
X38395Y48587D02*
X38995Y48587D01*
X36735Y46927D02*
X38395Y48587D01*
X35135Y46927D02*
X36735Y46927D01*
X32375Y44167D02*
X35135Y46927D01*
X32375Y43227D02*
X32375Y44167D01*
X33055Y42547D02*
X32375Y43227D01*
X32047Y39869D02*
X30045Y37867D01*
X30045Y37867D02*
X30045Y31631D01*
X30045Y31631D02*
X30369Y31307D01*
X30369Y31307D02*
X31605Y31307D01*
X32799Y39869D02*
X32047Y39869D01*
X32799Y39869D02*
X32047Y39869D01*
X30369Y31307D02*
X31605Y31307D01*
X30045Y31631D02*
X30369Y31307D01*
X30045Y37867D02*
X30045Y31631D01*
X32047Y39869D02*
X30045Y37867D01*
X35582Y31779D02*
X35802Y31999D01*
X35802Y31999D02*
X38578Y31999D01*
X38578Y31999D02*
X39176Y32598D01*
X39176Y32598D02*
X39176Y34425D01*
X39176Y34425D02*
X38790Y34810D01*
X38814Y36236D02*
X38814Y38598D01*
X36534Y38980D02*
X36318Y39196D01*
X36318Y39196D02*
X36113Y39196D01*
X36113Y39196D02*
X35337Y39972D01*
X33546Y39554D02*
X32799Y39554D01*
X33546Y39554D02*
X32799Y39554D01*
X36113Y39196D02*
X35337Y39972D01*
X36318Y39196D02*
X36113Y39196D01*
X36534Y38980D02*
X36318Y39196D01*
X38814Y36236D02*
X38814Y38598D01*
X39176Y34425D02*
X38790Y34810D01*
X39176Y32598D02*
X39176Y34425D01*
X38578Y31999D02*
X39176Y32598D01*
X35802Y31999D02*
X38578Y31999D01*
X35582Y31779D02*
X35802Y31999D01*
X35337Y39972D02*
X33963Y39972D01*
X33963Y39972D02*
X33546Y39554D01*
X33963Y39972D02*
X33546Y39554D01*
X35337Y39972D02*
X33963Y39972D01*
X36275Y38587D02*
X36095Y38767D01*
X36095Y38767D02*
X35795Y38767D01*
X36095Y38767D02*
X35795Y38767D01*
X36275Y38587D02*
X36095Y38767D01*
X40635Y46827D02*
X40375Y47087D01*
X40375Y47087D02*
X39495Y47087D01*
X40375Y47087D02*
X39495Y47087D01*
X40635Y46827D02*
X40375Y47087D01*
X36535Y38107D02*
X36435Y38007D01*
X36435Y38007D02*
X35775Y38007D01*
X35775Y38007D02*
X35475Y38307D01*
X35475Y38307D02*
X35475Y38767D01*
X41655Y41627D02*
X42135Y42107D01*
X42135Y42107D02*
X42135Y42787D01*
X42135Y42787D02*
X41775Y43147D01*
X41775Y43147D02*
X41655Y43147D01*
X41655Y41507D02*
X41655Y41627D01*
X41655Y41507D02*
X41655Y41627D01*
X41775Y43147D02*
X41655Y43147D01*
X42135Y42787D02*
X41775Y43147D01*
X42135Y42107D02*
X42135Y42787D01*
X41655Y41627D02*
X42135Y42107D01*
X35475Y38307D02*
X35475Y38767D01*
X35775Y38007D02*
X35475Y38307D01*
X36435Y38007D02*
X35775Y38007D01*
X36535Y38107D02*
X36435Y38007D01*
X39495Y47087D02*
X38995Y47587D01*
X39495Y47087D02*
X38995Y47587D01*
X41655Y43147D02*
X40275Y44527D01*
X40275Y44527D02*
X40275Y44787D01*
X40275Y44787D02*
X40635Y45147D01*
X40635Y45147D02*
X40635Y46827D01*
X40635Y45147D02*
X40635Y46827D01*
X40275Y44787D02*
X40635Y45147D01*
X40275Y44527D02*
X40275Y44787D01*
X41655Y43147D02*
X40275Y44527D01*
X34747Y37984D02*
X34835Y38071D01*
X34747Y37984D02*
X34835Y38071D01*
X34523Y33062D02*
X34523Y34641D01*
X34523Y34641D02*
X34637Y34755D01*
X34523Y34641D02*
X34637Y34755D01*
X34523Y33062D02*
X34523Y34641D01*
X34641Y32944D02*
X34523Y33062D01*
X34835Y38071D02*
X34835Y38767D01*
X34835Y38071D02*
X34835Y38767D01*
X34641Y32944D02*
X34523Y33062D01*
X35155Y38076D02*
X35212Y38019D01*
X35058Y34554D02*
X34960Y34456D01*
X34960Y34456D02*
X34960Y33090D01*
X34960Y33090D02*
X35101Y32948D01*
X35155Y38767D02*
X35155Y38076D01*
X35155Y38767D02*
X35155Y38076D01*
X34960Y33090D02*
X35101Y32948D01*
X34960Y34456D02*
X34960Y33090D01*
X35058Y34554D02*
X34960Y34456D01*
X35155Y38076D02*
X35212Y38019D01*
X32259Y41759D02*
X31586Y42432D01*
X31586Y42432D02*
X31412Y42432D01*
X36444Y42507D02*
X36767Y42830D01*
X36767Y42830D02*
X37432Y42830D01*
X40841Y44511D02*
X42196Y43157D01*
X42196Y43157D02*
X43495Y43157D01*
X43495Y43157D02*
X44318Y42334D01*
X32799Y41759D02*
X32259Y41759D01*
X32799Y41759D02*
X32259Y41759D01*
X43495Y43157D02*
X44318Y42334D01*
X42196Y43157D02*
X43495Y43157D01*
X40841Y44511D02*
X42196Y43157D01*
X36767Y42830D02*
X37432Y42830D01*
X36444Y42507D02*
X36767Y42830D01*
X31586Y42432D02*
X31412Y42432D01*
X32259Y41759D02*
X31586Y42432D01*
X32198Y41444D02*
X31675Y41967D01*
X31675Y41967D02*
X24612Y41967D01*
X24612Y41967D02*
X24212Y41566D01*
X32799Y41444D02*
X32198Y41444D01*
X32799Y41444D02*
X32198Y41444D01*
X24612Y41967D02*
X24212Y41566D01*
X31675Y41967D02*
X24612Y41967D01*
X32198Y41444D02*
X31675Y41967D01*
X35955Y48767D02*
X36475Y48247D01*
X34213Y43145D02*
X34213Y42547D01*
X34213Y43145D02*
X34213Y42547D01*
X35955Y48767D02*
X36475Y48247D01*
X36475Y48247D02*
X36475Y47547D01*
X34615Y45787D02*
X34575Y45747D01*
X34575Y45747D02*
X34575Y43507D01*
X34575Y43507D02*
X34213Y43145D01*
X34575Y43507D02*
X34213Y43145D01*
X34575Y45747D02*
X34575Y43507D01*
X34615Y45787D02*
X34575Y45747D01*
X36475Y48247D02*
X36475Y47547D01*
X31635Y38767D02*
X31615Y38747D01*
X30035Y39507D02*
X30015Y39487D01*
X30015Y39487D02*
X30005Y39487D01*
X33585Y38767D02*
X31635Y38767D01*
X33585Y38767D02*
X31635Y38767D01*
X30015Y39487D02*
X30005Y39487D01*
X30035Y39507D02*
X30015Y39487D01*
X31635Y38767D02*
X31615Y38747D01*
X34527Y43159D02*
X34635Y43267D01*
X34635Y43267D02*
X34955Y43267D01*
X34527Y42547D02*
X34527Y43159D01*
X34527Y42547D02*
X34527Y43159D01*
X34635Y43267D02*
X34955Y43267D01*
X34527Y43159D02*
X34635Y43267D01*
X37175Y39547D02*
X37455Y39267D01*
X36565Y39547D02*
X37175Y39547D01*
X36565Y39547D02*
X37175Y39547D01*
X37175Y39547D02*
X37455Y39267D01*
X43055Y49747D02*
X43075Y49767D01*
X43075Y49767D02*
X43495Y49767D01*
X43495Y49767D02*
X44615Y48647D01*
X44615Y50547D02*
X44615Y48647D01*
X44615Y50547D02*
X44615Y48647D01*
X43495Y49767D02*
X44615Y48647D01*
X43075Y49767D02*
X43495Y49767D01*
X43055Y49747D02*
X43075Y49767D01*
X41715Y47587D02*
X42175Y48047D01*
X41275Y47587D02*
X41715Y47587D01*
X34843Y42115D02*
X34635Y41907D01*
X34635Y41907D02*
X33412Y41907D01*
X33412Y41907D02*
X32175Y43144D01*
X32175Y43144D02*
X32175Y44307D01*
X32175Y44307D02*
X35055Y47187D01*
X35055Y47187D02*
X36695Y47187D01*
X34843Y42547D02*
X34843Y42115D01*
X34843Y42547D02*
X34843Y42115D01*
X35055Y47187D02*
X36695Y47187D01*
X32175Y44307D02*
X35055Y47187D01*
X32175Y43144D02*
X32175Y44307D01*
X33412Y41907D02*
X32175Y43144D01*
X34635Y41907D02*
X33412Y41907D01*
X34843Y42115D02*
X34635Y41907D01*
X41275Y47587D02*
X41715Y47587D01*
X41715Y47587D02*
X42175Y48047D01*
X36695Y47187D02*
X38895Y49387D01*
X38895Y49387D02*
X39215Y49387D01*
X39215Y49387D02*
X41555Y51727D01*
X41555Y51727D02*
X41555Y52087D01*
X41555Y52087D02*
X42235Y52767D01*
X42235Y52767D02*
X42595Y52767D01*
X44595Y50567D02*
X44615Y50547D01*
X44595Y50567D02*
X44615Y50547D01*
X42235Y52767D02*
X42595Y52767D01*
X41555Y52087D02*
X42235Y52767D01*
X41555Y51727D02*
X41555Y52087D01*
X39215Y49387D02*
X41555Y51727D01*
X38895Y49387D02*
X39215Y49387D01*
X36695Y47187D02*
X38895Y49387D01*
X33601Y41519D02*
X33613Y41507D01*
X33613Y41507D02*
X34609Y41507D01*
X34609Y41507D02*
X35157Y42055D01*
X34609Y41507D02*
X35157Y42055D01*
X33613Y41507D02*
X34609Y41507D01*
X33601Y41519D02*
X33613Y41507D01*
X43855Y50687D02*
X43375Y50207D01*
X43375Y50207D02*
X42675Y50207D01*
X41889Y50873D02*
X41857Y50842D01*
X41857Y50842D02*
X41302Y50842D01*
X41302Y50842D02*
X40944Y50484D01*
X40944Y50484D02*
X40944Y48918D01*
X40944Y48918D02*
X41275Y48587D01*
X35157Y42055D02*
X35157Y42547D01*
X35157Y42055D02*
X35157Y42547D01*
X40944Y48918D02*
X41275Y48587D01*
X40944Y50484D02*
X40944Y48918D01*
X41302Y50842D02*
X40944Y50484D01*
X41857Y50842D02*
X41302Y50842D01*
X41889Y50873D02*
X41857Y50842D01*
X43375Y50207D02*
X42675Y50207D01*
X43855Y50687D02*
X43375Y50207D01*
X33897Y43021D02*
X33081Y43837D01*
X33897Y42547D02*
X33897Y43021D01*
X33897Y42547D02*
X33897Y43021D01*
X33897Y43021D02*
X33081Y43837D01*
X34525Y39177D02*
X34195Y39507D01*
X34525Y39177D02*
X34195Y39507D01*
X34525Y38767D02*
X34525Y39177D01*
X34525Y38767D02*
X34525Y39177D01*
X37655Y46587D02*
X38995Y46587D01*
X37655Y46587D02*
X38995Y46587D01*
X35533Y41129D02*
X35845Y40817D01*
X35845Y40817D02*
X36565Y40817D01*
X35081Y45313D02*
X35835Y46067D01*
X37255Y46107D02*
X37275Y46087D01*
X37275Y46087D02*
X39495Y46087D01*
X37275Y46087D02*
X39495Y46087D01*
X37255Y46107D02*
X37275Y46087D01*
X35081Y45313D02*
X35835Y46067D01*
X35845Y40817D02*
X36565Y40817D01*
X35533Y41129D02*
X35845Y40817D01*
X37735Y41007D02*
X38735Y41007D01*
X37495Y40767D02*
X37735Y41007D01*
X37175Y40767D02*
X37495Y40767D01*
X37125Y40817D02*
X37175Y40767D01*
X37125Y40817D02*
X37175Y40767D01*
X37175Y40767D02*
X37495Y40767D01*
X37495Y40767D02*
X37735Y41007D01*
X37735Y41007D02*
X38735Y41007D01*
X35799Y34457D02*
X35819Y34477D01*
X35819Y34477D02*
X36687Y34477D01*
X35819Y34477D02*
X36687Y34477D01*
X35799Y34457D02*
X35819Y34477D01*
X32285Y31573D02*
X32274Y31562D01*
X32274Y31562D02*
X32274Y31551D01*
X32095Y40561D02*
X32157Y40499D01*
X32095Y40647D02*
X32095Y40561D01*
X32157Y40499D02*
X32799Y40499D01*
X32219Y41129D02*
X32215Y41129D01*
X32095Y41009D02*
X32095Y40647D01*
X32215Y41129D02*
X32095Y41009D01*
X32799Y41129D02*
X32219Y41129D01*
X32799Y41129D02*
X33601Y41129D01*
X37335Y35125D02*
X37335Y35364D01*
X36687Y34477D02*
X37335Y35125D01*
X35148Y31287D02*
X35145Y31291D01*
X36240Y31287D02*
X35148Y31287D01*
X30385Y35655D02*
X31221Y36491D01*
X30385Y34345D02*
X30385Y35655D01*
X30387Y34343D02*
X30385Y34345D01*
X32159Y31551D02*
X31823Y31887D01*
X32274Y31551D02*
X32159Y31551D01*
X33821Y36491D02*
X31221Y36491D01*
X41445Y39267D02*
X41445Y40367D01*
X41445Y40717D02*
X40655Y41507D01*
X41445Y40367D02*
X41445Y40717D01*
X38938Y39064D02*
X39795Y38207D01*
X39795Y38207D02*
X40385Y38207D01*
X40385Y38207D02*
X41445Y39267D01*
X38938Y39525D02*
X38938Y39064D01*
X41445Y39267D02*
X41445Y39237D01*
X41455Y39227D02*
X41445Y39237D01*
X39818Y43710D02*
X39995Y43887D01*
X39995Y43887D02*
X39995Y45587D01*
X39818Y43547D02*
X39818Y43710D01*
X39818Y43699D02*
X39150Y44367D01*
X39818Y43547D02*
X39818Y43699D01*
X38950Y40792D02*
X38950Y40407D01*
X38735Y41007D02*
X38950Y40792D01*
X36565Y40817D02*
X37125Y40817D01*
X38938Y40395D02*
X38950Y40407D01*
X38938Y39525D02*
X38938Y40395D01*
X41445Y40517D02*
X41835Y40907D01*
X41835Y40907D02*
X43795Y40907D01*
X43795Y40907D02*
X43975Y41087D01*
X46455Y41587D02*
X46456Y41586D01*
X46456Y41586D02*
X46456Y41566D01*
X41445Y40367D02*
X41445Y40517D01*
X40755Y43547D02*
X41155Y43147D01*
X41155Y43147D02*
X41155Y42007D01*
X41155Y42007D02*
X40655Y41507D01*
X39818Y43547D02*
X40755Y43547D01*
X37485Y49887D02*
X34255Y49887D01*
X37485Y49887D02*
X37735Y50137D01*
X39495Y46087D02*
X39995Y45587D01*
X35081Y43837D02*
X35081Y45313D01*
X27775Y44977D02*
X27815Y45017D01*
X27815Y45017D02*
X27815Y47507D01*
X27815Y47507D02*
X26195Y49127D01*
X31575Y54047D02*
X32115Y53507D01*
X32115Y53507D02*
X32115Y52107D01*
X32115Y52107D02*
X34255Y49967D01*
X34255Y49967D02*
X34255Y49887D01*
X31415Y40967D02*
X31436Y40988D01*
X31436Y40988D02*
X31437Y40988D01*
X31754Y40988D02*
X32095Y40647D01*
X31437Y40988D02*
X31754Y40988D01*
G54D30*
X36789Y35910D02*
X37335Y35364D01*
X35589Y35910D02*
X36789Y35910D01*
X35586Y35914D02*
X35589Y35910D01*
X35586Y36644D02*
X35586Y35914D01*
X35433Y36491D02*
X35586Y36644D01*
X33821Y36491D02*
X35433Y36491D01*
G54D29*
X36240Y31626D02*
X36408Y31795D01*
X36408Y31795D02*
X39015Y31795D01*
X39015Y31795D02*
X39483Y32263D01*
X39483Y32263D02*
X39483Y34799D01*
X39483Y34799D02*
X38918Y35364D01*
X38918Y35364D02*
X37335Y35364D01*
X36240Y31287D02*
X36240Y31626D01*
X36240Y31287D02*
X36240Y31626D01*
X38918Y35364D02*
X37335Y35364D01*
X39483Y34799D02*
X38918Y35364D01*
X39483Y32263D02*
X39483Y34799D01*
X39015Y31795D02*
X39483Y32263D01*
X36408Y31795D02*
X39015Y31795D01*
X36240Y31626D02*
X36408Y31795D01*
G54D30*
X33821Y36491D02*
X35433Y36491D01*
X35433Y36491D02*
X35586Y36644D01*
X35586Y36644D02*
X35586Y35914D01*
X35586Y35914D02*
X35589Y35910D01*
X35589Y35910D02*
X36789Y35910D01*
X36789Y35910D02*
X37335Y35364D01*
G54D29*
X31437Y40988D02*
X31754Y40988D01*
X31754Y40988D02*
X32095Y40647D01*
X31436Y40988D02*
X31437Y40988D01*
X31415Y40967D02*
X31436Y40988D01*
X34255Y49967D02*
X34255Y49887D01*
X32115Y52107D02*
X34255Y49967D01*
X32115Y53507D02*
X32115Y52107D01*
X31575Y54047D02*
X32115Y53507D01*
X27815Y47507D02*
X26195Y49127D01*
X27815Y45017D02*
X27815Y47507D01*
X27775Y44977D02*
X27815Y45017D01*
X35081Y43837D02*
X35081Y45313D01*
X39495Y46087D02*
X39995Y45587D01*
X37485Y49887D02*
X37735Y50137D01*
X37485Y49887D02*
X34255Y49887D01*
X39818Y43547D02*
X40755Y43547D01*
X41155Y42007D02*
X40655Y41507D01*
X41155Y43147D02*
X41155Y42007D01*
X40755Y43547D02*
X41155Y43147D01*
X41445Y40367D02*
X41445Y40517D01*
X46456Y41586D02*
X46456Y41566D01*
X46455Y41587D02*
X46456Y41586D01*
X43795Y40907D02*
X43975Y41087D01*
X41835Y40907D02*
X43795Y40907D01*
X41445Y40517D02*
X41835Y40907D01*
X38938Y39525D02*
X38938Y40395D01*
X38938Y40395D02*
X38950Y40407D01*
X36565Y40817D02*
X37125Y40817D01*
X38735Y41007D02*
X38950Y40792D01*
X38950Y40792D02*
X38950Y40407D01*
X39818Y43547D02*
X39818Y43699D01*
X39818Y43699D02*
X39150Y44367D01*
X39818Y43547D02*
X39818Y43710D01*
X39995Y43887D02*
X39995Y45587D01*
X39818Y43710D02*
X39995Y43887D01*
X41455Y39227D02*
X41445Y39237D01*
X41445Y39267D02*
X41445Y39237D01*
X38938Y39525D02*
X38938Y39064D01*
X40385Y38207D02*
X41445Y39267D01*
X39795Y38207D02*
X40385Y38207D01*
X38938Y39064D02*
X39795Y38207D01*
X41445Y40367D02*
X41445Y40717D01*
X41445Y40717D02*
X40655Y41507D01*
X41445Y39267D02*
X41445Y40367D01*
X33821Y36491D02*
X31221Y36491D01*
X32274Y31551D02*
X32159Y31551D01*
X32159Y31551D02*
X31823Y31887D01*
X30387Y34343D02*
X30385Y34345D01*
X30385Y34345D02*
X30385Y35655D01*
X30385Y35655D02*
X31221Y36491D01*
X36240Y31287D02*
X35148Y31287D01*
X35148Y31287D02*
X35145Y31291D01*
X36687Y34477D02*
X37335Y35125D01*
X37335Y35125D02*
X37335Y35364D01*
X32799Y41129D02*
X33601Y41129D01*
X32799Y41129D02*
X32219Y41129D01*
X32215Y41129D02*
X32095Y41009D01*
X32095Y41009D02*
X32095Y40647D01*
X32219Y41129D02*
X32215Y41129D01*
X32157Y40499D02*
X32799Y40499D01*
X32095Y40647D02*
X32095Y40561D01*
X32095Y40561D02*
X32157Y40499D01*
X32274Y31562D02*
X32274Y31551D01*
X32285Y31573D02*
X32274Y31562D01*
X33601Y41129D02*
X35533Y41129D01*
X33601Y41129D02*
X35533Y41129D01*
X30387Y32287D02*
X30387Y34343D01*
X30787Y31887D02*
X30387Y32287D01*
X31823Y31887D02*
X30787Y31887D01*
X31823Y31887D02*
X30787Y31887D01*
X30787Y31887D02*
X30387Y32287D01*
X30387Y32287D02*
X30387Y34343D01*
G54D30*
X28619Y39572D02*
X28705Y39487D01*
X28619Y41059D02*
X28619Y39572D01*
X28619Y41059D02*
X28619Y39572D01*
X28619Y39572D02*
X28705Y39487D01*
X30353Y42516D02*
X30415Y42577D01*
X30353Y42516D02*
X30415Y42577D01*
X29249Y42516D02*
X30353Y42516D01*
X29249Y42516D02*
X30353Y42516D01*
X28478Y42617D02*
X28580Y42516D01*
X27215Y42617D02*
X28478Y42617D01*
X27215Y42617D02*
X28478Y42617D01*
X28478Y42617D02*
X28580Y42516D01*
G54D29*
X37185Y40497D02*
X37235Y40547D01*
X36565Y40497D02*
X37185Y40497D01*
X36565Y40497D02*
X37185Y40497D01*
X37185Y40497D02*
X37235Y40547D01*
X37235Y40547D02*
X38060Y40547D01*
X38060Y40547D02*
X38200Y40407D01*
X38060Y40547D02*
X38200Y40407D01*
X37235Y40547D02*
X38060Y40547D01*
X42055Y52107D02*
X42219Y51943D01*
X42219Y51943D02*
X42219Y49359D01*
X43675Y45847D02*
X43595Y45927D01*
X43595Y45927D02*
X43595Y47983D01*
X43595Y47983D02*
X42219Y49359D01*
X32735Y52067D02*
X32767Y52099D01*
X32767Y52099D02*
X32767Y53456D01*
X32767Y52099D02*
X32767Y53456D01*
X32735Y52067D02*
X32767Y52099D01*
X43595Y47983D02*
X42219Y49359D01*
X43595Y45927D02*
X43595Y47983D01*
X43675Y45847D02*
X43595Y45927D01*
X42219Y51943D02*
X42219Y49359D01*
X42055Y52107D02*
X42219Y51943D01*
X33767Y53635D02*
X33015Y54387D01*
X33015Y54387D02*
X32815Y54387D01*
X33015Y54387D02*
X32815Y54387D01*
X33767Y53635D02*
X33015Y54387D01*
X44478Y44743D02*
X44495Y44727D01*
X45935Y46487D02*
X46055Y46607D01*
X46055Y46607D02*
X46055Y49867D01*
X46055Y49867D02*
X46055Y50247D01*
X46055Y50247D02*
X45675Y50627D01*
X45675Y50627D02*
X45675Y50687D01*
X41575Y53407D02*
X40555Y52387D01*
X40555Y52387D02*
X40555Y52127D01*
X42715Y44743D02*
X44478Y44743D01*
X33995Y53228D02*
X33767Y53456D01*
X33995Y52247D02*
X33995Y53228D01*
X33767Y53456D02*
X33767Y53635D01*
X33767Y53456D02*
X33767Y53635D01*
X33995Y52247D02*
X33995Y53228D01*
X33995Y53228D02*
X33767Y53456D01*
X42715Y44743D02*
X44478Y44743D01*
X40555Y52387D02*
X40555Y52127D01*
X41575Y53407D02*
X40555Y52387D01*
X45675Y50627D02*
X45675Y50687D01*
X46055Y50247D02*
X45675Y50627D01*
X46055Y49867D02*
X46055Y50247D01*
X46055Y46607D02*
X46055Y49867D01*
X45935Y46487D02*
X46055Y46607D01*
X44478Y44743D02*
X44495Y44727D01*
G54D30*
X34168Y34484D02*
X34158Y34493D01*
X34158Y34493D02*
X34158Y35253D01*
X34168Y34484D02*
X34168Y31314D01*
X34600Y35591D02*
X35031Y35160D01*
X35031Y35160D02*
X35589Y35160D01*
X35031Y35160D02*
X35589Y35160D01*
X34600Y35591D02*
X35031Y35160D01*
X34168Y34484D02*
X34168Y31314D01*
X34158Y34493D02*
X34158Y35253D01*
X34168Y34484D02*
X34158Y34493D01*
X33884Y31551D02*
X34145Y31291D01*
X33024Y31551D02*
X33884Y31551D01*
X34158Y35253D02*
X33821Y35591D01*
X34168Y31314D02*
X34145Y31291D01*
X33821Y35591D02*
X34600Y35591D01*
X33821Y35591D02*
X34600Y35591D01*
X34168Y31314D02*
X34145Y31291D01*
X34158Y35253D02*
X33821Y35591D01*
X33024Y31551D02*
X33884Y31551D01*
X33884Y31551D02*
X34145Y31291D01*
G54D10*
G36*
X33841Y32893D02*
X33822Y32939D01*
X33785Y32976D01*
X33738Y32996D01*
X33686Y32996D01*
X31717Y32996D01*
X31669Y32976D01*
X31633Y32939D01*
X31613Y32891D01*
X31613Y32840D01*
X31613Y32691D01*
X31250Y32691D01*
X31236Y32706D01*
X31236Y32817D01*
X31189Y32929D01*
X31104Y33015D01*
X30991Y33061D01*
X30870Y33062D01*
X30758Y33015D01*
X30672Y32929D01*
X30625Y32817D01*
X30625Y32696D01*
X30672Y32583D01*
X30757Y32497D01*
X30870Y32451D01*
X30981Y32451D01*
X31048Y32384D01*
X31107Y32345D01*
X31176Y32331D01*
X31613Y32331D01*
X31613Y32131D01*
X31632Y32083D01*
X31669Y32046D01*
X31717Y32026D01*
X31769Y32026D01*
X31872Y32026D01*
X31822Y31977D01*
X31787Y31892D01*
X31787Y31801D01*
X31787Y31678D01*
X31845Y31621D01*
X31787Y31621D01*
X31787Y31556D01*
X31778Y31566D01*
X31665Y31612D01*
X31544Y31613D01*
X31432Y31566D01*
X31353Y31487D01*
X30443Y31487D01*
X30225Y31706D01*
X30225Y34477D01*
X33835Y34477D01*
X33841Y34444D01*
X33841Y34192D01*
X33822Y34238D01*
X33785Y34275D01*
X33738Y34295D01*
X33686Y34295D01*
X31717Y34295D01*
X31669Y34275D01*
X31633Y34239D01*
X31613Y34191D01*
X31613Y34139D01*
X31613Y33430D01*
X31632Y33382D01*
X31669Y33346D01*
X31717Y33326D01*
X31769Y33326D01*
X33737Y33326D01*
X33785Y33345D01*
X33822Y33382D01*
X33841Y33428D01*
X33841Y32893D01*
X33841Y32893D01*
G37*
G54D31*
X33841Y32893D02*
X33822Y32939D01*
X33785Y32976D01*
X33738Y32996D01*
X33686Y32996D01*
X31717Y32996D01*
X31669Y32976D01*
X31633Y32939D01*
X31613Y32891D01*
X31613Y32840D01*
X31613Y32691D01*
X31250Y32691D01*
X31236Y32706D01*
X31236Y32817D01*
X31189Y32929D01*
X31104Y33015D01*
X30991Y33061D01*
X30870Y33062D01*
X30758Y33015D01*
X30672Y32929D01*
X30625Y32817D01*
X30625Y32696D01*
X30672Y32583D01*
X30757Y32497D01*
X30870Y32451D01*
X30981Y32451D01*
X31048Y32384D01*
X31107Y32345D01*
X31176Y32331D01*
X31613Y32331D01*
X31613Y32131D01*
X31632Y32083D01*
X31669Y32046D01*
X31717Y32026D01*
X31769Y32026D01*
X31872Y32026D01*
X31822Y31977D01*
X31787Y31892D01*
X31787Y31801D01*
X31787Y31678D01*
X31845Y31621D01*
X31787Y31621D01*
X31787Y31556D01*
X31778Y31566D01*
X31665Y31612D01*
X31544Y31613D01*
X31432Y31566D01*
X31353Y31487D01*
X30443Y31487D01*
X30225Y31706D01*
X30225Y34477D01*
X33835Y34477D01*
X33841Y34444D01*
X33841Y34192D01*
X33822Y34238D01*
X33785Y34275D01*
X33738Y34295D01*
X33686Y34295D01*
X31717Y34295D01*
X31669Y34275D01*
X31633Y34239D01*
X31613Y34191D01*
X31613Y34139D01*
X31613Y33430D01*
X31632Y33382D01*
X31669Y33346D01*
X31717Y33326D01*
X31769Y33326D01*
X33737Y33326D01*
X33785Y33345D01*
X33822Y33382D01*
X33841Y33428D01*
X33841Y32893D01*
G54D10*
G36*
X42244Y30537D02*
X41468Y30537D01*
X41468Y32918D01*
X41329Y33256D01*
X41071Y33514D01*
X40733Y33654D01*
X40368Y33654D01*
X40031Y33515D01*
X39773Y33257D01*
X39633Y32920D01*
X39632Y32555D01*
X39772Y32217D01*
X40030Y31959D01*
X40367Y31819D01*
X40732Y31819D01*
X41069Y31958D01*
X41328Y32216D01*
X41468Y32553D01*
X41468Y32918D01*
X41468Y30537D01*
X37376Y30537D01*
X37376Y31018D01*
X37376Y31608D01*
X37356Y31656D01*
X37319Y31693D01*
X37272Y31712D01*
X37220Y31713D01*
X36708Y31713D01*
X36693Y31707D01*
X36691Y31713D01*
X36626Y31778D01*
X36541Y31813D01*
X36367Y31812D01*
X36309Y31755D01*
X36309Y31357D01*
X36317Y31357D01*
X36317Y31217D01*
X36309Y31217D01*
X36309Y30819D01*
X36367Y30762D01*
X36541Y30762D01*
X36626Y30797D01*
X36691Y30862D01*
X36693Y30868D01*
X36707Y30862D01*
X36759Y30862D01*
X37271Y30862D01*
X37319Y30882D01*
X37356Y30918D01*
X37376Y30966D01*
X37376Y31018D01*
X37376Y30537D01*
X36170Y30537D01*
X36170Y30819D01*
X36170Y31217D01*
X35811Y31217D01*
X35753Y31160D01*
X35753Y31038D01*
X35753Y30946D01*
X35788Y30862D01*
X35853Y30797D01*
X35938Y30762D01*
X36112Y30762D01*
X36170Y30819D01*
X36170Y30537D01*
X35433Y30537D01*
X35433Y30903D01*
X35145Y31192D01*
X35046Y31094D01*
X35046Y31291D01*
X34757Y31579D01*
X34670Y31549D01*
X34607Y31348D01*
X34626Y31138D01*
X34670Y31032D01*
X34757Y31002D01*
X35046Y31291D01*
X35046Y31094D01*
X34856Y30903D01*
X34886Y30816D01*
X35087Y30753D01*
X35297Y30772D01*
X35403Y30816D01*
X35433Y30903D01*
X35433Y30537D01*
X29657Y30537D01*
X29657Y32917D01*
X29518Y33255D01*
X29260Y33513D01*
X28922Y33653D01*
X28557Y33653D01*
X28220Y33514D01*
X27962Y33256D01*
X27822Y32919D01*
X27821Y32554D01*
X27961Y32216D01*
X28219Y31958D01*
X28556Y31818D01*
X28921Y31818D01*
X29258Y31957D01*
X29517Y32215D01*
X29657Y32552D01*
X29657Y32917D01*
X29657Y30537D01*
X27055Y30537D01*
X27055Y34477D01*
X29864Y34477D01*
X29864Y31631D01*
X29878Y31562D01*
X29917Y31504D01*
X30241Y31180D01*
X30299Y31141D01*
X30369Y31127D01*
X31353Y31127D01*
X31431Y31048D01*
X31544Y31002D01*
X31665Y31002D01*
X31777Y31048D01*
X31839Y31109D01*
X31887Y31061D01*
X31972Y31026D01*
X32146Y31026D01*
X32204Y31083D01*
X32204Y31481D01*
X32196Y31481D01*
X32196Y31621D01*
X32204Y31621D01*
X32204Y31629D01*
X32343Y31629D01*
X32343Y31621D01*
X32351Y31621D01*
X32351Y31481D01*
X32343Y31481D01*
X32343Y31083D01*
X32401Y31026D01*
X32575Y31026D01*
X32660Y31061D01*
X32725Y31126D01*
X32727Y31132D01*
X32741Y31126D01*
X32793Y31126D01*
X33305Y31126D01*
X33353Y31146D01*
X33390Y31182D01*
X33407Y31224D01*
X33714Y31224D01*
X33714Y30965D01*
X33734Y30917D01*
X33771Y30880D01*
X33819Y30860D01*
X33870Y30860D01*
X34470Y30860D01*
X34518Y30880D01*
X34555Y30917D01*
X34575Y30965D01*
X34575Y31016D01*
X34575Y31616D01*
X34555Y31664D01*
X34518Y31701D01*
X34495Y31711D01*
X34495Y32674D01*
X34580Y32639D01*
X34701Y32639D01*
X34813Y32685D01*
X34873Y32745D01*
X34928Y32689D01*
X35040Y32643D01*
X35162Y32643D01*
X35274Y32689D01*
X35360Y32775D01*
X35407Y32887D01*
X35407Y33009D01*
X35360Y33121D01*
X35274Y33207D01*
X35162Y33253D01*
X35140Y33253D01*
X35140Y34258D01*
X35231Y34295D01*
X35317Y34381D01*
X35356Y34477D01*
X36873Y34477D01*
X36889Y34461D01*
X36973Y34425D01*
X37065Y34425D01*
X37207Y34425D01*
X37259Y34477D01*
X37410Y34477D01*
X37462Y34425D01*
X37604Y34425D01*
X37696Y34425D01*
X37780Y34461D01*
X37796Y34477D01*
X38869Y34477D01*
X38996Y34350D01*
X38996Y32672D01*
X38503Y32180D01*
X37676Y32180D01*
X37676Y32184D01*
X37676Y32332D01*
X38140Y32332D01*
X38209Y32346D01*
X38268Y32385D01*
X38350Y32467D01*
X38461Y32467D01*
X38573Y32513D01*
X38659Y32599D01*
X38706Y32711D01*
X38706Y32833D01*
X38706Y33583D01*
X38659Y33695D01*
X38574Y33781D01*
X38461Y33827D01*
X38350Y33828D01*
X38239Y33939D01*
X38180Y33978D01*
X38111Y33992D01*
X37676Y33992D01*
X37676Y34191D01*
X37657Y34239D01*
X37620Y34276D01*
X37572Y34296D01*
X37520Y34296D01*
X35552Y34296D01*
X35504Y34276D01*
X35467Y34240D01*
X35447Y34192D01*
X35447Y34140D01*
X35447Y33431D01*
X35467Y33383D01*
X35504Y33347D01*
X35552Y33327D01*
X35603Y33327D01*
X37572Y33327D01*
X37620Y33346D01*
X37657Y33383D01*
X37676Y33431D01*
X37676Y33483D01*
X37676Y33631D01*
X38037Y33631D01*
X38095Y33572D01*
X38095Y33462D01*
X38142Y33349D01*
X38227Y33263D01*
X38340Y33217D01*
X38461Y33217D01*
X38573Y33263D01*
X38659Y33349D01*
X38706Y33461D01*
X38706Y33583D01*
X38706Y32833D01*
X38659Y32945D01*
X38574Y33031D01*
X38461Y33077D01*
X38340Y33078D01*
X38228Y33031D01*
X38142Y32945D01*
X38095Y32833D01*
X38095Y32722D01*
X38066Y32692D01*
X37676Y32692D01*
X37676Y32892D01*
X37657Y32940D01*
X37620Y32977D01*
X37572Y32997D01*
X37520Y32997D01*
X36867Y32997D01*
X36761Y33040D01*
X36640Y33041D01*
X36534Y32997D01*
X35552Y32997D01*
X35504Y32977D01*
X35467Y32940D01*
X35447Y32892D01*
X35447Y32841D01*
X35447Y32132D01*
X35467Y32084D01*
X35483Y32068D01*
X35409Y32038D01*
X35323Y31952D01*
X35276Y31840D01*
X35276Y31805D01*
X35202Y31828D01*
X34992Y31809D01*
X34886Y31765D01*
X34856Y31678D01*
X35145Y31389D01*
X35150Y31395D01*
X35249Y31296D01*
X35243Y31291D01*
X35532Y31002D01*
X35619Y31032D01*
X35682Y31233D01*
X35663Y31443D01*
X35650Y31477D01*
X35753Y31519D01*
X35753Y31414D01*
X35811Y31357D01*
X36170Y31357D01*
X36170Y31755D01*
X36112Y31812D01*
X35938Y31813D01*
X35887Y31791D01*
X35887Y31819D01*
X38578Y31819D01*
X38647Y31833D01*
X38705Y31872D01*
X39304Y32470D01*
X39304Y32470D01*
X39304Y32470D01*
X39327Y32505D01*
X39343Y32529D01*
X39343Y32529D01*
X39356Y32598D01*
X39356Y34425D01*
X39346Y34477D01*
X42244Y34477D01*
X42244Y30537D01*
X42244Y30537D01*
G37*
G54D31*
X42244Y30537D02*
X41468Y30537D01*
X41468Y32918D01*
X41329Y33256D01*
X41071Y33514D01*
X40733Y33654D01*
X40368Y33654D01*
X40031Y33515D01*
X39773Y33257D01*
X39633Y32920D01*
X39632Y32555D01*
X39772Y32217D01*
X40030Y31959D01*
X40367Y31819D01*
X40732Y31819D01*
X41069Y31958D01*
X41328Y32216D01*
X41468Y32553D01*
X41468Y32918D01*
X41468Y30537D01*
X37376Y30537D01*
X37376Y31018D01*
X37376Y31608D01*
X37356Y31656D01*
X37319Y31693D01*
X37272Y31712D01*
X37220Y31713D01*
X36708Y31713D01*
X36693Y31707D01*
X36691Y31713D01*
X36626Y31778D01*
X36541Y31813D01*
X36367Y31812D01*
X36309Y31755D01*
X36309Y31357D01*
X36317Y31357D01*
X36317Y31217D01*
X36309Y31217D01*
X36309Y30819D01*
X36367Y30762D01*
X36541Y30762D01*
X36626Y30797D01*
X36691Y30862D01*
X36693Y30868D01*
X36707Y30862D01*
X36759Y30862D01*
X37271Y30862D01*
X37319Y30882D01*
X37356Y30918D01*
X37376Y30966D01*
X37376Y31018D01*
X37376Y30537D01*
X36170Y30537D01*
X36170Y30819D01*
X36170Y31217D01*
X35811Y31217D01*
X35753Y31160D01*
X35753Y31038D01*
X35753Y30946D01*
X35788Y30862D01*
X35853Y30797D01*
X35938Y30762D01*
X36112Y30762D01*
X36170Y30819D01*
X36170Y30537D01*
X35433Y30537D01*
X35433Y30903D01*
X35145Y31192D01*
X35046Y31094D01*
X35046Y31291D01*
X34757Y31579D01*
X34670Y31549D01*
X34607Y31348D01*
X34626Y31138D01*
X34670Y31032D01*
X34757Y31002D01*
X35046Y31291D01*
X35046Y31094D01*
X34856Y30903D01*
X34886Y30816D01*
X35087Y30753D01*
X35297Y30772D01*
X35403Y30816D01*
X35433Y30903D01*
X35433Y30537D01*
X29657Y30537D01*
X29657Y32917D01*
X29518Y33255D01*
X29260Y33513D01*
X28922Y33653D01*
X28557Y33653D01*
X28220Y33514D01*
X27962Y33256D01*
X27822Y32919D01*
X27821Y32554D01*
X27961Y32216D01*
X28219Y31958D01*
X28556Y31818D01*
X28921Y31818D01*
X29258Y31957D01*
X29517Y32215D01*
X29657Y32552D01*
X29657Y32917D01*
X29657Y30537D01*
X27055Y30537D01*
X27055Y34477D01*
X29864Y34477D01*
X29864Y31631D01*
X29878Y31562D01*
X29917Y31504D01*
X30241Y31180D01*
X30299Y31141D01*
X30369Y31127D01*
X31353Y31127D01*
X31431Y31048D01*
X31544Y31002D01*
X31665Y31002D01*
X31777Y31048D01*
X31839Y31109D01*
X31887Y31061D01*
X31972Y31026D01*
X32146Y31026D01*
X32204Y31083D01*
X32204Y31481D01*
X32196Y31481D01*
X32196Y31621D01*
X32204Y31621D01*
X32204Y31629D01*
X32343Y31629D01*
X32343Y31621D01*
X32351Y31621D01*
X32351Y31481D01*
X32343Y31481D01*
X32343Y31083D01*
X32401Y31026D01*
X32575Y31026D01*
X32660Y31061D01*
X32725Y31126D01*
X32727Y31132D01*
X32741Y31126D01*
X32793Y31126D01*
X33305Y31126D01*
X33353Y31146D01*
X33390Y31182D01*
X33407Y31224D01*
X33714Y31224D01*
X33714Y30965D01*
X33734Y30917D01*
X33771Y30880D01*
X33819Y30860D01*
X33870Y30860D01*
X34470Y30860D01*
X34518Y30880D01*
X34555Y30917D01*
X34575Y30965D01*
X34575Y31016D01*
X34575Y31616D01*
X34555Y31664D01*
X34518Y31701D01*
X34495Y31711D01*
X34495Y32674D01*
X34580Y32639D01*
X34701Y32639D01*
X34813Y32685D01*
X34873Y32745D01*
X34928Y32689D01*
X35040Y32643D01*
X35162Y32643D01*
X35274Y32689D01*
X35360Y32775D01*
X35407Y32887D01*
X35407Y33009D01*
X35360Y33121D01*
X35274Y33207D01*
X35162Y33253D01*
X35140Y33253D01*
X35140Y34258D01*
X35231Y34295D01*
X35317Y34381D01*
X35356Y34477D01*
X36873Y34477D01*
X36889Y34461D01*
X36973Y34425D01*
X37065Y34425D01*
X37207Y34425D01*
X37259Y34477D01*
X37410Y34477D01*
X37462Y34425D01*
X37604Y34425D01*
X37696Y34425D01*
X37780Y34461D01*
X37796Y34477D01*
X38869Y34477D01*
X38996Y34350D01*
X38996Y32672D01*
X38503Y32180D01*
X37676Y32180D01*
X37676Y32184D01*
X37676Y32332D01*
X38140Y32332D01*
X38209Y32346D01*
X38268Y32385D01*
X38350Y32467D01*
X38461Y32467D01*
X38573Y32513D01*
X38659Y32599D01*
X38706Y32711D01*
X38706Y32833D01*
X38706Y33583D01*
X38659Y33695D01*
X38574Y33781D01*
X38461Y33827D01*
X38350Y33828D01*
X38239Y33939D01*
X38180Y33978D01*
X38111Y33992D01*
X37676Y33992D01*
X37676Y34191D01*
X37657Y34239D01*
X37620Y34276D01*
X37572Y34296D01*
X37520Y34296D01*
X35552Y34296D01*
X35504Y34276D01*
X35467Y34240D01*
X35447Y34192D01*
X35447Y34140D01*
X35447Y33431D01*
X35467Y33383D01*
X35504Y33347D01*
X35552Y33327D01*
X35603Y33327D01*
X37572Y33327D01*
X37620Y33346D01*
X37657Y33383D01*
X37676Y33431D01*
X37676Y33483D01*
X37676Y33631D01*
X38037Y33631D01*
X38095Y33572D01*
X38095Y33462D01*
X38142Y33349D01*
X38227Y33263D01*
X38340Y33217D01*
X38461Y33217D01*
X38573Y33263D01*
X38659Y33349D01*
X38706Y33461D01*
X38706Y33583D01*
X38706Y32833D01*
X38659Y32945D01*
X38574Y33031D01*
X38461Y33077D01*
X38340Y33078D01*
X38228Y33031D01*
X38142Y32945D01*
X38095Y32833D01*
X38095Y32722D01*
X38066Y32692D01*
X37676Y32692D01*
X37676Y32892D01*
X37657Y32940D01*
X37620Y32977D01*
X37572Y32997D01*
X37520Y32997D01*
X36867Y32997D01*
X36761Y33040D01*
X36640Y33041D01*
X36534Y32997D01*
X35552Y32997D01*
X35504Y32977D01*
X35467Y32940D01*
X35447Y32892D01*
X35447Y32841D01*
X35447Y32132D01*
X35467Y32084D01*
X35483Y32068D01*
X35409Y32038D01*
X35323Y31952D01*
X35276Y31840D01*
X35276Y31805D01*
X35202Y31828D01*
X34992Y31809D01*
X34886Y31765D01*
X34856Y31678D01*
X35145Y31389D01*
X35150Y31395D01*
X35249Y31296D01*
X35243Y31291D01*
X35532Y31002D01*
X35619Y31032D01*
X35682Y31233D01*
X35663Y31443D01*
X35650Y31477D01*
X35753Y31519D01*
X35753Y31414D01*
X35811Y31357D01*
X36170Y31357D01*
X36170Y31755D01*
X36112Y31812D01*
X35938Y31813D01*
X35887Y31791D01*
X35887Y31819D01*
X38578Y31819D01*
X38647Y31833D01*
X38705Y31872D01*
X39304Y32470D01*
X39304Y32470D01*
X39304Y32470D01*
X39327Y32505D01*
X39343Y32529D01*
X39343Y32529D01*
X39356Y32598D01*
X39356Y34425D01*
X39346Y34477D01*
X42244Y34477D01*
X42244Y30537D01*
G54D10*
G36*
X35185Y43832D02*
X35086Y43733D01*
X35081Y43739D01*
X35075Y43733D01*
X34976Y43832D01*
X34982Y43837D01*
X34976Y43843D01*
X35075Y43941D01*
X35081Y43936D01*
X35086Y43941D01*
X35185Y43843D01*
X35179Y43837D01*
X35185Y43832D01*
X35185Y43832D01*
G37*
G54D31*
X35185Y43832D02*
X35086Y43733D01*
X35081Y43739D01*
X35075Y43733D01*
X34976Y43832D01*
X34982Y43837D01*
X34976Y43843D01*
X35075Y43941D01*
X35081Y43936D01*
X35086Y43941D01*
X35185Y43843D01*
X35179Y43837D01*
X35185Y43832D01*
G54D10*
G36*
X40194Y51037D02*
X34425Y51037D01*
X34425Y51873D01*
X34425Y52673D01*
X34405Y52721D01*
X34368Y52758D01*
X34321Y52777D01*
X34269Y52778D01*
X34175Y52778D01*
X34175Y53228D01*
X34173Y53235D01*
X34227Y53364D01*
X34227Y53547D01*
X34157Y53716D01*
X34028Y53846D01*
X33859Y53916D01*
X33740Y53916D01*
X33142Y54515D01*
X33084Y54554D01*
X33075Y54555D01*
X33073Y54560D01*
X32988Y54646D01*
X32875Y54692D01*
X32754Y54693D01*
X32642Y54646D01*
X32556Y54560D01*
X32509Y54448D01*
X32509Y54327D01*
X32556Y54214D01*
X32641Y54128D01*
X32754Y54082D01*
X32875Y54082D01*
X32987Y54128D01*
X33003Y54144D01*
X33403Y53744D01*
X33377Y53717D01*
X33306Y53548D01*
X33306Y53365D01*
X33376Y53196D01*
X33506Y53066D01*
X33675Y52996D01*
X33814Y52996D01*
X33814Y52778D01*
X33669Y52778D01*
X33621Y52758D01*
X33584Y52721D01*
X33564Y52673D01*
X33564Y52621D01*
X33564Y51821D01*
X33584Y51773D01*
X33621Y51737D01*
X33669Y51717D01*
X33720Y51717D01*
X34320Y51717D01*
X34368Y51737D01*
X34405Y51773D01*
X34425Y51821D01*
X34425Y51873D01*
X34425Y51037D01*
X33227Y51037D01*
X33227Y53547D01*
X33157Y53716D01*
X33028Y53846D01*
X32859Y53916D01*
X32675Y53916D01*
X32506Y53846D01*
X32377Y53717D01*
X32306Y53548D01*
X32306Y53365D01*
X32376Y53196D01*
X32506Y53066D01*
X32586Y53032D01*
X32586Y52336D01*
X32562Y52326D01*
X32476Y52240D01*
X32429Y52128D01*
X32429Y52007D01*
X32476Y51894D01*
X32561Y51808D01*
X32674Y51762D01*
X32795Y51762D01*
X32907Y51808D01*
X32993Y51894D01*
X33040Y52006D01*
X33040Y52128D01*
X32993Y52240D01*
X32947Y52287D01*
X32947Y53032D01*
X33027Y53066D01*
X33157Y53195D01*
X33227Y53364D01*
X33227Y53547D01*
X33227Y51037D01*
X29095Y51037D01*
X29133Y51053D01*
X29263Y51183D01*
X29333Y51352D01*
X29333Y51535D01*
X29263Y51704D01*
X29134Y51834D01*
X29017Y51883D01*
X29127Y51928D01*
X29213Y52014D01*
X29228Y52050D01*
X29228Y51935D01*
X29298Y51766D01*
X29427Y51637D01*
X29597Y51566D01*
X29780Y51566D01*
X29949Y51636D01*
X30079Y51765D01*
X30149Y51935D01*
X30149Y52118D01*
X30079Y52287D01*
X30016Y52350D01*
X30016Y52972D01*
X30016Y53821D01*
X31745Y55550D01*
X35566Y55550D01*
X36056Y55550D01*
X36195Y55411D01*
X36195Y53780D01*
X36133Y53717D01*
X36062Y53548D01*
X36062Y53365D01*
X36132Y53196D01*
X36195Y53132D01*
X36195Y53060D01*
X35983Y52848D01*
X35983Y53547D01*
X35913Y53716D01*
X35784Y53846D01*
X35614Y53916D01*
X35431Y53916D01*
X35262Y53846D01*
X35133Y53717D01*
X35062Y53548D01*
X35062Y53365D01*
X35132Y53196D01*
X35261Y53066D01*
X35431Y52996D01*
X35614Y52996D01*
X35783Y53066D01*
X35913Y53195D01*
X35983Y53364D01*
X35983Y53547D01*
X35983Y52848D01*
X35725Y52590D01*
X35725Y52673D01*
X35705Y52721D01*
X35668Y52758D01*
X35621Y52777D01*
X35569Y52778D01*
X34969Y52778D01*
X34921Y52758D01*
X34884Y52721D01*
X34864Y52673D01*
X34864Y52621D01*
X34864Y51821D01*
X34884Y51773D01*
X34921Y51737D01*
X34969Y51717D01*
X35020Y51717D01*
X35620Y51717D01*
X35668Y51737D01*
X35705Y51773D01*
X35725Y51821D01*
X35725Y51873D01*
X35725Y51920D01*
X35845Y51920D01*
X35970Y51945D01*
X36077Y52016D01*
X36754Y52693D01*
X36825Y52799D01*
X36850Y52925D01*
X36850Y53129D01*
X38131Y53129D01*
X39141Y52119D01*
X39140Y52118D01*
X39140Y51935D01*
X39210Y51766D01*
X39340Y51637D01*
X39369Y51624D01*
X38028Y51624D01*
X38013Y51660D01*
X37928Y51746D01*
X37815Y51792D01*
X37694Y51793D01*
X37582Y51746D01*
X37496Y51660D01*
X37449Y51548D01*
X37449Y51427D01*
X37496Y51314D01*
X37581Y51228D01*
X37694Y51182D01*
X37815Y51182D01*
X37927Y51228D01*
X37963Y51263D01*
X39993Y51263D01*
X40026Y51183D01*
X40155Y51054D01*
X40194Y51037D01*
X40194Y51037D01*
G37*
G54D31*
X40194Y51037D02*
X34425Y51037D01*
X34425Y51873D01*
X34425Y52673D01*
X34405Y52721D01*
X34368Y52758D01*
X34321Y52777D01*
X34269Y52778D01*
X34175Y52778D01*
X34175Y53228D01*
X34173Y53235D01*
X34227Y53364D01*
X34227Y53547D01*
X34157Y53716D01*
X34028Y53846D01*
X33859Y53916D01*
X33740Y53916D01*
X33142Y54515D01*
X33084Y54554D01*
X33075Y54555D01*
X33073Y54560D01*
X32988Y54646D01*
X32875Y54692D01*
X32754Y54693D01*
X32642Y54646D01*
X32556Y54560D01*
X32509Y54448D01*
X32509Y54327D01*
X32556Y54214D01*
X32641Y54128D01*
X32754Y54082D01*
X32875Y54082D01*
X32987Y54128D01*
X33003Y54144D01*
X33403Y53744D01*
X33377Y53717D01*
X33306Y53548D01*
X33306Y53365D01*
X33376Y53196D01*
X33506Y53066D01*
X33675Y52996D01*
X33814Y52996D01*
X33814Y52778D01*
X33669Y52778D01*
X33621Y52758D01*
X33584Y52721D01*
X33564Y52673D01*
X33564Y52621D01*
X33564Y51821D01*
X33584Y51773D01*
X33621Y51737D01*
X33669Y51717D01*
X33720Y51717D01*
X34320Y51717D01*
X34368Y51737D01*
X34405Y51773D01*
X34425Y51821D01*
X34425Y51873D01*
X34425Y51037D01*
X33227Y51037D01*
X33227Y53547D01*
X33157Y53716D01*
X33028Y53846D01*
X32859Y53916D01*
X32675Y53916D01*
X32506Y53846D01*
X32377Y53717D01*
X32306Y53548D01*
X32306Y53365D01*
X32376Y53196D01*
X32506Y53066D01*
X32586Y53032D01*
X32586Y52336D01*
X32562Y52326D01*
X32476Y52240D01*
X32429Y52128D01*
X32429Y52007D01*
X32476Y51894D01*
X32561Y51808D01*
X32674Y51762D01*
X32795Y51762D01*
X32907Y51808D01*
X32993Y51894D01*
X33040Y52006D01*
X33040Y52128D01*
X32993Y52240D01*
X32947Y52287D01*
X32947Y53032D01*
X33027Y53066D01*
X33157Y53195D01*
X33227Y53364D01*
X33227Y53547D01*
X33227Y51037D01*
X29095Y51037D01*
X29133Y51053D01*
X29263Y51183D01*
X29333Y51352D01*
X29333Y51535D01*
X29263Y51704D01*
X29134Y51834D01*
X29017Y51883D01*
X29127Y51928D01*
X29213Y52014D01*
X29228Y52050D01*
X29228Y51935D01*
X29298Y51766D01*
X29427Y51637D01*
X29597Y51566D01*
X29780Y51566D01*
X29949Y51636D01*
X30079Y51765D01*
X30149Y51935D01*
X30149Y52118D01*
X30079Y52287D01*
X30016Y52350D01*
X30016Y52972D01*
X30016Y53821D01*
X31745Y55550D01*
X35566Y55550D01*
X36056Y55550D01*
X36195Y55411D01*
X36195Y53780D01*
X36133Y53717D01*
X36062Y53548D01*
X36062Y53365D01*
X36132Y53196D01*
X36195Y53132D01*
X36195Y53060D01*
X35983Y52848D01*
X35983Y53547D01*
X35913Y53716D01*
X35784Y53846D01*
X35614Y53916D01*
X35431Y53916D01*
X35262Y53846D01*
X35133Y53717D01*
X35062Y53548D01*
X35062Y53365D01*
X35132Y53196D01*
X35261Y53066D01*
X35431Y52996D01*
X35614Y52996D01*
X35783Y53066D01*
X35913Y53195D01*
X35983Y53364D01*
X35983Y53547D01*
X35983Y52848D01*
X35725Y52590D01*
X35725Y52673D01*
X35705Y52721D01*
X35668Y52758D01*
X35621Y52777D01*
X35569Y52778D01*
X34969Y52778D01*
X34921Y52758D01*
X34884Y52721D01*
X34864Y52673D01*
X34864Y52621D01*
X34864Y51821D01*
X34884Y51773D01*
X34921Y51737D01*
X34969Y51717D01*
X35020Y51717D01*
X35620Y51717D01*
X35668Y51737D01*
X35705Y51773D01*
X35725Y51821D01*
X35725Y51873D01*
X35725Y51920D01*
X35845Y51920D01*
X35970Y51945D01*
X36077Y52016D01*
X36754Y52693D01*
X36825Y52799D01*
X36850Y52925D01*
X36850Y53129D01*
X38131Y53129D01*
X39141Y52119D01*
X39140Y52118D01*
X39140Y51935D01*
X39210Y51766D01*
X39340Y51637D01*
X39369Y51624D01*
X38028Y51624D01*
X38013Y51660D01*
X37928Y51746D01*
X37815Y51792D01*
X37694Y51793D01*
X37582Y51746D01*
X37496Y51660D01*
X37449Y51548D01*
X37449Y51427D01*
X37496Y51314D01*
X37581Y51228D01*
X37694Y51182D01*
X37815Y51182D01*
X37927Y51228D01*
X37963Y51263D01*
X39993Y51263D01*
X40026Y51183D01*
X40155Y51054D01*
X40194Y51037D01*
G54D10*
G36*
X43482Y45607D02*
X42175Y45607D01*
X42105Y45594D01*
X42047Y45555D01*
X42047Y45555D01*
X42047Y45555D01*
X41445Y44952D01*
X41334Y44953D01*
X41222Y44906D01*
X41136Y44820D01*
X41089Y44708D01*
X41089Y44695D01*
X41015Y44770D01*
X40902Y44816D01*
X40781Y44816D01*
X40669Y44770D01*
X40583Y44684D01*
X40536Y44572D01*
X40536Y44521D01*
X40455Y44602D01*
X40455Y44712D01*
X40762Y45020D01*
X40762Y45020D01*
X40762Y45020D01*
X40801Y45078D01*
X40801Y45078D01*
X40812Y45133D01*
X40815Y45147D01*
X40815Y45147D01*
X40815Y45147D01*
X40815Y46323D01*
X40887Y46298D01*
X41176Y46587D01*
X40887Y46876D01*
X40810Y46850D01*
X40801Y46896D01*
X40801Y46896D01*
X40762Y46955D01*
X40762Y46955D01*
X40555Y47162D01*
X40555Y47887D01*
X40966Y47887D01*
X40910Y47831D01*
X40844Y47673D01*
X40844Y47502D01*
X40909Y47344D01*
X41030Y47223D01*
X41189Y47157D01*
X41360Y47157D01*
X41518Y47222D01*
X41639Y47343D01*
X41666Y47407D01*
X41715Y47407D01*
X41784Y47421D01*
X41842Y47460D01*
X42124Y47742D01*
X42235Y47742D01*
X42347Y47788D01*
X42433Y47874D01*
X42480Y47986D01*
X42480Y48108D01*
X42433Y48220D01*
X42407Y48247D01*
X42780Y48247D01*
X43194Y47832D01*
X43194Y47036D01*
X42887Y46729D01*
X42807Y46763D01*
X42639Y46763D01*
X42718Y46842D01*
X42807Y46842D01*
X42976Y46912D01*
X43105Y47041D01*
X43176Y47210D01*
X43176Y47394D01*
X43106Y47563D01*
X42977Y47692D01*
X42807Y47763D01*
X42624Y47763D01*
X42455Y47693D01*
X42325Y47564D01*
X42255Y47394D01*
X42255Y47305D01*
X41763Y46813D01*
X41749Y46846D01*
X41662Y46876D01*
X41563Y46777D01*
X41563Y46975D01*
X41533Y47062D01*
X41332Y47125D01*
X41122Y47106D01*
X41016Y47062D01*
X40986Y46975D01*
X41275Y46686D01*
X41563Y46975D01*
X41563Y46777D01*
X41373Y46587D01*
X41379Y46582D01*
X41280Y46483D01*
X41275Y46489D01*
X40986Y46200D01*
X41016Y46112D01*
X41217Y46050D01*
X41424Y46068D01*
X41369Y46014D01*
X41360Y46017D01*
X41189Y46018D01*
X41031Y45952D01*
X40910Y45831D01*
X40844Y45673D01*
X40844Y45502D01*
X40909Y45344D01*
X41030Y45223D01*
X41189Y45157D01*
X41360Y45157D01*
X41518Y45222D01*
X41639Y45343D01*
X41650Y45368D01*
X42211Y45929D01*
X42281Y46036D01*
X42296Y46111D01*
X42325Y46042D01*
X42454Y45912D01*
X42623Y45842D01*
X42807Y45842D01*
X42976Y45912D01*
X43105Y46041D01*
X43176Y46210D01*
X43176Y46394D01*
X43142Y46474D01*
X43414Y46746D01*
X43414Y46016D01*
X43369Y45908D01*
X43369Y45787D01*
X43416Y45674D01*
X43482Y45607D01*
X43482Y45607D01*
G37*
G54D31*
X43482Y45607D02*
X42175Y45607D01*
X42105Y45594D01*
X42047Y45555D01*
X42047Y45555D01*
X42047Y45555D01*
X41445Y44952D01*
X41334Y44953D01*
X41222Y44906D01*
X41136Y44820D01*
X41089Y44708D01*
X41089Y44695D01*
X41015Y44770D01*
X40902Y44816D01*
X40781Y44816D01*
X40669Y44770D01*
X40583Y44684D01*
X40536Y44572D01*
X40536Y44521D01*
X40455Y44602D01*
X40455Y44712D01*
X40762Y45020D01*
X40762Y45020D01*
X40762Y45020D01*
X40801Y45078D01*
X40801Y45078D01*
X40812Y45133D01*
X40815Y45147D01*
X40815Y45147D01*
X40815Y45147D01*
X40815Y46323D01*
X40887Y46298D01*
X41176Y46587D01*
X40887Y46876D01*
X40810Y46850D01*
X40801Y46896D01*
X40801Y46896D01*
X40762Y46955D01*
X40762Y46955D01*
X40555Y47162D01*
X40555Y47887D01*
X40966Y47887D01*
X40910Y47831D01*
X40844Y47673D01*
X40844Y47502D01*
X40909Y47344D01*
X41030Y47223D01*
X41189Y47157D01*
X41360Y47157D01*
X41518Y47222D01*
X41639Y47343D01*
X41666Y47407D01*
X41715Y47407D01*
X41784Y47421D01*
X41842Y47460D01*
X42124Y47742D01*
X42235Y47742D01*
X42347Y47788D01*
X42433Y47874D01*
X42480Y47986D01*
X42480Y48108D01*
X42433Y48220D01*
X42407Y48247D01*
X42780Y48247D01*
X43194Y47832D01*
X43194Y47036D01*
X42887Y46729D01*
X42807Y46763D01*
X42639Y46763D01*
X42718Y46842D01*
X42807Y46842D01*
X42976Y46912D01*
X43105Y47041D01*
X43176Y47210D01*
X43176Y47394D01*
X43106Y47563D01*
X42977Y47692D01*
X42807Y47763D01*
X42624Y47763D01*
X42455Y47693D01*
X42325Y47564D01*
X42255Y47394D01*
X42255Y47305D01*
X41763Y46813D01*
X41749Y46846D01*
X41662Y46876D01*
X41563Y46777D01*
X41563Y46975D01*
X41533Y47062D01*
X41332Y47125D01*
X41122Y47106D01*
X41016Y47062D01*
X40986Y46975D01*
X41275Y46686D01*
X41563Y46975D01*
X41563Y46777D01*
X41373Y46587D01*
X41379Y46582D01*
X41280Y46483D01*
X41275Y46489D01*
X40986Y46200D01*
X41016Y46112D01*
X41217Y46050D01*
X41424Y46068D01*
X41369Y46014D01*
X41360Y46017D01*
X41189Y46018D01*
X41031Y45952D01*
X40910Y45831D01*
X40844Y45673D01*
X40844Y45502D01*
X40909Y45344D01*
X41030Y45223D01*
X41189Y45157D01*
X41360Y45157D01*
X41518Y45222D01*
X41639Y45343D01*
X41650Y45368D01*
X42211Y45929D01*
X42281Y46036D01*
X42296Y46111D01*
X42325Y46042D01*
X42454Y45912D01*
X42623Y45842D01*
X42807Y45842D01*
X42976Y45912D01*
X43105Y46041D01*
X43176Y46210D01*
X43176Y46394D01*
X43142Y46474D01*
X43414Y46746D01*
X43414Y46016D01*
X43369Y45908D01*
X43369Y45787D01*
X43416Y45674D01*
X43482Y45607D01*
G54D10*
G36*
X47244Y40537D02*
X47040Y40537D01*
X47040Y40824D01*
X47040Y42308D01*
X47040Y42400D01*
X47005Y42484D01*
X46940Y42549D01*
X46856Y42584D01*
X46583Y42584D01*
X46525Y42526D01*
X46525Y41636D01*
X46983Y41636D01*
X47040Y41693D01*
X47040Y42308D01*
X47040Y40824D01*
X47040Y41439D01*
X46983Y41497D01*
X46525Y41497D01*
X46525Y40606D01*
X46583Y40549D01*
X46856Y40548D01*
X46940Y40583D01*
X47005Y40648D01*
X47040Y40733D01*
X47040Y40824D01*
X47040Y40537D01*
X46386Y40537D01*
X46386Y40606D01*
X46386Y41497D01*
X46386Y41636D01*
X46386Y42526D01*
X46328Y42584D01*
X46056Y42584D01*
X45971Y42549D01*
X45906Y42484D01*
X45871Y42400D01*
X45871Y42308D01*
X45871Y41693D01*
X45929Y41636D01*
X46386Y41636D01*
X46386Y41497D01*
X45929Y41497D01*
X45871Y41439D01*
X45871Y40824D01*
X45871Y40733D01*
X45906Y40648D01*
X45971Y40583D01*
X46056Y40548D01*
X46328Y40549D01*
X46386Y40606D01*
X46386Y40537D01*
X42244Y40537D01*
X42244Y35537D01*
X41975Y35537D01*
X41975Y38913D01*
X41975Y39622D01*
X41975Y39713D01*
X41940Y39798D01*
X41920Y39817D01*
X41940Y39837D01*
X41975Y39921D01*
X41975Y40013D01*
X41975Y40722D01*
X41975Y40813D01*
X41940Y40898D01*
X41875Y40963D01*
X41790Y40998D01*
X41572Y40997D01*
X41514Y40940D01*
X41514Y40437D01*
X41917Y40437D01*
X41975Y40494D01*
X41975Y40722D01*
X41975Y40013D01*
X41975Y40240D01*
X41917Y40297D01*
X41514Y40297D01*
X41514Y39840D01*
X41514Y39794D01*
X41514Y39337D01*
X41917Y39337D01*
X41975Y39394D01*
X41975Y39622D01*
X41975Y38913D01*
X41975Y39140D01*
X41917Y39197D01*
X41514Y39197D01*
X41514Y38694D01*
X41572Y38637D01*
X41790Y38637D01*
X41875Y38672D01*
X41940Y38737D01*
X41975Y38821D01*
X41975Y38913D01*
X41975Y35537D01*
X41468Y35537D01*
X41468Y36721D01*
X41375Y36947D01*
X41375Y38694D01*
X41375Y39197D01*
X41375Y39337D01*
X41375Y39794D01*
X41375Y39840D01*
X41375Y40297D01*
X41375Y40437D01*
X41375Y40940D01*
X41317Y40997D01*
X41192Y40998D01*
X41192Y41450D01*
X41173Y41660D01*
X41129Y41766D01*
X41085Y41781D01*
X41085Y42592D01*
X41020Y42751D01*
X40899Y42872D01*
X40756Y42931D01*
X40756Y43278D01*
X40756Y43420D01*
X40699Y43477D01*
X39887Y43477D01*
X39887Y43470D01*
X39748Y43470D01*
X39748Y43477D01*
X39748Y43617D01*
X39748Y44035D01*
X39690Y44092D01*
X39063Y44093D01*
X38979Y44058D01*
X38914Y43993D01*
X38879Y43908D01*
X38879Y43817D01*
X38879Y43674D01*
X38936Y43617D01*
X39748Y43617D01*
X39748Y43477D01*
X38936Y43477D01*
X38879Y43420D01*
X38879Y43278D01*
X38879Y43186D01*
X38914Y43102D01*
X38979Y43037D01*
X39063Y43002D01*
X39408Y43002D01*
X39369Y42908D01*
X39369Y42787D01*
X39416Y42674D01*
X39494Y42596D01*
X39494Y42271D01*
X39482Y42266D01*
X39396Y42180D01*
X39349Y42068D01*
X39349Y41947D01*
X39396Y41834D01*
X39481Y41748D01*
X39594Y41702D01*
X39715Y41702D01*
X39827Y41748D01*
X39913Y41834D01*
X39960Y41946D01*
X39960Y42068D01*
X39913Y42180D01*
X39855Y42239D01*
X39855Y42596D01*
X39933Y42674D01*
X39980Y42786D01*
X39980Y42908D01*
X39938Y43008D01*
X39945Y43002D01*
X40572Y43002D01*
X40656Y43037D01*
X40721Y43102D01*
X40756Y43186D01*
X40756Y43278D01*
X40756Y42931D01*
X40740Y42937D01*
X40569Y42938D01*
X40411Y42872D01*
X40290Y42751D01*
X40224Y42593D01*
X40224Y42422D01*
X40289Y42264D01*
X40410Y42143D01*
X40569Y42077D01*
X40740Y42077D01*
X40898Y42142D01*
X41019Y42263D01*
X41085Y42421D01*
X41085Y42592D01*
X41085Y41781D01*
X41042Y41796D01*
X40943Y41697D01*
X40943Y41895D01*
X40913Y41982D01*
X40712Y42045D01*
X40502Y42026D01*
X40396Y41982D01*
X40366Y41895D01*
X40655Y41606D01*
X40943Y41895D01*
X40943Y41697D01*
X40753Y41507D01*
X41042Y41218D01*
X41129Y41248D01*
X41192Y41450D01*
X41192Y40998D01*
X41099Y40998D01*
X41014Y40963D01*
X40949Y40898D01*
X40943Y40883D01*
X40943Y41120D01*
X40655Y41409D01*
X40556Y41310D01*
X40556Y41507D01*
X40267Y41796D01*
X40180Y41766D01*
X40117Y41565D01*
X40136Y41354D01*
X40180Y41248D01*
X40267Y41218D01*
X40556Y41507D01*
X40556Y41310D01*
X40366Y41120D01*
X40396Y41032D01*
X40597Y40970D01*
X40807Y40988D01*
X40913Y41032D01*
X40943Y41120D01*
X40943Y40883D01*
X40914Y40813D01*
X40914Y40722D01*
X40914Y40494D01*
X40972Y40437D01*
X41375Y40437D01*
X41375Y40297D01*
X40972Y40297D01*
X40914Y40240D01*
X40914Y40013D01*
X40914Y39921D01*
X40949Y39837D01*
X40969Y39817D01*
X40949Y39798D01*
X40914Y39713D01*
X40914Y39622D01*
X40914Y39394D01*
X40972Y39337D01*
X41375Y39337D01*
X41375Y39197D01*
X40972Y39197D01*
X40914Y39140D01*
X40914Y38913D01*
X40914Y38821D01*
X40949Y38737D01*
X41014Y38672D01*
X41099Y38637D01*
X41317Y38637D01*
X41375Y38694D01*
X41375Y36947D01*
X41329Y37059D01*
X41071Y37317D01*
X40733Y37457D01*
X40575Y37457D01*
X40575Y38893D01*
X40575Y39693D01*
X40555Y39741D01*
X40518Y39778D01*
X40471Y39797D01*
X40419Y39798D01*
X40019Y39798D01*
X39980Y39837D01*
X40470Y39837D01*
X40518Y39857D01*
X40555Y39893D01*
X40575Y39941D01*
X40575Y39993D01*
X40575Y40793D01*
X40555Y40841D01*
X40518Y40878D01*
X40471Y40897D01*
X40419Y40898D01*
X40039Y40898D01*
X39900Y41037D01*
X39900Y41148D01*
X39853Y41260D01*
X39768Y41346D01*
X39655Y41392D01*
X39534Y41393D01*
X39422Y41346D01*
X39336Y41260D01*
X39289Y41148D01*
X39289Y41027D01*
X39336Y40914D01*
X39421Y40828D01*
X39534Y40782D01*
X39645Y40782D01*
X39714Y40713D01*
X39714Y40279D01*
X39688Y40306D01*
X39575Y40352D01*
X39454Y40353D01*
X39436Y40345D01*
X39436Y40657D01*
X39436Y40748D01*
X39401Y40833D01*
X39336Y40898D01*
X39251Y40933D01*
X39077Y40932D01*
X39019Y40875D01*
X39019Y40477D01*
X39378Y40477D01*
X39436Y40534D01*
X39436Y40657D01*
X39436Y40345D01*
X39390Y40326D01*
X39378Y40337D01*
X39019Y40337D01*
X39019Y40005D01*
X39007Y39993D01*
X39007Y39595D01*
X39366Y39595D01*
X39424Y39652D01*
X39424Y39754D01*
X39454Y39742D01*
X39565Y39742D01*
X39714Y39593D01*
X39714Y38841D01*
X39734Y38793D01*
X39771Y38757D01*
X39818Y38737D01*
X39870Y38737D01*
X40470Y38737D01*
X40518Y38757D01*
X40555Y38793D01*
X40575Y38841D01*
X40575Y38893D01*
X40575Y37457D01*
X40368Y37458D01*
X40031Y37318D01*
X39773Y37060D01*
X39633Y36723D01*
X39632Y36358D01*
X39772Y36021D01*
X40030Y35762D01*
X40367Y35622D01*
X40732Y35622D01*
X41069Y35761D01*
X41328Y36019D01*
X41468Y36356D01*
X41468Y36721D01*
X41468Y35537D01*
X39424Y35537D01*
X39424Y39276D01*
X39424Y39398D01*
X39366Y39455D01*
X39007Y39455D01*
X39007Y39057D01*
X39065Y39000D01*
X39239Y39000D01*
X39324Y39035D01*
X39389Y39100D01*
X39424Y39184D01*
X39424Y39276D01*
X39424Y35537D01*
X37880Y35537D01*
X37880Y36118D01*
X37845Y36203D01*
X37780Y36268D01*
X37696Y36303D01*
X37604Y36303D01*
X37462Y36303D01*
X37404Y36245D01*
X37404Y35537D01*
X37265Y35537D01*
X37265Y36245D01*
X37207Y36303D01*
X37065Y36303D01*
X36973Y36303D01*
X36889Y36268D01*
X36824Y36203D01*
X36789Y36118D01*
X36789Y35537D01*
X36086Y35537D01*
X36115Y35608D01*
X36115Y36211D01*
X36086Y36282D01*
X36111Y36342D01*
X36111Y36517D01*
X36053Y36574D01*
X35655Y36574D01*
X35655Y36215D01*
X35659Y36211D01*
X35659Y35979D01*
X36057Y35979D01*
X36115Y36037D01*
X36115Y36211D01*
X36115Y35608D01*
X36115Y35782D01*
X36057Y35840D01*
X35659Y35840D01*
X35659Y35832D01*
X35520Y35832D01*
X35520Y35840D01*
X35520Y35979D01*
X35520Y36338D01*
X35516Y36342D01*
X35516Y36574D01*
X35118Y36574D01*
X35060Y36517D01*
X35060Y36342D01*
X35089Y36272D01*
X35064Y36211D01*
X35064Y36037D01*
X35122Y35979D01*
X35520Y35979D01*
X35520Y35840D01*
X35122Y35840D01*
X35064Y35782D01*
X35064Y35608D01*
X35077Y35577D01*
X34831Y35823D01*
X34725Y35893D01*
X34600Y35918D01*
X34451Y35918D01*
X34451Y36246D01*
X34451Y36737D01*
X34416Y36821D01*
X34351Y36886D01*
X34267Y36921D01*
X34175Y36922D01*
X33948Y36921D01*
X33890Y36864D01*
X33890Y36561D01*
X34393Y36561D01*
X34451Y36618D01*
X34451Y36737D01*
X34451Y36246D01*
X34451Y36364D01*
X34393Y36421D01*
X33890Y36421D01*
X33890Y36118D01*
X33948Y36061D01*
X34175Y36061D01*
X34267Y36061D01*
X34351Y36096D01*
X34416Y36161D01*
X34451Y36246D01*
X34451Y35918D01*
X34254Y35918D01*
X34247Y35921D01*
X34195Y35922D01*
X33751Y35922D01*
X33751Y36118D01*
X33751Y36421D01*
X33751Y36561D01*
X33751Y36864D01*
X33693Y36921D01*
X33466Y36922D01*
X33374Y36921D01*
X33290Y36886D01*
X33225Y36821D01*
X33190Y36737D01*
X33190Y36618D01*
X33248Y36561D01*
X33751Y36561D01*
X33751Y36421D01*
X33248Y36421D01*
X33190Y36364D01*
X33190Y36246D01*
X33225Y36161D01*
X33290Y36096D01*
X33374Y36061D01*
X33466Y36061D01*
X33693Y36061D01*
X33751Y36118D01*
X33751Y35922D01*
X33395Y35922D01*
X33347Y35902D01*
X33310Y35865D01*
X33290Y35817D01*
X33290Y35765D01*
X33290Y35537D01*
X31851Y35537D01*
X31851Y35726D01*
X31851Y37257D01*
X31816Y37341D01*
X31751Y37406D01*
X31667Y37441D01*
X31575Y37442D01*
X31348Y37441D01*
X31290Y37384D01*
X31290Y36561D01*
X31793Y36561D01*
X31851Y36618D01*
X31851Y37257D01*
X31851Y35726D01*
X31851Y36364D01*
X31793Y36421D01*
X31290Y36421D01*
X31290Y35598D01*
X31348Y35541D01*
X31575Y35541D01*
X31667Y35541D01*
X31751Y35576D01*
X31816Y35641D01*
X31851Y35726D01*
X31851Y35537D01*
X31151Y35537D01*
X31151Y35598D01*
X31151Y36421D01*
X31151Y36561D01*
X31151Y37384D01*
X31093Y37441D01*
X30866Y37442D01*
X30774Y37441D01*
X30690Y37406D01*
X30625Y37341D01*
X30590Y37257D01*
X30590Y36618D01*
X30648Y36561D01*
X31151Y36561D01*
X31151Y36421D01*
X30648Y36421D01*
X30590Y36364D01*
X30590Y35726D01*
X30625Y35641D01*
X30690Y35576D01*
X30774Y35541D01*
X30866Y35541D01*
X31093Y35541D01*
X31151Y35598D01*
X31151Y35537D01*
X30225Y35537D01*
X30225Y37792D01*
X30609Y38177D01*
X30609Y38067D01*
X30656Y37954D01*
X30741Y37868D01*
X30854Y37822D01*
X30975Y37822D01*
X31087Y37868D01*
X31166Y37947D01*
X33835Y37947D01*
X33904Y37961D01*
X33909Y37964D01*
X33909Y37927D01*
X33956Y37814D01*
X34041Y37728D01*
X34058Y37722D01*
X33395Y37722D01*
X33347Y37702D01*
X33310Y37665D01*
X33290Y37617D01*
X33290Y37565D01*
X33290Y37165D01*
X33310Y37117D01*
X33347Y37081D01*
X33394Y37061D01*
X33446Y37061D01*
X34246Y37061D01*
X34261Y37067D01*
X35132Y37067D01*
X35095Y37030D01*
X35060Y36946D01*
X35060Y36771D01*
X35118Y36714D01*
X35516Y36714D01*
X35516Y36722D01*
X35655Y36722D01*
X35655Y36714D01*
X36053Y36714D01*
X36111Y36771D01*
X36111Y36946D01*
X36076Y37030D01*
X36039Y37067D01*
X36207Y37067D01*
X36207Y36965D01*
X36184Y36846D01*
X36208Y36721D01*
X36279Y36614D01*
X36386Y36543D01*
X36511Y36519D01*
X36636Y36543D01*
X36742Y36614D01*
X36766Y36638D01*
X36766Y36638D01*
X36766Y36638D01*
X36837Y36744D01*
X36837Y36744D01*
X36857Y36844D01*
X36862Y36869D01*
X36862Y36869D01*
X36862Y36869D01*
X36862Y37059D01*
X36889Y37059D01*
X36889Y36796D01*
X36909Y36748D01*
X36946Y36711D01*
X36993Y36691D01*
X37045Y36691D01*
X37675Y36691D01*
X37723Y36711D01*
X37760Y36748D01*
X37780Y36796D01*
X37780Y36847D01*
X37780Y37220D01*
X37820Y37228D01*
X37926Y37299D01*
X38419Y37791D01*
X38419Y37791D01*
X38419Y37791D01*
X38490Y37897D01*
X38515Y38023D01*
X38515Y38522D01*
X38555Y38425D01*
X38634Y38346D01*
X38634Y36487D01*
X38555Y36409D01*
X38509Y36297D01*
X38509Y36175D01*
X38555Y36063D01*
X38641Y35977D01*
X38753Y35930D01*
X38874Y35930D01*
X38987Y35977D01*
X39073Y36062D01*
X39119Y36175D01*
X39119Y36296D01*
X39073Y36408D01*
X38994Y36487D01*
X38994Y38346D01*
X39073Y38425D01*
X39119Y38537D01*
X39119Y38658D01*
X39073Y38770D01*
X38987Y38856D01*
X38875Y38903D01*
X38753Y38903D01*
X38641Y38857D01*
X38555Y38771D01*
X38515Y38673D01*
X38515Y39071D01*
X38551Y39035D01*
X38636Y39000D01*
X38810Y39000D01*
X38868Y39057D01*
X38868Y39455D01*
X38860Y39455D01*
X38860Y39595D01*
X38868Y39595D01*
X38868Y39927D01*
X38880Y39939D01*
X38880Y40337D01*
X38872Y40337D01*
X38872Y40477D01*
X38880Y40477D01*
X38880Y40875D01*
X38822Y40932D01*
X38648Y40933D01*
X38563Y40898D01*
X38498Y40833D01*
X38496Y40827D01*
X38482Y40832D01*
X38430Y40833D01*
X37918Y40833D01*
X37870Y40813D01*
X37833Y40776D01*
X37813Y40728D01*
X37813Y40727D01*
X37235Y40727D01*
X37188Y40718D01*
X37188Y40718D01*
X37186Y40718D01*
X37131Y40773D01*
X36634Y40773D01*
X36634Y40740D01*
X36495Y40740D01*
X36495Y40773D01*
X35998Y40773D01*
X35941Y40715D01*
X35941Y40683D01*
X35976Y40598D01*
X36041Y40533D01*
X36041Y40383D01*
X36057Y40342D01*
X36041Y40302D01*
X36041Y40250D01*
X36041Y40154D01*
X35290Y40905D01*
X35232Y40944D01*
X35163Y40957D01*
X33505Y40957D01*
X33495Y40959D01*
X33408Y40959D01*
X33422Y40995D01*
X33422Y41027D01*
X33365Y41085D01*
X32868Y41085D01*
X32868Y41052D01*
X32729Y41052D01*
X32729Y41085D01*
X32232Y41085D01*
X32175Y41027D01*
X32175Y40995D01*
X32210Y40910D01*
X32275Y40845D01*
X32275Y40783D01*
X32210Y40718D01*
X32175Y40634D01*
X32175Y40601D01*
X32232Y40543D01*
X32729Y40543D01*
X32729Y40577D01*
X32868Y40577D01*
X32868Y40543D01*
X33365Y40543D01*
X33420Y40599D01*
X33422Y40596D01*
X33422Y40596D01*
X33450Y40568D01*
X33450Y40442D01*
X33422Y40414D01*
X33422Y40414D01*
X33414Y40406D01*
X33365Y40455D01*
X32868Y40455D01*
X32868Y40422D01*
X32729Y40422D01*
X32729Y40455D01*
X32232Y40455D01*
X32175Y40397D01*
X32175Y40365D01*
X32175Y40364D01*
X31862Y40364D01*
X31862Y40520D01*
X31856Y40534D01*
X31862Y40537D01*
X31927Y40602D01*
X31962Y40687D01*
X31962Y41290D01*
X31927Y41374D01*
X31862Y41439D01*
X31778Y41474D01*
X31686Y41475D01*
X31564Y41474D01*
X31506Y41417D01*
X31506Y41058D01*
X31904Y41058D01*
X31962Y41115D01*
X31962Y41290D01*
X31962Y40687D01*
X31962Y40861D01*
X31904Y40918D01*
X31506Y40918D01*
X31506Y40911D01*
X31367Y40911D01*
X31367Y40918D01*
X31359Y40918D01*
X31359Y41058D01*
X31367Y41058D01*
X31367Y41417D01*
X31309Y41474D01*
X31187Y41475D01*
X31095Y41474D01*
X31011Y41439D01*
X30946Y41374D01*
X30945Y41371D01*
X30945Y41603D01*
X30925Y41651D01*
X30888Y41688D01*
X30841Y41707D01*
X30789Y41708D01*
X29989Y41708D01*
X29941Y41688D01*
X29904Y41651D01*
X29884Y41603D01*
X29884Y41551D01*
X29884Y40951D01*
X29904Y40903D01*
X29941Y40867D01*
X29988Y40847D01*
X30040Y40847D01*
X30840Y40847D01*
X30888Y40867D01*
X30925Y40903D01*
X30931Y40918D01*
X30969Y40918D01*
X30911Y40861D01*
X30911Y40687D01*
X30946Y40602D01*
X30983Y40565D01*
X30166Y40565D01*
X29478Y41253D01*
X29478Y41478D01*
X29458Y41526D01*
X29421Y41563D01*
X29374Y41583D01*
X29322Y41583D01*
X29046Y41583D01*
X28998Y41563D01*
X28962Y41526D01*
X28942Y41479D01*
X28942Y41427D01*
X28942Y41246D01*
X28911Y41200D01*
X28887Y41235D01*
X28887Y41478D01*
X28868Y41526D01*
X28831Y41563D01*
X28783Y41583D01*
X28731Y41583D01*
X28456Y41583D01*
X28408Y41563D01*
X28371Y41526D01*
X28351Y41479D01*
X28351Y41427D01*
X28351Y41235D01*
X28317Y41184D01*
X28292Y41059D01*
X28292Y39956D01*
X28274Y39913D01*
X28274Y39861D01*
X28274Y39061D01*
X28294Y39013D01*
X28331Y38977D01*
X28378Y38957D01*
X28430Y38957D01*
X29030Y38957D01*
X29078Y38977D01*
X29115Y39013D01*
X29135Y39061D01*
X29135Y39113D01*
X29135Y39913D01*
X29115Y39961D01*
X29078Y39998D01*
X29031Y40017D01*
X28979Y40018D01*
X28946Y40018D01*
X28946Y40628D01*
X28961Y40591D01*
X28998Y40555D01*
X29046Y40535D01*
X29098Y40535D01*
X29271Y40535D01*
X29788Y40018D01*
X29679Y40018D01*
X29631Y39998D01*
X29594Y39961D01*
X29574Y39913D01*
X29574Y39861D01*
X29574Y39061D01*
X29594Y39013D01*
X29631Y38977D01*
X29678Y38957D01*
X29730Y38957D01*
X30330Y38957D01*
X30378Y38977D01*
X30415Y39013D01*
X30435Y39061D01*
X30435Y39113D01*
X30435Y39911D01*
X31030Y39911D01*
X31031Y39908D01*
X31068Y39872D01*
X31115Y39852D01*
X31167Y39852D01*
X31757Y39852D01*
X31786Y39864D01*
X29917Y37995D01*
X29878Y37936D01*
X29864Y37867D01*
X29864Y35537D01*
X29657Y35537D01*
X29657Y36720D01*
X29518Y37058D01*
X29260Y37316D01*
X28922Y37456D01*
X28557Y37457D01*
X28220Y37317D01*
X27962Y37059D01*
X27822Y36722D01*
X27821Y36357D01*
X27961Y36020D01*
X28219Y35761D01*
X28556Y35621D01*
X28921Y35621D01*
X29258Y35760D01*
X29517Y36018D01*
X29657Y36355D01*
X29657Y36720D01*
X29657Y35537D01*
X27745Y35537D01*
X27745Y41043D01*
X27745Y41643D01*
X27725Y41691D01*
X27688Y41728D01*
X27641Y41747D01*
X27589Y41748D01*
X26789Y41748D01*
X26741Y41728D01*
X26704Y41691D01*
X26684Y41643D01*
X26684Y41591D01*
X26684Y40991D01*
X26704Y40943D01*
X26741Y40907D01*
X26788Y40887D01*
X26840Y40887D01*
X27640Y40887D01*
X27688Y40907D01*
X27725Y40943D01*
X27745Y40991D01*
X27745Y41043D01*
X27745Y35537D01*
X27055Y35537D01*
X27055Y40537D01*
X22055Y40537D01*
X22055Y44977D01*
X24798Y44977D01*
X24798Y42772D01*
X24752Y42703D01*
X24727Y42578D01*
X24752Y42453D01*
X24823Y42347D01*
X24929Y42276D01*
X25054Y42251D01*
X25179Y42276D01*
X25285Y42347D01*
X25356Y42418D01*
X25356Y42418D01*
X25356Y42418D01*
X25427Y42524D01*
X25452Y42649D01*
X25452Y44977D01*
X26172Y44977D01*
X26113Y44835D01*
X26113Y44652D01*
X26183Y44483D01*
X26313Y44353D01*
X26482Y44283D01*
X26665Y44283D01*
X26834Y44353D01*
X26964Y44482D01*
X27034Y44651D01*
X27034Y44835D01*
X26975Y44977D01*
X28214Y44977D01*
X28214Y44479D01*
X28156Y44420D01*
X28109Y44308D01*
X28109Y44187D01*
X28156Y44074D01*
X28241Y43988D01*
X28354Y43942D01*
X28475Y43942D01*
X28587Y43988D01*
X28673Y44074D01*
X28720Y44186D01*
X28720Y44308D01*
X28673Y44420D01*
X28588Y44506D01*
X28575Y44511D01*
X28575Y44977D01*
X32589Y44977D01*
X32047Y44435D01*
X32008Y44376D01*
X31994Y44307D01*
X31994Y43144D01*
X32008Y43075D01*
X32047Y43017D01*
X33086Y41978D01*
X32379Y41978D01*
X32331Y41958D01*
X32323Y41950D01*
X31713Y42560D01*
X31681Y42581D01*
X31671Y42605D01*
X31585Y42691D01*
X31473Y42738D01*
X31352Y42738D01*
X31240Y42691D01*
X31154Y42606D01*
X31107Y42493D01*
X31107Y42372D01*
X31153Y42260D01*
X31239Y42174D01*
X31302Y42147D01*
X30842Y42147D01*
X30888Y42167D01*
X30925Y42203D01*
X30945Y42251D01*
X30945Y42303D01*
X30945Y42903D01*
X30925Y42951D01*
X30888Y42988D01*
X30841Y43007D01*
X30789Y43008D01*
X29989Y43008D01*
X29941Y42988D01*
X29904Y42951D01*
X29884Y42903D01*
X29884Y42851D01*
X29884Y42843D01*
X29517Y42843D01*
X29517Y42935D01*
X29497Y42983D01*
X29461Y43020D01*
X29413Y43040D01*
X29361Y43040D01*
X29086Y43040D01*
X29038Y43020D01*
X29001Y42983D01*
X28981Y42935D01*
X28981Y42883D01*
X28981Y42692D01*
X28947Y42641D01*
X28922Y42516D01*
X28947Y42390D01*
X28981Y42339D01*
X28981Y42147D01*
X28848Y42147D01*
X28848Y42148D01*
X28848Y42339D01*
X28882Y42390D01*
X28907Y42516D01*
X28882Y42641D01*
X28848Y42692D01*
X28848Y42935D01*
X28828Y42983D01*
X28792Y43020D01*
X28744Y43040D01*
X28692Y43040D01*
X28416Y43040D01*
X28368Y43020D01*
X28332Y42983D01*
X28316Y42944D01*
X27744Y42944D01*
X27725Y42991D01*
X27688Y43028D01*
X27641Y43047D01*
X27589Y43048D01*
X27034Y43048D01*
X27034Y43835D01*
X26964Y44004D01*
X26835Y44133D01*
X26666Y44204D01*
X26483Y44204D01*
X26313Y44134D01*
X26184Y44004D01*
X26113Y43835D01*
X26113Y43652D01*
X26183Y43483D01*
X26313Y43353D01*
X26482Y43283D01*
X26665Y43283D01*
X26834Y43353D01*
X26964Y43482D01*
X27034Y43651D01*
X27034Y43835D01*
X27034Y43048D01*
X26789Y43048D01*
X26741Y43028D01*
X26704Y42991D01*
X26684Y42943D01*
X26684Y42891D01*
X26684Y42291D01*
X26704Y42243D01*
X26741Y42207D01*
X26788Y42187D01*
X26840Y42187D01*
X27640Y42187D01*
X27688Y42207D01*
X27725Y42243D01*
X27744Y42290D01*
X28312Y42290D01*
X28312Y42147D01*
X24696Y42147D01*
X24696Y42379D01*
X24676Y42427D01*
X24640Y42464D01*
X24592Y42484D01*
X24540Y42484D01*
X23831Y42484D01*
X23783Y42464D01*
X23747Y42428D01*
X23727Y42380D01*
X23727Y42328D01*
X23727Y40753D01*
X23747Y40705D01*
X23783Y40668D01*
X23831Y40649D01*
X23883Y40648D01*
X24592Y40648D01*
X24640Y40668D01*
X24676Y40705D01*
X24696Y40753D01*
X24696Y40805D01*
X24696Y41787D01*
X31600Y41787D01*
X32070Y41317D01*
X32070Y41317D01*
X32105Y41293D01*
X32128Y41278D01*
X32128Y41278D01*
X32177Y41268D01*
X32175Y41264D01*
X32175Y41231D01*
X32232Y41173D01*
X32729Y41173D01*
X32729Y41207D01*
X32868Y41207D01*
X32868Y41173D01*
X33365Y41173D01*
X33422Y41231D01*
X33422Y41264D01*
X33421Y41268D01*
X33428Y41260D01*
X33540Y41214D01*
X33662Y41214D01*
X33774Y41260D01*
X33841Y41327D01*
X34609Y41327D01*
X34678Y41341D01*
X34737Y41380D01*
X35009Y41652D01*
X35009Y41587D01*
X35056Y41474D01*
X35141Y41388D01*
X35254Y41342D01*
X35365Y41342D01*
X35707Y41000D01*
X35765Y40961D01*
X35835Y40947D01*
X35941Y40947D01*
X35941Y40919D01*
X35998Y40861D01*
X36495Y40861D01*
X36495Y40895D01*
X36634Y40895D01*
X36634Y40861D01*
X37128Y40861D01*
X37141Y40848D01*
X37254Y40802D01*
X37375Y40802D01*
X37487Y40848D01*
X37573Y40934D01*
X37620Y41046D01*
X37620Y41168D01*
X37579Y41267D01*
X37595Y41267D01*
X37664Y41281D01*
X37722Y41320D01*
X37882Y41480D01*
X37921Y41538D01*
X37935Y41607D01*
X37935Y41907D01*
X37921Y41976D01*
X37921Y41976D01*
X37882Y42035D01*
X37662Y42255D01*
X37604Y42294D01*
X37535Y42307D01*
X36676Y42307D01*
X36702Y42334D01*
X36749Y42446D01*
X36749Y42558D01*
X36841Y42650D01*
X37181Y42650D01*
X37259Y42571D01*
X37371Y42525D01*
X37492Y42525D01*
X37605Y42571D01*
X37691Y42657D01*
X37737Y42769D01*
X37737Y42890D01*
X37691Y43003D01*
X37605Y43089D01*
X37573Y43102D01*
X38386Y43102D01*
X38434Y43122D01*
X38470Y43158D01*
X38490Y43206D01*
X38490Y43258D01*
X38490Y43888D01*
X38471Y43936D01*
X38434Y43973D01*
X38386Y43992D01*
X38334Y43993D01*
X37979Y43993D01*
X37979Y44109D01*
X38087Y44217D01*
X38168Y44136D01*
X38274Y44065D01*
X38400Y44040D01*
X38525Y44065D01*
X38631Y44136D01*
X38702Y44242D01*
X38727Y44367D01*
X38702Y44492D01*
X38631Y44599D01*
X38550Y44680D01*
X38847Y44977D01*
X40209Y44977D01*
X40147Y44915D01*
X40108Y44856D01*
X40094Y44787D01*
X40094Y44527D01*
X40108Y44458D01*
X40147Y44400D01*
X40454Y44093D01*
X39945Y44092D01*
X39887Y44035D01*
X39887Y43617D01*
X40699Y43617D01*
X40756Y43674D01*
X40756Y43790D01*
X41527Y43020D01*
X41585Y42981D01*
X41655Y42967D01*
X41700Y42967D01*
X41729Y42937D01*
X41569Y42938D01*
X41411Y42872D01*
X41290Y42751D01*
X41224Y42593D01*
X41224Y42422D01*
X41289Y42264D01*
X41410Y42143D01*
X41569Y42077D01*
X41740Y42077D01*
X41898Y42142D01*
X41954Y42198D01*
X41954Y42182D01*
X41710Y41937D01*
X41569Y41938D01*
X41411Y41872D01*
X41290Y41751D01*
X41224Y41593D01*
X41224Y41422D01*
X41289Y41264D01*
X41410Y41143D01*
X41569Y41077D01*
X41740Y41077D01*
X41898Y41142D01*
X42019Y41263D01*
X42085Y41421D01*
X42085Y41592D01*
X42023Y41741D01*
X42262Y41980D01*
X42301Y42038D01*
X42310Y42084D01*
X42328Y42077D01*
X42380Y42077D01*
X42980Y42077D01*
X43028Y42097D01*
X43065Y42133D01*
X43085Y42181D01*
X43085Y42233D01*
X43085Y42833D01*
X43065Y42881D01*
X43028Y42918D01*
X42981Y42937D01*
X42929Y42938D01*
X42329Y42938D01*
X42281Y42918D01*
X42268Y42905D01*
X42262Y42915D01*
X42262Y42915D01*
X42200Y42976D01*
X43420Y42976D01*
X44013Y42384D01*
X44012Y42273D01*
X44059Y42161D01*
X44145Y42075D01*
X44210Y42048D01*
X44176Y42055D01*
X42875Y42055D01*
X42750Y42030D01*
X42644Y41959D01*
X42644Y41959D01*
X42622Y41938D01*
X42569Y41938D01*
X42411Y41872D01*
X42290Y41751D01*
X42224Y41593D01*
X42224Y41422D01*
X42289Y41264D01*
X42410Y41143D01*
X42569Y41077D01*
X42740Y41077D01*
X42898Y41142D01*
X43019Y41263D01*
X43076Y41400D01*
X44041Y41400D01*
X44106Y41335D01*
X44106Y41335D01*
X44212Y41264D01*
X44337Y41239D01*
X44593Y41239D01*
X44593Y40753D01*
X44613Y40705D01*
X44649Y40668D01*
X44697Y40649D01*
X44749Y40648D01*
X45458Y40648D01*
X45506Y40668D01*
X45542Y40705D01*
X45562Y40753D01*
X45562Y40805D01*
X45562Y42379D01*
X45543Y42427D01*
X45506Y42464D01*
X45458Y42484D01*
X45406Y42484D01*
X45405Y42484D01*
X45405Y45428D01*
X45380Y45554D01*
X45309Y45660D01*
X45309Y45660D01*
X45089Y45880D01*
X44982Y45951D01*
X44857Y45976D01*
X44809Y45966D01*
X45382Y46540D01*
X45421Y46598D01*
X45435Y46667D01*
X45435Y50495D01*
X45501Y50428D01*
X45614Y50382D01*
X45665Y50382D01*
X45874Y50172D01*
X45874Y49867D01*
X45874Y46793D01*
X45874Y46793D01*
X45762Y46746D01*
X45676Y46660D01*
X45629Y46548D01*
X45629Y46427D01*
X45676Y46314D01*
X45761Y46228D01*
X45874Y46182D01*
X45995Y46182D01*
X46107Y46228D01*
X46193Y46314D01*
X46240Y46426D01*
X46240Y46548D01*
X46228Y46575D01*
X46235Y46607D01*
X46235Y49867D01*
X46235Y50247D01*
X46235Y50247D01*
X46221Y50316D01*
X46221Y50316D01*
X46182Y50375D01*
X46182Y50375D01*
X45965Y50591D01*
X45980Y50626D01*
X45980Y50748D01*
X45933Y50860D01*
X45848Y50946D01*
X45735Y50992D01*
X45614Y50993D01*
X45502Y50946D01*
X45435Y50879D01*
X45435Y51947D01*
X45435Y51947D01*
X45435Y51947D01*
X45432Y51961D01*
X45421Y52016D01*
X45421Y52016D01*
X45382Y52075D01*
X45382Y52075D01*
X44222Y53235D01*
X44164Y53274D01*
X44095Y53287D01*
X42080Y53287D01*
X42011Y53274D01*
X41952Y53235D01*
X40860Y52142D01*
X40860Y52188D01*
X40813Y52300D01*
X40768Y52346D01*
X41524Y53102D01*
X41635Y53102D01*
X41747Y53148D01*
X41833Y53234D01*
X41880Y53346D01*
X41880Y53468D01*
X41833Y53580D01*
X41748Y53666D01*
X41635Y53712D01*
X41514Y53713D01*
X41402Y53666D01*
X41316Y53580D01*
X41269Y53468D01*
X41269Y53357D01*
X40427Y52515D01*
X40388Y52456D01*
X40374Y52387D01*
X40374Y52379D01*
X40296Y52300D01*
X40249Y52188D01*
X40249Y52067D01*
X40296Y51954D01*
X40346Y51904D01*
X40325Y51904D01*
X40156Y51834D01*
X40026Y51705D01*
X39993Y51624D01*
X39832Y51624D01*
X39861Y51636D01*
X39991Y51765D01*
X40061Y51935D01*
X40061Y52118D01*
X39991Y52287D01*
X39862Y52417D01*
X39703Y52483D01*
X38498Y53687D01*
X38392Y53758D01*
X38267Y53783D01*
X36850Y53783D01*
X36850Y55547D01*
X36825Y55672D01*
X36754Y55778D01*
X36754Y55778D01*
X36423Y56109D01*
X36317Y56180D01*
X36192Y56204D01*
X35566Y56204D01*
X31609Y56204D01*
X31484Y56180D01*
X31378Y56109D01*
X31378Y56109D01*
X29457Y54188D01*
X29386Y54082D01*
X29361Y53957D01*
X29361Y53299D01*
X28845Y53299D01*
X28720Y53274D01*
X28614Y53203D01*
X28614Y53203D01*
X26448Y51037D01*
X26435Y51037D01*
X26680Y51282D01*
X26820Y51619D01*
X26820Y51984D01*
X26681Y52322D01*
X26423Y52580D01*
X26086Y52720D01*
X25720Y52720D01*
X25383Y52581D01*
X25125Y52323D01*
X24985Y51986D01*
X24984Y51621D01*
X25124Y51283D01*
X25369Y51037D01*
X23076Y51037D01*
X24299Y53239D01*
X26543Y55483D01*
X29785Y57228D01*
X34525Y58226D01*
X38766Y57478D01*
X41010Y56481D01*
X43254Y54984D01*
X45250Y52739D01*
X46497Y50745D01*
X47244Y48253D01*
X47244Y40537D01*
X47244Y40537D01*
G37*
G54D31*
X47244Y40537D02*
X47040Y40537D01*
X47040Y40824D01*
X47040Y42308D01*
X47040Y42400D01*
X47005Y42484D01*
X46940Y42549D01*
X46856Y42584D01*
X46583Y42584D01*
X46525Y42526D01*
X46525Y41636D01*
X46983Y41636D01*
X47040Y41693D01*
X47040Y42308D01*
X47040Y40824D01*
X47040Y41439D01*
X46983Y41497D01*
X46525Y41497D01*
X46525Y40606D01*
X46583Y40549D01*
X46856Y40548D01*
X46940Y40583D01*
X47005Y40648D01*
X47040Y40733D01*
X47040Y40824D01*
X47040Y40537D01*
X46386Y40537D01*
X46386Y40606D01*
X46386Y41497D01*
X46386Y41636D01*
X46386Y42526D01*
X46328Y42584D01*
X46056Y42584D01*
X45971Y42549D01*
X45906Y42484D01*
X45871Y42400D01*
X45871Y42308D01*
X45871Y41693D01*
X45929Y41636D01*
X46386Y41636D01*
X46386Y41497D01*
X45929Y41497D01*
X45871Y41439D01*
X45871Y40824D01*
X45871Y40733D01*
X45906Y40648D01*
X45971Y40583D01*
X46056Y40548D01*
X46328Y40549D01*
X46386Y40606D01*
X46386Y40537D01*
X42244Y40537D01*
X42244Y35537D01*
X41975Y35537D01*
X41975Y38913D01*
X41975Y39622D01*
X41975Y39713D01*
X41940Y39798D01*
X41920Y39817D01*
X41940Y39837D01*
X41975Y39921D01*
X41975Y40013D01*
X41975Y40722D01*
X41975Y40813D01*
X41940Y40898D01*
X41875Y40963D01*
X41790Y40998D01*
X41572Y40997D01*
X41514Y40940D01*
X41514Y40437D01*
X41917Y40437D01*
X41975Y40494D01*
X41975Y40722D01*
X41975Y40013D01*
X41975Y40240D01*
X41917Y40297D01*
X41514Y40297D01*
X41514Y39840D01*
X41514Y39794D01*
X41514Y39337D01*
X41917Y39337D01*
X41975Y39394D01*
X41975Y39622D01*
X41975Y38913D01*
X41975Y39140D01*
X41917Y39197D01*
X41514Y39197D01*
X41514Y38694D01*
X41572Y38637D01*
X41790Y38637D01*
X41875Y38672D01*
X41940Y38737D01*
X41975Y38821D01*
X41975Y38913D01*
X41975Y35537D01*
X41468Y35537D01*
X41468Y36721D01*
X41375Y36947D01*
X41375Y38694D01*
X41375Y39197D01*
X41375Y39337D01*
X41375Y39794D01*
X41375Y39840D01*
X41375Y40297D01*
X41375Y40437D01*
X41375Y40940D01*
X41317Y40997D01*
X41192Y40998D01*
X41192Y41450D01*
X41173Y41660D01*
X41129Y41766D01*
X41085Y41781D01*
X41085Y42592D01*
X41020Y42751D01*
X40899Y42872D01*
X40756Y42931D01*
X40756Y43278D01*
X40756Y43420D01*
X40699Y43477D01*
X39887Y43477D01*
X39887Y43470D01*
X39748Y43470D01*
X39748Y43477D01*
X39748Y43617D01*
X39748Y44035D01*
X39690Y44092D01*
X39063Y44093D01*
X38979Y44058D01*
X38914Y43993D01*
X38879Y43908D01*
X38879Y43817D01*
X38879Y43674D01*
X38936Y43617D01*
X39748Y43617D01*
X39748Y43477D01*
X38936Y43477D01*
X38879Y43420D01*
X38879Y43278D01*
X38879Y43186D01*
X38914Y43102D01*
X38979Y43037D01*
X39063Y43002D01*
X39408Y43002D01*
X39369Y42908D01*
X39369Y42787D01*
X39416Y42674D01*
X39494Y42596D01*
X39494Y42271D01*
X39482Y42266D01*
X39396Y42180D01*
X39349Y42068D01*
X39349Y41947D01*
X39396Y41834D01*
X39481Y41748D01*
X39594Y41702D01*
X39715Y41702D01*
X39827Y41748D01*
X39913Y41834D01*
X39960Y41946D01*
X39960Y42068D01*
X39913Y42180D01*
X39855Y42239D01*
X39855Y42596D01*
X39933Y42674D01*
X39980Y42786D01*
X39980Y42908D01*
X39938Y43008D01*
X39945Y43002D01*
X40572Y43002D01*
X40656Y43037D01*
X40721Y43102D01*
X40756Y43186D01*
X40756Y43278D01*
X40756Y42931D01*
X40740Y42937D01*
X40569Y42938D01*
X40411Y42872D01*
X40290Y42751D01*
X40224Y42593D01*
X40224Y42422D01*
X40289Y42264D01*
X40410Y42143D01*
X40569Y42077D01*
X40740Y42077D01*
X40898Y42142D01*
X41019Y42263D01*
X41085Y42421D01*
X41085Y42592D01*
X41085Y41781D01*
X41042Y41796D01*
X40943Y41697D01*
X40943Y41895D01*
X40913Y41982D01*
X40712Y42045D01*
X40502Y42026D01*
X40396Y41982D01*
X40366Y41895D01*
X40655Y41606D01*
X40943Y41895D01*
X40943Y41697D01*
X40753Y41507D01*
X41042Y41218D01*
X41129Y41248D01*
X41192Y41450D01*
X41192Y40998D01*
X41099Y40998D01*
X41014Y40963D01*
X40949Y40898D01*
X40943Y40883D01*
X40943Y41120D01*
X40655Y41409D01*
X40556Y41310D01*
X40556Y41507D01*
X40267Y41796D01*
X40180Y41766D01*
X40117Y41565D01*
X40136Y41354D01*
X40180Y41248D01*
X40267Y41218D01*
X40556Y41507D01*
X40556Y41310D01*
X40366Y41120D01*
X40396Y41032D01*
X40597Y40970D01*
X40807Y40988D01*
X40913Y41032D01*
X40943Y41120D01*
X40943Y40883D01*
X40914Y40813D01*
X40914Y40722D01*
X40914Y40494D01*
X40972Y40437D01*
X41375Y40437D01*
X41375Y40297D01*
X40972Y40297D01*
X40914Y40240D01*
X40914Y40013D01*
X40914Y39921D01*
X40949Y39837D01*
X40969Y39817D01*
X40949Y39798D01*
X40914Y39713D01*
X40914Y39622D01*
X40914Y39394D01*
X40972Y39337D01*
X41375Y39337D01*
X41375Y39197D01*
X40972Y39197D01*
X40914Y39140D01*
X40914Y38913D01*
X40914Y38821D01*
X40949Y38737D01*
X41014Y38672D01*
X41099Y38637D01*
X41317Y38637D01*
X41375Y38694D01*
X41375Y36947D01*
X41329Y37059D01*
X41071Y37317D01*
X40733Y37457D01*
X40575Y37457D01*
X40575Y38893D01*
X40575Y39693D01*
X40555Y39741D01*
X40518Y39778D01*
X40471Y39797D01*
X40419Y39798D01*
X40019Y39798D01*
X39980Y39837D01*
X40470Y39837D01*
X40518Y39857D01*
X40555Y39893D01*
X40575Y39941D01*
X40575Y39993D01*
X40575Y40793D01*
X40555Y40841D01*
X40518Y40878D01*
X40471Y40897D01*
X40419Y40898D01*
X40039Y40898D01*
X39900Y41037D01*
X39900Y41148D01*
X39853Y41260D01*
X39768Y41346D01*
X39655Y41392D01*
X39534Y41393D01*
X39422Y41346D01*
X39336Y41260D01*
X39289Y41148D01*
X39289Y41027D01*
X39336Y40914D01*
X39421Y40828D01*
X39534Y40782D01*
X39645Y40782D01*
X39714Y40713D01*
X39714Y40279D01*
X39688Y40306D01*
X39575Y40352D01*
X39454Y40353D01*
X39436Y40345D01*
X39436Y40657D01*
X39436Y40748D01*
X39401Y40833D01*
X39336Y40898D01*
X39251Y40933D01*
X39077Y40932D01*
X39019Y40875D01*
X39019Y40477D01*
X39378Y40477D01*
X39436Y40534D01*
X39436Y40657D01*
X39436Y40345D01*
X39390Y40326D01*
X39378Y40337D01*
X39019Y40337D01*
X39019Y40005D01*
X39007Y39993D01*
X39007Y39595D01*
X39366Y39595D01*
X39424Y39652D01*
X39424Y39754D01*
X39454Y39742D01*
X39565Y39742D01*
X39714Y39593D01*
X39714Y38841D01*
X39734Y38793D01*
X39771Y38757D01*
X39818Y38737D01*
X39870Y38737D01*
X40470Y38737D01*
X40518Y38757D01*
X40555Y38793D01*
X40575Y38841D01*
X40575Y38893D01*
X40575Y37457D01*
X40368Y37458D01*
X40031Y37318D01*
X39773Y37060D01*
X39633Y36723D01*
X39632Y36358D01*
X39772Y36021D01*
X40030Y35762D01*
X40367Y35622D01*
X40732Y35622D01*
X41069Y35761D01*
X41328Y36019D01*
X41468Y36356D01*
X41468Y36721D01*
X41468Y35537D01*
X39424Y35537D01*
X39424Y39276D01*
X39424Y39398D01*
X39366Y39455D01*
X39007Y39455D01*
X39007Y39057D01*
X39065Y39000D01*
X39239Y39000D01*
X39324Y39035D01*
X39389Y39100D01*
X39424Y39184D01*
X39424Y39276D01*
X39424Y35537D01*
X37880Y35537D01*
X37880Y36118D01*
X37845Y36203D01*
X37780Y36268D01*
X37696Y36303D01*
X37604Y36303D01*
X37462Y36303D01*
X37404Y36245D01*
X37404Y35537D01*
X37265Y35537D01*
X37265Y36245D01*
X37207Y36303D01*
X37065Y36303D01*
X36973Y36303D01*
X36889Y36268D01*
X36824Y36203D01*
X36789Y36118D01*
X36789Y35537D01*
X36086Y35537D01*
X36115Y35608D01*
X36115Y36211D01*
X36086Y36282D01*
X36111Y36342D01*
X36111Y36517D01*
X36053Y36574D01*
X35655Y36574D01*
X35655Y36215D01*
X35659Y36211D01*
X35659Y35979D01*
X36057Y35979D01*
X36115Y36037D01*
X36115Y36211D01*
X36115Y35608D01*
X36115Y35782D01*
X36057Y35840D01*
X35659Y35840D01*
X35659Y35832D01*
X35520Y35832D01*
X35520Y35840D01*
X35520Y35979D01*
X35520Y36338D01*
X35516Y36342D01*
X35516Y36574D01*
X35118Y36574D01*
X35060Y36517D01*
X35060Y36342D01*
X35089Y36272D01*
X35064Y36211D01*
X35064Y36037D01*
X35122Y35979D01*
X35520Y35979D01*
X35520Y35840D01*
X35122Y35840D01*
X35064Y35782D01*
X35064Y35608D01*
X35077Y35577D01*
X34831Y35823D01*
X34725Y35893D01*
X34600Y35918D01*
X34451Y35918D01*
X34451Y36246D01*
X34451Y36737D01*
X34416Y36821D01*
X34351Y36886D01*
X34267Y36921D01*
X34175Y36922D01*
X33948Y36921D01*
X33890Y36864D01*
X33890Y36561D01*
X34393Y36561D01*
X34451Y36618D01*
X34451Y36737D01*
X34451Y36246D01*
X34451Y36364D01*
X34393Y36421D01*
X33890Y36421D01*
X33890Y36118D01*
X33948Y36061D01*
X34175Y36061D01*
X34267Y36061D01*
X34351Y36096D01*
X34416Y36161D01*
X34451Y36246D01*
X34451Y35918D01*
X34254Y35918D01*
X34247Y35921D01*
X34195Y35922D01*
X33751Y35922D01*
X33751Y36118D01*
X33751Y36421D01*
X33751Y36561D01*
X33751Y36864D01*
X33693Y36921D01*
X33466Y36922D01*
X33374Y36921D01*
X33290Y36886D01*
X33225Y36821D01*
X33190Y36737D01*
X33190Y36618D01*
X33248Y36561D01*
X33751Y36561D01*
X33751Y36421D01*
X33248Y36421D01*
X33190Y36364D01*
X33190Y36246D01*
X33225Y36161D01*
X33290Y36096D01*
X33374Y36061D01*
X33466Y36061D01*
X33693Y36061D01*
X33751Y36118D01*
X33751Y35922D01*
X33395Y35922D01*
X33347Y35902D01*
X33310Y35865D01*
X33290Y35817D01*
X33290Y35765D01*
X33290Y35537D01*
X31851Y35537D01*
X31851Y35726D01*
X31851Y37257D01*
X31816Y37341D01*
X31751Y37406D01*
X31667Y37441D01*
X31575Y37442D01*
X31348Y37441D01*
X31290Y37384D01*
X31290Y36561D01*
X31793Y36561D01*
X31851Y36618D01*
X31851Y37257D01*
X31851Y35726D01*
X31851Y36364D01*
X31793Y36421D01*
X31290Y36421D01*
X31290Y35598D01*
X31348Y35541D01*
X31575Y35541D01*
X31667Y35541D01*
X31751Y35576D01*
X31816Y35641D01*
X31851Y35726D01*
X31851Y35537D01*
X31151Y35537D01*
X31151Y35598D01*
X31151Y36421D01*
X31151Y36561D01*
X31151Y37384D01*
X31093Y37441D01*
X30866Y37442D01*
X30774Y37441D01*
X30690Y37406D01*
X30625Y37341D01*
X30590Y37257D01*
X30590Y36618D01*
X30648Y36561D01*
X31151Y36561D01*
X31151Y36421D01*
X30648Y36421D01*
X30590Y36364D01*
X30590Y35726D01*
X30625Y35641D01*
X30690Y35576D01*
X30774Y35541D01*
X30866Y35541D01*
X31093Y35541D01*
X31151Y35598D01*
X31151Y35537D01*
X30225Y35537D01*
X30225Y37792D01*
X30609Y38177D01*
X30609Y38067D01*
X30656Y37954D01*
X30741Y37868D01*
X30854Y37822D01*
X30975Y37822D01*
X31087Y37868D01*
X31166Y37947D01*
X33835Y37947D01*
X33904Y37961D01*
X33909Y37964D01*
X33909Y37927D01*
X33956Y37814D01*
X34041Y37728D01*
X34058Y37722D01*
X33395Y37722D01*
X33347Y37702D01*
X33310Y37665D01*
X33290Y37617D01*
X33290Y37565D01*
X33290Y37165D01*
X33310Y37117D01*
X33347Y37081D01*
X33394Y37061D01*
X33446Y37061D01*
X34246Y37061D01*
X34261Y37067D01*
X35132Y37067D01*
X35095Y37030D01*
X35060Y36946D01*
X35060Y36771D01*
X35118Y36714D01*
X35516Y36714D01*
X35516Y36722D01*
X35655Y36722D01*
X35655Y36714D01*
X36053Y36714D01*
X36111Y36771D01*
X36111Y36946D01*
X36076Y37030D01*
X36039Y37067D01*
X36207Y37067D01*
X36207Y36965D01*
X36184Y36846D01*
X36208Y36721D01*
X36279Y36614D01*
X36386Y36543D01*
X36511Y36519D01*
X36636Y36543D01*
X36742Y36614D01*
X36766Y36638D01*
X36766Y36638D01*
X36766Y36638D01*
X36837Y36744D01*
X36837Y36744D01*
X36857Y36844D01*
X36862Y36869D01*
X36862Y36869D01*
X36862Y36869D01*
X36862Y37059D01*
X36889Y37059D01*
X36889Y36796D01*
X36909Y36748D01*
X36946Y36711D01*
X36993Y36691D01*
X37045Y36691D01*
X37675Y36691D01*
X37723Y36711D01*
X37760Y36748D01*
X37780Y36796D01*
X37780Y36847D01*
X37780Y37220D01*
X37820Y37228D01*
X37926Y37299D01*
X38419Y37791D01*
X38419Y37791D01*
X38419Y37791D01*
X38490Y37897D01*
X38515Y38023D01*
X38515Y38522D01*
X38555Y38425D01*
X38634Y38346D01*
X38634Y36487D01*
X38555Y36409D01*
X38509Y36297D01*
X38509Y36175D01*
X38555Y36063D01*
X38641Y35977D01*
X38753Y35930D01*
X38874Y35930D01*
X38987Y35977D01*
X39073Y36062D01*
X39119Y36175D01*
X39119Y36296D01*
X39073Y36408D01*
X38994Y36487D01*
X38994Y38346D01*
X39073Y38425D01*
X39119Y38537D01*
X39119Y38658D01*
X39073Y38770D01*
X38987Y38856D01*
X38875Y38903D01*
X38753Y38903D01*
X38641Y38857D01*
X38555Y38771D01*
X38515Y38673D01*
X38515Y39071D01*
X38551Y39035D01*
X38636Y39000D01*
X38810Y39000D01*
X38868Y39057D01*
X38868Y39455D01*
X38860Y39455D01*
X38860Y39595D01*
X38868Y39595D01*
X38868Y39927D01*
X38880Y39939D01*
X38880Y40337D01*
X38872Y40337D01*
X38872Y40477D01*
X38880Y40477D01*
X38880Y40875D01*
X38822Y40932D01*
X38648Y40933D01*
X38563Y40898D01*
X38498Y40833D01*
X38496Y40827D01*
X38482Y40832D01*
X38430Y40833D01*
X37918Y40833D01*
X37870Y40813D01*
X37833Y40776D01*
X37813Y40728D01*
X37813Y40727D01*
X37235Y40727D01*
X37188Y40718D01*
X37188Y40718D01*
X37186Y40718D01*
X37131Y40773D01*
X36634Y40773D01*
X36634Y40740D01*
X36495Y40740D01*
X36495Y40773D01*
X35998Y40773D01*
X35941Y40715D01*
X35941Y40683D01*
X35976Y40598D01*
X36041Y40533D01*
X36041Y40383D01*
X36057Y40342D01*
X36041Y40302D01*
X36041Y40250D01*
X36041Y40154D01*
X35290Y40905D01*
X35232Y40944D01*
X35163Y40957D01*
X33505Y40957D01*
X33495Y40959D01*
X33408Y40959D01*
X33422Y40995D01*
X33422Y41027D01*
X33365Y41085D01*
X32868Y41085D01*
X32868Y41052D01*
X32729Y41052D01*
X32729Y41085D01*
X32232Y41085D01*
X32175Y41027D01*
X32175Y40995D01*
X32210Y40910D01*
X32275Y40845D01*
X32275Y40783D01*
X32210Y40718D01*
X32175Y40634D01*
X32175Y40601D01*
X32232Y40543D01*
X32729Y40543D01*
X32729Y40577D01*
X32868Y40577D01*
X32868Y40543D01*
X33365Y40543D01*
X33420Y40599D01*
X33422Y40596D01*
X33422Y40596D01*
X33450Y40568D01*
X33450Y40442D01*
X33422Y40414D01*
X33422Y40414D01*
X33414Y40406D01*
X33365Y40455D01*
X32868Y40455D01*
X32868Y40422D01*
X32729Y40422D01*
X32729Y40455D01*
X32232Y40455D01*
X32175Y40397D01*
X32175Y40365D01*
X32175Y40364D01*
X31862Y40364D01*
X31862Y40520D01*
X31856Y40534D01*
X31862Y40537D01*
X31927Y40602D01*
X31962Y40687D01*
X31962Y41290D01*
X31927Y41374D01*
X31862Y41439D01*
X31778Y41474D01*
X31686Y41475D01*
X31564Y41474D01*
X31506Y41417D01*
X31506Y41058D01*
X31904Y41058D01*
X31962Y41115D01*
X31962Y41290D01*
X31962Y40687D01*
X31962Y40861D01*
X31904Y40918D01*
X31506Y40918D01*
X31506Y40911D01*
X31367Y40911D01*
X31367Y40918D01*
X31359Y40918D01*
X31359Y41058D01*
X31367Y41058D01*
X31367Y41417D01*
X31309Y41474D01*
X31187Y41475D01*
X31095Y41474D01*
X31011Y41439D01*
X30946Y41374D01*
X30945Y41371D01*
X30945Y41603D01*
X30925Y41651D01*
X30888Y41688D01*
X30841Y41707D01*
X30789Y41708D01*
X29989Y41708D01*
X29941Y41688D01*
X29904Y41651D01*
X29884Y41603D01*
X29884Y41551D01*
X29884Y40951D01*
X29904Y40903D01*
X29941Y40867D01*
X29988Y40847D01*
X30040Y40847D01*
X30840Y40847D01*
X30888Y40867D01*
X30925Y40903D01*
X30931Y40918D01*
X30969Y40918D01*
X30911Y40861D01*
X30911Y40687D01*
X30946Y40602D01*
X30983Y40565D01*
X30166Y40565D01*
X29478Y41253D01*
X29478Y41478D01*
X29458Y41526D01*
X29421Y41563D01*
X29374Y41583D01*
X29322Y41583D01*
X29046Y41583D01*
X28998Y41563D01*
X28962Y41526D01*
X28942Y41479D01*
X28942Y41427D01*
X28942Y41246D01*
X28911Y41200D01*
X28887Y41235D01*
X28887Y41478D01*
X28868Y41526D01*
X28831Y41563D01*
X28783Y41583D01*
X28731Y41583D01*
X28456Y41583D01*
X28408Y41563D01*
X28371Y41526D01*
X28351Y41479D01*
X28351Y41427D01*
X28351Y41235D01*
X28317Y41184D01*
X28292Y41059D01*
X28292Y39956D01*
X28274Y39913D01*
X28274Y39861D01*
X28274Y39061D01*
X28294Y39013D01*
X28331Y38977D01*
X28378Y38957D01*
X28430Y38957D01*
X29030Y38957D01*
X29078Y38977D01*
X29115Y39013D01*
X29135Y39061D01*
X29135Y39113D01*
X29135Y39913D01*
X29115Y39961D01*
X29078Y39998D01*
X29031Y40017D01*
X28979Y40018D01*
X28946Y40018D01*
X28946Y40628D01*
X28961Y40591D01*
X28998Y40555D01*
X29046Y40535D01*
X29098Y40535D01*
X29271Y40535D01*
X29788Y40018D01*
X29679Y40018D01*
X29631Y39998D01*
X29594Y39961D01*
X29574Y39913D01*
X29574Y39861D01*
X29574Y39061D01*
X29594Y39013D01*
X29631Y38977D01*
X29678Y38957D01*
X29730Y38957D01*
X30330Y38957D01*
X30378Y38977D01*
X30415Y39013D01*
X30435Y39061D01*
X30435Y39113D01*
X30435Y39911D01*
X31030Y39911D01*
X31031Y39908D01*
X31068Y39872D01*
X31115Y39852D01*
X31167Y39852D01*
X31757Y39852D01*
X31786Y39864D01*
X29917Y37995D01*
X29878Y37936D01*
X29864Y37867D01*
X29864Y35537D01*
X29657Y35537D01*
X29657Y36720D01*
X29518Y37058D01*
X29260Y37316D01*
X28922Y37456D01*
X28557Y37457D01*
X28220Y37317D01*
X27962Y37059D01*
X27822Y36722D01*
X27821Y36357D01*
X27961Y36020D01*
X28219Y35761D01*
X28556Y35621D01*
X28921Y35621D01*
X29258Y35760D01*
X29517Y36018D01*
X29657Y36355D01*
X29657Y36720D01*
X29657Y35537D01*
X27745Y35537D01*
X27745Y41043D01*
X27745Y41643D01*
X27725Y41691D01*
X27688Y41728D01*
X27641Y41747D01*
X27589Y41748D01*
X26789Y41748D01*
X26741Y41728D01*
X26704Y41691D01*
X26684Y41643D01*
X26684Y41591D01*
X26684Y40991D01*
X26704Y40943D01*
X26741Y40907D01*
X26788Y40887D01*
X26840Y40887D01*
X27640Y40887D01*
X27688Y40907D01*
X27725Y40943D01*
X27745Y40991D01*
X27745Y41043D01*
X27745Y35537D01*
X27055Y35537D01*
X27055Y40537D01*
X22055Y40537D01*
X22055Y44977D01*
X24798Y44977D01*
X24798Y42772D01*
X24752Y42703D01*
X24727Y42578D01*
X24752Y42453D01*
X24823Y42347D01*
X24929Y42276D01*
X25054Y42251D01*
X25179Y42276D01*
X25285Y42347D01*
X25356Y42418D01*
X25356Y42418D01*
X25356Y42418D01*
X25427Y42524D01*
X25452Y42649D01*
X25452Y44977D01*
X26172Y44977D01*
X26113Y44835D01*
X26113Y44652D01*
X26183Y44483D01*
X26313Y44353D01*
X26482Y44283D01*
X26665Y44283D01*
X26834Y44353D01*
X26964Y44482D01*
X27034Y44651D01*
X27034Y44835D01*
X26975Y44977D01*
X28214Y44977D01*
X28214Y44479D01*
X28156Y44420D01*
X28109Y44308D01*
X28109Y44187D01*
X28156Y44074D01*
X28241Y43988D01*
X28354Y43942D01*
X28475Y43942D01*
X28587Y43988D01*
X28673Y44074D01*
X28720Y44186D01*
X28720Y44308D01*
X28673Y44420D01*
X28588Y44506D01*
X28575Y44511D01*
X28575Y44977D01*
X32589Y44977D01*
X32047Y44435D01*
X32008Y44376D01*
X31994Y44307D01*
X31994Y43144D01*
X32008Y43075D01*
X32047Y43017D01*
X33086Y41978D01*
X32379Y41978D01*
X32331Y41958D01*
X32323Y41950D01*
X31713Y42560D01*
X31681Y42581D01*
X31671Y42605D01*
X31585Y42691D01*
X31473Y42738D01*
X31352Y42738D01*
X31240Y42691D01*
X31154Y42606D01*
X31107Y42493D01*
X31107Y42372D01*
X31153Y42260D01*
X31239Y42174D01*
X31302Y42147D01*
X30842Y42147D01*
X30888Y42167D01*
X30925Y42203D01*
X30945Y42251D01*
X30945Y42303D01*
X30945Y42903D01*
X30925Y42951D01*
X30888Y42988D01*
X30841Y43007D01*
X30789Y43008D01*
X29989Y43008D01*
X29941Y42988D01*
X29904Y42951D01*
X29884Y42903D01*
X29884Y42851D01*
X29884Y42843D01*
X29517Y42843D01*
X29517Y42935D01*
X29497Y42983D01*
X29461Y43020D01*
X29413Y43040D01*
X29361Y43040D01*
X29086Y43040D01*
X29038Y43020D01*
X29001Y42983D01*
X28981Y42935D01*
X28981Y42883D01*
X28981Y42692D01*
X28947Y42641D01*
X28922Y42516D01*
X28947Y42390D01*
X28981Y42339D01*
X28981Y42147D01*
X28848Y42147D01*
X28848Y42148D01*
X28848Y42339D01*
X28882Y42390D01*
X28907Y42516D01*
X28882Y42641D01*
X28848Y42692D01*
X28848Y42935D01*
X28828Y42983D01*
X28792Y43020D01*
X28744Y43040D01*
X28692Y43040D01*
X28416Y43040D01*
X28368Y43020D01*
X28332Y42983D01*
X28316Y42944D01*
X27744Y42944D01*
X27725Y42991D01*
X27688Y43028D01*
X27641Y43047D01*
X27589Y43048D01*
X27034Y43048D01*
X27034Y43835D01*
X26964Y44004D01*
X26835Y44133D01*
X26666Y44204D01*
X26483Y44204D01*
X26313Y44134D01*
X26184Y44004D01*
X26113Y43835D01*
X26113Y43652D01*
X26183Y43483D01*
X26313Y43353D01*
X26482Y43283D01*
X26665Y43283D01*
X26834Y43353D01*
X26964Y43482D01*
X27034Y43651D01*
X27034Y43835D01*
X27034Y43048D01*
X26789Y43048D01*
X26741Y43028D01*
X26704Y42991D01*
X26684Y42943D01*
X26684Y42891D01*
X26684Y42291D01*
X26704Y42243D01*
X26741Y42207D01*
X26788Y42187D01*
X26840Y42187D01*
X27640Y42187D01*
X27688Y42207D01*
X27725Y42243D01*
X27744Y42290D01*
X28312Y42290D01*
X28312Y42147D01*
X24696Y42147D01*
X24696Y42379D01*
X24676Y42427D01*
X24640Y42464D01*
X24592Y42484D01*
X24540Y42484D01*
X23831Y42484D01*
X23783Y42464D01*
X23747Y42428D01*
X23727Y42380D01*
X23727Y42328D01*
X23727Y40753D01*
X23747Y40705D01*
X23783Y40668D01*
X23831Y40649D01*
X23883Y40648D01*
X24592Y40648D01*
X24640Y40668D01*
X24676Y40705D01*
X24696Y40753D01*
X24696Y40805D01*
X24696Y41787D01*
X31600Y41787D01*
X32070Y41317D01*
X32070Y41317D01*
X32105Y41293D01*
X32128Y41278D01*
X32128Y41278D01*
X32177Y41268D01*
X32175Y41264D01*
X32175Y41231D01*
X32232Y41173D01*
X32729Y41173D01*
X32729Y41207D01*
X32868Y41207D01*
X32868Y41173D01*
X33365Y41173D01*
X33422Y41231D01*
X33422Y41264D01*
X33421Y41268D01*
X33428Y41260D01*
X33540Y41214D01*
X33662Y41214D01*
X33774Y41260D01*
X33841Y41327D01*
X34609Y41327D01*
X34678Y41341D01*
X34737Y41380D01*
X35009Y41652D01*
X35009Y41587D01*
X35056Y41474D01*
X35141Y41388D01*
X35254Y41342D01*
X35365Y41342D01*
X35707Y41000D01*
X35765Y40961D01*
X35835Y40947D01*
X35941Y40947D01*
X35941Y40919D01*
X35998Y40861D01*
X36495Y40861D01*
X36495Y40895D01*
X36634Y40895D01*
X36634Y40861D01*
X37128Y40861D01*
X37141Y40848D01*
X37254Y40802D01*
X37375Y40802D01*
X37487Y40848D01*
X37573Y40934D01*
X37620Y41046D01*
X37620Y41168D01*
X37579Y41267D01*
X37595Y41267D01*
X37664Y41281D01*
X37722Y41320D01*
X37882Y41480D01*
X37921Y41538D01*
X37935Y41607D01*
X37935Y41907D01*
X37921Y41976D01*
X37921Y41976D01*
X37882Y42035D01*
X37662Y42255D01*
X37604Y42294D01*
X37535Y42307D01*
X36676Y42307D01*
X36702Y42334D01*
X36749Y42446D01*
X36749Y42558D01*
X36841Y42650D01*
X37181Y42650D01*
X37259Y42571D01*
X37371Y42525D01*
X37492Y42525D01*
X37605Y42571D01*
X37691Y42657D01*
X37737Y42769D01*
X37737Y42890D01*
X37691Y43003D01*
X37605Y43089D01*
X37573Y43102D01*
X38386Y43102D01*
X38434Y43122D01*
X38470Y43158D01*
X38490Y43206D01*
X38490Y43258D01*
X38490Y43888D01*
X38471Y43936D01*
X38434Y43973D01*
X38386Y43992D01*
X38334Y43993D01*
X37979Y43993D01*
X37979Y44109D01*
X38087Y44217D01*
X38168Y44136D01*
X38274Y44065D01*
X38400Y44040D01*
X38525Y44065D01*
X38631Y44136D01*
X38702Y44242D01*
X38727Y44367D01*
X38702Y44492D01*
X38631Y44599D01*
X38550Y44680D01*
X38847Y44977D01*
X40209Y44977D01*
X40147Y44915D01*
X40108Y44856D01*
X40094Y44787D01*
X40094Y44527D01*
X40108Y44458D01*
X40147Y44400D01*
X40454Y44093D01*
X39945Y44092D01*
X39887Y44035D01*
X39887Y43617D01*
X40699Y43617D01*
X40756Y43674D01*
X40756Y43790D01*
X41527Y43020D01*
X41585Y42981D01*
X41655Y42967D01*
X41700Y42967D01*
X41729Y42937D01*
X41569Y42938D01*
X41411Y42872D01*
X41290Y42751D01*
X41224Y42593D01*
X41224Y42422D01*
X41289Y42264D01*
X41410Y42143D01*
X41569Y42077D01*
X41740Y42077D01*
X41898Y42142D01*
X41954Y42198D01*
X41954Y42182D01*
X41710Y41937D01*
X41569Y41938D01*
X41411Y41872D01*
X41290Y41751D01*
X41224Y41593D01*
X41224Y41422D01*
X41289Y41264D01*
X41410Y41143D01*
X41569Y41077D01*
X41740Y41077D01*
X41898Y41142D01*
X42019Y41263D01*
X42085Y41421D01*
X42085Y41592D01*
X42023Y41741D01*
X42262Y41980D01*
X42301Y42038D01*
X42310Y42084D01*
X42328Y42077D01*
X42380Y42077D01*
X42980Y42077D01*
X43028Y42097D01*
X43065Y42133D01*
X43085Y42181D01*
X43085Y42233D01*
X43085Y42833D01*
X43065Y42881D01*
X43028Y42918D01*
X42981Y42937D01*
X42929Y42938D01*
X42329Y42938D01*
X42281Y42918D01*
X42268Y42905D01*
X42262Y42915D01*
X42262Y42915D01*
X42200Y42976D01*
X43420Y42976D01*
X44013Y42384D01*
X44012Y42273D01*
X44059Y42161D01*
X44145Y42075D01*
X44210Y42048D01*
X44176Y42055D01*
X42875Y42055D01*
X42750Y42030D01*
X42644Y41959D01*
X42644Y41959D01*
X42622Y41938D01*
X42569Y41938D01*
X42411Y41872D01*
X42290Y41751D01*
X42224Y41593D01*
X42224Y41422D01*
X42289Y41264D01*
X42410Y41143D01*
X42569Y41077D01*
X42740Y41077D01*
X42898Y41142D01*
X43019Y41263D01*
X43076Y41400D01*
X44041Y41400D01*
X44106Y41335D01*
X44106Y41335D01*
X44212Y41264D01*
X44337Y41239D01*
X44593Y41239D01*
X44593Y40753D01*
X44613Y40705D01*
X44649Y40668D01*
X44697Y40649D01*
X44749Y40648D01*
X45458Y40648D01*
X45506Y40668D01*
X45542Y40705D01*
X45562Y40753D01*
X45562Y40805D01*
X45562Y42379D01*
X45543Y42427D01*
X45506Y42464D01*
X45458Y42484D01*
X45406Y42484D01*
X45405Y42484D01*
X45405Y45428D01*
X45380Y45554D01*
X45309Y45660D01*
X45309Y45660D01*
X45089Y45880D01*
X44982Y45951D01*
X44857Y45976D01*
X44809Y45966D01*
X45382Y46540D01*
X45421Y46598D01*
X45435Y46667D01*
X45435Y50495D01*
X45501Y50428D01*
X45614Y50382D01*
X45665Y50382D01*
X45874Y50172D01*
X45874Y49867D01*
X45874Y46793D01*
X45874Y46793D01*
X45762Y46746D01*
X45676Y46660D01*
X45629Y46548D01*
X45629Y46427D01*
X45676Y46314D01*
X45761Y46228D01*
X45874Y46182D01*
X45995Y46182D01*
X46107Y46228D01*
X46193Y46314D01*
X46240Y46426D01*
X46240Y46548D01*
X46228Y46575D01*
X46235Y46607D01*
X46235Y49867D01*
X46235Y50247D01*
X46235Y50247D01*
X46221Y50316D01*
X46221Y50316D01*
X46182Y50375D01*
X46182Y50375D01*
X45965Y50591D01*
X45980Y50626D01*
X45980Y50748D01*
X45933Y50860D01*
X45848Y50946D01*
X45735Y50992D01*
X45614Y50993D01*
X45502Y50946D01*
X45435Y50879D01*
X45435Y51947D01*
X45435Y51947D01*
X45435Y51947D01*
X45432Y51961D01*
X45421Y52016D01*
X45421Y52016D01*
X45382Y52075D01*
X45382Y52075D01*
X44222Y53235D01*
X44164Y53274D01*
X44095Y53287D01*
X42080Y53287D01*
X42011Y53274D01*
X41952Y53235D01*
X40860Y52142D01*
X40860Y52188D01*
X40813Y52300D01*
X40768Y52346D01*
X41524Y53102D01*
X41635Y53102D01*
X41747Y53148D01*
X41833Y53234D01*
X41880Y53346D01*
X41880Y53468D01*
X41833Y53580D01*
X41748Y53666D01*
X41635Y53712D01*
X41514Y53713D01*
X41402Y53666D01*
X41316Y53580D01*
X41269Y53468D01*
X41269Y53357D01*
X40427Y52515D01*
X40388Y52456D01*
X40374Y52387D01*
X40374Y52379D01*
X40296Y52300D01*
X40249Y52188D01*
X40249Y52067D01*
X40296Y51954D01*
X40346Y51904D01*
X40325Y51904D01*
X40156Y51834D01*
X40026Y51705D01*
X39993Y51624D01*
X39832Y51624D01*
X39861Y51636D01*
X39991Y51765D01*
X40061Y51935D01*
X40061Y52118D01*
X39991Y52287D01*
X39862Y52417D01*
X39703Y52483D01*
X38498Y53687D01*
X38392Y53758D01*
X38267Y53783D01*
X36850Y53783D01*
X36850Y55547D01*
X36825Y55672D01*
X36754Y55778D01*
X36754Y55778D01*
X36423Y56109D01*
X36317Y56180D01*
X36192Y56204D01*
X35566Y56204D01*
X31609Y56204D01*
X31484Y56180D01*
X31378Y56109D01*
X31378Y56109D01*
X29457Y54188D01*
X29386Y54082D01*
X29361Y53957D01*
X29361Y53299D01*
X28845Y53299D01*
X28720Y53274D01*
X28614Y53203D01*
X28614Y53203D01*
X26448Y51037D01*
X26435Y51037D01*
X26680Y51282D01*
X26820Y51619D01*
X26820Y51984D01*
X26681Y52322D01*
X26423Y52580D01*
X26086Y52720D01*
X25720Y52720D01*
X25383Y52581D01*
X25125Y52323D01*
X24985Y51986D01*
X24984Y51621D01*
X25124Y51283D01*
X25369Y51037D01*
X23076Y51037D01*
X24299Y53239D01*
X26543Y55483D01*
X29785Y57228D01*
X34525Y58226D01*
X38766Y57478D01*
X41010Y56481D01*
X43254Y54984D01*
X45250Y52739D01*
X46497Y50745D01*
X47244Y48253D01*
X47244Y40537D01*
G54D10*
G36*
X33841Y32893D02*
X33822Y32939D01*
X33785Y32976D01*
X33738Y32996D01*
X33686Y32996D01*
X31717Y32996D01*
X31669Y32976D01*
X31633Y32939D01*
X31613Y32891D01*
X31613Y32840D01*
X31613Y32691D01*
X31250Y32691D01*
X31236Y32706D01*
X31236Y32817D01*
X31189Y32929D01*
X31104Y33015D01*
X30991Y33061D01*
X30870Y33062D01*
X30758Y33015D01*
X30672Y32929D01*
X30625Y32817D01*
X30625Y32696D01*
X30672Y32583D01*
X30757Y32497D01*
X30870Y32451D01*
X30981Y32451D01*
X31048Y32384D01*
X31107Y32345D01*
X31176Y32331D01*
X31613Y32331D01*
X31613Y32131D01*
X31632Y32083D01*
X31669Y32046D01*
X31717Y32026D01*
X31769Y32026D01*
X31872Y32026D01*
X31822Y31977D01*
X31787Y31892D01*
X31787Y31801D01*
X31787Y31678D01*
X31845Y31621D01*
X31787Y31621D01*
X31787Y31556D01*
X31778Y31566D01*
X31665Y31612D01*
X31544Y31613D01*
X31432Y31566D01*
X31353Y31487D01*
X30443Y31487D01*
X30225Y31706D01*
X30225Y34477D01*
X33835Y34477D01*
X33841Y34444D01*
X33841Y34192D01*
X33822Y34238D01*
X33785Y34275D01*
X33738Y34295D01*
X33686Y34295D01*
X31717Y34295D01*
X31669Y34275D01*
X31633Y34239D01*
X31613Y34191D01*
X31613Y34139D01*
X31613Y33430D01*
X31632Y33382D01*
X31669Y33346D01*
X31717Y33326D01*
X31769Y33326D01*
X33737Y33326D01*
X33785Y33345D01*
X33822Y33382D01*
X33841Y33428D01*
X33841Y32893D01*
X33841Y32893D01*
G37*
G54D31*
X33841Y32893D02*
X33822Y32939D01*
X33785Y32976D01*
X33738Y32996D01*
X33686Y32996D01*
X31717Y32996D01*
X31669Y32976D01*
X31633Y32939D01*
X31613Y32891D01*
X31613Y32840D01*
X31613Y32691D01*
X31250Y32691D01*
X31236Y32706D01*
X31236Y32817D01*
X31189Y32929D01*
X31104Y33015D01*
X30991Y33061D01*
X30870Y33062D01*
X30758Y33015D01*
X30672Y32929D01*
X30625Y32817D01*
X30625Y32696D01*
X30672Y32583D01*
X30757Y32497D01*
X30870Y32451D01*
X30981Y32451D01*
X31048Y32384D01*
X31107Y32345D01*
X31176Y32331D01*
X31613Y32331D01*
X31613Y32131D01*
X31632Y32083D01*
X31669Y32046D01*
X31717Y32026D01*
X31769Y32026D01*
X31872Y32026D01*
X31822Y31977D01*
X31787Y31892D01*
X31787Y31801D01*
X31787Y31678D01*
X31845Y31621D01*
X31787Y31621D01*
X31787Y31556D01*
X31778Y31566D01*
X31665Y31612D01*
X31544Y31613D01*
X31432Y31566D01*
X31353Y31487D01*
X30443Y31487D01*
X30225Y31706D01*
X30225Y34477D01*
X33835Y34477D01*
X33841Y34444D01*
X33841Y34192D01*
X33822Y34238D01*
X33785Y34275D01*
X33738Y34295D01*
X33686Y34295D01*
X31717Y34295D01*
X31669Y34275D01*
X31633Y34239D01*
X31613Y34191D01*
X31613Y34139D01*
X31613Y33430D01*
X31632Y33382D01*
X31669Y33346D01*
X31717Y33326D01*
X31769Y33326D01*
X33737Y33326D01*
X33785Y33345D01*
X33822Y33382D01*
X33841Y33428D01*
X33841Y32893D01*
G54D10*
G36*
X42244Y30537D02*
X41468Y30537D01*
X41468Y32918D01*
X41329Y33256D01*
X41071Y33514D01*
X40733Y33654D01*
X40368Y33654D01*
X40031Y33515D01*
X39773Y33257D01*
X39633Y32920D01*
X39632Y32555D01*
X39772Y32217D01*
X40030Y31959D01*
X40367Y31819D01*
X40732Y31819D01*
X41069Y31958D01*
X41328Y32216D01*
X41468Y32553D01*
X41468Y32918D01*
X41468Y30537D01*
X37376Y30537D01*
X37376Y31018D01*
X37376Y31608D01*
X37356Y31656D01*
X37319Y31693D01*
X37272Y31712D01*
X37220Y31713D01*
X36708Y31713D01*
X36693Y31707D01*
X36691Y31713D01*
X36626Y31778D01*
X36541Y31813D01*
X36367Y31812D01*
X36309Y31755D01*
X36309Y31357D01*
X36317Y31357D01*
X36317Y31217D01*
X36309Y31217D01*
X36309Y30819D01*
X36367Y30762D01*
X36541Y30762D01*
X36626Y30797D01*
X36691Y30862D01*
X36693Y30868D01*
X36707Y30862D01*
X36759Y30862D01*
X37271Y30862D01*
X37319Y30882D01*
X37356Y30918D01*
X37376Y30966D01*
X37376Y31018D01*
X37376Y30537D01*
X36170Y30537D01*
X36170Y30819D01*
X36170Y31217D01*
X35811Y31217D01*
X35753Y31160D01*
X35753Y31038D01*
X35753Y30946D01*
X35788Y30862D01*
X35853Y30797D01*
X35938Y30762D01*
X36112Y30762D01*
X36170Y30819D01*
X36170Y30537D01*
X35433Y30537D01*
X35433Y30903D01*
X35145Y31192D01*
X35046Y31094D01*
X35046Y31291D01*
X34757Y31579D01*
X34670Y31549D01*
X34607Y31348D01*
X34626Y31138D01*
X34670Y31032D01*
X34757Y31002D01*
X35046Y31291D01*
X35046Y31094D01*
X34856Y30903D01*
X34886Y30816D01*
X35087Y30753D01*
X35297Y30772D01*
X35403Y30816D01*
X35433Y30903D01*
X35433Y30537D01*
X29657Y30537D01*
X29657Y32917D01*
X29518Y33255D01*
X29260Y33513D01*
X28922Y33653D01*
X28557Y33653D01*
X28220Y33514D01*
X27962Y33256D01*
X27822Y32919D01*
X27821Y32554D01*
X27961Y32216D01*
X28219Y31958D01*
X28556Y31818D01*
X28921Y31818D01*
X29258Y31957D01*
X29517Y32215D01*
X29657Y32552D01*
X29657Y32917D01*
X29657Y30537D01*
X27055Y30537D01*
X27055Y34477D01*
X29864Y34477D01*
X29864Y31631D01*
X29878Y31562D01*
X29917Y31504D01*
X30241Y31180D01*
X30299Y31141D01*
X30369Y31127D01*
X31353Y31127D01*
X31431Y31048D01*
X31544Y31002D01*
X31665Y31002D01*
X31777Y31048D01*
X31839Y31109D01*
X31887Y31061D01*
X31972Y31026D01*
X32146Y31026D01*
X32204Y31083D01*
X32204Y31481D01*
X32196Y31481D01*
X32196Y31621D01*
X32204Y31621D01*
X32204Y31629D01*
X32343Y31629D01*
X32343Y31621D01*
X32351Y31621D01*
X32351Y31481D01*
X32343Y31481D01*
X32343Y31083D01*
X32401Y31026D01*
X32575Y31026D01*
X32660Y31061D01*
X32725Y31126D01*
X32727Y31132D01*
X32741Y31126D01*
X32793Y31126D01*
X33305Y31126D01*
X33353Y31146D01*
X33390Y31182D01*
X33407Y31224D01*
X33714Y31224D01*
X33714Y30965D01*
X33734Y30917D01*
X33771Y30880D01*
X33819Y30860D01*
X33870Y30860D01*
X34470Y30860D01*
X34518Y30880D01*
X34555Y30917D01*
X34575Y30965D01*
X34575Y31016D01*
X34575Y31616D01*
X34555Y31664D01*
X34518Y31701D01*
X34495Y31711D01*
X34495Y32674D01*
X34580Y32639D01*
X34701Y32639D01*
X34813Y32685D01*
X34873Y32745D01*
X34928Y32689D01*
X35040Y32643D01*
X35162Y32643D01*
X35274Y32689D01*
X35360Y32775D01*
X35407Y32887D01*
X35407Y33009D01*
X35360Y33121D01*
X35274Y33207D01*
X35162Y33253D01*
X35140Y33253D01*
X35140Y34258D01*
X35231Y34295D01*
X35317Y34381D01*
X35356Y34477D01*
X36873Y34477D01*
X36889Y34461D01*
X36973Y34425D01*
X37065Y34425D01*
X37207Y34425D01*
X37259Y34477D01*
X37410Y34477D01*
X37462Y34425D01*
X37604Y34425D01*
X37696Y34425D01*
X37780Y34461D01*
X37796Y34477D01*
X38869Y34477D01*
X38996Y34350D01*
X38996Y32672D01*
X38503Y32180D01*
X37676Y32180D01*
X37676Y32184D01*
X37676Y32332D01*
X38140Y32332D01*
X38209Y32346D01*
X38268Y32385D01*
X38350Y32467D01*
X38461Y32467D01*
X38573Y32513D01*
X38659Y32599D01*
X38706Y32711D01*
X38706Y32833D01*
X38706Y33583D01*
X38659Y33695D01*
X38574Y33781D01*
X38461Y33827D01*
X38350Y33828D01*
X38239Y33939D01*
X38180Y33978D01*
X38111Y33992D01*
X37676Y33992D01*
X37676Y34191D01*
X37657Y34239D01*
X37620Y34276D01*
X37572Y34296D01*
X37520Y34296D01*
X35552Y34296D01*
X35504Y34276D01*
X35467Y34240D01*
X35447Y34192D01*
X35447Y34140D01*
X35447Y33431D01*
X35467Y33383D01*
X35504Y33347D01*
X35552Y33327D01*
X35603Y33327D01*
X37572Y33327D01*
X37620Y33346D01*
X37657Y33383D01*
X37676Y33431D01*
X37676Y33483D01*
X37676Y33631D01*
X38037Y33631D01*
X38095Y33572D01*
X38095Y33462D01*
X38142Y33349D01*
X38227Y33263D01*
X38340Y33217D01*
X38461Y33217D01*
X38573Y33263D01*
X38659Y33349D01*
X38706Y33461D01*
X38706Y33583D01*
X38706Y32833D01*
X38659Y32945D01*
X38574Y33031D01*
X38461Y33077D01*
X38340Y33078D01*
X38228Y33031D01*
X38142Y32945D01*
X38095Y32833D01*
X38095Y32722D01*
X38066Y32692D01*
X37676Y32692D01*
X37676Y32892D01*
X37657Y32940D01*
X37620Y32977D01*
X37572Y32997D01*
X37520Y32997D01*
X36867Y32997D01*
X36761Y33040D01*
X36640Y33041D01*
X36534Y32997D01*
X35552Y32997D01*
X35504Y32977D01*
X35467Y32940D01*
X35447Y32892D01*
X35447Y32841D01*
X35447Y32132D01*
X35467Y32084D01*
X35483Y32068D01*
X35409Y32038D01*
X35323Y31952D01*
X35276Y31840D01*
X35276Y31805D01*
X35202Y31828D01*
X34992Y31809D01*
X34886Y31765D01*
X34856Y31678D01*
X35145Y31389D01*
X35150Y31395D01*
X35249Y31296D01*
X35243Y31291D01*
X35532Y31002D01*
X35619Y31032D01*
X35682Y31233D01*
X35663Y31443D01*
X35650Y31477D01*
X35753Y31519D01*
X35753Y31414D01*
X35811Y31357D01*
X36170Y31357D01*
X36170Y31755D01*
X36112Y31812D01*
X35938Y31813D01*
X35887Y31791D01*
X35887Y31819D01*
X38578Y31819D01*
X38647Y31833D01*
X38705Y31872D01*
X39304Y32470D01*
X39304Y32470D01*
X39304Y32470D01*
X39327Y32505D01*
X39343Y32529D01*
X39343Y32529D01*
X39356Y32598D01*
X39356Y34425D01*
X39346Y34477D01*
X42244Y34477D01*
X42244Y30537D01*
X42244Y30537D01*
G37*
G54D31*
X42244Y30537D02*
X41468Y30537D01*
X41468Y32918D01*
X41329Y33256D01*
X41071Y33514D01*
X40733Y33654D01*
X40368Y33654D01*
X40031Y33515D01*
X39773Y33257D01*
X39633Y32920D01*
X39632Y32555D01*
X39772Y32217D01*
X40030Y31959D01*
X40367Y31819D01*
X40732Y31819D01*
X41069Y31958D01*
X41328Y32216D01*
X41468Y32553D01*
X41468Y32918D01*
X41468Y30537D01*
X37376Y30537D01*
X37376Y31018D01*
X37376Y31608D01*
X37356Y31656D01*
X37319Y31693D01*
X37272Y31712D01*
X37220Y31713D01*
X36708Y31713D01*
X36693Y31707D01*
X36691Y31713D01*
X36626Y31778D01*
X36541Y31813D01*
X36367Y31812D01*
X36309Y31755D01*
X36309Y31357D01*
X36317Y31357D01*
X36317Y31217D01*
X36309Y31217D01*
X36309Y30819D01*
X36367Y30762D01*
X36541Y30762D01*
X36626Y30797D01*
X36691Y30862D01*
X36693Y30868D01*
X36707Y30862D01*
X36759Y30862D01*
X37271Y30862D01*
X37319Y30882D01*
X37356Y30918D01*
X37376Y30966D01*
X37376Y31018D01*
X37376Y30537D01*
X36170Y30537D01*
X36170Y30819D01*
X36170Y31217D01*
X35811Y31217D01*
X35753Y31160D01*
X35753Y31038D01*
X35753Y30946D01*
X35788Y30862D01*
X35853Y30797D01*
X35938Y30762D01*
X36112Y30762D01*
X36170Y30819D01*
X36170Y30537D01*
X35433Y30537D01*
X35433Y30903D01*
X35145Y31192D01*
X35046Y31094D01*
X35046Y31291D01*
X34757Y31579D01*
X34670Y31549D01*
X34607Y31348D01*
X34626Y31138D01*
X34670Y31032D01*
X34757Y31002D01*
X35046Y31291D01*
X35046Y31094D01*
X34856Y30903D01*
X34886Y30816D01*
X35087Y30753D01*
X35297Y30772D01*
X35403Y30816D01*
X35433Y30903D01*
X35433Y30537D01*
X29657Y30537D01*
X29657Y32917D01*
X29518Y33255D01*
X29260Y33513D01*
X28922Y33653D01*
X28557Y33653D01*
X28220Y33514D01*
X27962Y33256D01*
X27822Y32919D01*
X27821Y32554D01*
X27961Y32216D01*
X28219Y31958D01*
X28556Y31818D01*
X28921Y31818D01*
X29258Y31957D01*
X29517Y32215D01*
X29657Y32552D01*
X29657Y32917D01*
X29657Y30537D01*
X27055Y30537D01*
X27055Y34477D01*
X29864Y34477D01*
X29864Y31631D01*
X29878Y31562D01*
X29917Y31504D01*
X30241Y31180D01*
X30299Y31141D01*
X30369Y31127D01*
X31353Y31127D01*
X31431Y31048D01*
X31544Y31002D01*
X31665Y31002D01*
X31777Y31048D01*
X31839Y31109D01*
X31887Y31061D01*
X31972Y31026D01*
X32146Y31026D01*
X32204Y31083D01*
X32204Y31481D01*
X32196Y31481D01*
X32196Y31621D01*
X32204Y31621D01*
X32204Y31629D01*
X32343Y31629D01*
X32343Y31621D01*
X32351Y31621D01*
X32351Y31481D01*
X32343Y31481D01*
X32343Y31083D01*
X32401Y31026D01*
X32575Y31026D01*
X32660Y31061D01*
X32725Y31126D01*
X32727Y31132D01*
X32741Y31126D01*
X32793Y31126D01*
X33305Y31126D01*
X33353Y31146D01*
X33390Y31182D01*
X33407Y31224D01*
X33714Y31224D01*
X33714Y30965D01*
X33734Y30917D01*
X33771Y30880D01*
X33819Y30860D01*
X33870Y30860D01*
X34470Y30860D01*
X34518Y30880D01*
X34555Y30917D01*
X34575Y30965D01*
X34575Y31016D01*
X34575Y31616D01*
X34555Y31664D01*
X34518Y31701D01*
X34495Y31711D01*
X34495Y32674D01*
X34580Y32639D01*
X34701Y32639D01*
X34813Y32685D01*
X34873Y32745D01*
X34928Y32689D01*
X35040Y32643D01*
X35162Y32643D01*
X35274Y32689D01*
X35360Y32775D01*
X35407Y32887D01*
X35407Y33009D01*
X35360Y33121D01*
X35274Y33207D01*
X35162Y33253D01*
X35140Y33253D01*
X35140Y34258D01*
X35231Y34295D01*
X35317Y34381D01*
X35356Y34477D01*
X36873Y34477D01*
X36889Y34461D01*
X36973Y34425D01*
X37065Y34425D01*
X37207Y34425D01*
X37259Y34477D01*
X37410Y34477D01*
X37462Y34425D01*
X37604Y34425D01*
X37696Y34425D01*
X37780Y34461D01*
X37796Y34477D01*
X38869Y34477D01*
X38996Y34350D01*
X38996Y32672D01*
X38503Y32180D01*
X37676Y32180D01*
X37676Y32184D01*
X37676Y32332D01*
X38140Y32332D01*
X38209Y32346D01*
X38268Y32385D01*
X38350Y32467D01*
X38461Y32467D01*
X38573Y32513D01*
X38659Y32599D01*
X38706Y32711D01*
X38706Y32833D01*
X38706Y33583D01*
X38659Y33695D01*
X38574Y33781D01*
X38461Y33827D01*
X38350Y33828D01*
X38239Y33939D01*
X38180Y33978D01*
X38111Y33992D01*
X37676Y33992D01*
X37676Y34191D01*
X37657Y34239D01*
X37620Y34276D01*
X37572Y34296D01*
X37520Y34296D01*
X35552Y34296D01*
X35504Y34276D01*
X35467Y34240D01*
X35447Y34192D01*
X35447Y34140D01*
X35447Y33431D01*
X35467Y33383D01*
X35504Y33347D01*
X35552Y33327D01*
X35603Y33327D01*
X37572Y33327D01*
X37620Y33346D01*
X37657Y33383D01*
X37676Y33431D01*
X37676Y33483D01*
X37676Y33631D01*
X38037Y33631D01*
X38095Y33572D01*
X38095Y33462D01*
X38142Y33349D01*
X38227Y33263D01*
X38340Y33217D01*
X38461Y33217D01*
X38573Y33263D01*
X38659Y33349D01*
X38706Y33461D01*
X38706Y33583D01*
X38706Y32833D01*
X38659Y32945D01*
X38574Y33031D01*
X38461Y33077D01*
X38340Y33078D01*
X38228Y33031D01*
X38142Y32945D01*
X38095Y32833D01*
X38095Y32722D01*
X38066Y32692D01*
X37676Y32692D01*
X37676Y32892D01*
X37657Y32940D01*
X37620Y32977D01*
X37572Y32997D01*
X37520Y32997D01*
X36867Y32997D01*
X36761Y33040D01*
X36640Y33041D01*
X36534Y32997D01*
X35552Y32997D01*
X35504Y32977D01*
X35467Y32940D01*
X35447Y32892D01*
X35447Y32841D01*
X35447Y32132D01*
X35467Y32084D01*
X35483Y32068D01*
X35409Y32038D01*
X35323Y31952D01*
X35276Y31840D01*
X35276Y31805D01*
X35202Y31828D01*
X34992Y31809D01*
X34886Y31765D01*
X34856Y31678D01*
X35145Y31389D01*
X35150Y31395D01*
X35249Y31296D01*
X35243Y31291D01*
X35532Y31002D01*
X35619Y31032D01*
X35682Y31233D01*
X35663Y31443D01*
X35650Y31477D01*
X35753Y31519D01*
X35753Y31414D01*
X35811Y31357D01*
X36170Y31357D01*
X36170Y31755D01*
X36112Y31812D01*
X35938Y31813D01*
X35887Y31791D01*
X35887Y31819D01*
X38578Y31819D01*
X38647Y31833D01*
X38705Y31872D01*
X39304Y32470D01*
X39304Y32470D01*
X39304Y32470D01*
X39327Y32505D01*
X39343Y32529D01*
X39343Y32529D01*
X39356Y32598D01*
X39356Y34425D01*
X39346Y34477D01*
X42244Y34477D01*
X42244Y30537D01*
G54D10*
G36*
X35185Y43832D02*
X35086Y43733D01*
X35081Y43739D01*
X35075Y43733D01*
X34976Y43832D01*
X34982Y43837D01*
X34976Y43843D01*
X35075Y43941D01*
X35081Y43936D01*
X35086Y43941D01*
X35185Y43843D01*
X35179Y43837D01*
X35185Y43832D01*
X35185Y43832D01*
G37*
G54D31*
X35185Y43832D02*
X35086Y43733D01*
X35081Y43739D01*
X35075Y43733D01*
X34976Y43832D01*
X34982Y43837D01*
X34976Y43843D01*
X35075Y43941D01*
X35081Y43936D01*
X35086Y43941D01*
X35185Y43843D01*
X35179Y43837D01*
X35185Y43832D01*
G54D10*
G36*
X40194Y51037D02*
X34425Y51037D01*
X34425Y51873D01*
X34425Y52673D01*
X34405Y52721D01*
X34368Y52758D01*
X34321Y52777D01*
X34269Y52778D01*
X34175Y52778D01*
X34175Y53228D01*
X34173Y53235D01*
X34227Y53364D01*
X34227Y53547D01*
X34157Y53716D01*
X34028Y53846D01*
X33859Y53916D01*
X33740Y53916D01*
X33142Y54515D01*
X33084Y54554D01*
X33075Y54555D01*
X33073Y54560D01*
X32988Y54646D01*
X32875Y54692D01*
X32754Y54693D01*
X32642Y54646D01*
X32556Y54560D01*
X32509Y54448D01*
X32509Y54327D01*
X32556Y54214D01*
X32641Y54128D01*
X32754Y54082D01*
X32875Y54082D01*
X32987Y54128D01*
X33003Y54144D01*
X33403Y53744D01*
X33377Y53717D01*
X33306Y53548D01*
X33306Y53365D01*
X33376Y53196D01*
X33506Y53066D01*
X33675Y52996D01*
X33814Y52996D01*
X33814Y52778D01*
X33669Y52778D01*
X33621Y52758D01*
X33584Y52721D01*
X33564Y52673D01*
X33564Y52621D01*
X33564Y51821D01*
X33584Y51773D01*
X33621Y51737D01*
X33669Y51717D01*
X33720Y51717D01*
X34320Y51717D01*
X34368Y51737D01*
X34405Y51773D01*
X34425Y51821D01*
X34425Y51873D01*
X34425Y51037D01*
X33227Y51037D01*
X33227Y53547D01*
X33157Y53716D01*
X33028Y53846D01*
X32859Y53916D01*
X32675Y53916D01*
X32506Y53846D01*
X32377Y53717D01*
X32306Y53548D01*
X32306Y53365D01*
X32376Y53196D01*
X32506Y53066D01*
X32586Y53032D01*
X32586Y52336D01*
X32562Y52326D01*
X32476Y52240D01*
X32429Y52128D01*
X32429Y52007D01*
X32476Y51894D01*
X32561Y51808D01*
X32674Y51762D01*
X32795Y51762D01*
X32907Y51808D01*
X32993Y51894D01*
X33040Y52006D01*
X33040Y52128D01*
X32993Y52240D01*
X32947Y52287D01*
X32947Y53032D01*
X33027Y53066D01*
X33157Y53195D01*
X33227Y53364D01*
X33227Y53547D01*
X33227Y51037D01*
X29095Y51037D01*
X29133Y51053D01*
X29263Y51183D01*
X29333Y51352D01*
X29333Y51535D01*
X29263Y51704D01*
X29134Y51834D01*
X29017Y51883D01*
X29127Y51928D01*
X29213Y52014D01*
X29228Y52050D01*
X29228Y51935D01*
X29298Y51766D01*
X29427Y51637D01*
X29597Y51566D01*
X29780Y51566D01*
X29949Y51636D01*
X30079Y51765D01*
X30149Y51935D01*
X30149Y52118D01*
X30079Y52287D01*
X30016Y52350D01*
X30016Y52972D01*
X30016Y53821D01*
X31745Y55550D01*
X35566Y55550D01*
X36056Y55550D01*
X36195Y55411D01*
X36195Y53780D01*
X36133Y53717D01*
X36062Y53548D01*
X36062Y53365D01*
X36132Y53196D01*
X36195Y53132D01*
X36195Y53060D01*
X35983Y52848D01*
X35983Y53547D01*
X35913Y53716D01*
X35784Y53846D01*
X35614Y53916D01*
X35431Y53916D01*
X35262Y53846D01*
X35133Y53717D01*
X35062Y53548D01*
X35062Y53365D01*
X35132Y53196D01*
X35261Y53066D01*
X35431Y52996D01*
X35614Y52996D01*
X35783Y53066D01*
X35913Y53195D01*
X35983Y53364D01*
X35983Y53547D01*
X35983Y52848D01*
X35725Y52590D01*
X35725Y52673D01*
X35705Y52721D01*
X35668Y52758D01*
X35621Y52777D01*
X35569Y52778D01*
X34969Y52778D01*
X34921Y52758D01*
X34884Y52721D01*
X34864Y52673D01*
X34864Y52621D01*
X34864Y51821D01*
X34884Y51773D01*
X34921Y51737D01*
X34969Y51717D01*
X35020Y51717D01*
X35620Y51717D01*
X35668Y51737D01*
X35705Y51773D01*
X35725Y51821D01*
X35725Y51873D01*
X35725Y51920D01*
X35845Y51920D01*
X35970Y51945D01*
X36077Y52016D01*
X36754Y52693D01*
X36825Y52799D01*
X36850Y52925D01*
X36850Y53129D01*
X38131Y53129D01*
X39141Y52119D01*
X39140Y52118D01*
X39140Y51935D01*
X39210Y51766D01*
X39340Y51637D01*
X39369Y51624D01*
X38028Y51624D01*
X38013Y51660D01*
X37928Y51746D01*
X37815Y51792D01*
X37694Y51793D01*
X37582Y51746D01*
X37496Y51660D01*
X37449Y51548D01*
X37449Y51427D01*
X37496Y51314D01*
X37581Y51228D01*
X37694Y51182D01*
X37815Y51182D01*
X37927Y51228D01*
X37963Y51263D01*
X39993Y51263D01*
X40026Y51183D01*
X40155Y51054D01*
X40194Y51037D01*
X40194Y51037D01*
G37*
G54D31*
X40194Y51037D02*
X34425Y51037D01*
X34425Y51873D01*
X34425Y52673D01*
X34405Y52721D01*
X34368Y52758D01*
X34321Y52777D01*
X34269Y52778D01*
X34175Y52778D01*
X34175Y53228D01*
X34173Y53235D01*
X34227Y53364D01*
X34227Y53547D01*
X34157Y53716D01*
X34028Y53846D01*
X33859Y53916D01*
X33740Y53916D01*
X33142Y54515D01*
X33084Y54554D01*
X33075Y54555D01*
X33073Y54560D01*
X32988Y54646D01*
X32875Y54692D01*
X32754Y54693D01*
X32642Y54646D01*
X32556Y54560D01*
X32509Y54448D01*
X32509Y54327D01*
X32556Y54214D01*
X32641Y54128D01*
X32754Y54082D01*
X32875Y54082D01*
X32987Y54128D01*
X33003Y54144D01*
X33403Y53744D01*
X33377Y53717D01*
X33306Y53548D01*
X33306Y53365D01*
X33376Y53196D01*
X33506Y53066D01*
X33675Y52996D01*
X33814Y52996D01*
X33814Y52778D01*
X33669Y52778D01*
X33621Y52758D01*
X33584Y52721D01*
X33564Y52673D01*
X33564Y52621D01*
X33564Y51821D01*
X33584Y51773D01*
X33621Y51737D01*
X33669Y51717D01*
X33720Y51717D01*
X34320Y51717D01*
X34368Y51737D01*
X34405Y51773D01*
X34425Y51821D01*
X34425Y51873D01*
X34425Y51037D01*
X33227Y51037D01*
X33227Y53547D01*
X33157Y53716D01*
X33028Y53846D01*
X32859Y53916D01*
X32675Y53916D01*
X32506Y53846D01*
X32377Y53717D01*
X32306Y53548D01*
X32306Y53365D01*
X32376Y53196D01*
X32506Y53066D01*
X32586Y53032D01*
X32586Y52336D01*
X32562Y52326D01*
X32476Y52240D01*
X32429Y52128D01*
X32429Y52007D01*
X32476Y51894D01*
X32561Y51808D01*
X32674Y51762D01*
X32795Y51762D01*
X32907Y51808D01*
X32993Y51894D01*
X33040Y52006D01*
X33040Y52128D01*
X32993Y52240D01*
X32947Y52287D01*
X32947Y53032D01*
X33027Y53066D01*
X33157Y53195D01*
X33227Y53364D01*
X33227Y53547D01*
X33227Y51037D01*
X29095Y51037D01*
X29133Y51053D01*
X29263Y51183D01*
X29333Y51352D01*
X29333Y51535D01*
X29263Y51704D01*
X29134Y51834D01*
X29017Y51883D01*
X29127Y51928D01*
X29213Y52014D01*
X29228Y52050D01*
X29228Y51935D01*
X29298Y51766D01*
X29427Y51637D01*
X29597Y51566D01*
X29780Y51566D01*
X29949Y51636D01*
X30079Y51765D01*
X30149Y51935D01*
X30149Y52118D01*
X30079Y52287D01*
X30016Y52350D01*
X30016Y52972D01*
X30016Y53821D01*
X31745Y55550D01*
X35566Y55550D01*
X36056Y55550D01*
X36195Y55411D01*
X36195Y53780D01*
X36133Y53717D01*
X36062Y53548D01*
X36062Y53365D01*
X36132Y53196D01*
X36195Y53132D01*
X36195Y53060D01*
X35983Y52848D01*
X35983Y53547D01*
X35913Y53716D01*
X35784Y53846D01*
X35614Y53916D01*
X35431Y53916D01*
X35262Y53846D01*
X35133Y53717D01*
X35062Y53548D01*
X35062Y53365D01*
X35132Y53196D01*
X35261Y53066D01*
X35431Y52996D01*
X35614Y52996D01*
X35783Y53066D01*
X35913Y53195D01*
X35983Y53364D01*
X35983Y53547D01*
X35983Y52848D01*
X35725Y52590D01*
X35725Y52673D01*
X35705Y52721D01*
X35668Y52758D01*
X35621Y52777D01*
X35569Y52778D01*
X34969Y52778D01*
X34921Y52758D01*
X34884Y52721D01*
X34864Y52673D01*
X34864Y52621D01*
X34864Y51821D01*
X34884Y51773D01*
X34921Y51737D01*
X34969Y51717D01*
X35020Y51717D01*
X35620Y51717D01*
X35668Y51737D01*
X35705Y51773D01*
X35725Y51821D01*
X35725Y51873D01*
X35725Y51920D01*
X35845Y51920D01*
X35970Y51945D01*
X36077Y52016D01*
X36754Y52693D01*
X36825Y52799D01*
X36850Y52925D01*
X36850Y53129D01*
X38131Y53129D01*
X39141Y52119D01*
X39140Y52118D01*
X39140Y51935D01*
X39210Y51766D01*
X39340Y51637D01*
X39369Y51624D01*
X38028Y51624D01*
X38013Y51660D01*
X37928Y51746D01*
X37815Y51792D01*
X37694Y51793D01*
X37582Y51746D01*
X37496Y51660D01*
X37449Y51548D01*
X37449Y51427D01*
X37496Y51314D01*
X37581Y51228D01*
X37694Y51182D01*
X37815Y51182D01*
X37927Y51228D01*
X37963Y51263D01*
X39993Y51263D01*
X40026Y51183D01*
X40155Y51054D01*
X40194Y51037D01*
G54D10*
G36*
X43482Y45607D02*
X42175Y45607D01*
X42105Y45594D01*
X42047Y45555D01*
X42047Y45555D01*
X42047Y45555D01*
X41445Y44952D01*
X41334Y44953D01*
X41222Y44906D01*
X41136Y44820D01*
X41089Y44708D01*
X41089Y44695D01*
X41015Y44770D01*
X40902Y44816D01*
X40781Y44816D01*
X40669Y44770D01*
X40583Y44684D01*
X40536Y44572D01*
X40536Y44521D01*
X40455Y44602D01*
X40455Y44712D01*
X40762Y45020D01*
X40762Y45020D01*
X40762Y45020D01*
X40801Y45078D01*
X40801Y45078D01*
X40812Y45133D01*
X40815Y45147D01*
X40815Y45147D01*
X40815Y45147D01*
X40815Y46323D01*
X40887Y46298D01*
X41176Y46587D01*
X40887Y46876D01*
X40810Y46850D01*
X40801Y46896D01*
X40801Y46896D01*
X40762Y46955D01*
X40762Y46955D01*
X40555Y47162D01*
X40555Y47887D01*
X40966Y47887D01*
X40910Y47831D01*
X40844Y47673D01*
X40844Y47502D01*
X40909Y47344D01*
X41030Y47223D01*
X41189Y47157D01*
X41360Y47157D01*
X41518Y47222D01*
X41639Y47343D01*
X41666Y47407D01*
X41715Y47407D01*
X41784Y47421D01*
X41842Y47460D01*
X42124Y47742D01*
X42235Y47742D01*
X42347Y47788D01*
X42433Y47874D01*
X42480Y47986D01*
X42480Y48108D01*
X42433Y48220D01*
X42407Y48247D01*
X42780Y48247D01*
X43194Y47832D01*
X43194Y47036D01*
X42887Y46729D01*
X42807Y46763D01*
X42639Y46763D01*
X42718Y46842D01*
X42807Y46842D01*
X42976Y46912D01*
X43105Y47041D01*
X43176Y47210D01*
X43176Y47394D01*
X43106Y47563D01*
X42977Y47692D01*
X42807Y47763D01*
X42624Y47763D01*
X42455Y47693D01*
X42325Y47564D01*
X42255Y47394D01*
X42255Y47305D01*
X41763Y46813D01*
X41749Y46846D01*
X41662Y46876D01*
X41563Y46777D01*
X41563Y46975D01*
X41533Y47062D01*
X41332Y47125D01*
X41122Y47106D01*
X41016Y47062D01*
X40986Y46975D01*
X41275Y46686D01*
X41563Y46975D01*
X41563Y46777D01*
X41373Y46587D01*
X41379Y46582D01*
X41280Y46483D01*
X41275Y46489D01*
X40986Y46200D01*
X41016Y46112D01*
X41217Y46050D01*
X41424Y46068D01*
X41369Y46014D01*
X41360Y46017D01*
X41189Y46018D01*
X41031Y45952D01*
X40910Y45831D01*
X40844Y45673D01*
X40844Y45502D01*
X40909Y45344D01*
X41030Y45223D01*
X41189Y45157D01*
X41360Y45157D01*
X41518Y45222D01*
X41639Y45343D01*
X41650Y45368D01*
X42211Y45929D01*
X42281Y46036D01*
X42296Y46111D01*
X42325Y46042D01*
X42454Y45912D01*
X42623Y45842D01*
X42807Y45842D01*
X42976Y45912D01*
X43105Y46041D01*
X43176Y46210D01*
X43176Y46394D01*
X43142Y46474D01*
X43414Y46746D01*
X43414Y46016D01*
X43369Y45908D01*
X43369Y45787D01*
X43416Y45674D01*
X43482Y45607D01*
X43482Y45607D01*
G37*
G54D31*
X43482Y45607D02*
X42175Y45607D01*
X42105Y45594D01*
X42047Y45555D01*
X42047Y45555D01*
X42047Y45555D01*
X41445Y44952D01*
X41334Y44953D01*
X41222Y44906D01*
X41136Y44820D01*
X41089Y44708D01*
X41089Y44695D01*
X41015Y44770D01*
X40902Y44816D01*
X40781Y44816D01*
X40669Y44770D01*
X40583Y44684D01*
X40536Y44572D01*
X40536Y44521D01*
X40455Y44602D01*
X40455Y44712D01*
X40762Y45020D01*
X40762Y45020D01*
X40762Y45020D01*
X40801Y45078D01*
X40801Y45078D01*
X40812Y45133D01*
X40815Y45147D01*
X40815Y45147D01*
X40815Y45147D01*
X40815Y46323D01*
X40887Y46298D01*
X41176Y46587D01*
X40887Y46876D01*
X40810Y46850D01*
X40801Y46896D01*
X40801Y46896D01*
X40762Y46955D01*
X40762Y46955D01*
X40555Y47162D01*
X40555Y47887D01*
X40966Y47887D01*
X40910Y47831D01*
X40844Y47673D01*
X40844Y47502D01*
X40909Y47344D01*
X41030Y47223D01*
X41189Y47157D01*
X41360Y47157D01*
X41518Y47222D01*
X41639Y47343D01*
X41666Y47407D01*
X41715Y47407D01*
X41784Y47421D01*
X41842Y47460D01*
X42124Y47742D01*
X42235Y47742D01*
X42347Y47788D01*
X42433Y47874D01*
X42480Y47986D01*
X42480Y48108D01*
X42433Y48220D01*
X42407Y48247D01*
X42780Y48247D01*
X43194Y47832D01*
X43194Y47036D01*
X42887Y46729D01*
X42807Y46763D01*
X42639Y46763D01*
X42718Y46842D01*
X42807Y46842D01*
X42976Y46912D01*
X43105Y47041D01*
X43176Y47210D01*
X43176Y47394D01*
X43106Y47563D01*
X42977Y47692D01*
X42807Y47763D01*
X42624Y47763D01*
X42455Y47693D01*
X42325Y47564D01*
X42255Y47394D01*
X42255Y47305D01*
X41763Y46813D01*
X41749Y46846D01*
X41662Y46876D01*
X41563Y46777D01*
X41563Y46975D01*
X41533Y47062D01*
X41332Y47125D01*
X41122Y47106D01*
X41016Y47062D01*
X40986Y46975D01*
X41275Y46686D01*
X41563Y46975D01*
X41563Y46777D01*
X41373Y46587D01*
X41379Y46582D01*
X41280Y46483D01*
X41275Y46489D01*
X40986Y46200D01*
X41016Y46112D01*
X41217Y46050D01*
X41424Y46068D01*
X41369Y46014D01*
X41360Y46017D01*
X41189Y46018D01*
X41031Y45952D01*
X40910Y45831D01*
X40844Y45673D01*
X40844Y45502D01*
X40909Y45344D01*
X41030Y45223D01*
X41189Y45157D01*
X41360Y45157D01*
X41518Y45222D01*
X41639Y45343D01*
X41650Y45368D01*
X42211Y45929D01*
X42281Y46036D01*
X42296Y46111D01*
X42325Y46042D01*
X42454Y45912D01*
X42623Y45842D01*
X42807Y45842D01*
X42976Y45912D01*
X43105Y46041D01*
X43176Y46210D01*
X43176Y46394D01*
X43142Y46474D01*
X43414Y46746D01*
X43414Y46016D01*
X43369Y45908D01*
X43369Y45787D01*
X43416Y45674D01*
X43482Y45607D01*
G54D10*
G36*
X47244Y40537D02*
X47040Y40537D01*
X47040Y40824D01*
X47040Y42308D01*
X47040Y42400D01*
X47005Y42484D01*
X46940Y42549D01*
X46856Y42584D01*
X46583Y42584D01*
X46525Y42526D01*
X46525Y41636D01*
X46983Y41636D01*
X47040Y41693D01*
X47040Y42308D01*
X47040Y40824D01*
X47040Y41439D01*
X46983Y41497D01*
X46525Y41497D01*
X46525Y40606D01*
X46583Y40549D01*
X46856Y40548D01*
X46940Y40583D01*
X47005Y40648D01*
X47040Y40733D01*
X47040Y40824D01*
X47040Y40537D01*
X46386Y40537D01*
X46386Y40606D01*
X46386Y41497D01*
X46386Y41636D01*
X46386Y42526D01*
X46328Y42584D01*
X46056Y42584D01*
X45971Y42549D01*
X45906Y42484D01*
X45871Y42400D01*
X45871Y42308D01*
X45871Y41693D01*
X45929Y41636D01*
X46386Y41636D01*
X46386Y41497D01*
X45929Y41497D01*
X45871Y41439D01*
X45871Y40824D01*
X45871Y40733D01*
X45906Y40648D01*
X45971Y40583D01*
X46056Y40548D01*
X46328Y40549D01*
X46386Y40606D01*
X46386Y40537D01*
X42244Y40537D01*
X42244Y35537D01*
X41975Y35537D01*
X41975Y38913D01*
X41975Y39622D01*
X41975Y39713D01*
X41940Y39798D01*
X41920Y39817D01*
X41940Y39837D01*
X41975Y39921D01*
X41975Y40013D01*
X41975Y40722D01*
X41975Y40813D01*
X41940Y40898D01*
X41875Y40963D01*
X41790Y40998D01*
X41572Y40997D01*
X41514Y40940D01*
X41514Y40437D01*
X41917Y40437D01*
X41975Y40494D01*
X41975Y40722D01*
X41975Y40013D01*
X41975Y40240D01*
X41917Y40297D01*
X41514Y40297D01*
X41514Y39840D01*
X41514Y39794D01*
X41514Y39337D01*
X41917Y39337D01*
X41975Y39394D01*
X41975Y39622D01*
X41975Y38913D01*
X41975Y39140D01*
X41917Y39197D01*
X41514Y39197D01*
X41514Y38694D01*
X41572Y38637D01*
X41790Y38637D01*
X41875Y38672D01*
X41940Y38737D01*
X41975Y38821D01*
X41975Y38913D01*
X41975Y35537D01*
X41468Y35537D01*
X41468Y36721D01*
X41375Y36947D01*
X41375Y38694D01*
X41375Y39197D01*
X41375Y39337D01*
X41375Y39794D01*
X41375Y39840D01*
X41375Y40297D01*
X41375Y40437D01*
X41375Y40940D01*
X41317Y40997D01*
X41192Y40998D01*
X41192Y41450D01*
X41173Y41660D01*
X41129Y41766D01*
X41085Y41781D01*
X41085Y42592D01*
X41020Y42751D01*
X40899Y42872D01*
X40756Y42931D01*
X40756Y43278D01*
X40756Y43420D01*
X40699Y43477D01*
X39887Y43477D01*
X39887Y43470D01*
X39748Y43470D01*
X39748Y43477D01*
X39748Y43617D01*
X39748Y44035D01*
X39690Y44092D01*
X39063Y44093D01*
X38979Y44058D01*
X38914Y43993D01*
X38879Y43908D01*
X38879Y43817D01*
X38879Y43674D01*
X38936Y43617D01*
X39748Y43617D01*
X39748Y43477D01*
X38936Y43477D01*
X38879Y43420D01*
X38879Y43278D01*
X38879Y43186D01*
X38914Y43102D01*
X38979Y43037D01*
X39063Y43002D01*
X39408Y43002D01*
X39369Y42908D01*
X39369Y42787D01*
X39416Y42674D01*
X39494Y42596D01*
X39494Y42271D01*
X39482Y42266D01*
X39396Y42180D01*
X39349Y42068D01*
X39349Y41947D01*
X39396Y41834D01*
X39481Y41748D01*
X39594Y41702D01*
X39715Y41702D01*
X39827Y41748D01*
X39913Y41834D01*
X39960Y41946D01*
X39960Y42068D01*
X39913Y42180D01*
X39855Y42239D01*
X39855Y42596D01*
X39933Y42674D01*
X39980Y42786D01*
X39980Y42908D01*
X39938Y43008D01*
X39945Y43002D01*
X40572Y43002D01*
X40656Y43037D01*
X40721Y43102D01*
X40756Y43186D01*
X40756Y43278D01*
X40756Y42931D01*
X40740Y42937D01*
X40569Y42938D01*
X40411Y42872D01*
X40290Y42751D01*
X40224Y42593D01*
X40224Y42422D01*
X40289Y42264D01*
X40410Y42143D01*
X40569Y42077D01*
X40740Y42077D01*
X40898Y42142D01*
X41019Y42263D01*
X41085Y42421D01*
X41085Y42592D01*
X41085Y41781D01*
X41042Y41796D01*
X40943Y41697D01*
X40943Y41895D01*
X40913Y41982D01*
X40712Y42045D01*
X40502Y42026D01*
X40396Y41982D01*
X40366Y41895D01*
X40655Y41606D01*
X40943Y41895D01*
X40943Y41697D01*
X40753Y41507D01*
X41042Y41218D01*
X41129Y41248D01*
X41192Y41450D01*
X41192Y40998D01*
X41099Y40998D01*
X41014Y40963D01*
X40949Y40898D01*
X40943Y40883D01*
X40943Y41120D01*
X40655Y41409D01*
X40556Y41310D01*
X40556Y41507D01*
X40267Y41796D01*
X40180Y41766D01*
X40117Y41565D01*
X40136Y41354D01*
X40180Y41248D01*
X40267Y41218D01*
X40556Y41507D01*
X40556Y41310D01*
X40366Y41120D01*
X40396Y41032D01*
X40597Y40970D01*
X40807Y40988D01*
X40913Y41032D01*
X40943Y41120D01*
X40943Y40883D01*
X40914Y40813D01*
X40914Y40722D01*
X40914Y40494D01*
X40972Y40437D01*
X41375Y40437D01*
X41375Y40297D01*
X40972Y40297D01*
X40914Y40240D01*
X40914Y40013D01*
X40914Y39921D01*
X40949Y39837D01*
X40969Y39817D01*
X40949Y39798D01*
X40914Y39713D01*
X40914Y39622D01*
X40914Y39394D01*
X40972Y39337D01*
X41375Y39337D01*
X41375Y39197D01*
X40972Y39197D01*
X40914Y39140D01*
X40914Y38913D01*
X40914Y38821D01*
X40949Y38737D01*
X41014Y38672D01*
X41099Y38637D01*
X41317Y38637D01*
X41375Y38694D01*
X41375Y36947D01*
X41329Y37059D01*
X41071Y37317D01*
X40733Y37457D01*
X40575Y37457D01*
X40575Y38893D01*
X40575Y39693D01*
X40555Y39741D01*
X40518Y39778D01*
X40471Y39797D01*
X40419Y39798D01*
X40019Y39798D01*
X39980Y39837D01*
X40470Y39837D01*
X40518Y39857D01*
X40555Y39893D01*
X40575Y39941D01*
X40575Y39993D01*
X40575Y40793D01*
X40555Y40841D01*
X40518Y40878D01*
X40471Y40897D01*
X40419Y40898D01*
X40039Y40898D01*
X39900Y41037D01*
X39900Y41148D01*
X39853Y41260D01*
X39768Y41346D01*
X39655Y41392D01*
X39534Y41393D01*
X39422Y41346D01*
X39336Y41260D01*
X39289Y41148D01*
X39289Y41027D01*
X39336Y40914D01*
X39421Y40828D01*
X39534Y40782D01*
X39645Y40782D01*
X39714Y40713D01*
X39714Y40279D01*
X39688Y40306D01*
X39575Y40352D01*
X39454Y40353D01*
X39436Y40345D01*
X39436Y40657D01*
X39436Y40748D01*
X39401Y40833D01*
X39336Y40898D01*
X39251Y40933D01*
X39077Y40932D01*
X39019Y40875D01*
X39019Y40477D01*
X39378Y40477D01*
X39436Y40534D01*
X39436Y40657D01*
X39436Y40345D01*
X39390Y40326D01*
X39378Y40337D01*
X39019Y40337D01*
X39019Y40005D01*
X39007Y39993D01*
X39007Y39595D01*
X39366Y39595D01*
X39424Y39652D01*
X39424Y39754D01*
X39454Y39742D01*
X39565Y39742D01*
X39714Y39593D01*
X39714Y38841D01*
X39734Y38793D01*
X39771Y38757D01*
X39818Y38737D01*
X39870Y38737D01*
X40470Y38737D01*
X40518Y38757D01*
X40555Y38793D01*
X40575Y38841D01*
X40575Y38893D01*
X40575Y37457D01*
X40368Y37458D01*
X40031Y37318D01*
X39773Y37060D01*
X39633Y36723D01*
X39632Y36358D01*
X39772Y36021D01*
X40030Y35762D01*
X40367Y35622D01*
X40732Y35622D01*
X41069Y35761D01*
X41328Y36019D01*
X41468Y36356D01*
X41468Y36721D01*
X41468Y35537D01*
X39424Y35537D01*
X39424Y39276D01*
X39424Y39398D01*
X39366Y39455D01*
X39007Y39455D01*
X39007Y39057D01*
X39065Y39000D01*
X39239Y39000D01*
X39324Y39035D01*
X39389Y39100D01*
X39424Y39184D01*
X39424Y39276D01*
X39424Y35537D01*
X37880Y35537D01*
X37880Y36118D01*
X37845Y36203D01*
X37780Y36268D01*
X37696Y36303D01*
X37604Y36303D01*
X37462Y36303D01*
X37404Y36245D01*
X37404Y35537D01*
X37265Y35537D01*
X37265Y36245D01*
X37207Y36303D01*
X37065Y36303D01*
X36973Y36303D01*
X36889Y36268D01*
X36824Y36203D01*
X36789Y36118D01*
X36789Y35537D01*
X36086Y35537D01*
X36115Y35608D01*
X36115Y36211D01*
X36086Y36282D01*
X36111Y36342D01*
X36111Y36517D01*
X36053Y36574D01*
X35655Y36574D01*
X35655Y36215D01*
X35659Y36211D01*
X35659Y35979D01*
X36057Y35979D01*
X36115Y36037D01*
X36115Y36211D01*
X36115Y35608D01*
X36115Y35782D01*
X36057Y35840D01*
X35659Y35840D01*
X35659Y35832D01*
X35520Y35832D01*
X35520Y35840D01*
X35520Y35979D01*
X35520Y36338D01*
X35516Y36342D01*
X35516Y36574D01*
X35118Y36574D01*
X35060Y36517D01*
X35060Y36342D01*
X35089Y36272D01*
X35064Y36211D01*
X35064Y36037D01*
X35122Y35979D01*
X35520Y35979D01*
X35520Y35840D01*
X35122Y35840D01*
X35064Y35782D01*
X35064Y35608D01*
X35077Y35577D01*
X34831Y35823D01*
X34725Y35893D01*
X34600Y35918D01*
X34451Y35918D01*
X34451Y36246D01*
X34451Y36737D01*
X34416Y36821D01*
X34351Y36886D01*
X34267Y36921D01*
X34175Y36922D01*
X33948Y36921D01*
X33890Y36864D01*
X33890Y36561D01*
X34393Y36561D01*
X34451Y36618D01*
X34451Y36737D01*
X34451Y36246D01*
X34451Y36364D01*
X34393Y36421D01*
X33890Y36421D01*
X33890Y36118D01*
X33948Y36061D01*
X34175Y36061D01*
X34267Y36061D01*
X34351Y36096D01*
X34416Y36161D01*
X34451Y36246D01*
X34451Y35918D01*
X34254Y35918D01*
X34247Y35921D01*
X34195Y35922D01*
X33751Y35922D01*
X33751Y36118D01*
X33751Y36421D01*
X33751Y36561D01*
X33751Y36864D01*
X33693Y36921D01*
X33466Y36922D01*
X33374Y36921D01*
X33290Y36886D01*
X33225Y36821D01*
X33190Y36737D01*
X33190Y36618D01*
X33248Y36561D01*
X33751Y36561D01*
X33751Y36421D01*
X33248Y36421D01*
X33190Y36364D01*
X33190Y36246D01*
X33225Y36161D01*
X33290Y36096D01*
X33374Y36061D01*
X33466Y36061D01*
X33693Y36061D01*
X33751Y36118D01*
X33751Y35922D01*
X33395Y35922D01*
X33347Y35902D01*
X33310Y35865D01*
X33290Y35817D01*
X33290Y35765D01*
X33290Y35537D01*
X31851Y35537D01*
X31851Y35726D01*
X31851Y37257D01*
X31816Y37341D01*
X31751Y37406D01*
X31667Y37441D01*
X31575Y37442D01*
X31348Y37441D01*
X31290Y37384D01*
X31290Y36561D01*
X31793Y36561D01*
X31851Y36618D01*
X31851Y37257D01*
X31851Y35726D01*
X31851Y36364D01*
X31793Y36421D01*
X31290Y36421D01*
X31290Y35598D01*
X31348Y35541D01*
X31575Y35541D01*
X31667Y35541D01*
X31751Y35576D01*
X31816Y35641D01*
X31851Y35726D01*
X31851Y35537D01*
X31151Y35537D01*
X31151Y35598D01*
X31151Y36421D01*
X31151Y36561D01*
X31151Y37384D01*
X31093Y37441D01*
X30866Y37442D01*
X30774Y37441D01*
X30690Y37406D01*
X30625Y37341D01*
X30590Y37257D01*
X30590Y36618D01*
X30648Y36561D01*
X31151Y36561D01*
X31151Y36421D01*
X30648Y36421D01*
X30590Y36364D01*
X30590Y35726D01*
X30625Y35641D01*
X30690Y35576D01*
X30774Y35541D01*
X30866Y35541D01*
X31093Y35541D01*
X31151Y35598D01*
X31151Y35537D01*
X30225Y35537D01*
X30225Y37792D01*
X30609Y38177D01*
X30609Y38067D01*
X30656Y37954D01*
X30741Y37868D01*
X30854Y37822D01*
X30975Y37822D01*
X31087Y37868D01*
X31166Y37947D01*
X33835Y37947D01*
X33904Y37961D01*
X33909Y37964D01*
X33909Y37927D01*
X33956Y37814D01*
X34041Y37728D01*
X34058Y37722D01*
X33395Y37722D01*
X33347Y37702D01*
X33310Y37665D01*
X33290Y37617D01*
X33290Y37565D01*
X33290Y37165D01*
X33310Y37117D01*
X33347Y37081D01*
X33394Y37061D01*
X33446Y37061D01*
X34246Y37061D01*
X34261Y37067D01*
X35132Y37067D01*
X35095Y37030D01*
X35060Y36946D01*
X35060Y36771D01*
X35118Y36714D01*
X35516Y36714D01*
X35516Y36722D01*
X35655Y36722D01*
X35655Y36714D01*
X36053Y36714D01*
X36111Y36771D01*
X36111Y36946D01*
X36076Y37030D01*
X36039Y37067D01*
X36207Y37067D01*
X36207Y36965D01*
X36184Y36846D01*
X36208Y36721D01*
X36279Y36614D01*
X36386Y36543D01*
X36511Y36519D01*
X36636Y36543D01*
X36742Y36614D01*
X36766Y36638D01*
X36766Y36638D01*
X36766Y36638D01*
X36837Y36744D01*
X36837Y36744D01*
X36857Y36844D01*
X36862Y36869D01*
X36862Y36869D01*
X36862Y36869D01*
X36862Y37059D01*
X36889Y37059D01*
X36889Y36796D01*
X36909Y36748D01*
X36946Y36711D01*
X36993Y36691D01*
X37045Y36691D01*
X37675Y36691D01*
X37723Y36711D01*
X37760Y36748D01*
X37780Y36796D01*
X37780Y36847D01*
X37780Y37220D01*
X37820Y37228D01*
X37926Y37299D01*
X38419Y37791D01*
X38419Y37791D01*
X38419Y37791D01*
X38490Y37897D01*
X38515Y38023D01*
X38515Y38522D01*
X38555Y38425D01*
X38634Y38346D01*
X38634Y36487D01*
X38555Y36409D01*
X38509Y36297D01*
X38509Y36175D01*
X38555Y36063D01*
X38641Y35977D01*
X38753Y35930D01*
X38874Y35930D01*
X38987Y35977D01*
X39073Y36062D01*
X39119Y36175D01*
X39119Y36296D01*
X39073Y36408D01*
X38994Y36487D01*
X38994Y38346D01*
X39073Y38425D01*
X39119Y38537D01*
X39119Y38658D01*
X39073Y38770D01*
X38987Y38856D01*
X38875Y38903D01*
X38753Y38903D01*
X38641Y38857D01*
X38555Y38771D01*
X38515Y38673D01*
X38515Y39071D01*
X38551Y39035D01*
X38636Y39000D01*
X38810Y39000D01*
X38868Y39057D01*
X38868Y39455D01*
X38860Y39455D01*
X38860Y39595D01*
X38868Y39595D01*
X38868Y39927D01*
X38880Y39939D01*
X38880Y40337D01*
X38872Y40337D01*
X38872Y40477D01*
X38880Y40477D01*
X38880Y40875D01*
X38822Y40932D01*
X38648Y40933D01*
X38563Y40898D01*
X38498Y40833D01*
X38496Y40827D01*
X38482Y40832D01*
X38430Y40833D01*
X37918Y40833D01*
X37870Y40813D01*
X37833Y40776D01*
X37813Y40728D01*
X37813Y40727D01*
X37235Y40727D01*
X37188Y40718D01*
X37188Y40718D01*
X37186Y40718D01*
X37131Y40773D01*
X36634Y40773D01*
X36634Y40740D01*
X36495Y40740D01*
X36495Y40773D01*
X35998Y40773D01*
X35941Y40715D01*
X35941Y40683D01*
X35976Y40598D01*
X36041Y40533D01*
X36041Y40383D01*
X36057Y40342D01*
X36041Y40302D01*
X36041Y40250D01*
X36041Y40154D01*
X35290Y40905D01*
X35232Y40944D01*
X35163Y40957D01*
X33505Y40957D01*
X33495Y40959D01*
X33408Y40959D01*
X33422Y40995D01*
X33422Y41027D01*
X33365Y41085D01*
X32868Y41085D01*
X32868Y41052D01*
X32729Y41052D01*
X32729Y41085D01*
X32232Y41085D01*
X32175Y41027D01*
X32175Y40995D01*
X32210Y40910D01*
X32275Y40845D01*
X32275Y40783D01*
X32210Y40718D01*
X32175Y40634D01*
X32175Y40601D01*
X32232Y40543D01*
X32729Y40543D01*
X32729Y40577D01*
X32868Y40577D01*
X32868Y40543D01*
X33365Y40543D01*
X33420Y40599D01*
X33422Y40596D01*
X33422Y40596D01*
X33450Y40568D01*
X33450Y40442D01*
X33422Y40414D01*
X33422Y40414D01*
X33414Y40406D01*
X33365Y40455D01*
X32868Y40455D01*
X32868Y40422D01*
X32729Y40422D01*
X32729Y40455D01*
X32232Y40455D01*
X32175Y40397D01*
X32175Y40365D01*
X32175Y40364D01*
X31862Y40364D01*
X31862Y40520D01*
X31856Y40534D01*
X31862Y40537D01*
X31927Y40602D01*
X31962Y40687D01*
X31962Y41290D01*
X31927Y41374D01*
X31862Y41439D01*
X31778Y41474D01*
X31686Y41475D01*
X31564Y41474D01*
X31506Y41417D01*
X31506Y41058D01*
X31904Y41058D01*
X31962Y41115D01*
X31962Y41290D01*
X31962Y40687D01*
X31962Y40861D01*
X31904Y40918D01*
X31506Y40918D01*
X31506Y40911D01*
X31367Y40911D01*
X31367Y40918D01*
X31359Y40918D01*
X31359Y41058D01*
X31367Y41058D01*
X31367Y41417D01*
X31309Y41474D01*
X31187Y41475D01*
X31095Y41474D01*
X31011Y41439D01*
X30946Y41374D01*
X30945Y41371D01*
X30945Y41603D01*
X30925Y41651D01*
X30888Y41688D01*
X30841Y41707D01*
X30789Y41708D01*
X29989Y41708D01*
X29941Y41688D01*
X29904Y41651D01*
X29884Y41603D01*
X29884Y41551D01*
X29884Y40951D01*
X29904Y40903D01*
X29941Y40867D01*
X29988Y40847D01*
X30040Y40847D01*
X30840Y40847D01*
X30888Y40867D01*
X30925Y40903D01*
X30931Y40918D01*
X30969Y40918D01*
X30911Y40861D01*
X30911Y40687D01*
X30946Y40602D01*
X30983Y40565D01*
X30166Y40565D01*
X29478Y41253D01*
X29478Y41478D01*
X29458Y41526D01*
X29421Y41563D01*
X29374Y41583D01*
X29322Y41583D01*
X29046Y41583D01*
X28998Y41563D01*
X28962Y41526D01*
X28942Y41479D01*
X28942Y41427D01*
X28942Y41246D01*
X28911Y41200D01*
X28887Y41235D01*
X28887Y41478D01*
X28868Y41526D01*
X28831Y41563D01*
X28783Y41583D01*
X28731Y41583D01*
X28456Y41583D01*
X28408Y41563D01*
X28371Y41526D01*
X28351Y41479D01*
X28351Y41427D01*
X28351Y41235D01*
X28317Y41184D01*
X28292Y41059D01*
X28292Y39956D01*
X28274Y39913D01*
X28274Y39861D01*
X28274Y39061D01*
X28294Y39013D01*
X28331Y38977D01*
X28378Y38957D01*
X28430Y38957D01*
X29030Y38957D01*
X29078Y38977D01*
X29115Y39013D01*
X29135Y39061D01*
X29135Y39113D01*
X29135Y39913D01*
X29115Y39961D01*
X29078Y39998D01*
X29031Y40017D01*
X28979Y40018D01*
X28946Y40018D01*
X28946Y40628D01*
X28961Y40591D01*
X28998Y40555D01*
X29046Y40535D01*
X29098Y40535D01*
X29271Y40535D01*
X29788Y40018D01*
X29679Y40018D01*
X29631Y39998D01*
X29594Y39961D01*
X29574Y39913D01*
X29574Y39861D01*
X29574Y39061D01*
X29594Y39013D01*
X29631Y38977D01*
X29678Y38957D01*
X29730Y38957D01*
X30330Y38957D01*
X30378Y38977D01*
X30415Y39013D01*
X30435Y39061D01*
X30435Y39113D01*
X30435Y39911D01*
X31030Y39911D01*
X31031Y39908D01*
X31068Y39872D01*
X31115Y39852D01*
X31167Y39852D01*
X31757Y39852D01*
X31786Y39864D01*
X29917Y37995D01*
X29878Y37936D01*
X29864Y37867D01*
X29864Y35537D01*
X29657Y35537D01*
X29657Y36720D01*
X29518Y37058D01*
X29260Y37316D01*
X28922Y37456D01*
X28557Y37457D01*
X28220Y37317D01*
X27962Y37059D01*
X27822Y36722D01*
X27821Y36357D01*
X27961Y36020D01*
X28219Y35761D01*
X28556Y35621D01*
X28921Y35621D01*
X29258Y35760D01*
X29517Y36018D01*
X29657Y36355D01*
X29657Y36720D01*
X29657Y35537D01*
X27745Y35537D01*
X27745Y41043D01*
X27745Y41643D01*
X27725Y41691D01*
X27688Y41728D01*
X27641Y41747D01*
X27589Y41748D01*
X26789Y41748D01*
X26741Y41728D01*
X26704Y41691D01*
X26684Y41643D01*
X26684Y41591D01*
X26684Y40991D01*
X26704Y40943D01*
X26741Y40907D01*
X26788Y40887D01*
X26840Y40887D01*
X27640Y40887D01*
X27688Y40907D01*
X27725Y40943D01*
X27745Y40991D01*
X27745Y41043D01*
X27745Y35537D01*
X27055Y35537D01*
X27055Y40537D01*
X22055Y40537D01*
X22055Y44977D01*
X24798Y44977D01*
X24798Y42772D01*
X24752Y42703D01*
X24727Y42578D01*
X24752Y42453D01*
X24823Y42347D01*
X24929Y42276D01*
X25054Y42251D01*
X25179Y42276D01*
X25285Y42347D01*
X25356Y42418D01*
X25356Y42418D01*
X25356Y42418D01*
X25427Y42524D01*
X25452Y42649D01*
X25452Y44977D01*
X26172Y44977D01*
X26113Y44835D01*
X26113Y44652D01*
X26183Y44483D01*
X26313Y44353D01*
X26482Y44283D01*
X26665Y44283D01*
X26834Y44353D01*
X26964Y44482D01*
X27034Y44651D01*
X27034Y44835D01*
X26975Y44977D01*
X28214Y44977D01*
X28214Y44479D01*
X28156Y44420D01*
X28109Y44308D01*
X28109Y44187D01*
X28156Y44074D01*
X28241Y43988D01*
X28354Y43942D01*
X28475Y43942D01*
X28587Y43988D01*
X28673Y44074D01*
X28720Y44186D01*
X28720Y44308D01*
X28673Y44420D01*
X28588Y44506D01*
X28575Y44511D01*
X28575Y44977D01*
X32589Y44977D01*
X32047Y44435D01*
X32008Y44376D01*
X31994Y44307D01*
X31994Y43144D01*
X32008Y43075D01*
X32047Y43017D01*
X33086Y41978D01*
X32379Y41978D01*
X32331Y41958D01*
X32323Y41950D01*
X31713Y42560D01*
X31681Y42581D01*
X31671Y42605D01*
X31585Y42691D01*
X31473Y42738D01*
X31352Y42738D01*
X31240Y42691D01*
X31154Y42606D01*
X31107Y42493D01*
X31107Y42372D01*
X31153Y42260D01*
X31239Y42174D01*
X31302Y42147D01*
X30842Y42147D01*
X30888Y42167D01*
X30925Y42203D01*
X30945Y42251D01*
X30945Y42303D01*
X30945Y42903D01*
X30925Y42951D01*
X30888Y42988D01*
X30841Y43007D01*
X30789Y43008D01*
X29989Y43008D01*
X29941Y42988D01*
X29904Y42951D01*
X29884Y42903D01*
X29884Y42851D01*
X29884Y42843D01*
X29517Y42843D01*
X29517Y42935D01*
X29497Y42983D01*
X29461Y43020D01*
X29413Y43040D01*
X29361Y43040D01*
X29086Y43040D01*
X29038Y43020D01*
X29001Y42983D01*
X28981Y42935D01*
X28981Y42883D01*
X28981Y42692D01*
X28947Y42641D01*
X28922Y42516D01*
X28947Y42390D01*
X28981Y42339D01*
X28981Y42147D01*
X28848Y42147D01*
X28848Y42148D01*
X28848Y42339D01*
X28882Y42390D01*
X28907Y42516D01*
X28882Y42641D01*
X28848Y42692D01*
X28848Y42935D01*
X28828Y42983D01*
X28792Y43020D01*
X28744Y43040D01*
X28692Y43040D01*
X28416Y43040D01*
X28368Y43020D01*
X28332Y42983D01*
X28316Y42944D01*
X27744Y42944D01*
X27725Y42991D01*
X27688Y43028D01*
X27641Y43047D01*
X27589Y43048D01*
X27034Y43048D01*
X27034Y43835D01*
X26964Y44004D01*
X26835Y44133D01*
X26666Y44204D01*
X26483Y44204D01*
X26313Y44134D01*
X26184Y44004D01*
X26113Y43835D01*
X26113Y43652D01*
X26183Y43483D01*
X26313Y43353D01*
X26482Y43283D01*
X26665Y43283D01*
X26834Y43353D01*
X26964Y43482D01*
X27034Y43651D01*
X27034Y43835D01*
X27034Y43048D01*
X26789Y43048D01*
X26741Y43028D01*
X26704Y42991D01*
X26684Y42943D01*
X26684Y42891D01*
X26684Y42291D01*
X26704Y42243D01*
X26741Y42207D01*
X26788Y42187D01*
X26840Y42187D01*
X27640Y42187D01*
X27688Y42207D01*
X27725Y42243D01*
X27744Y42290D01*
X28312Y42290D01*
X28312Y42147D01*
X24696Y42147D01*
X24696Y42379D01*
X24676Y42427D01*
X24640Y42464D01*
X24592Y42484D01*
X24540Y42484D01*
X23831Y42484D01*
X23783Y42464D01*
X23747Y42428D01*
X23727Y42380D01*
X23727Y42328D01*
X23727Y40753D01*
X23747Y40705D01*
X23783Y40668D01*
X23831Y40649D01*
X23883Y40648D01*
X24592Y40648D01*
X24640Y40668D01*
X24676Y40705D01*
X24696Y40753D01*
X24696Y40805D01*
X24696Y41787D01*
X31600Y41787D01*
X32070Y41317D01*
X32070Y41317D01*
X32105Y41293D01*
X32128Y41278D01*
X32128Y41278D01*
X32177Y41268D01*
X32175Y41264D01*
X32175Y41231D01*
X32232Y41173D01*
X32729Y41173D01*
X32729Y41207D01*
X32868Y41207D01*
X32868Y41173D01*
X33365Y41173D01*
X33422Y41231D01*
X33422Y41264D01*
X33421Y41268D01*
X33428Y41260D01*
X33540Y41214D01*
X33662Y41214D01*
X33774Y41260D01*
X33841Y41327D01*
X34609Y41327D01*
X34678Y41341D01*
X34737Y41380D01*
X35009Y41652D01*
X35009Y41587D01*
X35056Y41474D01*
X35141Y41388D01*
X35254Y41342D01*
X35365Y41342D01*
X35707Y41000D01*
X35765Y40961D01*
X35835Y40947D01*
X35941Y40947D01*
X35941Y40919D01*
X35998Y40861D01*
X36495Y40861D01*
X36495Y40895D01*
X36634Y40895D01*
X36634Y40861D01*
X37128Y40861D01*
X37141Y40848D01*
X37254Y40802D01*
X37375Y40802D01*
X37487Y40848D01*
X37573Y40934D01*
X37620Y41046D01*
X37620Y41168D01*
X37579Y41267D01*
X37595Y41267D01*
X37664Y41281D01*
X37722Y41320D01*
X37882Y41480D01*
X37921Y41538D01*
X37935Y41607D01*
X37935Y41907D01*
X37921Y41976D01*
X37921Y41976D01*
X37882Y42035D01*
X37662Y42255D01*
X37604Y42294D01*
X37535Y42307D01*
X36676Y42307D01*
X36702Y42334D01*
X36749Y42446D01*
X36749Y42558D01*
X36841Y42650D01*
X37181Y42650D01*
X37259Y42571D01*
X37371Y42525D01*
X37492Y42525D01*
X37605Y42571D01*
X37691Y42657D01*
X37737Y42769D01*
X37737Y42890D01*
X37691Y43003D01*
X37605Y43089D01*
X37573Y43102D01*
X38386Y43102D01*
X38434Y43122D01*
X38470Y43158D01*
X38490Y43206D01*
X38490Y43258D01*
X38490Y43888D01*
X38471Y43936D01*
X38434Y43973D01*
X38386Y43992D01*
X38334Y43993D01*
X37979Y43993D01*
X37979Y44109D01*
X38087Y44217D01*
X38168Y44136D01*
X38274Y44065D01*
X38400Y44040D01*
X38525Y44065D01*
X38631Y44136D01*
X38702Y44242D01*
X38727Y44367D01*
X38702Y44492D01*
X38631Y44599D01*
X38550Y44680D01*
X38847Y44977D01*
X40209Y44977D01*
X40147Y44915D01*
X40108Y44856D01*
X40094Y44787D01*
X40094Y44527D01*
X40108Y44458D01*
X40147Y44400D01*
X40454Y44093D01*
X39945Y44092D01*
X39887Y44035D01*
X39887Y43617D01*
X40699Y43617D01*
X40756Y43674D01*
X40756Y43790D01*
X41527Y43020D01*
X41585Y42981D01*
X41655Y42967D01*
X41700Y42967D01*
X41729Y42937D01*
X41569Y42938D01*
X41411Y42872D01*
X41290Y42751D01*
X41224Y42593D01*
X41224Y42422D01*
X41289Y42264D01*
X41410Y42143D01*
X41569Y42077D01*
X41740Y42077D01*
X41898Y42142D01*
X41954Y42198D01*
X41954Y42182D01*
X41710Y41937D01*
X41569Y41938D01*
X41411Y41872D01*
X41290Y41751D01*
X41224Y41593D01*
X41224Y41422D01*
X41289Y41264D01*
X41410Y41143D01*
X41569Y41077D01*
X41740Y41077D01*
X41898Y41142D01*
X42019Y41263D01*
X42085Y41421D01*
X42085Y41592D01*
X42023Y41741D01*
X42262Y41980D01*
X42301Y42038D01*
X42310Y42084D01*
X42328Y42077D01*
X42380Y42077D01*
X42980Y42077D01*
X43028Y42097D01*
X43065Y42133D01*
X43085Y42181D01*
X43085Y42233D01*
X43085Y42833D01*
X43065Y42881D01*
X43028Y42918D01*
X42981Y42937D01*
X42929Y42938D01*
X42329Y42938D01*
X42281Y42918D01*
X42268Y42905D01*
X42262Y42915D01*
X42262Y42915D01*
X42200Y42976D01*
X43420Y42976D01*
X44013Y42384D01*
X44012Y42273D01*
X44059Y42161D01*
X44145Y42075D01*
X44210Y42048D01*
X44176Y42055D01*
X42875Y42055D01*
X42750Y42030D01*
X42644Y41959D01*
X42644Y41959D01*
X42622Y41938D01*
X42569Y41938D01*
X42411Y41872D01*
X42290Y41751D01*
X42224Y41593D01*
X42224Y41422D01*
X42289Y41264D01*
X42410Y41143D01*
X42569Y41077D01*
X42740Y41077D01*
X42898Y41142D01*
X43019Y41263D01*
X43076Y41400D01*
X44041Y41400D01*
X44106Y41335D01*
X44106Y41335D01*
X44212Y41264D01*
X44337Y41239D01*
X44593Y41239D01*
X44593Y40753D01*
X44613Y40705D01*
X44649Y40668D01*
X44697Y40649D01*
X44749Y40648D01*
X45458Y40648D01*
X45506Y40668D01*
X45542Y40705D01*
X45562Y40753D01*
X45562Y40805D01*
X45562Y42379D01*
X45543Y42427D01*
X45506Y42464D01*
X45458Y42484D01*
X45406Y42484D01*
X45405Y42484D01*
X45405Y45428D01*
X45380Y45554D01*
X45309Y45660D01*
X45309Y45660D01*
X45089Y45880D01*
X44982Y45951D01*
X44857Y45976D01*
X44809Y45966D01*
X45382Y46540D01*
X45421Y46598D01*
X45435Y46667D01*
X45435Y50495D01*
X45501Y50428D01*
X45614Y50382D01*
X45665Y50382D01*
X45874Y50172D01*
X45874Y49867D01*
X45874Y46793D01*
X45874Y46793D01*
X45762Y46746D01*
X45676Y46660D01*
X45629Y46548D01*
X45629Y46427D01*
X45676Y46314D01*
X45761Y46228D01*
X45874Y46182D01*
X45995Y46182D01*
X46107Y46228D01*
X46193Y46314D01*
X46240Y46426D01*
X46240Y46548D01*
X46228Y46575D01*
X46235Y46607D01*
X46235Y49867D01*
X46235Y50247D01*
X46235Y50247D01*
X46221Y50316D01*
X46221Y50316D01*
X46182Y50375D01*
X46182Y50375D01*
X45965Y50591D01*
X45980Y50626D01*
X45980Y50748D01*
X45933Y50860D01*
X45848Y50946D01*
X45735Y50992D01*
X45614Y50993D01*
X45502Y50946D01*
X45435Y50879D01*
X45435Y51947D01*
X45435Y51947D01*
X45435Y51947D01*
X45432Y51961D01*
X45421Y52016D01*
X45421Y52016D01*
X45382Y52075D01*
X45382Y52075D01*
X44222Y53235D01*
X44164Y53274D01*
X44095Y53287D01*
X42080Y53287D01*
X42011Y53274D01*
X41952Y53235D01*
X40860Y52142D01*
X40860Y52188D01*
X40813Y52300D01*
X40768Y52346D01*
X41524Y53102D01*
X41635Y53102D01*
X41747Y53148D01*
X41833Y53234D01*
X41880Y53346D01*
X41880Y53468D01*
X41833Y53580D01*
X41748Y53666D01*
X41635Y53712D01*
X41514Y53713D01*
X41402Y53666D01*
X41316Y53580D01*
X41269Y53468D01*
X41269Y53357D01*
X40427Y52515D01*
X40388Y52456D01*
X40374Y52387D01*
X40374Y52379D01*
X40296Y52300D01*
X40249Y52188D01*
X40249Y52067D01*
X40296Y51954D01*
X40346Y51904D01*
X40325Y51904D01*
X40156Y51834D01*
X40026Y51705D01*
X39993Y51624D01*
X39832Y51624D01*
X39861Y51636D01*
X39991Y51765D01*
X40061Y51935D01*
X40061Y52118D01*
X39991Y52287D01*
X39862Y52417D01*
X39703Y52483D01*
X38498Y53687D01*
X38392Y53758D01*
X38267Y53783D01*
X36850Y53783D01*
X36850Y55547D01*
X36825Y55672D01*
X36754Y55778D01*
X36754Y55778D01*
X36423Y56109D01*
X36317Y56180D01*
X36192Y56204D01*
X35566Y56204D01*
X31609Y56204D01*
X31484Y56180D01*
X31378Y56109D01*
X31378Y56109D01*
X29457Y54188D01*
X29386Y54082D01*
X29361Y53957D01*
X29361Y53299D01*
X28845Y53299D01*
X28720Y53274D01*
X28614Y53203D01*
X28614Y53203D01*
X26448Y51037D01*
X26435Y51037D01*
X26680Y51282D01*
X26820Y51619D01*
X26820Y51984D01*
X26681Y52322D01*
X26423Y52580D01*
X26086Y52720D01*
X25720Y52720D01*
X25383Y52581D01*
X25125Y52323D01*
X24985Y51986D01*
X24984Y51621D01*
X25124Y51283D01*
X25369Y51037D01*
X23076Y51037D01*
X24299Y53239D01*
X26543Y55483D01*
X29785Y57228D01*
X34525Y58226D01*
X38766Y57478D01*
X41010Y56481D01*
X43254Y54984D01*
X45250Y52739D01*
X46497Y50745D01*
X47244Y48253D01*
X47244Y40537D01*
X47244Y40537D01*
G37*
G54D31*
X47244Y40537D02*
X47040Y40537D01*
X47040Y40824D01*
X47040Y42308D01*
X47040Y42400D01*
X47005Y42484D01*
X46940Y42549D01*
X46856Y42584D01*
X46583Y42584D01*
X46525Y42526D01*
X46525Y41636D01*
X46983Y41636D01*
X47040Y41693D01*
X47040Y42308D01*
X47040Y40824D01*
X47040Y41439D01*
X46983Y41497D01*
X46525Y41497D01*
X46525Y40606D01*
X46583Y40549D01*
X46856Y40548D01*
X46940Y40583D01*
X47005Y40648D01*
X47040Y40733D01*
X47040Y40824D01*
X47040Y40537D01*
X46386Y40537D01*
X46386Y40606D01*
X46386Y41497D01*
X46386Y41636D01*
X46386Y42526D01*
X46328Y42584D01*
X46056Y42584D01*
X45971Y42549D01*
X45906Y42484D01*
X45871Y42400D01*
X45871Y42308D01*
X45871Y41693D01*
X45929Y41636D01*
X46386Y41636D01*
X46386Y41497D01*
X45929Y41497D01*
X45871Y41439D01*
X45871Y40824D01*
X45871Y40733D01*
X45906Y40648D01*
X45971Y40583D01*
X46056Y40548D01*
X46328Y40549D01*
X46386Y40606D01*
X46386Y40537D01*
X42244Y40537D01*
X42244Y35537D01*
X41975Y35537D01*
X41975Y38913D01*
X41975Y39622D01*
X41975Y39713D01*
X41940Y39798D01*
X41920Y39817D01*
X41940Y39837D01*
X41975Y39921D01*
X41975Y40013D01*
X41975Y40722D01*
X41975Y40813D01*
X41940Y40898D01*
X41875Y40963D01*
X41790Y40998D01*
X41572Y40997D01*
X41514Y40940D01*
X41514Y40437D01*
X41917Y40437D01*
X41975Y40494D01*
X41975Y40722D01*
X41975Y40013D01*
X41975Y40240D01*
X41917Y40297D01*
X41514Y40297D01*
X41514Y39840D01*
X41514Y39794D01*
X41514Y39337D01*
X41917Y39337D01*
X41975Y39394D01*
X41975Y39622D01*
X41975Y38913D01*
X41975Y39140D01*
X41917Y39197D01*
X41514Y39197D01*
X41514Y38694D01*
X41572Y38637D01*
X41790Y38637D01*
X41875Y38672D01*
X41940Y38737D01*
X41975Y38821D01*
X41975Y38913D01*
X41975Y35537D01*
X41468Y35537D01*
X41468Y36721D01*
X41375Y36947D01*
X41375Y38694D01*
X41375Y39197D01*
X41375Y39337D01*
X41375Y39794D01*
X41375Y39840D01*
X41375Y40297D01*
X41375Y40437D01*
X41375Y40940D01*
X41317Y40997D01*
X41192Y40998D01*
X41192Y41450D01*
X41173Y41660D01*
X41129Y41766D01*
X41085Y41781D01*
X41085Y42592D01*
X41020Y42751D01*
X40899Y42872D01*
X40756Y42931D01*
X40756Y43278D01*
X40756Y43420D01*
X40699Y43477D01*
X39887Y43477D01*
X39887Y43470D01*
X39748Y43470D01*
X39748Y43477D01*
X39748Y43617D01*
X39748Y44035D01*
X39690Y44092D01*
X39063Y44093D01*
X38979Y44058D01*
X38914Y43993D01*
X38879Y43908D01*
X38879Y43817D01*
X38879Y43674D01*
X38936Y43617D01*
X39748Y43617D01*
X39748Y43477D01*
X38936Y43477D01*
X38879Y43420D01*
X38879Y43278D01*
X38879Y43186D01*
X38914Y43102D01*
X38979Y43037D01*
X39063Y43002D01*
X39408Y43002D01*
X39369Y42908D01*
X39369Y42787D01*
X39416Y42674D01*
X39494Y42596D01*
X39494Y42271D01*
X39482Y42266D01*
X39396Y42180D01*
X39349Y42068D01*
X39349Y41947D01*
X39396Y41834D01*
X39481Y41748D01*
X39594Y41702D01*
X39715Y41702D01*
X39827Y41748D01*
X39913Y41834D01*
X39960Y41946D01*
X39960Y42068D01*
X39913Y42180D01*
X39855Y42239D01*
X39855Y42596D01*
X39933Y42674D01*
X39980Y42786D01*
X39980Y42908D01*
X39938Y43008D01*
X39945Y43002D01*
X40572Y43002D01*
X40656Y43037D01*
X40721Y43102D01*
X40756Y43186D01*
X40756Y43278D01*
X40756Y42931D01*
X40740Y42937D01*
X40569Y42938D01*
X40411Y42872D01*
X40290Y42751D01*
X40224Y42593D01*
X40224Y42422D01*
X40289Y42264D01*
X40410Y42143D01*
X40569Y42077D01*
X40740Y42077D01*
X40898Y42142D01*
X41019Y42263D01*
X41085Y42421D01*
X41085Y42592D01*
X41085Y41781D01*
X41042Y41796D01*
X40943Y41697D01*
X40943Y41895D01*
X40913Y41982D01*
X40712Y42045D01*
X40502Y42026D01*
X40396Y41982D01*
X40366Y41895D01*
X40655Y41606D01*
X40943Y41895D01*
X40943Y41697D01*
X40753Y41507D01*
X41042Y41218D01*
X41129Y41248D01*
X41192Y41450D01*
X41192Y40998D01*
X41099Y40998D01*
X41014Y40963D01*
X40949Y40898D01*
X40943Y40883D01*
X40943Y41120D01*
X40655Y41409D01*
X40556Y41310D01*
X40556Y41507D01*
X40267Y41796D01*
X40180Y41766D01*
X40117Y41565D01*
X40136Y41354D01*
X40180Y41248D01*
X40267Y41218D01*
X40556Y41507D01*
X40556Y41310D01*
X40366Y41120D01*
X40396Y41032D01*
X40597Y40970D01*
X40807Y40988D01*
X40913Y41032D01*
X40943Y41120D01*
X40943Y40883D01*
X40914Y40813D01*
X40914Y40722D01*
X40914Y40494D01*
X40972Y40437D01*
X41375Y40437D01*
X41375Y40297D01*
X40972Y40297D01*
X40914Y40240D01*
X40914Y40013D01*
X40914Y39921D01*
X40949Y39837D01*
X40969Y39817D01*
X40949Y39798D01*
X40914Y39713D01*
X40914Y39622D01*
X40914Y39394D01*
X40972Y39337D01*
X41375Y39337D01*
X41375Y39197D01*
X40972Y39197D01*
X40914Y39140D01*
X40914Y38913D01*
X40914Y38821D01*
X40949Y38737D01*
X41014Y38672D01*
X41099Y38637D01*
X41317Y38637D01*
X41375Y38694D01*
X41375Y36947D01*
X41329Y37059D01*
X41071Y37317D01*
X40733Y37457D01*
X40575Y37457D01*
X40575Y38893D01*
X40575Y39693D01*
X40555Y39741D01*
X40518Y39778D01*
X40471Y39797D01*
X40419Y39798D01*
X40019Y39798D01*
X39980Y39837D01*
X40470Y39837D01*
X40518Y39857D01*
X40555Y39893D01*
X40575Y39941D01*
X40575Y39993D01*
X40575Y40793D01*
X40555Y40841D01*
X40518Y40878D01*
X40471Y40897D01*
X40419Y40898D01*
X40039Y40898D01*
X39900Y41037D01*
X39900Y41148D01*
X39853Y41260D01*
X39768Y41346D01*
X39655Y41392D01*
X39534Y41393D01*
X39422Y41346D01*
X39336Y41260D01*
X39289Y41148D01*
X39289Y41027D01*
X39336Y40914D01*
X39421Y40828D01*
X39534Y40782D01*
X39645Y40782D01*
X39714Y40713D01*
X39714Y40279D01*
X39688Y40306D01*
X39575Y40352D01*
X39454Y40353D01*
X39436Y40345D01*
X39436Y40657D01*
X39436Y40748D01*
X39401Y40833D01*
X39336Y40898D01*
X39251Y40933D01*
X39077Y40932D01*
X39019Y40875D01*
X39019Y40477D01*
X39378Y40477D01*
X39436Y40534D01*
X39436Y40657D01*
X39436Y40345D01*
X39390Y40326D01*
X39378Y40337D01*
X39019Y40337D01*
X39019Y40005D01*
X39007Y39993D01*
X39007Y39595D01*
X39366Y39595D01*
X39424Y39652D01*
X39424Y39754D01*
X39454Y39742D01*
X39565Y39742D01*
X39714Y39593D01*
X39714Y38841D01*
X39734Y38793D01*
X39771Y38757D01*
X39818Y38737D01*
X39870Y38737D01*
X40470Y38737D01*
X40518Y38757D01*
X40555Y38793D01*
X40575Y38841D01*
X40575Y38893D01*
X40575Y37457D01*
X40368Y37458D01*
X40031Y37318D01*
X39773Y37060D01*
X39633Y36723D01*
X39632Y36358D01*
X39772Y36021D01*
X40030Y35762D01*
X40367Y35622D01*
X40732Y35622D01*
X41069Y35761D01*
X41328Y36019D01*
X41468Y36356D01*
X41468Y36721D01*
X41468Y35537D01*
X39424Y35537D01*
X39424Y39276D01*
X39424Y39398D01*
X39366Y39455D01*
X39007Y39455D01*
X39007Y39057D01*
X39065Y39000D01*
X39239Y39000D01*
X39324Y39035D01*
X39389Y39100D01*
X39424Y39184D01*
X39424Y39276D01*
X39424Y35537D01*
X37880Y35537D01*
X37880Y36118D01*
X37845Y36203D01*
X37780Y36268D01*
X37696Y36303D01*
X37604Y36303D01*
X37462Y36303D01*
X37404Y36245D01*
X37404Y35537D01*
X37265Y35537D01*
X37265Y36245D01*
X37207Y36303D01*
X37065Y36303D01*
X36973Y36303D01*
X36889Y36268D01*
X36824Y36203D01*
X36789Y36118D01*
X36789Y35537D01*
X36086Y35537D01*
X36115Y35608D01*
X36115Y36211D01*
X36086Y36282D01*
X36111Y36342D01*
X36111Y36517D01*
X36053Y36574D01*
X35655Y36574D01*
X35655Y36215D01*
X35659Y36211D01*
X35659Y35979D01*
X36057Y35979D01*
X36115Y36037D01*
X36115Y36211D01*
X36115Y35608D01*
X36115Y35782D01*
X36057Y35840D01*
X35659Y35840D01*
X35659Y35832D01*
X35520Y35832D01*
X35520Y35840D01*
X35520Y35979D01*
X35520Y36338D01*
X35516Y36342D01*
X35516Y36574D01*
X35118Y36574D01*
X35060Y36517D01*
X35060Y36342D01*
X35089Y36272D01*
X35064Y36211D01*
X35064Y36037D01*
X35122Y35979D01*
X35520Y35979D01*
X35520Y35840D01*
X35122Y35840D01*
X35064Y35782D01*
X35064Y35608D01*
X35077Y35577D01*
X34831Y35823D01*
X34725Y35893D01*
X34600Y35918D01*
X34451Y35918D01*
X34451Y36246D01*
X34451Y36737D01*
X34416Y36821D01*
X34351Y36886D01*
X34267Y36921D01*
X34175Y36922D01*
X33948Y36921D01*
X33890Y36864D01*
X33890Y36561D01*
X34393Y36561D01*
X34451Y36618D01*
X34451Y36737D01*
X34451Y36246D01*
X34451Y36364D01*
X34393Y36421D01*
X33890Y36421D01*
X33890Y36118D01*
X33948Y36061D01*
X34175Y36061D01*
X34267Y36061D01*
X34351Y36096D01*
X34416Y36161D01*
X34451Y36246D01*
X34451Y35918D01*
X34254Y35918D01*
X34247Y35921D01*
X34195Y35922D01*
X33751Y35922D01*
X33751Y36118D01*
X33751Y36421D01*
X33751Y36561D01*
X33751Y36864D01*
X33693Y36921D01*
X33466Y36922D01*
X33374Y36921D01*
X33290Y36886D01*
X33225Y36821D01*
X33190Y36737D01*
X33190Y36618D01*
X33248Y36561D01*
X33751Y36561D01*
X33751Y36421D01*
X33248Y36421D01*
X33190Y36364D01*
X33190Y36246D01*
X33225Y36161D01*
X33290Y36096D01*
X33374Y36061D01*
X33466Y36061D01*
X33693Y36061D01*
X33751Y36118D01*
X33751Y35922D01*
X33395Y35922D01*
X33347Y35902D01*
X33310Y35865D01*
X33290Y35817D01*
X33290Y35765D01*
X33290Y35537D01*
X31851Y35537D01*
X31851Y35726D01*
X31851Y37257D01*
X31816Y37341D01*
X31751Y37406D01*
X31667Y37441D01*
X31575Y37442D01*
X31348Y37441D01*
X31290Y37384D01*
X31290Y36561D01*
X31793Y36561D01*
X31851Y36618D01*
X31851Y37257D01*
X31851Y35726D01*
X31851Y36364D01*
X31793Y36421D01*
X31290Y36421D01*
X31290Y35598D01*
X31348Y35541D01*
X31575Y35541D01*
X31667Y35541D01*
X31751Y35576D01*
X31816Y35641D01*
X31851Y35726D01*
X31851Y35537D01*
X31151Y35537D01*
X31151Y35598D01*
X31151Y36421D01*
X31151Y36561D01*
X31151Y37384D01*
X31093Y37441D01*
X30866Y37442D01*
X30774Y37441D01*
X30690Y37406D01*
X30625Y37341D01*
X30590Y37257D01*
X30590Y36618D01*
X30648Y36561D01*
X31151Y36561D01*
X31151Y36421D01*
X30648Y36421D01*
X30590Y36364D01*
X30590Y35726D01*
X30625Y35641D01*
X30690Y35576D01*
X30774Y35541D01*
X30866Y35541D01*
X31093Y35541D01*
X31151Y35598D01*
X31151Y35537D01*
X30225Y35537D01*
X30225Y37792D01*
X30609Y38177D01*
X30609Y38067D01*
X30656Y37954D01*
X30741Y37868D01*
X30854Y37822D01*
X30975Y37822D01*
X31087Y37868D01*
X31166Y37947D01*
X33835Y37947D01*
X33904Y37961D01*
X33909Y37964D01*
X33909Y37927D01*
X33956Y37814D01*
X34041Y37728D01*
X34058Y37722D01*
X33395Y37722D01*
X33347Y37702D01*
X33310Y37665D01*
X33290Y37617D01*
X33290Y37565D01*
X33290Y37165D01*
X33310Y37117D01*
X33347Y37081D01*
X33394Y37061D01*
X33446Y37061D01*
X34246Y37061D01*
X34261Y37067D01*
X35132Y37067D01*
X35095Y37030D01*
X35060Y36946D01*
X35060Y36771D01*
X35118Y36714D01*
X35516Y36714D01*
X35516Y36722D01*
X35655Y36722D01*
X35655Y36714D01*
X36053Y36714D01*
X36111Y36771D01*
X36111Y36946D01*
X36076Y37030D01*
X36039Y37067D01*
X36207Y37067D01*
X36207Y36965D01*
X36184Y36846D01*
X36208Y36721D01*
X36279Y36614D01*
X36386Y36543D01*
X36511Y36519D01*
X36636Y36543D01*
X36742Y36614D01*
X36766Y36638D01*
X36766Y36638D01*
X36766Y36638D01*
X36837Y36744D01*
X36837Y36744D01*
X36857Y36844D01*
X36862Y36869D01*
X36862Y36869D01*
X36862Y36869D01*
X36862Y37059D01*
X36889Y37059D01*
X36889Y36796D01*
X36909Y36748D01*
X36946Y36711D01*
X36993Y36691D01*
X37045Y36691D01*
X37675Y36691D01*
X37723Y36711D01*
X37760Y36748D01*
X37780Y36796D01*
X37780Y36847D01*
X37780Y37220D01*
X37820Y37228D01*
X37926Y37299D01*
X38419Y37791D01*
X38419Y37791D01*
X38419Y37791D01*
X38490Y37897D01*
X38515Y38023D01*
X38515Y38522D01*
X38555Y38425D01*
X38634Y38346D01*
X38634Y36487D01*
X38555Y36409D01*
X38509Y36297D01*
X38509Y36175D01*
X38555Y36063D01*
X38641Y35977D01*
X38753Y35930D01*
X38874Y35930D01*
X38987Y35977D01*
X39073Y36062D01*
X39119Y36175D01*
X39119Y36296D01*
X39073Y36408D01*
X38994Y36487D01*
X38994Y38346D01*
X39073Y38425D01*
X39119Y38537D01*
X39119Y38658D01*
X39073Y38770D01*
X38987Y38856D01*
X38875Y38903D01*
X38753Y38903D01*
X38641Y38857D01*
X38555Y38771D01*
X38515Y38673D01*
X38515Y39071D01*
X38551Y39035D01*
X38636Y39000D01*
X38810Y39000D01*
X38868Y39057D01*
X38868Y39455D01*
X38860Y39455D01*
X38860Y39595D01*
X38868Y39595D01*
X38868Y39927D01*
X38880Y39939D01*
X38880Y40337D01*
X38872Y40337D01*
X38872Y40477D01*
X38880Y40477D01*
X38880Y40875D01*
X38822Y40932D01*
X38648Y40933D01*
X38563Y40898D01*
X38498Y40833D01*
X38496Y40827D01*
X38482Y40832D01*
X38430Y40833D01*
X37918Y40833D01*
X37870Y40813D01*
X37833Y40776D01*
X37813Y40728D01*
X37813Y40727D01*
X37235Y40727D01*
X37188Y40718D01*
X37188Y40718D01*
X37186Y40718D01*
X37131Y40773D01*
X36634Y40773D01*
X36634Y40740D01*
X36495Y40740D01*
X36495Y40773D01*
X35998Y40773D01*
X35941Y40715D01*
X35941Y40683D01*
X35976Y40598D01*
X36041Y40533D01*
X36041Y40383D01*
X36057Y40342D01*
X36041Y40302D01*
X36041Y40250D01*
X36041Y40154D01*
X35290Y40905D01*
X35232Y40944D01*
X35163Y40957D01*
X33505Y40957D01*
X33495Y40959D01*
X33408Y40959D01*
X33422Y40995D01*
X33422Y41027D01*
X33365Y41085D01*
X32868Y41085D01*
X32868Y41052D01*
X32729Y41052D01*
X32729Y41085D01*
X32232Y41085D01*
X32175Y41027D01*
X32175Y40995D01*
X32210Y40910D01*
X32275Y40845D01*
X32275Y40783D01*
X32210Y40718D01*
X32175Y40634D01*
X32175Y40601D01*
X32232Y40543D01*
X32729Y40543D01*
X32729Y40577D01*
X32868Y40577D01*
X32868Y40543D01*
X33365Y40543D01*
X33420Y40599D01*
X33422Y40596D01*
X33422Y40596D01*
X33450Y40568D01*
X33450Y40442D01*
X33422Y40414D01*
X33422Y40414D01*
X33414Y40406D01*
X33365Y40455D01*
X32868Y40455D01*
X32868Y40422D01*
X32729Y40422D01*
X32729Y40455D01*
X32232Y40455D01*
X32175Y40397D01*
X32175Y40365D01*
X32175Y40364D01*
X31862Y40364D01*
X31862Y40520D01*
X31856Y40534D01*
X31862Y40537D01*
X31927Y40602D01*
X31962Y40687D01*
X31962Y41290D01*
X31927Y41374D01*
X31862Y41439D01*
X31778Y41474D01*
X31686Y41475D01*
X31564Y41474D01*
X31506Y41417D01*
X31506Y41058D01*
X31904Y41058D01*
X31962Y41115D01*
X31962Y41290D01*
X31962Y40687D01*
X31962Y40861D01*
X31904Y40918D01*
X31506Y40918D01*
X31506Y40911D01*
X31367Y40911D01*
X31367Y40918D01*
X31359Y40918D01*
X31359Y41058D01*
X31367Y41058D01*
X31367Y41417D01*
X31309Y41474D01*
X31187Y41475D01*
X31095Y41474D01*
X31011Y41439D01*
X30946Y41374D01*
X30945Y41371D01*
X30945Y41603D01*
X30925Y41651D01*
X30888Y41688D01*
X30841Y41707D01*
X30789Y41708D01*
X29989Y41708D01*
X29941Y41688D01*
X29904Y41651D01*
X29884Y41603D01*
X29884Y41551D01*
X29884Y40951D01*
X29904Y40903D01*
X29941Y40867D01*
X29988Y40847D01*
X30040Y40847D01*
X30840Y40847D01*
X30888Y40867D01*
X30925Y40903D01*
X30931Y40918D01*
X30969Y40918D01*
X30911Y40861D01*
X30911Y40687D01*
X30946Y40602D01*
X30983Y40565D01*
X30166Y40565D01*
X29478Y41253D01*
X29478Y41478D01*
X29458Y41526D01*
X29421Y41563D01*
X29374Y41583D01*
X29322Y41583D01*
X29046Y41583D01*
X28998Y41563D01*
X28962Y41526D01*
X28942Y41479D01*
X28942Y41427D01*
X28942Y41246D01*
X28911Y41200D01*
X28887Y41235D01*
X28887Y41478D01*
X28868Y41526D01*
X28831Y41563D01*
X28783Y41583D01*
X28731Y41583D01*
X28456Y41583D01*
X28408Y41563D01*
X28371Y41526D01*
X28351Y41479D01*
X28351Y41427D01*
X28351Y41235D01*
X28317Y41184D01*
X28292Y41059D01*
X28292Y39956D01*
X28274Y39913D01*
X28274Y39861D01*
X28274Y39061D01*
X28294Y39013D01*
X28331Y38977D01*
X28378Y38957D01*
X28430Y38957D01*
X29030Y38957D01*
X29078Y38977D01*
X29115Y39013D01*
X29135Y39061D01*
X29135Y39113D01*
X29135Y39913D01*
X29115Y39961D01*
X29078Y39998D01*
X29031Y40017D01*
X28979Y40018D01*
X28946Y40018D01*
X28946Y40628D01*
X28961Y40591D01*
X28998Y40555D01*
X29046Y40535D01*
X29098Y40535D01*
X29271Y40535D01*
X29788Y40018D01*
X29679Y40018D01*
X29631Y39998D01*
X29594Y39961D01*
X29574Y39913D01*
X29574Y39861D01*
X29574Y39061D01*
X29594Y39013D01*
X29631Y38977D01*
X29678Y38957D01*
X29730Y38957D01*
X30330Y38957D01*
X30378Y38977D01*
X30415Y39013D01*
X30435Y39061D01*
X30435Y39113D01*
X30435Y39911D01*
X31030Y39911D01*
X31031Y39908D01*
X31068Y39872D01*
X31115Y39852D01*
X31167Y39852D01*
X31757Y39852D01*
X31786Y39864D01*
X29917Y37995D01*
X29878Y37936D01*
X29864Y37867D01*
X29864Y35537D01*
X29657Y35537D01*
X29657Y36720D01*
X29518Y37058D01*
X29260Y37316D01*
X28922Y37456D01*
X28557Y37457D01*
X28220Y37317D01*
X27962Y37059D01*
X27822Y36722D01*
X27821Y36357D01*
X27961Y36020D01*
X28219Y35761D01*
X28556Y35621D01*
X28921Y35621D01*
X29258Y35760D01*
X29517Y36018D01*
X29657Y36355D01*
X29657Y36720D01*
X29657Y35537D01*
X27745Y35537D01*
X27745Y41043D01*
X27745Y41643D01*
X27725Y41691D01*
X27688Y41728D01*
X27641Y41747D01*
X27589Y41748D01*
X26789Y41748D01*
X26741Y41728D01*
X26704Y41691D01*
X26684Y41643D01*
X26684Y41591D01*
X26684Y40991D01*
X26704Y40943D01*
X26741Y40907D01*
X26788Y40887D01*
X26840Y40887D01*
X27640Y40887D01*
X27688Y40907D01*
X27725Y40943D01*
X27745Y40991D01*
X27745Y41043D01*
X27745Y35537D01*
X27055Y35537D01*
X27055Y40537D01*
X22055Y40537D01*
X22055Y44977D01*
X24798Y44977D01*
X24798Y42772D01*
X24752Y42703D01*
X24727Y42578D01*
X24752Y42453D01*
X24823Y42347D01*
X24929Y42276D01*
X25054Y42251D01*
X25179Y42276D01*
X25285Y42347D01*
X25356Y42418D01*
X25356Y42418D01*
X25356Y42418D01*
X25427Y42524D01*
X25452Y42649D01*
X25452Y44977D01*
X26172Y44977D01*
X26113Y44835D01*
X26113Y44652D01*
X26183Y44483D01*
X26313Y44353D01*
X26482Y44283D01*
X26665Y44283D01*
X26834Y44353D01*
X26964Y44482D01*
X27034Y44651D01*
X27034Y44835D01*
X26975Y44977D01*
X28214Y44977D01*
X28214Y44479D01*
X28156Y44420D01*
X28109Y44308D01*
X28109Y44187D01*
X28156Y44074D01*
X28241Y43988D01*
X28354Y43942D01*
X28475Y43942D01*
X28587Y43988D01*
X28673Y44074D01*
X28720Y44186D01*
X28720Y44308D01*
X28673Y44420D01*
X28588Y44506D01*
X28575Y44511D01*
X28575Y44977D01*
X32589Y44977D01*
X32047Y44435D01*
X32008Y44376D01*
X31994Y44307D01*
X31994Y43144D01*
X32008Y43075D01*
X32047Y43017D01*
X33086Y41978D01*
X32379Y41978D01*
X32331Y41958D01*
X32323Y41950D01*
X31713Y42560D01*
X31681Y42581D01*
X31671Y42605D01*
X31585Y42691D01*
X31473Y42738D01*
X31352Y42738D01*
X31240Y42691D01*
X31154Y42606D01*
X31107Y42493D01*
X31107Y42372D01*
X31153Y42260D01*
X31239Y42174D01*
X31302Y42147D01*
X30842Y42147D01*
X30888Y42167D01*
X30925Y42203D01*
X30945Y42251D01*
X30945Y42303D01*
X30945Y42903D01*
X30925Y42951D01*
X30888Y42988D01*
X30841Y43007D01*
X30789Y43008D01*
X29989Y43008D01*
X29941Y42988D01*
X29904Y42951D01*
X29884Y42903D01*
X29884Y42851D01*
X29884Y42843D01*
X29517Y42843D01*
X29517Y42935D01*
X29497Y42983D01*
X29461Y43020D01*
X29413Y43040D01*
X29361Y43040D01*
X29086Y43040D01*
X29038Y43020D01*
X29001Y42983D01*
X28981Y42935D01*
X28981Y42883D01*
X28981Y42692D01*
X28947Y42641D01*
X28922Y42516D01*
X28947Y42390D01*
X28981Y42339D01*
X28981Y42147D01*
X28848Y42147D01*
X28848Y42148D01*
X28848Y42339D01*
X28882Y42390D01*
X28907Y42516D01*
X28882Y42641D01*
X28848Y42692D01*
X28848Y42935D01*
X28828Y42983D01*
X28792Y43020D01*
X28744Y43040D01*
X28692Y43040D01*
X28416Y43040D01*
X28368Y43020D01*
X28332Y42983D01*
X28316Y42944D01*
X27744Y42944D01*
X27725Y42991D01*
X27688Y43028D01*
X27641Y43047D01*
X27589Y43048D01*
X27034Y43048D01*
X27034Y43835D01*
X26964Y44004D01*
X26835Y44133D01*
X26666Y44204D01*
X26483Y44204D01*
X26313Y44134D01*
X26184Y44004D01*
X26113Y43835D01*
X26113Y43652D01*
X26183Y43483D01*
X26313Y43353D01*
X26482Y43283D01*
X26665Y43283D01*
X26834Y43353D01*
X26964Y43482D01*
X27034Y43651D01*
X27034Y43835D01*
X27034Y43048D01*
X26789Y43048D01*
X26741Y43028D01*
X26704Y42991D01*
X26684Y42943D01*
X26684Y42891D01*
X26684Y42291D01*
X26704Y42243D01*
X26741Y42207D01*
X26788Y42187D01*
X26840Y42187D01*
X27640Y42187D01*
X27688Y42207D01*
X27725Y42243D01*
X27744Y42290D01*
X28312Y42290D01*
X28312Y42147D01*
X24696Y42147D01*
X24696Y42379D01*
X24676Y42427D01*
X24640Y42464D01*
X24592Y42484D01*
X24540Y42484D01*
X23831Y42484D01*
X23783Y42464D01*
X23747Y42428D01*
X23727Y42380D01*
X23727Y42328D01*
X23727Y40753D01*
X23747Y40705D01*
X23783Y40668D01*
X23831Y40649D01*
X23883Y40648D01*
X24592Y40648D01*
X24640Y40668D01*
X24676Y40705D01*
X24696Y40753D01*
X24696Y40805D01*
X24696Y41787D01*
X31600Y41787D01*
X32070Y41317D01*
X32070Y41317D01*
X32105Y41293D01*
X32128Y41278D01*
X32128Y41278D01*
X32177Y41268D01*
X32175Y41264D01*
X32175Y41231D01*
X32232Y41173D01*
X32729Y41173D01*
X32729Y41207D01*
X32868Y41207D01*
X32868Y41173D01*
X33365Y41173D01*
X33422Y41231D01*
X33422Y41264D01*
X33421Y41268D01*
X33428Y41260D01*
X33540Y41214D01*
X33662Y41214D01*
X33774Y41260D01*
X33841Y41327D01*
X34609Y41327D01*
X34678Y41341D01*
X34737Y41380D01*
X35009Y41652D01*
X35009Y41587D01*
X35056Y41474D01*
X35141Y41388D01*
X35254Y41342D01*
X35365Y41342D01*
X35707Y41000D01*
X35765Y40961D01*
X35835Y40947D01*
X35941Y40947D01*
X35941Y40919D01*
X35998Y40861D01*
X36495Y40861D01*
X36495Y40895D01*
X36634Y40895D01*
X36634Y40861D01*
X37128Y40861D01*
X37141Y40848D01*
X37254Y40802D01*
X37375Y40802D01*
X37487Y40848D01*
X37573Y40934D01*
X37620Y41046D01*
X37620Y41168D01*
X37579Y41267D01*
X37595Y41267D01*
X37664Y41281D01*
X37722Y41320D01*
X37882Y41480D01*
X37921Y41538D01*
X37935Y41607D01*
X37935Y41907D01*
X37921Y41976D01*
X37921Y41976D01*
X37882Y42035D01*
X37662Y42255D01*
X37604Y42294D01*
X37535Y42307D01*
X36676Y42307D01*
X36702Y42334D01*
X36749Y42446D01*
X36749Y42558D01*
X36841Y42650D01*
X37181Y42650D01*
X37259Y42571D01*
X37371Y42525D01*
X37492Y42525D01*
X37605Y42571D01*
X37691Y42657D01*
X37737Y42769D01*
X37737Y42890D01*
X37691Y43003D01*
X37605Y43089D01*
X37573Y43102D01*
X38386Y43102D01*
X38434Y43122D01*
X38470Y43158D01*
X38490Y43206D01*
X38490Y43258D01*
X38490Y43888D01*
X38471Y43936D01*
X38434Y43973D01*
X38386Y43992D01*
X38334Y43993D01*
X37979Y43993D01*
X37979Y44109D01*
X38087Y44217D01*
X38168Y44136D01*
X38274Y44065D01*
X38400Y44040D01*
X38525Y44065D01*
X38631Y44136D01*
X38702Y44242D01*
X38727Y44367D01*
X38702Y44492D01*
X38631Y44599D01*
X38550Y44680D01*
X38847Y44977D01*
X40209Y44977D01*
X40147Y44915D01*
X40108Y44856D01*
X40094Y44787D01*
X40094Y44527D01*
X40108Y44458D01*
X40147Y44400D01*
X40454Y44093D01*
X39945Y44092D01*
X39887Y44035D01*
X39887Y43617D01*
X40699Y43617D01*
X40756Y43674D01*
X40756Y43790D01*
X41527Y43020D01*
X41585Y42981D01*
X41655Y42967D01*
X41700Y42967D01*
X41729Y42937D01*
X41569Y42938D01*
X41411Y42872D01*
X41290Y42751D01*
X41224Y42593D01*
X41224Y42422D01*
X41289Y42264D01*
X41410Y42143D01*
X41569Y42077D01*
X41740Y42077D01*
X41898Y42142D01*
X41954Y42198D01*
X41954Y42182D01*
X41710Y41937D01*
X41569Y41938D01*
X41411Y41872D01*
X41290Y41751D01*
X41224Y41593D01*
X41224Y41422D01*
X41289Y41264D01*
X41410Y41143D01*
X41569Y41077D01*
X41740Y41077D01*
X41898Y41142D01*
X42019Y41263D01*
X42085Y41421D01*
X42085Y41592D01*
X42023Y41741D01*
X42262Y41980D01*
X42301Y42038D01*
X42310Y42084D01*
X42328Y42077D01*
X42380Y42077D01*
X42980Y42077D01*
X43028Y42097D01*
X43065Y42133D01*
X43085Y42181D01*
X43085Y42233D01*
X43085Y42833D01*
X43065Y42881D01*
X43028Y42918D01*
X42981Y42937D01*
X42929Y42938D01*
X42329Y42938D01*
X42281Y42918D01*
X42268Y42905D01*
X42262Y42915D01*
X42262Y42915D01*
X42200Y42976D01*
X43420Y42976D01*
X44013Y42384D01*
X44012Y42273D01*
X44059Y42161D01*
X44145Y42075D01*
X44210Y42048D01*
X44176Y42055D01*
X42875Y42055D01*
X42750Y42030D01*
X42644Y41959D01*
X42644Y41959D01*
X42622Y41938D01*
X42569Y41938D01*
X42411Y41872D01*
X42290Y41751D01*
X42224Y41593D01*
X42224Y41422D01*
X42289Y41264D01*
X42410Y41143D01*
X42569Y41077D01*
X42740Y41077D01*
X42898Y41142D01*
X43019Y41263D01*
X43076Y41400D01*
X44041Y41400D01*
X44106Y41335D01*
X44106Y41335D01*
X44212Y41264D01*
X44337Y41239D01*
X44593Y41239D01*
X44593Y40753D01*
X44613Y40705D01*
X44649Y40668D01*
X44697Y40649D01*
X44749Y40648D01*
X45458Y40648D01*
X45506Y40668D01*
X45542Y40705D01*
X45562Y40753D01*
X45562Y40805D01*
X45562Y42379D01*
X45543Y42427D01*
X45506Y42464D01*
X45458Y42484D01*
X45406Y42484D01*
X45405Y42484D01*
X45405Y45428D01*
X45380Y45554D01*
X45309Y45660D01*
X45309Y45660D01*
X45089Y45880D01*
X44982Y45951D01*
X44857Y45976D01*
X44809Y45966D01*
X45382Y46540D01*
X45421Y46598D01*
X45435Y46667D01*
X45435Y50495D01*
X45501Y50428D01*
X45614Y50382D01*
X45665Y50382D01*
X45874Y50172D01*
X45874Y49867D01*
X45874Y46793D01*
X45874Y46793D01*
X45762Y46746D01*
X45676Y46660D01*
X45629Y46548D01*
X45629Y46427D01*
X45676Y46314D01*
X45761Y46228D01*
X45874Y46182D01*
X45995Y46182D01*
X46107Y46228D01*
X46193Y46314D01*
X46240Y46426D01*
X46240Y46548D01*
X46228Y46575D01*
X46235Y46607D01*
X46235Y49867D01*
X46235Y50247D01*
X46235Y50247D01*
X46221Y50316D01*
X46221Y50316D01*
X46182Y50375D01*
X46182Y50375D01*
X45965Y50591D01*
X45980Y50626D01*
X45980Y50748D01*
X45933Y50860D01*
X45848Y50946D01*
X45735Y50992D01*
X45614Y50993D01*
X45502Y50946D01*
X45435Y50879D01*
X45435Y51947D01*
X45435Y51947D01*
X45435Y51947D01*
X45432Y51961D01*
X45421Y52016D01*
X45421Y52016D01*
X45382Y52075D01*
X45382Y52075D01*
X44222Y53235D01*
X44164Y53274D01*
X44095Y53287D01*
X42080Y53287D01*
X42011Y53274D01*
X41952Y53235D01*
X40860Y52142D01*
X40860Y52188D01*
X40813Y52300D01*
X40768Y52346D01*
X41524Y53102D01*
X41635Y53102D01*
X41747Y53148D01*
X41833Y53234D01*
X41880Y53346D01*
X41880Y53468D01*
X41833Y53580D01*
X41748Y53666D01*
X41635Y53712D01*
X41514Y53713D01*
X41402Y53666D01*
X41316Y53580D01*
X41269Y53468D01*
X41269Y53357D01*
X40427Y52515D01*
X40388Y52456D01*
X40374Y52387D01*
X40374Y52379D01*
X40296Y52300D01*
X40249Y52188D01*
X40249Y52067D01*
X40296Y51954D01*
X40346Y51904D01*
X40325Y51904D01*
X40156Y51834D01*
X40026Y51705D01*
X39993Y51624D01*
X39832Y51624D01*
X39861Y51636D01*
X39991Y51765D01*
X40061Y51935D01*
X40061Y52118D01*
X39991Y52287D01*
X39862Y52417D01*
X39703Y52483D01*
X38498Y53687D01*
X38392Y53758D01*
X38267Y53783D01*
X36850Y53783D01*
X36850Y55547D01*
X36825Y55672D01*
X36754Y55778D01*
X36754Y55778D01*
X36423Y56109D01*
X36317Y56180D01*
X36192Y56204D01*
X35566Y56204D01*
X31609Y56204D01*
X31484Y56180D01*
X31378Y56109D01*
X31378Y56109D01*
X29457Y54188D01*
X29386Y54082D01*
X29361Y53957D01*
X29361Y53299D01*
X28845Y53299D01*
X28720Y53274D01*
X28614Y53203D01*
X28614Y53203D01*
X26448Y51037D01*
X26435Y51037D01*
X26680Y51282D01*
X26820Y51619D01*
X26820Y51984D01*
X26681Y52322D01*
X26423Y52580D01*
X26086Y52720D01*
X25720Y52720D01*
X25383Y52581D01*
X25125Y52323D01*
X24985Y51986D01*
X24984Y51621D01*
X25124Y51283D01*
X25369Y51037D01*
X23076Y51037D01*
X24299Y53239D01*
X26543Y55483D01*
X29785Y57228D01*
X34525Y58226D01*
X38766Y57478D01*
X41010Y56481D01*
X43254Y54984D01*
X45250Y52739D01*
X46497Y50745D01*
X47244Y48253D01*
X47244Y40537D01*
M02*
