G04 (created by PCBNEW (2013-07-07 BZR 4022)-stable) date 18/02/2015 12:12:13 p.m.*
%MOIN*%
G04 Gerber Fmt 3.4, Leading zero omitted, Abs format*
%FSLAX34Y34*%
G01*
G70*
G90*
G04 APERTURE LIST*
%ADD10C,0.00590551*%
%ADD11C,0.011811*%
%ADD12R,0.06X0.06*%
%ADD13C,0.06*%
%ADD14C,0.15748*%
%ADD15R,0.08X0.06*%
%ADD16R,0.06X0.08*%
%ADD17R,0.0708661X0.15748*%
%ADD18R,0.059X0.0512*%
%ADD19R,0.0512X0.059*%
%ADD20R,0.0748031X0.016*%
%ADD21R,0.0315X0.051211*%
%ADD22C,0.066*%
%ADD23C,0.035*%
%ADD24C,0.0393701*%
%ADD25C,0.01*%
G04 APERTURE END LIST*
G54D10*
G54D11*
X4026Y19079D02*
X4026Y18797D01*
X4194Y19135D02*
X3604Y18938D01*
X4194Y18741D01*
X3885Y18347D02*
X3885Y18544D01*
X4194Y18544D02*
X3604Y18544D01*
X3604Y18263D01*
X4194Y17701D02*
X3913Y17897D01*
X4194Y18038D02*
X3604Y18038D01*
X3604Y17813D01*
X3632Y17757D01*
X3660Y17729D01*
X3716Y17701D01*
X3801Y17701D01*
X3857Y17729D01*
X3885Y17757D01*
X3913Y17813D01*
X3913Y18038D01*
X4166Y17476D02*
X4194Y17391D01*
X4194Y17251D01*
X4166Y17194D01*
X4138Y17166D01*
X4082Y17138D01*
X4026Y17138D01*
X3969Y17166D01*
X3941Y17194D01*
X3913Y17251D01*
X3885Y17363D01*
X3857Y17419D01*
X3829Y17447D01*
X3773Y17476D01*
X3716Y17476D01*
X3660Y17447D01*
X3632Y17419D01*
X3604Y17363D01*
X3604Y17222D01*
X3632Y17138D01*
G54D12*
X21755Y21528D03*
G54D13*
X21755Y20528D03*
X21755Y19528D03*
X21755Y18528D03*
G54D12*
X20475Y18528D03*
G54D13*
X19475Y18528D03*
X20475Y19528D03*
X19475Y19528D03*
X20475Y20528D03*
X19475Y20528D03*
X20475Y21528D03*
X19475Y21528D03*
G54D14*
X21031Y5678D03*
X21031Y9481D03*
G54D15*
X8255Y19218D03*
X8255Y17918D03*
G54D16*
X16045Y28828D03*
X14745Y28828D03*
G54D15*
X26595Y18098D03*
X26595Y16798D03*
X18215Y24378D03*
X18215Y23078D03*
X26495Y21538D03*
X26495Y20238D03*
X25075Y21558D03*
X25075Y20258D03*
G54D12*
X13561Y16778D03*
G54D13*
X14561Y16778D03*
X15561Y16778D03*
X16561Y16778D03*
G54D12*
X23135Y15448D03*
G54D13*
X23135Y14448D03*
X22135Y15448D03*
X22135Y14448D03*
X21135Y15448D03*
X21135Y14448D03*
G54D12*
X14625Y4232D03*
G54D13*
X15625Y4232D03*
G54D14*
X9220Y5677D03*
X9220Y9480D03*
G54D17*
X25559Y14507D03*
G54D18*
X11411Y5697D03*
X11411Y6447D03*
G54D19*
X18880Y17308D03*
X19630Y17308D03*
G54D18*
X18881Y5713D03*
X18881Y6463D03*
G54D15*
X19195Y16418D03*
X19195Y15118D03*
G54D20*
X14017Y5977D03*
X14017Y6227D03*
X14017Y6477D03*
X14017Y6727D03*
X16234Y5227D03*
X14017Y5227D03*
X14017Y5477D03*
X14017Y5727D03*
X16234Y6977D03*
X16234Y6727D03*
X16234Y6477D03*
X16234Y6227D03*
X16234Y5977D03*
X16234Y5727D03*
X14017Y6977D03*
X16234Y5477D03*
G54D21*
X15125Y23818D03*
X14750Y22834D03*
X15500Y22834D03*
G54D17*
X4692Y14507D03*
X3314Y14507D03*
G54D22*
X23196Y16685D03*
X23196Y17685D03*
X23196Y20244D03*
X23196Y19244D03*
X7055Y17685D03*
X7055Y16685D03*
X7055Y19244D03*
X7055Y20244D03*
X13248Y26397D03*
X14248Y26397D03*
X16003Y26397D03*
X17003Y26397D03*
X7551Y22300D03*
X8218Y23046D03*
X9354Y24385D03*
X10169Y24968D03*
X20082Y24968D03*
X20897Y24385D03*
X22033Y23046D03*
X22699Y22300D03*
G54D14*
X23868Y24744D03*
X6383Y24744D03*
G54D23*
X16047Y28818D03*
X5535Y15519D03*
X9688Y14007D03*
X25338Y18590D03*
X18880Y17308D03*
X16992Y9787D03*
X17470Y4228D03*
X18235Y24428D03*
X21875Y17588D03*
X20155Y15788D03*
X20135Y14948D03*
X17875Y14728D03*
X16255Y14728D03*
X8895Y17188D03*
X17875Y13148D03*
X19995Y12988D03*
X9435Y25128D03*
X8675Y23968D03*
X15795Y14588D03*
X20075Y14028D03*
X17795Y14048D03*
X13151Y5472D03*
X11411Y5697D03*
X13123Y6724D03*
X10895Y14228D03*
X14695Y10928D03*
X18881Y5713D03*
X17181Y5676D03*
X18881Y6463D03*
X17043Y6752D03*
X17015Y16308D03*
X7695Y14228D03*
X11395Y11068D03*
X12085Y4248D03*
X17015Y11921D03*
X19295Y11539D03*
X19295Y9177D03*
X19271Y7751D03*
X16062Y4720D03*
X16755Y11528D03*
X17015Y11048D03*
X15228Y10925D03*
X15118Y7696D03*
X15122Y5885D03*
X15582Y5889D03*
X15539Y7496D03*
X15692Y10960D03*
X24799Y15275D03*
X21322Y17452D03*
X17913Y15771D03*
X16925Y15448D03*
X11893Y15374D03*
X15095Y18728D03*
X16955Y20488D03*
X16435Y21708D03*
X10515Y12448D03*
X12095Y11688D03*
X15435Y16208D03*
X17935Y12208D03*
X25075Y23508D03*
X23075Y25708D03*
X25095Y21588D03*
X23535Y22688D03*
X22655Y20988D03*
X14082Y14460D03*
X22370Y23814D03*
X23155Y23148D03*
X24335Y23628D03*
X18135Y19528D03*
X14675Y12448D03*
X11895Y13908D03*
X8255Y17918D03*
X12055Y26988D03*
X6675Y22068D03*
X17735Y19048D03*
X16315Y19008D03*
X18215Y23078D03*
X14735Y22828D03*
X26935Y14528D03*
X24455Y14028D03*
X19630Y17308D03*
X17815Y8305D03*
X21935Y12168D03*
X16279Y7398D03*
X12765Y4514D03*
X13215Y25008D03*
X24155Y18788D03*
X22535Y25048D03*
X13295Y27328D03*
X21035Y25068D03*
X22055Y26348D03*
X26155Y23628D03*
X26415Y19428D03*
X24975Y17668D03*
X14649Y7425D03*
G54D24*
X24267Y20244D02*
X24267Y22964D01*
X20747Y25633D02*
X20082Y24968D01*
X21248Y25633D02*
X20747Y25633D01*
X22303Y24578D02*
X21248Y25633D01*
X22429Y24578D02*
X22303Y24578D01*
X23433Y23574D02*
X22429Y24578D01*
X23657Y23574D02*
X23433Y23574D01*
X24267Y22964D02*
X23657Y23574D01*
X16045Y28820D02*
X16045Y28828D01*
X16047Y28818D02*
X16045Y28820D01*
X4692Y14507D02*
X4692Y14677D01*
X4692Y14677D02*
X5535Y15519D01*
X4692Y14507D02*
X6385Y14507D01*
X9688Y14586D02*
X9688Y14007D01*
X9287Y14988D02*
X9688Y14586D01*
X6866Y14988D02*
X9287Y14988D01*
X6385Y14507D02*
X6866Y14988D01*
X25075Y18853D02*
X25075Y20258D01*
X25338Y18590D02*
X25075Y18853D01*
X26475Y20258D02*
X26495Y20238D01*
X25075Y20258D02*
X26475Y20258D01*
X25061Y20244D02*
X25075Y20258D01*
X23196Y20244D02*
X24267Y20244D01*
X24267Y20244D02*
X25061Y20244D01*
X19475Y18528D02*
X19475Y18449D01*
X21591Y18528D02*
X21755Y18528D01*
X20649Y17586D02*
X21591Y18528D01*
X20338Y17586D02*
X20649Y17586D01*
X19475Y18449D02*
X20338Y17586D01*
X18880Y17308D02*
X18880Y16733D01*
X18880Y16733D02*
X19195Y16418D01*
X17470Y4228D02*
X17470Y4478D01*
X17470Y4478D02*
X17657Y4665D01*
X17657Y4665D02*
X17657Y7133D01*
X17657Y7133D02*
X16992Y7799D01*
X16992Y7799D02*
X16992Y9787D01*
G54D25*
X16175Y5227D02*
X17153Y5227D01*
X17439Y4940D02*
X17153Y5227D01*
X17439Y4259D02*
X17439Y4940D01*
X17439Y4259D02*
X17470Y4228D01*
X16175Y5227D02*
X16656Y5227D01*
X16175Y6227D02*
X16597Y6227D01*
X16783Y6040D02*
X16597Y6227D01*
X16783Y5354D02*
X16783Y6040D01*
X16656Y5227D02*
X16783Y5354D01*
X16175Y6227D02*
X14075Y6227D01*
X14075Y6227D02*
X14075Y5977D01*
X16175Y6227D02*
X16175Y5977D01*
X18215Y24408D02*
X18215Y24378D01*
X18235Y24428D02*
X18215Y24408D01*
X21875Y17508D02*
X21875Y17588D01*
X20155Y15788D02*
X21875Y17508D01*
X19615Y14428D02*
X20135Y14948D01*
X18175Y14428D02*
X19615Y14428D01*
X17875Y14728D02*
X18175Y14428D01*
X23196Y19244D02*
X24511Y19244D01*
X25745Y17248D02*
X26595Y18098D01*
X24838Y17248D02*
X25745Y17248D01*
X24637Y17448D02*
X24838Y17248D01*
X24637Y19118D02*
X24637Y17448D01*
X24511Y19244D02*
X24637Y19118D01*
X8685Y19218D02*
X8255Y19218D01*
X8875Y19028D02*
X8685Y19218D01*
X8875Y17708D02*
X8875Y19028D01*
X9195Y17388D02*
X8875Y17708D01*
X10955Y17388D02*
X9195Y17388D01*
X12175Y16168D02*
X10955Y17388D01*
X12175Y15648D02*
X12175Y16168D01*
X13395Y14428D02*
X12175Y15648D01*
X13395Y14288D02*
X13395Y14428D01*
X13915Y13768D02*
X13395Y14288D01*
X13915Y12368D02*
X13915Y13768D01*
X14435Y11848D02*
X13915Y12368D01*
X14955Y11848D02*
X14435Y11848D01*
X16235Y13128D02*
X14955Y11848D01*
X16235Y14708D02*
X16235Y13128D01*
X16255Y14728D02*
X16235Y14708D01*
X8255Y19218D02*
X7080Y19218D01*
X7080Y19218D02*
X7055Y19244D01*
X17875Y13148D02*
X16895Y13148D01*
X9015Y17068D02*
X8895Y17188D01*
X10875Y17068D02*
X9015Y17068D01*
X11495Y16448D02*
X10875Y17068D01*
X11495Y15188D02*
X11495Y16448D01*
X13475Y13208D02*
X11495Y15188D01*
X13475Y12208D02*
X13475Y13208D01*
X14275Y11408D02*
X13475Y12208D01*
X15155Y11408D02*
X14275Y11408D01*
X16895Y13148D02*
X15155Y11408D01*
X19815Y13148D02*
X17875Y13148D01*
X19995Y12968D02*
X19815Y13148D01*
X19995Y12988D02*
X19995Y12968D01*
X15095Y25488D02*
X16003Y26397D01*
X9795Y25488D02*
X15095Y25488D01*
X9435Y25128D02*
X9795Y25488D01*
X9115Y23528D02*
X8675Y23968D01*
X9115Y17948D02*
X9115Y23528D01*
X9435Y17628D02*
X9115Y17948D01*
X11135Y17628D02*
X9435Y17628D01*
X12395Y16368D02*
X11135Y17628D01*
X12395Y15828D02*
X12395Y16368D01*
X13635Y14588D02*
X12395Y15828D01*
X13635Y14408D02*
X13635Y14588D01*
X14215Y13828D02*
X13635Y14408D01*
X14215Y12408D02*
X14215Y13828D01*
X14535Y12088D02*
X14215Y12408D01*
X14875Y12088D02*
X14535Y12088D01*
X15095Y12308D02*
X14875Y12088D01*
X15095Y12528D02*
X15095Y12308D01*
X14635Y12988D02*
X15095Y12528D01*
X14635Y14328D02*
X14635Y12988D01*
X14915Y14608D02*
X14635Y14328D01*
X15775Y14608D02*
X14915Y14608D01*
X15795Y14588D02*
X15775Y14608D01*
X19895Y14208D02*
X20075Y14028D01*
X17955Y14208D02*
X19895Y14208D01*
X17795Y14048D02*
X17955Y14208D01*
X14075Y6727D02*
X13628Y6727D01*
X13151Y6250D02*
X13151Y5472D01*
X13628Y6727D02*
X13151Y6250D01*
X11411Y6447D02*
X12846Y6447D01*
X12846Y6447D02*
X13123Y6724D01*
X14075Y6977D02*
X13376Y6977D01*
X13376Y6977D02*
X13123Y6724D01*
X10895Y13568D02*
X10895Y14228D01*
X13615Y10848D02*
X10895Y13568D01*
X14615Y10848D02*
X13615Y10848D01*
X14695Y10928D02*
X14615Y10848D01*
X16175Y6477D02*
X16857Y6477D01*
X17181Y6152D02*
X17181Y5676D01*
X16857Y6477D02*
X17181Y6152D01*
X16175Y6727D02*
X17017Y6727D01*
X17017Y6727D02*
X17043Y6752D01*
X19955Y19008D02*
X20475Y19528D01*
X18995Y19008D02*
X19955Y19008D01*
X18775Y18788D02*
X18995Y19008D01*
X18775Y18068D02*
X18775Y18788D01*
X17015Y16308D02*
X18775Y18068D01*
X8195Y13728D02*
X7695Y14228D01*
X8195Y12468D02*
X8195Y13728D01*
X9595Y11068D02*
X8195Y12468D01*
X11395Y11068D02*
X9595Y11068D01*
X14771Y5477D02*
X14075Y5477D01*
X14893Y5354D02*
X14771Y5477D01*
X14893Y5130D02*
X14893Y5354D01*
X14669Y4906D02*
X14893Y5130D01*
X14221Y4906D02*
X14669Y4906D01*
X13455Y4140D02*
X14221Y4906D01*
X12193Y4140D02*
X13455Y4140D01*
X12085Y4248D02*
X12193Y4140D01*
X16234Y5477D02*
X15646Y5477D01*
X17267Y11669D02*
X17015Y11921D01*
X19165Y11669D02*
X17267Y11669D01*
X19295Y11539D02*
X19165Y11669D01*
X19295Y7775D02*
X19295Y9177D01*
X19271Y7751D02*
X19295Y7775D01*
X15791Y4720D02*
X16062Y4720D01*
X15492Y5019D02*
X15791Y4720D01*
X15492Y5322D02*
X15492Y5019D01*
X15646Y5477D02*
X15492Y5322D01*
X20475Y21528D02*
X20475Y21448D01*
X22555Y16028D02*
X23135Y15448D01*
X22555Y20508D02*
X22555Y16028D01*
X22055Y21008D02*
X22555Y20508D01*
X20915Y21008D02*
X22055Y21008D01*
X20475Y21448D02*
X20915Y21008D01*
X23135Y15448D02*
X23415Y15448D01*
X16655Y11428D02*
X16755Y11528D01*
X16655Y10748D02*
X16655Y11428D01*
X16795Y10608D02*
X16655Y10748D01*
X19835Y10608D02*
X16795Y10608D01*
X21515Y12288D02*
X19835Y10608D01*
X21515Y13048D02*
X21515Y12288D01*
X22335Y13868D02*
X21515Y13048D01*
X23415Y13868D02*
X22335Y13868D01*
X23875Y14328D02*
X23415Y13868D01*
X23875Y14988D02*
X23875Y14328D01*
X23415Y15448D02*
X23875Y14988D01*
X22135Y14448D02*
X21295Y13608D01*
X19715Y11048D02*
X17015Y11048D01*
X21295Y12628D02*
X19715Y11048D01*
X21295Y13608D02*
X21295Y12628D01*
X14017Y5727D02*
X14963Y5727D01*
X15027Y10724D02*
X15228Y10925D01*
X15027Y7787D02*
X15027Y10724D01*
X15118Y7696D02*
X15027Y7787D01*
X14963Y5727D02*
X15122Y5885D01*
X15745Y5727D02*
X16234Y5727D01*
X15582Y5889D02*
X15745Y5727D01*
X15539Y10807D02*
X15539Y7496D01*
X15692Y10960D02*
X15539Y10807D01*
X25559Y14515D02*
X25559Y14507D01*
X24799Y15275D02*
X25559Y14515D01*
X19625Y15755D02*
X21322Y17452D01*
X17929Y15755D02*
X19625Y15755D01*
X17913Y15771D02*
X17929Y15755D01*
X16925Y13492D02*
X16925Y15448D01*
X15066Y11633D02*
X16925Y13492D01*
X14346Y11633D02*
X15066Y11633D01*
X13685Y12295D02*
X14346Y11633D01*
X13685Y13582D02*
X13685Y12295D01*
X11893Y15374D02*
X13685Y13582D01*
X15500Y22834D02*
X15500Y22643D01*
X15195Y18728D02*
X15095Y18728D01*
X16955Y20488D02*
X15195Y18728D01*
X15500Y22643D02*
X16435Y21708D01*
X11335Y12448D02*
X10515Y12448D01*
X12095Y11688D02*
X11335Y12448D01*
X18905Y15408D02*
X19195Y15118D01*
X17455Y15408D02*
X18905Y15408D01*
X17195Y15668D02*
X17455Y15408D01*
X17015Y15848D02*
X17195Y15668D01*
X16655Y16208D02*
X17015Y15848D01*
X15435Y16208D02*
X16655Y16208D01*
X21135Y15448D02*
X19525Y15448D01*
X19525Y15448D02*
X19195Y15118D01*
X20475Y20528D02*
X20675Y20528D01*
X22235Y15548D02*
X22135Y15448D01*
X22235Y19728D02*
X22235Y15548D01*
X21955Y20008D02*
X22235Y19728D01*
X21195Y20008D02*
X21955Y20008D01*
X20675Y20528D02*
X21195Y20008D01*
X21635Y14948D02*
X22135Y15448D01*
X20755Y14948D02*
X21635Y14948D01*
X20415Y14608D02*
X20755Y14948D01*
X20415Y12528D02*
X20415Y14608D01*
X19895Y12008D02*
X20415Y12528D01*
X18135Y12008D02*
X19895Y12008D01*
X17935Y12208D02*
X18135Y12008D01*
X25075Y25008D02*
X25075Y23508D01*
X24155Y25928D02*
X25075Y25008D01*
X23295Y25928D02*
X24155Y25928D01*
X23075Y25708D02*
X23295Y25928D01*
X25075Y21568D02*
X25075Y21558D01*
X25095Y21588D02*
X25075Y21568D01*
X23535Y21868D02*
X23535Y22688D01*
X22655Y20988D02*
X23535Y21868D01*
X21755Y21528D02*
X21755Y21893D01*
X14082Y14641D02*
X14082Y14460D01*
X12854Y15870D02*
X14082Y14641D01*
X12854Y17188D02*
X12854Y15870D01*
X18043Y22377D02*
X12854Y17188D01*
X21271Y22377D02*
X18043Y22377D01*
X21755Y21893D02*
X21271Y22377D01*
X23155Y23148D02*
X23036Y23148D01*
X23036Y23148D02*
X22370Y23814D01*
X26495Y21538D02*
X26425Y21538D01*
X24444Y23520D02*
X24335Y23628D01*
X26425Y21538D02*
X24444Y23520D01*
X16375Y19528D02*
X18135Y19528D01*
X14075Y17228D02*
X16375Y19528D01*
X14075Y16308D02*
X14075Y17228D01*
X14435Y15948D02*
X14075Y16308D01*
X14435Y12688D02*
X14435Y15948D01*
X14675Y12448D02*
X14435Y12688D01*
X8255Y16728D02*
X8255Y16708D01*
X11895Y14328D02*
X11895Y13908D01*
X11455Y14768D02*
X11895Y14328D01*
X10195Y14768D02*
X11455Y14768D01*
X8255Y16708D02*
X10195Y14768D01*
X3314Y14507D02*
X3314Y15027D01*
X8255Y16688D02*
X8255Y16728D01*
X8255Y16728D02*
X8255Y17048D01*
X7535Y15968D02*
X8255Y16688D01*
X4255Y15968D02*
X7535Y15968D01*
X3314Y15027D02*
X4255Y15968D01*
X8255Y17918D02*
X8255Y17048D01*
X6755Y26988D02*
X12055Y26988D01*
X5075Y25308D02*
X6755Y26988D01*
X5075Y23668D02*
X5075Y25308D01*
X6675Y22068D02*
X5075Y23668D01*
X16355Y19048D02*
X17735Y19048D01*
X16315Y19008D02*
X16355Y19048D01*
X26595Y16798D02*
X26595Y16088D01*
X26675Y16008D02*
X26675Y16048D01*
X26595Y16088D02*
X26675Y16008D01*
X14750Y22834D02*
X14741Y22834D01*
X14735Y22828D02*
X14741Y22834D01*
X26935Y15788D02*
X26935Y14528D01*
X26715Y16008D02*
X26675Y16048D01*
X26675Y16048D02*
X26935Y15788D01*
X24855Y16008D02*
X26715Y16008D01*
X24395Y15548D02*
X24855Y16008D01*
X24395Y14088D02*
X24395Y15548D01*
X24455Y14028D02*
X24395Y14088D01*
X21755Y19528D02*
X21475Y19528D01*
X21475Y19528D02*
X20475Y18528D01*
X21678Y12168D02*
X17815Y8305D01*
X21678Y12168D02*
X21935Y12168D01*
X16175Y6977D02*
X16175Y7294D01*
X16175Y7294D02*
X16279Y7398D01*
X14075Y5227D02*
X14075Y5118D01*
X13471Y4514D02*
X12765Y4514D01*
X14075Y5118D02*
X13471Y4514D01*
X15125Y23818D02*
X14405Y23818D01*
X14405Y23818D02*
X13215Y25008D01*
X23196Y16685D02*
X23592Y16685D01*
X24155Y17248D02*
X24155Y18788D01*
X23592Y16685D02*
X24155Y17248D01*
X13248Y26397D02*
X13248Y26700D01*
X19615Y27968D02*
X22535Y25048D01*
X14515Y27968D02*
X19615Y27968D01*
X13248Y26700D02*
X14515Y27968D01*
X7551Y22300D02*
X7551Y24664D01*
X9284Y26397D02*
X13248Y26397D01*
X7551Y24664D02*
X9284Y26397D01*
X7055Y16685D02*
X6339Y16685D01*
X5355Y20104D02*
X7551Y22300D01*
X5355Y17668D02*
X5355Y20104D01*
X6339Y16685D02*
X5355Y17668D01*
X8218Y23046D02*
X8218Y21903D01*
X6251Y17685D02*
X7055Y17685D01*
X5555Y18381D02*
X6251Y17685D01*
X5555Y19968D02*
X5555Y18381D01*
X7067Y21480D02*
X5555Y19968D01*
X7795Y21480D02*
X7067Y21480D01*
X8218Y21903D02*
X7795Y21480D01*
X13835Y28828D02*
X14745Y28828D01*
X13295Y28288D02*
X13835Y28828D01*
X13295Y27328D02*
X13295Y28288D01*
X22033Y24070D02*
X22033Y23046D01*
X21035Y25068D02*
X22033Y24070D01*
X24195Y26348D02*
X22055Y26348D01*
X25315Y25228D02*
X24195Y26348D01*
X25315Y24468D02*
X25315Y25228D01*
X26155Y23628D02*
X25315Y24468D01*
X26415Y19108D02*
X26415Y19428D01*
X24975Y17668D02*
X26415Y19108D01*
X14248Y26397D02*
X14248Y26500D01*
X20838Y23046D02*
X22033Y23046D01*
X19235Y24648D02*
X20838Y23046D01*
X19235Y25828D02*
X19235Y24648D01*
X17675Y27388D02*
X19235Y25828D01*
X15135Y27388D02*
X17675Y27388D01*
X14248Y26500D02*
X15135Y27388D01*
X8218Y23046D02*
X8218Y24451D01*
X13539Y25688D02*
X14248Y26397D01*
X9455Y25688D02*
X13539Y25688D01*
X8218Y24451D02*
X9455Y25688D01*
X14017Y6477D02*
X14587Y6477D01*
X14587Y6477D02*
X14649Y6539D01*
X14649Y6539D02*
X14649Y7425D01*
M02*
