G04 (created by PCBNEW (2013-07-07 BZR 4022)-stable) date 23/08/2016 11:16:44 p. m.*
%MOIN*%
G04 Gerber Fmt 3.4, Leading zero omitted, Abs format*
%FSLAX34Y34*%
G01*
G70*
G90*
G04 APERTURE LIST*
%ADD10C,0.00590551*%
%ADD11C,0.066*%
%ADD12C,0.15748*%
%ADD13R,0.06X0.06*%
%ADD14C,0.06*%
%ADD15R,0.19685X0.0708661*%
%ADD16R,0.08X0.144*%
%ADD17R,0.08X0.04*%
%ADD18R,0.06X0.08*%
%ADD19R,0.08X0.06*%
%ADD20R,0.0708661X0.15748*%
%ADD21R,0.063X0.1417*%
%ADD22R,0.1417X0.063*%
%ADD23R,0.0512X0.059*%
%ADD24R,0.059X0.0512*%
%ADD25R,0.0787X0.0177*%
%ADD26R,0.0177X0.0787*%
%ADD27R,0.0275591X0.0787402*%
G04 APERTURE END LIST*
G54D10*
G54D11*
X42715Y43743D03*
X42715Y44743D03*
X42715Y47302D03*
X42715Y46302D03*
X26574Y44743D03*
X26574Y43743D03*
X26574Y46302D03*
X26574Y47302D03*
X32767Y53456D03*
X33767Y53456D03*
X35523Y53456D03*
X36523Y53456D03*
X27071Y49359D03*
X27737Y50105D03*
X28873Y51444D03*
X29689Y52027D03*
X39601Y52027D03*
X40416Y51444D03*
X41552Y50105D03*
X42219Y49359D03*
G54D12*
X43387Y51802D03*
X25902Y51802D03*
G54D13*
X41275Y48587D03*
G54D14*
X41275Y47587D03*
X41275Y46587D03*
X41275Y45587D03*
G54D13*
X39995Y45587D03*
G54D14*
X38995Y45587D03*
X39995Y46587D03*
X38995Y46587D03*
X39995Y47587D03*
X38995Y47587D03*
X39995Y48587D03*
X38995Y48587D03*
G54D12*
X40550Y32737D03*
X40550Y36540D03*
G54D15*
X36562Y33811D03*
X36562Y32512D03*
G54D16*
X31221Y36491D03*
G54D17*
X33821Y36491D03*
X33821Y37391D03*
X33821Y35591D03*
G54D18*
X41445Y40367D03*
X40145Y40367D03*
G54D19*
X30415Y42577D03*
X30415Y41277D03*
X27215Y42617D03*
X27215Y41317D03*
G54D18*
X30005Y39487D03*
X28705Y39487D03*
X40145Y39267D03*
X41445Y39267D03*
G54D13*
X33081Y43837D03*
G54D14*
X34081Y43837D03*
X35081Y43837D03*
X36081Y43837D03*
G54D13*
X42655Y42507D03*
G54D14*
X42655Y41507D03*
X41655Y42507D03*
X41655Y41507D03*
X40655Y42507D03*
X40655Y41507D03*
G54D13*
X34145Y31291D03*
G54D14*
X35145Y31291D03*
G54D12*
X28739Y32736D03*
X28739Y36539D03*
G54D15*
X32727Y33810D03*
X32727Y32511D03*
G54D20*
X45078Y41566D03*
X46456Y41566D03*
X45078Y41566D03*
G54D21*
X37335Y37530D03*
X37335Y35364D03*
G54D22*
X37652Y43547D03*
X39818Y43547D03*
G54D23*
X38950Y40407D03*
X38200Y40407D03*
G54D24*
X35586Y37394D03*
X35586Y36644D03*
X31437Y40238D03*
X31437Y40988D03*
G54D23*
X33024Y31551D03*
X32274Y31551D03*
X36990Y31287D03*
X36240Y31287D03*
X38938Y39525D03*
X38188Y39525D03*
G54D24*
X35589Y35160D03*
X35589Y35910D03*
G54D25*
X32799Y39554D03*
X32799Y39869D03*
X32799Y40184D03*
X32799Y40499D03*
X32799Y40814D03*
X32799Y41129D03*
X32799Y41444D03*
X32799Y41759D03*
X36565Y41757D03*
X36565Y39547D03*
X36565Y39867D03*
X36565Y40187D03*
X36565Y40497D03*
X36565Y40817D03*
X36565Y41127D03*
X36565Y41447D03*
G54D26*
X33583Y42547D03*
X33897Y42547D03*
X34213Y42547D03*
X34527Y42547D03*
X34843Y42547D03*
X35157Y42547D03*
X35473Y42547D03*
X35787Y42547D03*
X33585Y38767D03*
X33895Y38767D03*
X34215Y38767D03*
X34525Y38767D03*
X34835Y38767D03*
X35155Y38767D03*
X35475Y38767D03*
X35795Y38767D03*
G54D18*
X35295Y52247D03*
X33995Y52247D03*
G54D27*
X28619Y41059D03*
X29210Y41059D03*
X29249Y42516D03*
X28580Y42516D03*
M02*
