G04 (created by PCBNEW (2013-07-07 BZR 4022)-stable) date 23/08/2016 11:16:44 p. m.*
%MOIN*%
G04 Gerber Fmt 3.4, Leading zero omitted, Abs format*
%FSLAX34Y34*%
G01*
G70*
G90*
G04 APERTURE LIST*
%ADD10C,0.00590551*%
%ADD11C,0.066*%
%ADD12C,0.15748*%
%ADD13R,0.0748031X0.016*%
%ADD14R,0.08X0.06*%
%ADD15R,0.06X0.06*%
%ADD16C,0.06*%
%ADD17R,0.06X0.08*%
%ADD18R,0.059X0.0512*%
%ADD19R,0.0512X0.059*%
%ADD20R,0.0315X0.051211*%
%ADD21R,0.0708661X0.15748*%
G04 APERTURE END LIST*
G54D10*
G54D11*
X42715Y43743D03*
X42715Y44743D03*
X42715Y47302D03*
X42715Y46302D03*
X26574Y44743D03*
X26574Y43743D03*
X26574Y46302D03*
X26574Y47302D03*
X32767Y53456D03*
X33767Y53456D03*
X35523Y53456D03*
X36523Y53456D03*
X27071Y49359D03*
X27737Y50105D03*
X28873Y51444D03*
X29689Y52027D03*
X39601Y52027D03*
X40416Y51444D03*
X41552Y50105D03*
X42219Y49359D03*
G54D12*
X43387Y51802D03*
X25902Y51802D03*
G54D13*
X33536Y33036D03*
X33536Y33286D03*
X33536Y33536D03*
X33536Y33786D03*
X35753Y32286D03*
X33536Y32286D03*
X33536Y32536D03*
X33536Y32786D03*
X35753Y34036D03*
X35753Y33786D03*
X35753Y33536D03*
X35753Y33286D03*
X35753Y33036D03*
X35753Y32786D03*
X33536Y34036D03*
X35753Y32536D03*
G54D14*
X46015Y48597D03*
X46015Y47297D03*
X27775Y46277D03*
X27775Y44977D03*
G54D15*
X41275Y48587D03*
G54D16*
X41275Y47587D03*
X41275Y46587D03*
X41275Y45587D03*
G54D15*
X39995Y45587D03*
G54D16*
X38995Y45587D03*
X39995Y46587D03*
X38995Y46587D03*
X39995Y47587D03*
X38995Y47587D03*
X39995Y48587D03*
X38995Y48587D03*
G54D12*
X40550Y32737D03*
X40550Y36540D03*
G54D17*
X35565Y55887D03*
X34265Y55887D03*
G54D14*
X46115Y45157D03*
X46115Y43857D03*
X37735Y51437D03*
X37735Y50137D03*
X44595Y48617D03*
X44595Y47317D03*
G54D15*
X33081Y43837D03*
G54D16*
X34081Y43837D03*
X35081Y43837D03*
X36081Y43837D03*
G54D15*
X42655Y42507D03*
G54D16*
X42655Y41507D03*
X41655Y42507D03*
X41655Y41507D03*
X40655Y42507D03*
X40655Y41507D03*
G54D15*
X34145Y31291D03*
G54D16*
X35145Y31291D03*
G54D12*
X28739Y32736D03*
X28739Y36539D03*
G54D18*
X30931Y32756D03*
X30931Y33506D03*
G54D19*
X38400Y44367D03*
X39150Y44367D03*
G54D18*
X38401Y32772D03*
X38401Y33522D03*
G54D14*
X38715Y43477D03*
X38715Y42177D03*
G54D20*
X34645Y50877D03*
X34270Y49893D03*
X35020Y49893D03*
G54D21*
X24212Y41566D03*
X22834Y41566D03*
X24212Y41566D03*
M02*
