G04 (created by PCBNEW (2013-07-07 BZR 4022)-stable) date 05/07/2015 11:46:34 a. m.*
%MOIN*%
G04 Gerber Fmt 3.4, Leading zero omitted, Abs format*
%FSLAX34Y34*%
G01*
G70*
G90*
G04 APERTURE LIST*
%ADD10C,0.00590551*%
%ADD11C,0.011811*%
%ADD12R,0.0748031X0.016*%
%ADD13R,0.06X0.06*%
%ADD14C,0.06*%
%ADD15C,0.15748*%
%ADD16R,0.08X0.06*%
%ADD17R,0.06X0.08*%
%ADD18R,0.0708661X0.15748*%
%ADD19R,0.059X0.0512*%
%ADD20R,0.0512X0.059*%
%ADD21R,0.0315X0.051211*%
%ADD22C,0.066*%
%ADD23R,0.051211X0.0315*%
%ADD24C,0.035*%
%ADD25C,0.0393701*%
%ADD26C,0.01*%
%ADD27C,0.00606299*%
G04 APERTURE END LIST*
G54D10*
G54D11*
X11845Y54437D02*
X11845Y54156D01*
X12014Y54494D02*
X11423Y54297D01*
X12014Y54100D01*
X11704Y53706D02*
X11704Y53903D01*
X12014Y53903D02*
X11423Y53903D01*
X11423Y53622D01*
X12014Y53059D02*
X11732Y53256D01*
X12014Y53397D02*
X11423Y53397D01*
X11423Y53172D01*
X11451Y53116D01*
X11479Y53088D01*
X11535Y53059D01*
X11620Y53059D01*
X11676Y53088D01*
X11704Y53116D01*
X11732Y53172D01*
X11732Y53397D01*
X11985Y52834D02*
X12014Y52750D01*
X12014Y52609D01*
X11985Y52553D01*
X11957Y52525D01*
X11901Y52497D01*
X11845Y52497D01*
X11789Y52525D01*
X11760Y52553D01*
X11732Y52609D01*
X11704Y52722D01*
X11676Y52778D01*
X11648Y52806D01*
X11592Y52834D01*
X11535Y52834D01*
X11479Y52806D01*
X11451Y52778D01*
X11423Y52722D01*
X11423Y52581D01*
X11451Y52497D01*
G54D12*
X21836Y41336D03*
X21836Y41586D03*
X21836Y41836D03*
X21836Y42086D03*
X24053Y40586D03*
X21836Y40586D03*
X21836Y40836D03*
X21836Y41086D03*
X24053Y42336D03*
X24053Y42086D03*
X24053Y41836D03*
X24053Y41586D03*
X24053Y41336D03*
X24053Y41086D03*
X21836Y42336D03*
X24053Y40836D03*
G54D13*
X29575Y56887D03*
G54D14*
X29575Y55887D03*
X29575Y54887D03*
X29575Y53887D03*
G54D13*
X28295Y53887D03*
G54D14*
X27295Y53887D03*
X28295Y54887D03*
X27295Y54887D03*
X28295Y55887D03*
X27295Y55887D03*
X28295Y56887D03*
X27295Y56887D03*
G54D15*
X28850Y41037D03*
X28850Y44840D03*
G54D16*
X16075Y54577D03*
X16075Y53277D03*
G54D17*
X23865Y64187D03*
X22565Y64187D03*
G54D16*
X34415Y53457D03*
X34415Y52157D03*
X26035Y59737D03*
X26035Y58437D03*
X34315Y56897D03*
X34315Y55597D03*
X32895Y56917D03*
X32895Y55617D03*
G54D13*
X21381Y52137D03*
G54D14*
X22381Y52137D03*
X23381Y52137D03*
X24381Y52137D03*
G54D13*
X30955Y50807D03*
G54D14*
X30955Y49807D03*
X29955Y50807D03*
X29955Y49807D03*
X28955Y50807D03*
X28955Y49807D03*
G54D13*
X22445Y39591D03*
G54D14*
X23445Y39591D03*
G54D15*
X17039Y41036D03*
X17039Y44839D03*
G54D18*
X33378Y49866D03*
G54D19*
X19231Y41056D03*
X19231Y41806D03*
G54D20*
X26700Y52667D03*
X27450Y52667D03*
G54D19*
X26701Y41072D03*
X26701Y41822D03*
G54D16*
X27015Y51777D03*
X27015Y50477D03*
G54D21*
X22945Y59177D03*
X22570Y58193D03*
X23320Y58193D03*
G54D18*
X12512Y49866D03*
X11134Y49866D03*
G54D22*
X31015Y52043D03*
X31015Y53043D03*
X31015Y55602D03*
X31015Y54602D03*
X14874Y53043D03*
X14874Y52043D03*
X14874Y54602D03*
X14874Y55602D03*
X21067Y61756D03*
X22067Y61756D03*
X23823Y61756D03*
X24823Y61756D03*
X15371Y57659D03*
X16037Y58405D03*
X17173Y59744D03*
X17989Y60327D03*
X27901Y60327D03*
X28716Y59744D03*
X29852Y58405D03*
X30519Y57659D03*
G54D15*
X31687Y60102D03*
X14202Y60102D03*
G54D23*
X22239Y44423D03*
X21254Y44798D03*
X21254Y44048D03*
G54D21*
X25795Y44375D03*
X26170Y45359D03*
X25420Y45359D03*
G54D17*
X20499Y45725D03*
X19199Y45725D03*
X19039Y44087D03*
X20339Y44087D03*
X26165Y40207D03*
X27465Y40207D03*
X22605Y45447D03*
X23905Y45447D03*
G54D24*
X20499Y45725D03*
X25290Y39587D03*
X24811Y45146D03*
X26700Y52667D03*
X33157Y53949D03*
X17508Y49366D03*
X23866Y64177D03*
X23866Y64177D03*
X17508Y49366D03*
X33157Y53949D03*
X26700Y52667D03*
X24811Y45146D03*
X25290Y39587D03*
X13354Y50878D03*
X13354Y50878D03*
X26055Y59787D03*
X26055Y59787D03*
X25695Y50087D03*
X27955Y50307D03*
X27975Y51147D03*
X29695Y52947D03*
X29695Y52947D03*
X27975Y51147D03*
X27955Y50307D03*
X25695Y50087D03*
X24075Y50087D03*
X24075Y50087D03*
X27815Y48347D03*
X25695Y48507D03*
X16715Y52547D03*
X16715Y52547D03*
X25695Y48507D03*
X27815Y48347D03*
X16495Y59327D03*
X17255Y60487D03*
X17255Y60487D03*
X16495Y59327D03*
X25615Y49407D03*
X27895Y49387D03*
X27895Y49387D03*
X25615Y49407D03*
X23615Y49947D03*
X23615Y49947D03*
X19231Y41056D03*
X19231Y41056D03*
X20943Y42083D03*
X20943Y42083D03*
X22515Y46287D03*
X22515Y46287D03*
X18715Y49587D03*
X18715Y49587D03*
X25001Y41035D03*
X26701Y41072D03*
X26701Y41072D03*
X25001Y41035D03*
X24862Y42111D03*
X26701Y41822D03*
X26701Y41822D03*
X24862Y42111D03*
X24835Y51667D03*
X24835Y51667D03*
X19215Y46427D03*
X15515Y49587D03*
X15515Y49587D03*
X19215Y46427D03*
X18337Y44919D03*
X19905Y39607D03*
X19905Y39607D03*
X19895Y47207D03*
X23535Y40207D03*
X27090Y43110D03*
X27114Y44536D03*
X27114Y46898D03*
X24834Y47280D03*
X24834Y47280D03*
X27114Y46898D03*
X27114Y44536D03*
X27090Y43110D03*
X24575Y46887D03*
X24575Y46887D03*
X24835Y46407D03*
X24835Y46407D03*
X22941Y41244D03*
X23047Y46284D03*
X22937Y43055D03*
X22937Y43055D03*
X23358Y42854D03*
X23512Y46319D03*
X23155Y41927D03*
X23358Y42854D03*
X23512Y46319D03*
X19712Y50732D03*
X24744Y50807D03*
X25732Y51130D03*
X29141Y52811D03*
X32618Y50634D03*
X32618Y50634D03*
X29141Y52811D03*
X25732Y51130D03*
X24744Y50807D03*
X19712Y50732D03*
X24255Y57067D03*
X24255Y57067D03*
X24775Y55847D03*
X22915Y54087D03*
X22915Y54087D03*
X24775Y55847D03*
X19635Y46767D03*
X18335Y47807D03*
X18335Y47807D03*
X23255Y51567D03*
X23255Y51567D03*
X25755Y47567D03*
X25755Y47567D03*
X30475Y56347D03*
X31355Y58047D03*
X31355Y58047D03*
X30475Y56347D03*
X32915Y56947D03*
X32915Y56947D03*
X30895Y61067D03*
X32895Y58867D03*
X32895Y58867D03*
X30895Y61067D03*
X21901Y49819D03*
X21901Y49819D03*
X32155Y58987D03*
X30975Y58507D03*
X30189Y59173D03*
X30189Y59173D03*
X30975Y58507D03*
X32155Y58987D03*
X22495Y47807D03*
X22495Y47807D03*
X25955Y54887D03*
X25955Y54887D03*
X26575Y44827D03*
X21254Y44798D03*
X24135Y54367D03*
X25555Y54407D03*
X25555Y54407D03*
X24135Y54367D03*
X24099Y42757D03*
X24099Y42757D03*
X20585Y39873D03*
X29755Y47527D03*
X27450Y52667D03*
X32275Y49387D03*
X34755Y49887D03*
X22555Y58187D03*
X26035Y58437D03*
X14495Y57427D03*
X19875Y62347D03*
X16075Y53277D03*
X19715Y49267D03*
X19715Y49267D03*
X16075Y53277D03*
X19875Y62347D03*
X14495Y57427D03*
X26035Y58437D03*
X22555Y58187D03*
X34755Y49887D03*
X32275Y49387D03*
X27450Y52667D03*
X25635Y43664D03*
X29755Y47527D03*
X20585Y39873D03*
X21035Y60367D03*
X21035Y60367D03*
X31975Y54147D03*
X31975Y54147D03*
X30355Y60407D03*
X30355Y60407D03*
X21115Y62687D03*
X21115Y62687D03*
X32795Y53027D03*
X34235Y54787D03*
X33975Y58987D03*
X33975Y58987D03*
X34235Y54787D03*
X32795Y53027D03*
X29875Y61707D03*
X29875Y61707D03*
X28855Y60427D03*
X28855Y60427D03*
X22468Y42784D03*
X22468Y42784D03*
G54D25*
X26165Y40207D02*
X25695Y40207D01*
X25695Y40207D02*
X25476Y40426D01*
G54D26*
X23995Y40586D02*
X24972Y40586D01*
X25259Y40299D02*
X24972Y40586D01*
X24603Y40713D02*
X24603Y41399D01*
X24603Y41399D02*
X24416Y41586D01*
X24603Y41399D02*
X24416Y41586D01*
X24603Y40713D02*
X24603Y41399D01*
X24475Y40586D02*
X24603Y40713D01*
X24475Y40586D02*
X24603Y40713D01*
X24053Y41586D02*
X23556Y41586D01*
X23556Y41586D02*
X23475Y41667D01*
X23475Y41667D02*
X23475Y42227D01*
X23475Y42227D02*
X23335Y42367D01*
X23335Y42367D02*
X22875Y42367D01*
X22875Y42367D02*
X22715Y42207D01*
X22715Y42207D02*
X22715Y41807D01*
X22715Y41807D02*
X22493Y41586D01*
X22493Y41586D02*
X21836Y41586D01*
X23995Y41586D02*
X24416Y41586D01*
X23995Y40586D02*
X24475Y40586D01*
X25259Y39618D02*
X25290Y39587D01*
X25259Y39618D02*
X25259Y40299D01*
G54D25*
X24811Y43158D02*
X24811Y45146D01*
X25476Y42492D02*
X24811Y43158D01*
X25476Y40024D02*
X25476Y40426D01*
X25476Y40426D02*
X25476Y42492D01*
X25290Y39837D02*
X25476Y40024D01*
X25290Y39587D02*
X25290Y39837D01*
X26700Y52092D02*
X27015Y51777D01*
X26700Y52667D02*
X26700Y52092D01*
X27295Y53808D02*
X28157Y52945D01*
X29410Y53887D02*
X29575Y53887D01*
X27295Y53887D02*
X27295Y53808D01*
X32086Y55602D02*
X32880Y55602D01*
X31015Y55602D02*
X32086Y55602D01*
X32880Y55602D02*
X32895Y55617D01*
X32895Y55617D02*
X34295Y55617D01*
X34295Y55617D02*
X34315Y55597D01*
X33157Y53949D02*
X32895Y54212D01*
X32895Y54212D02*
X32895Y55617D01*
X14204Y49866D02*
X14685Y50347D01*
X14685Y50347D02*
X17106Y50347D01*
X17106Y50347D02*
X17508Y49945D01*
X17508Y49945D02*
X17508Y49366D01*
X12512Y49866D02*
X14204Y49866D01*
X12512Y50036D02*
X13354Y50878D01*
X12512Y49866D02*
X12512Y50036D01*
X23866Y64177D02*
X23865Y64179D01*
X23865Y64179D02*
X23865Y64187D01*
X32086Y58323D02*
X31476Y58933D01*
X31476Y58933D02*
X31252Y58933D01*
X31252Y58933D02*
X30248Y59937D01*
X30248Y59937D02*
X30122Y59937D01*
X30122Y59937D02*
X29067Y60992D01*
X29067Y60992D02*
X28566Y60992D01*
X28566Y60992D02*
X27901Y60327D01*
X32086Y55602D02*
X32086Y58323D01*
X32086Y55602D02*
X32086Y58323D01*
X28566Y60992D02*
X27901Y60327D01*
X29067Y60992D02*
X28566Y60992D01*
X30122Y59937D02*
X29067Y60992D01*
X30248Y59937D02*
X30122Y59937D01*
X31252Y58933D02*
X30248Y59937D01*
X31476Y58933D02*
X31252Y58933D01*
X32086Y58323D02*
X31476Y58933D01*
X23865Y64179D02*
X23865Y64187D01*
X23866Y64177D02*
X23865Y64179D01*
X12512Y49866D02*
X12512Y50036D01*
X12512Y50036D02*
X13354Y50878D01*
X12512Y49866D02*
X14204Y49866D01*
X17508Y49945D02*
X17508Y49366D01*
X17106Y50347D02*
X17508Y49945D01*
X14685Y50347D02*
X17106Y50347D01*
X14204Y49866D02*
X14685Y50347D01*
X32895Y54212D02*
X32895Y55617D01*
X33157Y53949D02*
X32895Y54212D01*
X34295Y55617D02*
X34315Y55597D01*
X32895Y55617D02*
X34295Y55617D01*
X32880Y55602D02*
X32895Y55617D01*
X31015Y55602D02*
X32086Y55602D01*
X32086Y55602D02*
X32880Y55602D01*
X27295Y53887D02*
X27295Y53808D01*
X29410Y53887D02*
X29575Y53887D01*
X27295Y53808D02*
X28157Y52945D01*
X26700Y52667D02*
X26700Y52092D01*
X26700Y52092D02*
X27015Y51777D01*
X25290Y39587D02*
X25290Y39837D01*
X25290Y39837D02*
X25476Y40024D01*
X25476Y40024D02*
X25476Y42492D01*
X25476Y42492D02*
X24811Y43158D01*
X24811Y43158D02*
X24811Y45146D01*
G54D26*
X25259Y39618D02*
X25259Y40299D01*
X25259Y39618D02*
X25290Y39587D01*
X23995Y40586D02*
X24475Y40586D01*
X23995Y41586D02*
X24416Y41586D01*
G54D25*
X28157Y52945D02*
X28468Y52945D01*
X28468Y52945D02*
X29410Y53887D01*
X28468Y52945D02*
X29410Y53887D01*
X28157Y52945D02*
X28468Y52945D01*
G54D26*
X26055Y59787D02*
X26035Y59767D01*
X26035Y59767D02*
X26035Y59737D01*
X26035Y59767D02*
X26035Y59737D01*
X26055Y59787D02*
X26035Y59767D01*
X25695Y50087D02*
X25995Y49787D01*
X25995Y49787D02*
X27435Y49787D01*
X27435Y49787D02*
X27955Y50307D01*
X27975Y51147D02*
X29695Y52867D01*
X29695Y52867D02*
X29695Y52947D01*
X29695Y52867D02*
X29695Y52947D01*
X27975Y51147D02*
X29695Y52867D01*
X27435Y49787D02*
X27955Y50307D01*
X25995Y49787D02*
X27435Y49787D01*
X25695Y50087D02*
X25995Y49787D01*
X32330Y54602D02*
X32456Y54476D01*
X32456Y54476D02*
X32456Y52807D01*
X32456Y52807D02*
X32657Y52606D01*
X32657Y52606D02*
X33564Y52606D01*
X33564Y52606D02*
X34415Y53457D01*
X31015Y54602D02*
X32330Y54602D01*
X31015Y54602D02*
X32330Y54602D01*
X33564Y52606D02*
X34415Y53457D01*
X32657Y52606D02*
X33564Y52606D01*
X32456Y52807D02*
X32657Y52606D01*
X32456Y54476D02*
X32456Y52807D01*
X32330Y54602D02*
X32456Y54476D01*
X14899Y54577D02*
X14874Y54602D01*
X16075Y54577D02*
X14899Y54577D01*
X24075Y50087D02*
X24055Y50067D01*
X24055Y50067D02*
X24055Y48487D01*
X24055Y48487D02*
X22775Y47207D01*
X22775Y47207D02*
X22255Y47207D01*
X22255Y47207D02*
X21735Y47727D01*
X21735Y47727D02*
X21735Y49127D01*
X21735Y49127D02*
X21215Y49647D01*
X21215Y49647D02*
X21215Y49787D01*
X21215Y49787D02*
X19995Y51007D01*
X19995Y51007D02*
X19995Y51527D01*
X19995Y51527D02*
X18775Y52747D01*
X18775Y52747D02*
X17015Y52747D01*
X17015Y52747D02*
X16695Y53067D01*
X16695Y53067D02*
X16695Y54387D01*
X16695Y54387D02*
X16505Y54577D01*
X16505Y54577D02*
X16075Y54577D01*
X16505Y54577D02*
X16075Y54577D01*
X16695Y54387D02*
X16505Y54577D01*
X16695Y53067D02*
X16695Y54387D01*
X17015Y52747D02*
X16695Y53067D01*
X18775Y52747D02*
X17015Y52747D01*
X19995Y51527D02*
X18775Y52747D01*
X19995Y51007D02*
X19995Y51527D01*
X21215Y49787D02*
X19995Y51007D01*
X21215Y49647D02*
X21215Y49787D01*
X21735Y49127D02*
X21215Y49647D01*
X21735Y47727D02*
X21735Y49127D01*
X22255Y47207D02*
X21735Y47727D01*
X22775Y47207D02*
X22255Y47207D01*
X24055Y48487D02*
X22775Y47207D01*
X24055Y50067D02*
X24055Y48487D01*
X24075Y50087D02*
X24055Y50067D01*
X16075Y54577D02*
X14899Y54577D01*
X14899Y54577D02*
X14874Y54602D01*
X27815Y48347D02*
X27815Y48327D01*
X27815Y48327D02*
X27635Y48507D01*
X27635Y48507D02*
X25695Y48507D01*
X24715Y48507D02*
X22975Y46767D01*
X22975Y46767D02*
X22095Y46767D01*
X22095Y46767D02*
X21294Y47567D01*
X21294Y47567D02*
X21294Y48567D01*
X21294Y48567D02*
X19315Y50547D01*
X19315Y50547D02*
X19315Y51807D01*
X19315Y51807D02*
X18695Y52427D01*
X18695Y52427D02*
X16835Y52427D01*
X16835Y52427D02*
X16715Y52547D01*
X25695Y48507D02*
X24715Y48507D01*
X25695Y48507D02*
X24715Y48507D01*
X16835Y52427D02*
X16715Y52547D01*
X18695Y52427D02*
X16835Y52427D01*
X19315Y51807D02*
X18695Y52427D01*
X19315Y50547D02*
X19315Y51807D01*
X21294Y48567D02*
X19315Y50547D01*
X21294Y47567D02*
X21294Y48567D01*
X22095Y46767D02*
X21294Y47567D01*
X22975Y46767D02*
X22095Y46767D01*
X24715Y48507D02*
X22975Y46767D01*
X27635Y48507D02*
X25695Y48507D01*
X27815Y48327D02*
X27635Y48507D01*
X27815Y48347D02*
X27815Y48327D01*
X22914Y60847D02*
X23823Y61756D01*
X22914Y60847D02*
X23823Y61756D01*
X20215Y51727D02*
X18955Y52987D01*
X18955Y52987D02*
X17255Y52987D01*
X17255Y52987D02*
X16935Y53307D01*
X16935Y53307D02*
X16935Y58887D01*
X16935Y58887D02*
X16495Y59327D01*
X17255Y60487D02*
X17614Y60847D01*
X17614Y60847D02*
X22914Y60847D01*
X17614Y60847D02*
X22914Y60847D01*
X17255Y60487D02*
X17614Y60847D01*
X16935Y58887D02*
X16495Y59327D01*
X16935Y53307D02*
X16935Y58887D01*
X17255Y52987D02*
X16935Y53307D01*
X18955Y52987D02*
X17255Y52987D01*
X20215Y51727D02*
X18955Y52987D01*
X25615Y49407D02*
X25775Y49567D01*
X25775Y49567D02*
X27715Y49567D01*
X27715Y49567D02*
X27895Y49387D01*
X27715Y49567D02*
X27895Y49387D01*
X25775Y49567D02*
X27715Y49567D01*
X25615Y49407D02*
X25775Y49567D01*
X23615Y49947D02*
X23595Y49967D01*
X23595Y49967D02*
X22735Y49967D01*
X22735Y49967D02*
X22455Y49687D01*
X22455Y49687D02*
X22455Y48347D01*
X22455Y48347D02*
X22915Y47887D01*
X22915Y47887D02*
X22915Y47667D01*
X22915Y47667D02*
X22695Y47447D01*
X22695Y47447D02*
X22355Y47447D01*
X22355Y47447D02*
X22035Y47767D01*
X22035Y47767D02*
X22035Y49187D01*
X22035Y49187D02*
X21455Y49767D01*
X21455Y49767D02*
X21455Y49947D01*
X21455Y49947D02*
X20215Y51187D01*
X20215Y51187D02*
X20215Y51727D01*
X20215Y51187D02*
X20215Y51727D01*
X21455Y49947D02*
X20215Y51187D01*
X21455Y49767D02*
X21455Y49947D01*
X22035Y49187D02*
X21455Y49767D01*
X22035Y47767D02*
X22035Y49187D01*
X22355Y47447D02*
X22035Y47767D01*
X22695Y47447D02*
X22355Y47447D01*
X22915Y47667D02*
X22695Y47447D01*
X22915Y47887D02*
X22915Y47667D01*
X22455Y48347D02*
X22915Y47887D01*
X22455Y49687D02*
X22455Y48347D01*
X22735Y49967D02*
X22455Y49687D01*
X23595Y49967D02*
X22735Y49967D01*
X23615Y49947D02*
X23595Y49967D01*
X19231Y41056D02*
X20418Y41056D01*
X20418Y41056D02*
X20971Y41609D01*
X21447Y42086D02*
X20971Y41609D01*
X21895Y42086D02*
X21447Y42086D01*
X21895Y42086D02*
X21447Y42086D01*
X21447Y42086D02*
X20971Y41609D01*
X21195Y42336D02*
X20943Y42083D01*
X21895Y42336D02*
X21195Y42336D01*
X20666Y41806D02*
X20943Y42083D01*
X20666Y41806D02*
X20943Y42083D01*
X21895Y42336D02*
X21195Y42336D01*
X21195Y42336D02*
X20943Y42083D01*
X19231Y41806D02*
X20666Y41806D01*
X19231Y41806D02*
X20666Y41806D01*
X22515Y46287D02*
X22435Y46207D01*
X22435Y46207D02*
X21435Y46207D01*
X21435Y46207D02*
X18715Y48927D01*
X18715Y48927D02*
X18715Y49587D01*
X18715Y48927D02*
X18715Y49587D01*
X21435Y46207D02*
X18715Y48927D01*
X22435Y46207D02*
X21435Y46207D01*
X22515Y46287D02*
X22435Y46207D01*
X24676Y41836D02*
X25001Y41511D01*
X25001Y41511D02*
X25001Y41035D01*
X23995Y41836D02*
X24676Y41836D01*
X23995Y41836D02*
X24676Y41836D01*
X25001Y41511D02*
X25001Y41035D01*
X24676Y41836D02*
X25001Y41511D01*
X24836Y42086D02*
X24862Y42111D01*
X23995Y42086D02*
X24836Y42086D01*
X23995Y42086D02*
X24836Y42086D01*
X24836Y42086D02*
X24862Y42111D01*
X27775Y54367D02*
X28295Y54887D01*
X27775Y54367D02*
X28295Y54887D01*
X24835Y51667D02*
X26595Y53427D01*
X26595Y53427D02*
X26595Y54147D01*
X26595Y54147D02*
X26815Y54367D01*
X26815Y54367D02*
X27775Y54367D01*
X26815Y54367D02*
X27775Y54367D01*
X26595Y54147D02*
X26815Y54367D01*
X26595Y53427D02*
X26595Y54147D01*
X24835Y51667D02*
X26595Y53427D01*
X19215Y46427D02*
X17415Y46427D01*
X17415Y46427D02*
X16015Y47827D01*
X16015Y47827D02*
X16015Y49087D01*
X16015Y49087D02*
X15515Y49587D01*
X16015Y49087D02*
X15515Y49587D01*
X16015Y47827D02*
X16015Y49087D01*
X17415Y46427D02*
X16015Y47827D01*
X19215Y46427D02*
X17415Y46427D01*
X19039Y44087D02*
X19039Y44359D01*
X18479Y44919D02*
X18337Y44919D01*
X19039Y44359D02*
X18479Y44919D01*
X22489Y40265D02*
X22713Y40489D01*
X22713Y40489D02*
X22713Y40713D01*
X22713Y40713D02*
X22590Y40836D01*
X22713Y40713D02*
X22590Y40836D01*
X22713Y40489D02*
X22713Y40713D01*
X22489Y40265D02*
X22713Y40489D01*
X22590Y40836D02*
X21895Y40836D01*
X22590Y40836D02*
X21895Y40836D01*
X19905Y39607D02*
X20013Y39499D01*
X20013Y39499D02*
X21275Y39499D01*
X21275Y39499D02*
X22041Y40265D01*
X22041Y40265D02*
X22489Y40265D01*
X22041Y40265D02*
X22489Y40265D01*
X21275Y39499D02*
X22041Y40265D01*
X20013Y39499D02*
X21275Y39499D01*
X19905Y39607D02*
X20013Y39499D01*
X22605Y45447D02*
X22335Y45447D01*
X22335Y45447D02*
X21955Y45827D01*
X21955Y45827D02*
X21415Y45827D01*
X21415Y45827D02*
X20035Y47207D01*
X20035Y47207D02*
X19895Y47207D01*
X24053Y40836D02*
X23463Y40836D01*
X23463Y40836D02*
X23395Y40767D01*
X23395Y40767D02*
X23395Y40347D01*
X23395Y40347D02*
X23535Y40207D01*
X27090Y43110D02*
X27114Y43134D01*
X27114Y43134D02*
X27114Y44536D01*
X27114Y46898D02*
X26984Y47028D01*
X26984Y47028D02*
X25086Y47028D01*
X25086Y47028D02*
X24834Y47280D01*
X25086Y47028D02*
X24834Y47280D01*
X26984Y47028D02*
X25086Y47028D01*
X27114Y46898D02*
X26984Y47028D01*
X27114Y43134D02*
X27114Y44536D01*
X27090Y43110D02*
X27114Y43134D01*
X28735Y56367D02*
X29875Y56367D01*
X29875Y56367D02*
X30375Y55867D01*
X30375Y55867D02*
X30375Y51387D01*
X30375Y55867D02*
X30375Y51387D01*
X29875Y56367D02*
X30375Y55867D01*
X28735Y56367D02*
X29875Y56367D01*
X31235Y50807D02*
X31695Y50347D01*
X31695Y50347D02*
X31695Y49687D01*
X31695Y49687D02*
X31235Y49227D01*
X31235Y49227D02*
X30155Y49227D01*
X30155Y49227D02*
X29335Y48407D01*
X29335Y48407D02*
X29335Y47647D01*
X29335Y47647D02*
X27655Y45967D01*
X27655Y45967D02*
X24615Y45967D01*
X24615Y45967D02*
X24475Y46107D01*
X24475Y46107D02*
X24475Y46787D01*
X24475Y46787D02*
X24575Y46887D01*
X28295Y56807D02*
X28735Y56367D01*
X28295Y56887D02*
X28295Y56807D01*
X28295Y56887D02*
X28295Y56807D01*
X28295Y56807D02*
X28735Y56367D01*
X24475Y46787D02*
X24575Y46887D01*
X24475Y46107D02*
X24475Y46787D01*
X24615Y45967D02*
X24475Y46107D01*
X27655Y45967D02*
X24615Y45967D01*
X29335Y47647D02*
X27655Y45967D01*
X29335Y48407D02*
X29335Y47647D01*
X30155Y49227D02*
X29335Y48407D01*
X31235Y49227D02*
X30155Y49227D01*
X31695Y49687D02*
X31235Y49227D01*
X31695Y50347D02*
X31695Y49687D01*
X31235Y50807D02*
X31695Y50347D01*
X30955Y50807D02*
X31235Y50807D01*
X30375Y51387D02*
X30955Y50807D01*
X30375Y51387D02*
X30955Y50807D01*
X30955Y50807D02*
X31235Y50807D01*
X29115Y48967D02*
X29115Y47987D01*
X29115Y47987D02*
X27535Y46407D01*
X27535Y46407D02*
X24835Y46407D01*
X29955Y49807D02*
X29115Y48967D01*
X29955Y49807D02*
X29115Y48967D01*
X27535Y46407D02*
X24835Y46407D01*
X29115Y47987D02*
X27535Y46407D01*
X29115Y48967D02*
X29115Y47987D01*
X23047Y46284D02*
X23047Y46098D01*
X23047Y46098D02*
X23158Y45987D01*
X23158Y45987D02*
X23158Y43276D01*
X23158Y43276D02*
X22937Y43055D01*
X21836Y41336D02*
X22849Y41336D01*
X22849Y41336D02*
X22941Y41244D01*
X22937Y43055D02*
X22846Y43146D01*
X22937Y43055D02*
X22846Y43146D01*
X23358Y46165D02*
X23358Y42854D01*
X23512Y46319D02*
X23358Y46165D01*
X23512Y46319D02*
X23358Y46165D01*
X23155Y41927D02*
X23155Y41567D01*
X23155Y41567D02*
X23386Y41336D01*
X23386Y41336D02*
X24053Y41336D01*
X19712Y50732D02*
X21504Y48941D01*
X21504Y48941D02*
X21504Y47654D01*
X21504Y47654D02*
X22165Y46992D01*
X22165Y46992D02*
X22886Y46992D01*
X22886Y46992D02*
X24744Y48850D01*
X24744Y48850D02*
X24744Y50807D01*
X25732Y51130D02*
X25748Y51114D01*
X25748Y51114D02*
X27445Y51114D01*
X27445Y51114D02*
X29141Y52811D01*
X32618Y50634D02*
X33378Y49874D01*
X33378Y49874D02*
X33378Y49866D01*
X33378Y49874D02*
X33378Y49866D01*
X32618Y50634D02*
X33378Y49874D01*
X27445Y51114D02*
X29141Y52811D01*
X25748Y51114D02*
X27445Y51114D01*
X25732Y51130D02*
X25748Y51114D01*
X24744Y48850D02*
X24744Y50807D01*
X22886Y46992D02*
X24744Y48850D01*
X22165Y46992D02*
X22886Y46992D01*
X21504Y47654D02*
X22165Y46992D01*
X21504Y48941D02*
X21504Y47654D01*
X19712Y50732D02*
X21504Y48941D01*
X23320Y58002D02*
X24255Y57067D01*
X23320Y58193D02*
X23320Y58002D01*
X23320Y58193D02*
X23320Y58002D01*
X23320Y58002D02*
X24255Y57067D01*
X24775Y55847D02*
X23015Y54087D01*
X23015Y54087D02*
X22915Y54087D01*
X23015Y54087D02*
X22915Y54087D01*
X24775Y55847D02*
X23015Y54087D01*
X19635Y46767D02*
X19475Y46927D01*
X19475Y46927D02*
X19475Y47587D01*
X19475Y47587D02*
X19255Y47807D01*
X19255Y47807D02*
X19155Y47807D01*
X19155Y47807D02*
X18335Y47807D01*
X19155Y47807D02*
X18335Y47807D01*
X28955Y50807D02*
X27345Y50807D01*
X28955Y50807D02*
X27345Y50807D01*
X27345Y50807D02*
X27015Y50477D01*
X23255Y51567D02*
X24475Y51567D01*
X24475Y51567D02*
X24835Y51207D01*
X24835Y51207D02*
X25015Y51027D01*
X25015Y51027D02*
X25275Y50767D01*
X25015Y51027D02*
X25275Y50767D01*
X24835Y51207D02*
X25015Y51027D01*
X24475Y51567D02*
X24835Y51207D01*
X23255Y51567D02*
X24475Y51567D01*
X27345Y50807D02*
X27015Y50477D01*
X25275Y50767D02*
X26725Y50767D01*
X26725Y50767D02*
X27015Y50477D01*
X26725Y50767D02*
X27015Y50477D01*
X25275Y50767D02*
X26725Y50767D01*
X25755Y47567D02*
X25955Y47367D01*
X25955Y47367D02*
X27715Y47367D01*
X27715Y47367D02*
X28235Y47887D01*
X28235Y47887D02*
X28235Y49967D01*
X28235Y49967D02*
X28575Y50307D01*
X28575Y50307D02*
X29455Y50307D01*
X29455Y50307D02*
X29955Y50807D01*
X28495Y55887D02*
X29015Y55367D01*
X29015Y55367D02*
X29775Y55367D01*
X29775Y55367D02*
X30055Y55087D01*
X30055Y55087D02*
X30055Y50907D01*
X30055Y50907D02*
X29955Y50807D01*
X28295Y55887D02*
X28495Y55887D01*
X28295Y55887D02*
X28495Y55887D01*
X30055Y50907D02*
X29955Y50807D01*
X30055Y55087D02*
X30055Y50907D01*
X29775Y55367D02*
X30055Y55087D01*
X29015Y55367D02*
X29775Y55367D01*
X28495Y55887D02*
X29015Y55367D01*
X29455Y50307D02*
X29955Y50807D01*
X28575Y50307D02*
X29455Y50307D01*
X28235Y49967D02*
X28575Y50307D01*
X28235Y47887D02*
X28235Y49967D01*
X27715Y47367D02*
X28235Y47887D01*
X25955Y47367D02*
X27715Y47367D01*
X25755Y47567D02*
X25955Y47367D01*
X30475Y56347D02*
X31355Y57227D01*
X31355Y57227D02*
X31355Y58047D01*
X31355Y57227D02*
X31355Y58047D01*
X30475Y56347D02*
X31355Y57227D01*
X32915Y56947D02*
X32895Y56927D01*
X32895Y56927D02*
X32895Y56917D01*
X32895Y56927D02*
X32895Y56917D01*
X32915Y56947D02*
X32895Y56927D01*
X30895Y61067D02*
X31115Y61287D01*
X31115Y61287D02*
X31975Y61287D01*
X31975Y61287D02*
X32895Y60367D01*
X32895Y60367D02*
X32895Y58867D01*
X32895Y60367D02*
X32895Y58867D01*
X31975Y61287D02*
X32895Y60367D01*
X31115Y61287D02*
X31975Y61287D01*
X30895Y61067D02*
X31115Y61287D01*
X29090Y57736D02*
X25862Y57736D01*
X25862Y57736D02*
X20673Y52547D01*
X25862Y57736D02*
X20673Y52547D01*
X29090Y57736D02*
X25862Y57736D01*
X20673Y52547D02*
X20673Y51228D01*
X20673Y51228D02*
X21901Y50000D01*
X21901Y50000D02*
X21901Y49819D01*
X21901Y50000D02*
X21901Y49819D01*
X20673Y51228D02*
X21901Y50000D01*
X20673Y52547D02*
X20673Y51228D01*
X34245Y56897D02*
X32263Y58879D01*
X32263Y58879D02*
X32155Y58987D01*
X34315Y56897D02*
X34245Y56897D01*
X30855Y58507D02*
X30189Y59173D01*
X30975Y58507D02*
X30855Y58507D01*
X29575Y57252D02*
X29090Y57736D01*
X29575Y56887D02*
X29575Y57252D01*
X29575Y56887D02*
X29575Y57252D01*
X29575Y57252D02*
X29090Y57736D01*
X30975Y58507D02*
X30855Y58507D01*
X30855Y58507D02*
X30189Y59173D01*
X34315Y56897D02*
X34245Y56897D01*
X32263Y58879D02*
X32155Y58987D01*
X34245Y56897D02*
X32263Y58879D01*
X22239Y44423D02*
X22239Y44281D01*
X21243Y41086D02*
X21836Y41086D01*
X20165Y40007D02*
X21243Y41086D01*
X18905Y40007D02*
X20165Y40007D01*
X18545Y40367D02*
X18905Y40007D01*
X18545Y42577D02*
X18545Y40367D01*
X18935Y42967D02*
X18545Y42577D01*
X20925Y42967D02*
X18935Y42967D01*
X22239Y44281D02*
X20925Y42967D01*
X19199Y45725D02*
X19199Y45709D01*
X22239Y44819D02*
X22239Y44423D01*
X21781Y45277D02*
X22239Y44819D01*
X21011Y45277D02*
X21781Y45277D01*
X20801Y45067D02*
X21011Y45277D01*
X19841Y45067D02*
X20801Y45067D01*
X19199Y45709D02*
X19841Y45067D01*
X24053Y41086D02*
X23293Y41086D01*
X23293Y41086D02*
X23055Y40847D01*
X23055Y40847D02*
X23055Y40127D01*
X23055Y40127D02*
X22955Y40027D01*
X22955Y40027D02*
X22955Y39247D01*
X22955Y39247D02*
X23155Y39047D01*
X23155Y39047D02*
X26305Y39047D01*
X26305Y39047D02*
X27465Y40207D01*
X25795Y44375D02*
X26247Y44375D01*
X26247Y44375D02*
X26595Y44027D01*
X26595Y44027D02*
X26595Y42987D01*
X26595Y42987D02*
X27465Y42117D01*
X27465Y42117D02*
X27465Y40207D01*
X22495Y47807D02*
X22255Y48047D01*
X22255Y48047D02*
X22255Y51307D01*
X22255Y51307D02*
X21895Y51667D01*
X21895Y51667D02*
X21895Y52587D01*
X21895Y52587D02*
X24195Y54887D01*
X21895Y52587D02*
X24195Y54887D01*
X21895Y51667D02*
X21895Y52587D01*
X22255Y51307D02*
X21895Y51667D01*
X22255Y48047D02*
X22255Y51307D01*
X22495Y47807D02*
X22255Y48047D01*
X24195Y54887D02*
X25955Y54887D01*
X24195Y54887D02*
X25955Y54887D01*
X26170Y45359D02*
X26170Y45232D01*
X26170Y45232D02*
X26575Y44827D01*
X26170Y45359D02*
X27587Y45359D01*
X27587Y45359D02*
X29755Y47527D01*
X24135Y54367D02*
X24175Y54407D01*
X24175Y54407D02*
X25555Y54407D01*
X12075Y51327D02*
X15355Y51327D01*
X15355Y51327D02*
X16075Y52047D01*
X16075Y52047D02*
X16075Y52087D01*
X16075Y52067D02*
X18015Y50127D01*
X16075Y52087D02*
X16075Y52067D01*
X16075Y52087D02*
X16075Y52067D01*
X16075Y52067D02*
X18015Y50127D01*
X16075Y52047D02*
X16075Y52087D01*
X15355Y51327D02*
X16075Y52047D01*
X12075Y51327D02*
X15355Y51327D01*
X24175Y54407D02*
X25555Y54407D01*
X24135Y54367D02*
X24175Y54407D01*
X18015Y50127D02*
X19275Y50127D01*
X19275Y50127D02*
X19715Y49687D01*
X19715Y49687D02*
X19715Y49267D01*
X19715Y49687D02*
X19715Y49267D01*
X19275Y50127D02*
X19715Y49687D01*
X18015Y50127D02*
X19275Y50127D01*
X23995Y42653D02*
X24099Y42757D01*
X23995Y42653D02*
X24099Y42757D01*
X21895Y40477D02*
X21291Y39873D01*
X21291Y39873D02*
X20585Y39873D01*
X21895Y40586D02*
X21895Y40477D01*
X23995Y42336D02*
X23995Y42653D01*
X29295Y54887D02*
X28295Y53887D01*
X29575Y54887D02*
X29295Y54887D01*
X32275Y49387D02*
X32215Y49447D01*
X32215Y49447D02*
X32215Y50907D01*
X32215Y50907D02*
X32675Y51367D01*
X32675Y51367D02*
X34535Y51367D01*
X34495Y51407D02*
X34755Y51147D01*
X34535Y51367D02*
X34495Y51407D01*
X34755Y51147D02*
X34755Y49887D01*
X22555Y58187D02*
X22560Y58193D01*
X22570Y58193D02*
X22560Y58193D01*
X34415Y51447D02*
X34495Y51367D01*
X34495Y51367D02*
X34495Y51407D01*
X34415Y52157D02*
X34415Y51447D01*
X14495Y57427D02*
X12895Y59027D01*
X12895Y59027D02*
X12895Y60667D01*
X12895Y60667D02*
X14575Y62347D01*
X14575Y62347D02*
X19875Y62347D01*
X16075Y53277D02*
X16075Y52407D01*
X11134Y50386D02*
X12075Y51327D01*
X16075Y52087D02*
X16075Y52407D01*
X11134Y49866D02*
X11134Y50386D01*
X11134Y49866D02*
X11134Y50386D01*
X16075Y52087D02*
X16075Y52407D01*
X11134Y50386D02*
X12075Y51327D01*
X16075Y53277D02*
X16075Y52407D01*
X14575Y62347D02*
X19875Y62347D01*
X12895Y60667D02*
X14575Y62347D01*
X12895Y59027D02*
X12895Y60667D01*
X14495Y57427D02*
X12895Y59027D01*
X34415Y52157D02*
X34415Y51447D01*
X34495Y51367D02*
X34495Y51407D01*
X34415Y51447D02*
X34495Y51367D01*
X22570Y58193D02*
X22560Y58193D01*
X22555Y58187D02*
X22560Y58193D01*
X34755Y51147D02*
X34755Y49887D01*
X34535Y51367D02*
X34495Y51407D01*
X34495Y51407D02*
X34755Y51147D01*
X32675Y51367D02*
X34535Y51367D01*
X32215Y50907D02*
X32675Y51367D01*
X32215Y49447D02*
X32215Y50907D01*
X32275Y49387D02*
X32215Y49447D01*
X29575Y54887D02*
X29295Y54887D01*
X29295Y54887D02*
X28295Y53887D01*
X23995Y42336D02*
X23995Y42653D01*
X21895Y40586D02*
X21895Y40477D01*
X21291Y39873D02*
X20585Y39873D01*
X21895Y40477D02*
X21291Y39873D01*
X20339Y44087D02*
X21215Y44087D01*
X21215Y44087D02*
X21254Y44048D01*
X22945Y59177D02*
X22224Y59177D01*
X22945Y59177D02*
X22224Y59177D01*
X22224Y59177D02*
X21035Y60367D01*
X22224Y59177D02*
X21035Y60367D01*
X31015Y52043D02*
X31411Y52043D01*
X31015Y52043D02*
X31411Y52043D01*
X31411Y52043D02*
X31975Y52607D01*
X31411Y52043D02*
X31975Y52607D01*
X31975Y52607D02*
X31975Y54147D01*
X31975Y52607D02*
X31975Y54147D01*
X14874Y52043D02*
X14158Y52043D01*
X14874Y52043D02*
X14158Y52043D01*
X13175Y53027D02*
X13175Y55463D01*
X13175Y55463D02*
X15371Y57659D01*
X13175Y55463D02*
X15371Y57659D01*
X13175Y53027D02*
X13175Y55463D01*
X14158Y52043D02*
X13175Y53027D01*
X15371Y60023D02*
X17103Y61756D01*
X15371Y57659D02*
X15371Y60023D01*
X15371Y57659D02*
X15371Y60023D01*
X15371Y60023D02*
X17103Y61756D01*
X14158Y52043D02*
X13175Y53027D01*
X17103Y61756D02*
X21067Y61756D01*
X21067Y62059D02*
X22335Y63327D01*
X21067Y61756D02*
X21067Y62059D01*
X21067Y61756D02*
X21067Y62059D01*
X21067Y62059D02*
X22335Y63327D01*
X17103Y61756D02*
X21067Y61756D01*
X22335Y63327D02*
X27435Y63327D01*
X22335Y63327D02*
X27435Y63327D01*
X27435Y63327D02*
X30355Y60407D01*
X27435Y63327D02*
X30355Y60407D01*
X23905Y45447D02*
X24095Y45447D01*
X24095Y45447D02*
X24275Y45627D01*
X24275Y45627D02*
X25152Y45627D01*
X25152Y45627D02*
X25420Y45359D01*
X16037Y58405D02*
X16037Y60109D01*
X16037Y60109D02*
X17095Y61167D01*
X17095Y61167D02*
X21478Y61167D01*
X21478Y61167D02*
X22067Y61756D01*
X14874Y53043D02*
X14538Y53043D01*
X14538Y53043D02*
X13775Y53807D01*
X13775Y53807D02*
X13775Y55507D01*
X13775Y55507D02*
X15035Y56767D01*
X15035Y56767D02*
X15535Y56767D01*
X15535Y56767D02*
X16195Y57427D01*
X16195Y57427D02*
X16195Y58247D01*
X16195Y58247D02*
X16037Y58405D01*
X23095Y62707D02*
X25835Y62707D01*
X25835Y62707D02*
X27055Y61487D01*
X27055Y61487D02*
X27055Y59447D01*
X27055Y59447D02*
X28097Y58405D01*
X28097Y58405D02*
X29852Y58405D01*
X22067Y61756D02*
X22143Y61756D01*
X22143Y61756D02*
X23095Y62707D01*
X22067Y61756D02*
X22067Y61859D01*
X22067Y61756D02*
X22067Y61859D01*
X21115Y62687D02*
X21115Y63647D01*
X21115Y62687D02*
X21115Y63647D01*
X32795Y53027D02*
X34235Y54467D01*
X34235Y54467D02*
X34235Y54787D01*
X34235Y54467D02*
X34235Y54787D01*
X32795Y53027D02*
X34235Y54467D01*
X33975Y58987D02*
X33135Y59827D01*
X33975Y58987D02*
X33135Y59827D01*
X33135Y59827D02*
X33135Y60587D01*
X33135Y59827D02*
X33135Y60587D01*
X33135Y60587D02*
X32015Y61707D01*
X33135Y60587D02*
X32015Y61707D01*
X32015Y61707D02*
X29875Y61707D01*
X32015Y61707D02*
X29875Y61707D01*
X28855Y60427D02*
X29852Y59429D01*
X28855Y60427D02*
X29852Y59429D01*
X29852Y59429D02*
X29852Y58405D01*
X29852Y59429D02*
X29852Y58405D01*
X21655Y64187D02*
X22565Y64187D01*
X21655Y64187D02*
X22565Y64187D01*
X21115Y63647D02*
X21655Y64187D01*
X21115Y63647D02*
X21655Y64187D01*
X22468Y41898D02*
X22468Y42784D01*
X22406Y41836D02*
X22468Y41898D01*
X22406Y41836D02*
X22468Y41898D01*
X22468Y41898D02*
X22468Y42784D01*
X21836Y41836D02*
X22406Y41836D01*
X21836Y41836D02*
X22406Y41836D01*
G54D10*
G36*
X22440Y46587D02*
X22342Y46546D01*
X22256Y46460D01*
X22226Y46387D01*
X21509Y46387D01*
X18895Y49002D01*
X18895Y49336D01*
X18973Y49414D01*
X19020Y49526D01*
X19020Y49648D01*
X18973Y49760D01*
X18888Y49846D01*
X18775Y49892D01*
X18654Y49893D01*
X18542Y49846D01*
X18456Y49760D01*
X18409Y49648D01*
X18409Y49527D01*
X18456Y49414D01*
X18534Y49336D01*
X18534Y48927D01*
X18548Y48858D01*
X18587Y48800D01*
X19874Y47513D01*
X19834Y47513D01*
X19722Y47466D01*
X19655Y47399D01*
X19655Y47587D01*
X19641Y47656D01*
X19641Y47656D01*
X19602Y47715D01*
X19382Y47935D01*
X19324Y47974D01*
X19255Y47987D01*
X19155Y47987D01*
X18586Y47987D01*
X18508Y48066D01*
X18395Y48112D01*
X18274Y48113D01*
X18162Y48066D01*
X18076Y47980D01*
X18029Y47868D01*
X18029Y47747D01*
X18076Y47634D01*
X18161Y47548D01*
X18274Y47502D01*
X18395Y47502D01*
X18507Y47548D01*
X18586Y47627D01*
X19155Y47627D01*
X19180Y47627D01*
X19294Y47512D01*
X19294Y46927D01*
X19308Y46858D01*
X19329Y46826D01*
X19329Y46710D01*
X19275Y46732D01*
X19154Y46733D01*
X19042Y46686D01*
X18963Y46607D01*
X17835Y46607D01*
X17835Y49366D01*
X17835Y49945D01*
X17835Y49945D01*
X17835Y49945D01*
X17830Y49970D01*
X17810Y50070D01*
X17810Y50070D01*
X17739Y50176D01*
X17739Y50176D01*
X17337Y50578D01*
X17231Y50649D01*
X17106Y50674D01*
X16005Y50674D01*
X14685Y50674D01*
X14560Y50649D01*
X14453Y50578D01*
X14453Y50578D01*
X14069Y50193D01*
X13132Y50193D01*
X13585Y50647D01*
X13656Y50753D01*
X13681Y50878D01*
X13656Y51003D01*
X13585Y51109D01*
X13479Y51180D01*
X13354Y51205D01*
X13229Y51180D01*
X13123Y51109D01*
X12797Y50784D01*
X12131Y50784D01*
X12083Y50764D01*
X12047Y50728D01*
X12027Y50680D01*
X12027Y50628D01*
X12027Y49053D01*
X12047Y49005D01*
X12083Y48968D01*
X12131Y48949D01*
X12183Y48948D01*
X12892Y48948D01*
X12940Y48968D01*
X12976Y49005D01*
X12996Y49053D01*
X12996Y49105D01*
X12996Y49539D01*
X14204Y49539D01*
X14330Y49564D01*
X14436Y49635D01*
X14820Y50019D01*
X16970Y50019D01*
X17180Y49809D01*
X17180Y49366D01*
X17205Y49241D01*
X17276Y49135D01*
X17382Y49064D01*
X17508Y49039D01*
X17633Y49064D01*
X17739Y49135D01*
X17810Y49241D01*
X17835Y49366D01*
X17835Y46607D01*
X17489Y46607D01*
X16195Y47902D01*
X16195Y49087D01*
X16181Y49156D01*
X16142Y49215D01*
X15820Y49537D01*
X15820Y49648D01*
X15773Y49760D01*
X15688Y49846D01*
X15575Y49892D01*
X15454Y49893D01*
X15342Y49846D01*
X15256Y49760D01*
X15209Y49648D01*
X15209Y49527D01*
X15256Y49414D01*
X15341Y49328D01*
X15454Y49282D01*
X15565Y49282D01*
X15834Y49012D01*
X15834Y47827D01*
X15848Y47758D01*
X15887Y47700D01*
X17287Y46300D01*
X17345Y46261D01*
X17415Y46247D01*
X18852Y46247D01*
X18825Y46236D01*
X18788Y46199D01*
X18768Y46151D01*
X18768Y46099D01*
X18768Y45299D01*
X18788Y45251D01*
X18825Y45215D01*
X18872Y45195D01*
X18924Y45195D01*
X19458Y45195D01*
X19713Y44940D01*
X19713Y44940D01*
X19771Y44901D01*
X19771Y44901D01*
X19827Y44890D01*
X19840Y44887D01*
X19840Y44887D01*
X19841Y44887D01*
X20801Y44887D01*
X20806Y44888D01*
X20826Y44868D01*
X21185Y44868D01*
X21185Y44876D01*
X21324Y44876D01*
X21324Y44868D01*
X21683Y44868D01*
X21741Y44925D01*
X21741Y45001D01*
X21706Y45086D01*
X21695Y45097D01*
X21706Y45097D01*
X22058Y44744D01*
X22058Y44711D01*
X21957Y44711D01*
X21909Y44691D01*
X21872Y44655D01*
X21852Y44607D01*
X21852Y44555D01*
X21852Y44240D01*
X21872Y44192D01*
X21883Y44181D01*
X21741Y44039D01*
X21741Y44595D01*
X21741Y44671D01*
X21683Y44728D01*
X21324Y44728D01*
X21324Y44468D01*
X21382Y44410D01*
X21465Y44410D01*
X21557Y44410D01*
X21641Y44446D01*
X21706Y44510D01*
X21741Y44595D01*
X21741Y44039D01*
X21641Y43939D01*
X21641Y44231D01*
X21621Y44279D01*
X21584Y44316D01*
X21537Y44336D01*
X21485Y44336D01*
X21185Y44336D01*
X21185Y44468D01*
X21185Y44728D01*
X20826Y44728D01*
X20768Y44671D01*
X20768Y44595D01*
X20803Y44510D01*
X20868Y44446D01*
X20952Y44410D01*
X21044Y44410D01*
X21127Y44410D01*
X21185Y44468D01*
X21185Y44336D01*
X20973Y44336D01*
X20925Y44316D01*
X20888Y44280D01*
X20883Y44267D01*
X20769Y44267D01*
X20769Y44513D01*
X20749Y44561D01*
X20712Y44598D01*
X20665Y44617D01*
X20613Y44618D01*
X20013Y44618D01*
X19965Y44598D01*
X19928Y44561D01*
X19908Y44513D01*
X19908Y44461D01*
X19908Y43837D01*
X19469Y43837D01*
X19469Y44513D01*
X19449Y44561D01*
X19412Y44598D01*
X19365Y44617D01*
X19313Y44618D01*
X19035Y44618D01*
X18620Y45033D01*
X18595Y45092D01*
X18510Y45178D01*
X18397Y45224D01*
X18276Y45225D01*
X18164Y45178D01*
X18078Y45092D01*
X18031Y44980D01*
X18031Y44859D01*
X18078Y44746D01*
X18163Y44660D01*
X18276Y44614D01*
X18397Y44614D01*
X18490Y44652D01*
X18614Y44528D01*
X18608Y44513D01*
X18608Y44461D01*
X18608Y43837D01*
X17957Y43837D01*
X17957Y45020D01*
X17818Y45358D01*
X17560Y45616D01*
X17222Y45756D01*
X16857Y45757D01*
X16520Y45617D01*
X16262Y45359D01*
X16122Y45022D01*
X16121Y44657D01*
X16261Y44320D01*
X16519Y44061D01*
X16856Y43921D01*
X17221Y43921D01*
X17558Y44060D01*
X17817Y44318D01*
X17957Y44655D01*
X17957Y45020D01*
X17957Y43837D01*
X15355Y43837D01*
X15355Y48837D01*
X11718Y48837D01*
X11718Y49124D01*
X11718Y50608D01*
X11718Y50700D01*
X11683Y50784D01*
X11618Y50849D01*
X11533Y50884D01*
X11261Y50884D01*
X11203Y50826D01*
X11203Y49936D01*
X11661Y49936D01*
X11718Y49993D01*
X11718Y50608D01*
X11718Y49124D01*
X11718Y49739D01*
X11661Y49797D01*
X11203Y49797D01*
X11203Y48906D01*
X11261Y48849D01*
X11533Y48848D01*
X11618Y48883D01*
X11683Y48948D01*
X11718Y49033D01*
X11718Y49124D01*
X11718Y48837D01*
X11064Y48837D01*
X11064Y48906D01*
X11064Y49797D01*
X11064Y49936D01*
X11064Y50826D01*
X11006Y50884D01*
X10734Y50884D01*
X10649Y50849D01*
X10584Y50784D01*
X10549Y50700D01*
X10549Y50608D01*
X10549Y49993D01*
X10606Y49936D01*
X11064Y49936D01*
X11064Y49797D01*
X10606Y49797D01*
X10549Y49739D01*
X10549Y49124D01*
X10549Y49033D01*
X10584Y48948D01*
X10649Y48883D01*
X10734Y48848D01*
X11006Y48849D01*
X11064Y48906D01*
X11064Y48837D01*
X10575Y48837D01*
X10355Y48837D01*
X10355Y53277D01*
X11154Y53277D01*
X11154Y52295D01*
X12277Y52295D01*
X12277Y53277D01*
X12994Y53277D01*
X12994Y53027D01*
X13008Y52958D01*
X13047Y52900D01*
X14031Y51916D01*
X14031Y51916D01*
X14089Y51877D01*
X14089Y51877D01*
X14145Y51866D01*
X14158Y51863D01*
X14158Y51863D01*
X14158Y51863D01*
X14450Y51863D01*
X14483Y51783D01*
X14613Y51653D01*
X14782Y51583D01*
X14965Y51583D01*
X15134Y51653D01*
X15264Y51782D01*
X15334Y51951D01*
X15334Y52135D01*
X15264Y52304D01*
X15135Y52433D01*
X14966Y52504D01*
X14783Y52504D01*
X14613Y52434D01*
X14484Y52304D01*
X14450Y52224D01*
X14233Y52224D01*
X13355Y53102D01*
X13355Y53277D01*
X14050Y53277D01*
X14411Y52916D01*
X14435Y52900D01*
X14483Y52783D01*
X14613Y52653D01*
X14782Y52583D01*
X14965Y52583D01*
X15134Y52653D01*
X15264Y52782D01*
X15334Y52951D01*
X15334Y53135D01*
X15275Y53277D01*
X15444Y53277D01*
X15444Y53207D01*
X15502Y53207D01*
X15444Y53150D01*
X15444Y52932D01*
X15479Y52847D01*
X15544Y52782D01*
X15628Y52747D01*
X15720Y52747D01*
X15947Y52747D01*
X16005Y52804D01*
X16005Y53207D01*
X15997Y53207D01*
X15997Y53277D01*
X16152Y53277D01*
X16152Y53207D01*
X16144Y53207D01*
X16144Y52804D01*
X16202Y52747D01*
X16429Y52747D01*
X16482Y52747D01*
X16456Y52720D01*
X16409Y52608D01*
X16409Y52487D01*
X16456Y52374D01*
X16541Y52288D01*
X16654Y52242D01*
X16775Y52242D01*
X16803Y52253D01*
X16835Y52247D01*
X18620Y52247D01*
X19134Y51732D01*
X19134Y50547D01*
X19148Y50478D01*
X19187Y50420D01*
X21114Y48492D01*
X21114Y47567D01*
X21128Y47498D01*
X21167Y47440D01*
X21967Y46640D01*
X21967Y46640D01*
X22025Y46601D01*
X22025Y46601D01*
X22081Y46590D01*
X22094Y46587D01*
X22094Y46587D01*
X22095Y46587D01*
X22440Y46587D01*
X22440Y46587D01*
G37*
G54D27*
X22440Y46587D02*
X22342Y46546D01*
X22256Y46460D01*
X22226Y46387D01*
X21509Y46387D01*
X18895Y49002D01*
X18895Y49336D01*
X18973Y49414D01*
X19020Y49526D01*
X19020Y49648D01*
X18973Y49760D01*
X18888Y49846D01*
X18775Y49892D01*
X18654Y49893D01*
X18542Y49846D01*
X18456Y49760D01*
X18409Y49648D01*
X18409Y49527D01*
X18456Y49414D01*
X18534Y49336D01*
X18534Y48927D01*
X18548Y48858D01*
X18587Y48800D01*
X19874Y47513D01*
X19834Y47513D01*
X19722Y47466D01*
X19655Y47399D01*
X19655Y47587D01*
X19641Y47656D01*
X19641Y47656D01*
X19602Y47715D01*
X19382Y47935D01*
X19324Y47974D01*
X19255Y47987D01*
X19155Y47987D01*
X18586Y47987D01*
X18508Y48066D01*
X18395Y48112D01*
X18274Y48113D01*
X18162Y48066D01*
X18076Y47980D01*
X18029Y47868D01*
X18029Y47747D01*
X18076Y47634D01*
X18161Y47548D01*
X18274Y47502D01*
X18395Y47502D01*
X18507Y47548D01*
X18586Y47627D01*
X19155Y47627D01*
X19180Y47627D01*
X19294Y47512D01*
X19294Y46927D01*
X19308Y46858D01*
X19329Y46826D01*
X19329Y46710D01*
X19275Y46732D01*
X19154Y46733D01*
X19042Y46686D01*
X18963Y46607D01*
X17835Y46607D01*
X17835Y49366D01*
X17835Y49945D01*
X17835Y49945D01*
X17835Y49945D01*
X17830Y49970D01*
X17810Y50070D01*
X17810Y50070D01*
X17739Y50176D01*
X17739Y50176D01*
X17337Y50578D01*
X17231Y50649D01*
X17106Y50674D01*
X16005Y50674D01*
X14685Y50674D01*
X14560Y50649D01*
X14453Y50578D01*
X14453Y50578D01*
X14069Y50193D01*
X13132Y50193D01*
X13585Y50647D01*
X13656Y50753D01*
X13681Y50878D01*
X13656Y51003D01*
X13585Y51109D01*
X13479Y51180D01*
X13354Y51205D01*
X13229Y51180D01*
X13123Y51109D01*
X12797Y50784D01*
X12131Y50784D01*
X12083Y50764D01*
X12047Y50728D01*
X12027Y50680D01*
X12027Y50628D01*
X12027Y49053D01*
X12047Y49005D01*
X12083Y48968D01*
X12131Y48949D01*
X12183Y48948D01*
X12892Y48948D01*
X12940Y48968D01*
X12976Y49005D01*
X12996Y49053D01*
X12996Y49105D01*
X12996Y49539D01*
X14204Y49539D01*
X14330Y49564D01*
X14436Y49635D01*
X14820Y50019D01*
X16970Y50019D01*
X17180Y49809D01*
X17180Y49366D01*
X17205Y49241D01*
X17276Y49135D01*
X17382Y49064D01*
X17508Y49039D01*
X17633Y49064D01*
X17739Y49135D01*
X17810Y49241D01*
X17835Y49366D01*
X17835Y46607D01*
X17489Y46607D01*
X16195Y47902D01*
X16195Y49087D01*
X16181Y49156D01*
X16142Y49215D01*
X15820Y49537D01*
X15820Y49648D01*
X15773Y49760D01*
X15688Y49846D01*
X15575Y49892D01*
X15454Y49893D01*
X15342Y49846D01*
X15256Y49760D01*
X15209Y49648D01*
X15209Y49527D01*
X15256Y49414D01*
X15341Y49328D01*
X15454Y49282D01*
X15565Y49282D01*
X15834Y49012D01*
X15834Y47827D01*
X15848Y47758D01*
X15887Y47700D01*
X17287Y46300D01*
X17345Y46261D01*
X17415Y46247D01*
X18852Y46247D01*
X18825Y46236D01*
X18788Y46199D01*
X18768Y46151D01*
X18768Y46099D01*
X18768Y45299D01*
X18788Y45251D01*
X18825Y45215D01*
X18872Y45195D01*
X18924Y45195D01*
X19458Y45195D01*
X19713Y44940D01*
X19713Y44940D01*
X19771Y44901D01*
X19771Y44901D01*
X19827Y44890D01*
X19840Y44887D01*
X19840Y44887D01*
X19841Y44887D01*
X20801Y44887D01*
X20806Y44888D01*
X20826Y44868D01*
X21185Y44868D01*
X21185Y44876D01*
X21324Y44876D01*
X21324Y44868D01*
X21683Y44868D01*
X21741Y44925D01*
X21741Y45001D01*
X21706Y45086D01*
X21695Y45097D01*
X21706Y45097D01*
X22058Y44744D01*
X22058Y44711D01*
X21957Y44711D01*
X21909Y44691D01*
X21872Y44655D01*
X21852Y44607D01*
X21852Y44555D01*
X21852Y44240D01*
X21872Y44192D01*
X21883Y44181D01*
X21741Y44039D01*
X21741Y44595D01*
X21741Y44671D01*
X21683Y44728D01*
X21324Y44728D01*
X21324Y44468D01*
X21382Y44410D01*
X21465Y44410D01*
X21557Y44410D01*
X21641Y44446D01*
X21706Y44510D01*
X21741Y44595D01*
X21741Y44039D01*
X21641Y43939D01*
X21641Y44231D01*
X21621Y44279D01*
X21584Y44316D01*
X21537Y44336D01*
X21485Y44336D01*
X21185Y44336D01*
X21185Y44468D01*
X21185Y44728D01*
X20826Y44728D01*
X20768Y44671D01*
X20768Y44595D01*
X20803Y44510D01*
X20868Y44446D01*
X20952Y44410D01*
X21044Y44410D01*
X21127Y44410D01*
X21185Y44468D01*
X21185Y44336D01*
X20973Y44336D01*
X20925Y44316D01*
X20888Y44280D01*
X20883Y44267D01*
X20769Y44267D01*
X20769Y44513D01*
X20749Y44561D01*
X20712Y44598D01*
X20665Y44617D01*
X20613Y44618D01*
X20013Y44618D01*
X19965Y44598D01*
X19928Y44561D01*
X19908Y44513D01*
X19908Y44461D01*
X19908Y43837D01*
X19469Y43837D01*
X19469Y44513D01*
X19449Y44561D01*
X19412Y44598D01*
X19365Y44617D01*
X19313Y44618D01*
X19035Y44618D01*
X18620Y45033D01*
X18595Y45092D01*
X18510Y45178D01*
X18397Y45224D01*
X18276Y45225D01*
X18164Y45178D01*
X18078Y45092D01*
X18031Y44980D01*
X18031Y44859D01*
X18078Y44746D01*
X18163Y44660D01*
X18276Y44614D01*
X18397Y44614D01*
X18490Y44652D01*
X18614Y44528D01*
X18608Y44513D01*
X18608Y44461D01*
X18608Y43837D01*
X17957Y43837D01*
X17957Y45020D01*
X17818Y45358D01*
X17560Y45616D01*
X17222Y45756D01*
X16857Y45757D01*
X16520Y45617D01*
X16262Y45359D01*
X16122Y45022D01*
X16121Y44657D01*
X16261Y44320D01*
X16519Y44061D01*
X16856Y43921D01*
X17221Y43921D01*
X17558Y44060D01*
X17817Y44318D01*
X17957Y44655D01*
X17957Y45020D01*
X17957Y43837D01*
X15355Y43837D01*
X15355Y48837D01*
X11718Y48837D01*
X11718Y49124D01*
X11718Y50608D01*
X11718Y50700D01*
X11683Y50784D01*
X11618Y50849D01*
X11533Y50884D01*
X11261Y50884D01*
X11203Y50826D01*
X11203Y49936D01*
X11661Y49936D01*
X11718Y49993D01*
X11718Y50608D01*
X11718Y49124D01*
X11718Y49739D01*
X11661Y49797D01*
X11203Y49797D01*
X11203Y48906D01*
X11261Y48849D01*
X11533Y48848D01*
X11618Y48883D01*
X11683Y48948D01*
X11718Y49033D01*
X11718Y49124D01*
X11718Y48837D01*
X11064Y48837D01*
X11064Y48906D01*
X11064Y49797D01*
X11064Y49936D01*
X11064Y50826D01*
X11006Y50884D01*
X10734Y50884D01*
X10649Y50849D01*
X10584Y50784D01*
X10549Y50700D01*
X10549Y50608D01*
X10549Y49993D01*
X10606Y49936D01*
X11064Y49936D01*
X11064Y49797D01*
X10606Y49797D01*
X10549Y49739D01*
X10549Y49124D01*
X10549Y49033D01*
X10584Y48948D01*
X10649Y48883D01*
X10734Y48848D01*
X11006Y48849D01*
X11064Y48906D01*
X11064Y48837D01*
X10575Y48837D01*
X10355Y48837D01*
X10355Y53277D01*
X11154Y53277D01*
X11154Y52295D01*
X12277Y52295D01*
X12277Y53277D01*
X12994Y53277D01*
X12994Y53027D01*
X13008Y52958D01*
X13047Y52900D01*
X14031Y51916D01*
X14031Y51916D01*
X14089Y51877D01*
X14089Y51877D01*
X14145Y51866D01*
X14158Y51863D01*
X14158Y51863D01*
X14158Y51863D01*
X14450Y51863D01*
X14483Y51783D01*
X14613Y51653D01*
X14782Y51583D01*
X14965Y51583D01*
X15134Y51653D01*
X15264Y51782D01*
X15334Y51951D01*
X15334Y52135D01*
X15264Y52304D01*
X15135Y52433D01*
X14966Y52504D01*
X14783Y52504D01*
X14613Y52434D01*
X14484Y52304D01*
X14450Y52224D01*
X14233Y52224D01*
X13355Y53102D01*
X13355Y53277D01*
X14050Y53277D01*
X14411Y52916D01*
X14435Y52900D01*
X14483Y52783D01*
X14613Y52653D01*
X14782Y52583D01*
X14965Y52583D01*
X15134Y52653D01*
X15264Y52782D01*
X15334Y52951D01*
X15334Y53135D01*
X15275Y53277D01*
X15444Y53277D01*
X15444Y53207D01*
X15502Y53207D01*
X15444Y53150D01*
X15444Y52932D01*
X15479Y52847D01*
X15544Y52782D01*
X15628Y52747D01*
X15720Y52747D01*
X15947Y52747D01*
X16005Y52804D01*
X16005Y53207D01*
X15997Y53207D01*
X15997Y53277D01*
X16152Y53277D01*
X16152Y53207D01*
X16144Y53207D01*
X16144Y52804D01*
X16202Y52747D01*
X16429Y52747D01*
X16482Y52747D01*
X16456Y52720D01*
X16409Y52608D01*
X16409Y52487D01*
X16456Y52374D01*
X16541Y52288D01*
X16654Y52242D01*
X16775Y52242D01*
X16803Y52253D01*
X16835Y52247D01*
X18620Y52247D01*
X19134Y51732D01*
X19134Y50547D01*
X19148Y50478D01*
X19187Y50420D01*
X21114Y48492D01*
X21114Y47567D01*
X21128Y47498D01*
X21167Y47440D01*
X21967Y46640D01*
X21967Y46640D01*
X22025Y46601D01*
X22025Y46601D01*
X22081Y46590D01*
X22094Y46587D01*
X22094Y46587D01*
X22095Y46587D01*
X22440Y46587D01*
G54D10*
G36*
X26189Y53277D02*
X24885Y51972D01*
X24778Y51973D01*
X24811Y52051D01*
X24811Y52222D01*
X24746Y52381D01*
X24625Y52502D01*
X24466Y52567D01*
X24295Y52568D01*
X24137Y52502D01*
X24016Y52381D01*
X23950Y52223D01*
X23950Y52052D01*
X24015Y51894D01*
X24136Y51773D01*
X24197Y51747D01*
X23918Y51747D01*
X23918Y52080D01*
X23899Y52290D01*
X23855Y52396D01*
X23768Y52426D01*
X23669Y52327D01*
X23669Y52525D01*
X23639Y52612D01*
X23438Y52675D01*
X23228Y52656D01*
X23122Y52612D01*
X23092Y52525D01*
X23381Y52236D01*
X23669Y52525D01*
X23669Y52327D01*
X23479Y52137D01*
X23768Y51848D01*
X23855Y51878D01*
X23918Y52080D01*
X23918Y51747D01*
X23668Y51747D01*
X23669Y51750D01*
X23381Y52039D01*
X23282Y51940D01*
X23282Y52137D01*
X22993Y52426D01*
X22906Y52396D01*
X22843Y52195D01*
X22862Y51984D01*
X22906Y51878D01*
X22993Y51848D01*
X23282Y52137D01*
X23282Y51940D01*
X23214Y51873D01*
X23194Y51873D01*
X23082Y51826D01*
X22996Y51740D01*
X22949Y51628D01*
X22949Y51507D01*
X22996Y51394D01*
X23081Y51308D01*
X23194Y51262D01*
X23315Y51262D01*
X23427Y51308D01*
X23506Y51387D01*
X24400Y51387D01*
X24677Y51110D01*
X24571Y51066D01*
X24485Y50980D01*
X24439Y50868D01*
X24438Y50747D01*
X24485Y50634D01*
X24563Y50556D01*
X24563Y48925D01*
X24235Y48597D01*
X24235Y49823D01*
X24247Y49828D01*
X24333Y49914D01*
X24380Y50026D01*
X24380Y50148D01*
X24333Y50260D01*
X24248Y50346D01*
X24135Y50392D01*
X24014Y50393D01*
X23902Y50346D01*
X23816Y50260D01*
X23792Y50202D01*
X23788Y50206D01*
X23675Y50252D01*
X23554Y50253D01*
X23442Y50206D01*
X23383Y50147D01*
X22735Y50147D01*
X22734Y50147D01*
X22721Y50145D01*
X22665Y50134D01*
X22607Y50095D01*
X22607Y50095D01*
X22607Y50095D01*
X22435Y49922D01*
X22435Y51307D01*
X22435Y51307D01*
X22435Y51307D01*
X22432Y51321D01*
X22421Y51376D01*
X22421Y51376D01*
X22382Y51435D01*
X22382Y51435D01*
X22075Y51742D01*
X22075Y51834D01*
X22136Y51773D01*
X22295Y51707D01*
X22466Y51707D01*
X22624Y51772D01*
X22745Y51893D01*
X22811Y52051D01*
X22811Y52222D01*
X22746Y52381D01*
X22625Y52502D01*
X22466Y52567D01*
X22295Y52568D01*
X22137Y52502D01*
X22075Y52440D01*
X22075Y52512D01*
X22839Y53277D01*
X26189Y53277D01*
X26189Y53277D01*
G37*
G54D27*
X26189Y53277D02*
X24885Y51972D01*
X24778Y51973D01*
X24811Y52051D01*
X24811Y52222D01*
X24746Y52381D01*
X24625Y52502D01*
X24466Y52567D01*
X24295Y52568D01*
X24137Y52502D01*
X24016Y52381D01*
X23950Y52223D01*
X23950Y52052D01*
X24015Y51894D01*
X24136Y51773D01*
X24197Y51747D01*
X23918Y51747D01*
X23918Y52080D01*
X23899Y52290D01*
X23855Y52396D01*
X23768Y52426D01*
X23669Y52327D01*
X23669Y52525D01*
X23639Y52612D01*
X23438Y52675D01*
X23228Y52656D01*
X23122Y52612D01*
X23092Y52525D01*
X23381Y52236D01*
X23669Y52525D01*
X23669Y52327D01*
X23479Y52137D01*
X23768Y51848D01*
X23855Y51878D01*
X23918Y52080D01*
X23918Y51747D01*
X23668Y51747D01*
X23669Y51750D01*
X23381Y52039D01*
X23282Y51940D01*
X23282Y52137D01*
X22993Y52426D01*
X22906Y52396D01*
X22843Y52195D01*
X22862Y51984D01*
X22906Y51878D01*
X22993Y51848D01*
X23282Y52137D01*
X23282Y51940D01*
X23214Y51873D01*
X23194Y51873D01*
X23082Y51826D01*
X22996Y51740D01*
X22949Y51628D01*
X22949Y51507D01*
X22996Y51394D01*
X23081Y51308D01*
X23194Y51262D01*
X23315Y51262D01*
X23427Y51308D01*
X23506Y51387D01*
X24400Y51387D01*
X24677Y51110D01*
X24571Y51066D01*
X24485Y50980D01*
X24439Y50868D01*
X24438Y50747D01*
X24485Y50634D01*
X24563Y50556D01*
X24563Y48925D01*
X24235Y48597D01*
X24235Y49823D01*
X24247Y49828D01*
X24333Y49914D01*
X24380Y50026D01*
X24380Y50148D01*
X24333Y50260D01*
X24248Y50346D01*
X24135Y50392D01*
X24014Y50393D01*
X23902Y50346D01*
X23816Y50260D01*
X23792Y50202D01*
X23788Y50206D01*
X23675Y50252D01*
X23554Y50253D01*
X23442Y50206D01*
X23383Y50147D01*
X22735Y50147D01*
X22734Y50147D01*
X22721Y50145D01*
X22665Y50134D01*
X22607Y50095D01*
X22607Y50095D01*
X22607Y50095D01*
X22435Y49922D01*
X22435Y51307D01*
X22435Y51307D01*
X22435Y51307D01*
X22432Y51321D01*
X22421Y51376D01*
X22421Y51376D01*
X22382Y51435D01*
X22382Y51435D01*
X22075Y51742D01*
X22075Y51834D01*
X22136Y51773D01*
X22295Y51707D01*
X22466Y51707D01*
X22624Y51772D01*
X22745Y51893D01*
X22811Y52051D01*
X22811Y52222D01*
X22746Y52381D01*
X22625Y52502D01*
X22466Y52567D01*
X22295Y52568D01*
X22137Y52502D01*
X22075Y52440D01*
X22075Y52512D01*
X22839Y53277D01*
X26189Y53277D01*
G54D10*
G36*
X28836Y52850D02*
X28836Y52761D01*
X27936Y51861D01*
X27545Y51469D01*
X27545Y51503D01*
X27545Y52103D01*
X27525Y52151D01*
X27519Y52157D01*
X27519Y52199D01*
X27577Y52142D01*
X27751Y52142D01*
X27836Y52177D01*
X27901Y52242D01*
X27936Y52326D01*
X27936Y52418D01*
X27936Y52540D01*
X27878Y52597D01*
X27519Y52597D01*
X27519Y52590D01*
X27380Y52590D01*
X27380Y52597D01*
X27372Y52597D01*
X27372Y52737D01*
X27380Y52737D01*
X27380Y52745D01*
X27519Y52745D01*
X27519Y52737D01*
X27878Y52737D01*
X27890Y52749D01*
X27926Y52714D01*
X27926Y52714D01*
X28032Y52643D01*
X28136Y52622D01*
X28157Y52618D01*
X28157Y52618D01*
X28157Y52618D01*
X28468Y52618D01*
X28593Y52643D01*
X28700Y52714D01*
X28836Y52850D01*
X28836Y52850D01*
G37*
G54D27*
X28836Y52850D02*
X28836Y52761D01*
X27936Y51861D01*
X27545Y51469D01*
X27545Y51503D01*
X27545Y52103D01*
X27525Y52151D01*
X27519Y52157D01*
X27519Y52199D01*
X27577Y52142D01*
X27751Y52142D01*
X27836Y52177D01*
X27901Y52242D01*
X27936Y52326D01*
X27936Y52418D01*
X27936Y52540D01*
X27878Y52597D01*
X27519Y52597D01*
X27519Y52590D01*
X27380Y52590D01*
X27380Y52597D01*
X27372Y52597D01*
X27372Y52737D01*
X27380Y52737D01*
X27380Y52745D01*
X27519Y52745D01*
X27519Y52737D01*
X27878Y52737D01*
X27890Y52749D01*
X27926Y52714D01*
X27926Y52714D01*
X28032Y52643D01*
X28136Y52622D01*
X28157Y52618D01*
X28157Y52618D01*
X28157Y52618D01*
X28468Y52618D01*
X28593Y52643D01*
X28700Y52714D01*
X28836Y52850D01*
G54D10*
G36*
X29278Y49385D02*
X29243Y49351D01*
X28987Y49095D01*
X28948Y49036D01*
X28934Y48967D01*
X28934Y48062D01*
X27460Y46587D01*
X25086Y46587D01*
X25008Y46666D01*
X24895Y46712D01*
X24832Y46712D01*
X24833Y46714D01*
X24880Y46826D01*
X24880Y46948D01*
X24869Y46974D01*
X24885Y46974D01*
X24959Y46900D01*
X24959Y46900D01*
X25017Y46861D01*
X25017Y46861D01*
X25086Y46847D01*
X26809Y46847D01*
X26809Y46837D01*
X26855Y46725D01*
X26941Y46639D01*
X27053Y46592D01*
X27174Y46592D01*
X27287Y46639D01*
X27373Y46725D01*
X27419Y46837D01*
X27419Y46958D01*
X27373Y47070D01*
X27287Y47156D01*
X27214Y47187D01*
X27715Y47187D01*
X27784Y47201D01*
X27842Y47240D01*
X28362Y47760D01*
X28401Y47818D01*
X28415Y47887D01*
X28415Y49892D01*
X28430Y49908D01*
X28417Y49865D01*
X28436Y49654D01*
X28480Y49548D01*
X28567Y49518D01*
X28856Y49807D01*
X28850Y49813D01*
X28949Y49911D01*
X28955Y49906D01*
X28960Y49911D01*
X29059Y49813D01*
X29053Y49807D01*
X29059Y49802D01*
X28960Y49703D01*
X28955Y49709D01*
X28666Y49420D01*
X28696Y49332D01*
X28897Y49270D01*
X29107Y49288D01*
X29213Y49332D01*
X29243Y49420D01*
X29243Y49420D01*
X29278Y49385D01*
X29278Y49385D01*
G37*
G54D27*
X29278Y49385D02*
X29243Y49351D01*
X28987Y49095D01*
X28948Y49036D01*
X28934Y48967D01*
X28934Y48062D01*
X27460Y46587D01*
X25086Y46587D01*
X25008Y46666D01*
X24895Y46712D01*
X24832Y46712D01*
X24833Y46714D01*
X24880Y46826D01*
X24880Y46948D01*
X24869Y46974D01*
X24885Y46974D01*
X24959Y46900D01*
X24959Y46900D01*
X25017Y46861D01*
X25017Y46861D01*
X25086Y46847D01*
X26809Y46847D01*
X26809Y46837D01*
X26855Y46725D01*
X26941Y46639D01*
X27053Y46592D01*
X27174Y46592D01*
X27287Y46639D01*
X27373Y46725D01*
X27419Y46837D01*
X27419Y46958D01*
X27373Y47070D01*
X27287Y47156D01*
X27214Y47187D01*
X27715Y47187D01*
X27784Y47201D01*
X27842Y47240D01*
X28362Y47760D01*
X28401Y47818D01*
X28415Y47887D01*
X28415Y49892D01*
X28430Y49908D01*
X28417Y49865D01*
X28436Y49654D01*
X28480Y49548D01*
X28567Y49518D01*
X28856Y49807D01*
X28850Y49813D01*
X28949Y49911D01*
X28955Y49906D01*
X28960Y49911D01*
X29059Y49813D01*
X29053Y49807D01*
X29059Y49802D01*
X28960Y49703D01*
X28955Y49709D01*
X28666Y49420D01*
X28696Y49332D01*
X28897Y49270D01*
X29107Y49288D01*
X29213Y49332D01*
X29243Y49420D01*
X29243Y49420D01*
X29278Y49385D01*
G54D10*
G36*
X29874Y54196D02*
X29863Y54207D01*
X29819Y54252D01*
X29660Y54317D01*
X29489Y54318D01*
X29331Y54252D01*
X29234Y54155D01*
X29234Y54155D01*
X29179Y54119D01*
X29179Y54119D01*
X28855Y53794D01*
X28855Y55272D01*
X28887Y55240D01*
X28945Y55201D01*
X29015Y55187D01*
X29176Y55187D01*
X29187Y55176D01*
X29100Y55146D01*
X29037Y54945D01*
X29056Y54734D01*
X29100Y54628D01*
X29187Y54598D01*
X29476Y54887D01*
X29470Y54893D01*
X29569Y54991D01*
X29575Y54986D01*
X29580Y54991D01*
X29679Y54893D01*
X29673Y54887D01*
X29679Y54882D01*
X29580Y54783D01*
X29575Y54789D01*
X29476Y54690D01*
X29286Y54500D01*
X29316Y54412D01*
X29517Y54350D01*
X29727Y54368D01*
X29833Y54412D01*
X29863Y54500D01*
X29863Y54500D01*
X29874Y54489D01*
X29874Y54196D01*
X29874Y54196D01*
G37*
G54D27*
X29874Y54196D02*
X29863Y54207D01*
X29819Y54252D01*
X29660Y54317D01*
X29489Y54318D01*
X29331Y54252D01*
X29234Y54155D01*
X29234Y54155D01*
X29179Y54119D01*
X29179Y54119D01*
X28855Y53794D01*
X28855Y55272D01*
X28887Y55240D01*
X28945Y55201D01*
X29015Y55187D01*
X29176Y55187D01*
X29187Y55176D01*
X29100Y55146D01*
X29037Y54945D01*
X29056Y54734D01*
X29100Y54628D01*
X29187Y54598D01*
X29476Y54887D01*
X29470Y54893D01*
X29569Y54991D01*
X29575Y54986D01*
X29580Y54991D01*
X29679Y54893D01*
X29673Y54887D01*
X29679Y54882D01*
X29580Y54783D01*
X29575Y54789D01*
X29476Y54690D01*
X29286Y54500D01*
X29316Y54412D01*
X29517Y54350D01*
X29727Y54368D01*
X29833Y54412D01*
X29863Y54500D01*
X29863Y54500D01*
X29874Y54489D01*
X29874Y54196D01*
G54D10*
G36*
X35544Y48837D02*
X35045Y48837D01*
X35045Y51812D01*
X35045Y52503D01*
X35010Y52587D01*
X34945Y52652D01*
X34861Y52687D01*
X34769Y52688D01*
X34542Y52687D01*
X34484Y52630D01*
X34484Y52227D01*
X34987Y52227D01*
X35045Y52284D01*
X35045Y52503D01*
X35045Y51812D01*
X35045Y52030D01*
X34987Y52087D01*
X34484Y52087D01*
X34484Y51684D01*
X34542Y51627D01*
X34769Y51627D01*
X34861Y51627D01*
X34945Y51662D01*
X35010Y51727D01*
X35045Y51812D01*
X35045Y48837D01*
X34345Y48837D01*
X34345Y51684D01*
X34345Y52087D01*
X34345Y52227D01*
X34345Y52630D01*
X34287Y52687D01*
X34060Y52688D01*
X33968Y52687D01*
X33884Y52652D01*
X33819Y52587D01*
X33784Y52503D01*
X33784Y52284D01*
X33842Y52227D01*
X34345Y52227D01*
X34345Y52087D01*
X33842Y52087D01*
X33784Y52030D01*
X33784Y51812D01*
X33819Y51727D01*
X33884Y51662D01*
X33968Y51627D01*
X34060Y51627D01*
X34287Y51627D01*
X34345Y51684D01*
X34345Y48837D01*
X33862Y48837D01*
X33862Y49105D01*
X33862Y50679D01*
X33843Y50727D01*
X33806Y50764D01*
X33758Y50784D01*
X33706Y50784D01*
X32998Y50784D01*
X32950Y50764D01*
X32913Y50728D01*
X32911Y50723D01*
X32877Y50807D01*
X32791Y50893D01*
X32679Y50939D01*
X32557Y50939D01*
X32445Y50893D01*
X32359Y50807D01*
X32313Y50695D01*
X32312Y50573D01*
X32359Y50461D01*
X32445Y50375D01*
X32557Y50329D01*
X32668Y50329D01*
X32893Y50104D01*
X32893Y49053D01*
X32913Y49005D01*
X32949Y48968D01*
X32997Y48949D01*
X33049Y48948D01*
X33758Y48948D01*
X33806Y48968D01*
X33842Y49005D01*
X33862Y49053D01*
X33862Y49105D01*
X33862Y48837D01*
X30544Y48837D01*
X30544Y43837D01*
X29768Y43837D01*
X29768Y45021D01*
X29629Y45359D01*
X29371Y45617D01*
X29033Y45757D01*
X28668Y45758D01*
X28331Y45618D01*
X28073Y45360D01*
X27933Y45023D01*
X27932Y44658D01*
X28072Y44321D01*
X28330Y44062D01*
X28667Y43922D01*
X29032Y43922D01*
X29369Y44061D01*
X29628Y44319D01*
X29768Y44656D01*
X29768Y45021D01*
X29768Y43837D01*
X27294Y43837D01*
X27294Y44284D01*
X27373Y44362D01*
X27419Y44475D01*
X27419Y44596D01*
X27373Y44708D01*
X27287Y44794D01*
X27175Y44841D01*
X27053Y44841D01*
X26941Y44795D01*
X26855Y44709D01*
X26809Y44597D01*
X26809Y44475D01*
X26855Y44363D01*
X26934Y44284D01*
X26934Y43837D01*
X26775Y43837D01*
X26775Y44027D01*
X26761Y44096D01*
X26761Y44096D01*
X26722Y44155D01*
X26722Y44155D01*
X26557Y44319D01*
X26557Y45149D01*
X26557Y45232D01*
X26500Y45290D01*
X26239Y45290D01*
X26239Y44930D01*
X26297Y44873D01*
X26373Y44873D01*
X26457Y44908D01*
X26522Y44973D01*
X26557Y45057D01*
X26557Y45149D01*
X26557Y44319D01*
X26374Y44503D01*
X26316Y44542D01*
X26247Y44555D01*
X26100Y44555D01*
X26100Y44930D01*
X26100Y45290D01*
X25839Y45290D01*
X25782Y45232D01*
X25782Y45149D01*
X25782Y45057D01*
X25817Y44973D01*
X25882Y44908D01*
X25966Y44873D01*
X26042Y44873D01*
X26100Y44930D01*
X26100Y44555D01*
X26082Y44555D01*
X26082Y44657D01*
X26063Y44705D01*
X26026Y44742D01*
X25978Y44761D01*
X25926Y44762D01*
X25611Y44762D01*
X25563Y44742D01*
X25527Y44705D01*
X25507Y44657D01*
X25507Y44605D01*
X25507Y44093D01*
X25526Y44045D01*
X25563Y44009D01*
X25611Y43989D01*
X25663Y43989D01*
X25978Y43989D01*
X26026Y44009D01*
X26062Y44045D01*
X26082Y44093D01*
X26082Y44145D01*
X26082Y44195D01*
X26172Y44195D01*
X26414Y43952D01*
X26414Y43837D01*
X25138Y43837D01*
X25138Y45062D01*
X25151Y45029D01*
X25188Y44993D01*
X25236Y44973D01*
X25288Y44973D01*
X25603Y44973D01*
X25651Y44993D01*
X25687Y45029D01*
X25707Y45077D01*
X25707Y45129D01*
X25707Y45641D01*
X25688Y45689D01*
X25651Y45726D01*
X25603Y45746D01*
X25551Y45746D01*
X25288Y45746D01*
X25279Y45755D01*
X25231Y45787D01*
X25858Y45787D01*
X25817Y45746D01*
X25782Y45661D01*
X25782Y45570D01*
X25782Y45486D01*
X25839Y45429D01*
X26100Y45429D01*
X26100Y45437D01*
X26239Y45437D01*
X26239Y45429D01*
X26500Y45429D01*
X26557Y45486D01*
X26557Y45570D01*
X26557Y45661D01*
X26522Y45746D01*
X26481Y45787D01*
X27655Y45787D01*
X27724Y45801D01*
X27782Y45840D01*
X29462Y47520D01*
X29501Y47578D01*
X29515Y47647D01*
X29515Y48332D01*
X30229Y49047D01*
X31235Y49047D01*
X31304Y49061D01*
X31362Y49100D01*
X31822Y49560D01*
X31861Y49618D01*
X31875Y49687D01*
X31875Y50347D01*
X31861Y50416D01*
X31822Y50475D01*
X31385Y50912D01*
X31385Y51133D01*
X31365Y51181D01*
X31328Y51218D01*
X31281Y51237D01*
X31229Y51238D01*
X30779Y51238D01*
X30555Y51462D01*
X30555Y55867D01*
X30541Y55936D01*
X30502Y55995D01*
X30455Y56042D01*
X30535Y56042D01*
X30647Y56088D01*
X30733Y56174D01*
X30780Y56286D01*
X30780Y56398D01*
X31482Y57100D01*
X31521Y57158D01*
X31535Y57227D01*
X31535Y57796D01*
X31613Y57874D01*
X31660Y57986D01*
X31660Y58108D01*
X31613Y58220D01*
X31528Y58306D01*
X31415Y58352D01*
X31294Y58353D01*
X31222Y58323D01*
X31233Y58334D01*
X31280Y58446D01*
X31280Y58568D01*
X31264Y58606D01*
X31341Y58606D01*
X31759Y58187D01*
X31759Y55930D01*
X31339Y55930D01*
X31277Y55992D01*
X31107Y56063D01*
X30924Y56063D01*
X30755Y55993D01*
X30625Y55864D01*
X30555Y55694D01*
X30555Y55511D01*
X30625Y55342D01*
X30754Y55212D01*
X30923Y55142D01*
X31107Y55142D01*
X31276Y55212D01*
X31339Y55275D01*
X32086Y55275D01*
X32371Y55275D01*
X32384Y55243D01*
X32421Y55207D01*
X32468Y55187D01*
X32520Y55187D01*
X32567Y55187D01*
X32567Y54621D01*
X32458Y54730D01*
X32399Y54769D01*
X32330Y54783D01*
X31439Y54783D01*
X31406Y54863D01*
X31277Y54992D01*
X31107Y55063D01*
X30924Y55063D01*
X30755Y54993D01*
X30625Y54864D01*
X30555Y54694D01*
X30555Y54511D01*
X30625Y54342D01*
X30754Y54212D01*
X30923Y54142D01*
X31107Y54142D01*
X31276Y54212D01*
X31405Y54341D01*
X31439Y54422D01*
X31840Y54422D01*
X31802Y54406D01*
X31716Y54320D01*
X31669Y54208D01*
X31669Y54087D01*
X31716Y53974D01*
X31794Y53896D01*
X31794Y52682D01*
X31476Y52364D01*
X31476Y53135D01*
X31406Y53304D01*
X31277Y53433D01*
X31107Y53504D01*
X30924Y53504D01*
X30755Y53434D01*
X30625Y53304D01*
X30555Y53135D01*
X30555Y52952D01*
X30625Y52783D01*
X30754Y52653D01*
X30923Y52583D01*
X31107Y52583D01*
X31276Y52653D01*
X31405Y52782D01*
X31476Y52951D01*
X31476Y53135D01*
X31476Y52364D01*
X31409Y52297D01*
X31406Y52304D01*
X31277Y52433D01*
X31107Y52504D01*
X30924Y52504D01*
X30755Y52434D01*
X30625Y52304D01*
X30555Y52135D01*
X30555Y51952D01*
X30625Y51783D01*
X30754Y51653D01*
X30923Y51583D01*
X31107Y51583D01*
X31276Y51653D01*
X31405Y51782D01*
X31442Y51869D01*
X31480Y51877D01*
X31538Y51916D01*
X32102Y52480D01*
X32102Y52480D01*
X32102Y52480D01*
X32141Y52538D01*
X32141Y52538D01*
X32152Y52593D01*
X32155Y52607D01*
X32155Y52607D01*
X32155Y52607D01*
X32155Y53896D01*
X32233Y53974D01*
X32276Y54077D01*
X32276Y52807D01*
X32290Y52738D01*
X32329Y52680D01*
X32530Y52479D01*
X32530Y52479D01*
X32588Y52440D01*
X32588Y52440D01*
X32657Y52426D01*
X32657Y52426D01*
X33564Y52426D01*
X33633Y52440D01*
X33691Y52479D01*
X34239Y53027D01*
X34840Y53027D01*
X34888Y53047D01*
X34925Y53083D01*
X34945Y53131D01*
X34945Y53183D01*
X34945Y53783D01*
X34925Y53831D01*
X34888Y53868D01*
X34841Y53887D01*
X34789Y53888D01*
X33989Y53888D01*
X33941Y53868D01*
X33904Y53831D01*
X33884Y53783D01*
X33884Y53731D01*
X33884Y53182D01*
X33489Y52787D01*
X32986Y52787D01*
X33053Y52854D01*
X33100Y52966D01*
X33100Y53078D01*
X34362Y54340D01*
X34401Y54398D01*
X34401Y54398D01*
X34415Y54467D01*
X34415Y54536D01*
X34493Y54614D01*
X34540Y54726D01*
X34540Y54848D01*
X34493Y54960D01*
X34408Y55046D01*
X34295Y55092D01*
X34174Y55093D01*
X34062Y55046D01*
X33976Y54960D01*
X33929Y54848D01*
X33929Y54727D01*
X33976Y54614D01*
X34051Y54539D01*
X33481Y53968D01*
X33459Y54074D01*
X33389Y54180D01*
X33222Y54347D01*
X33222Y55187D01*
X33320Y55187D01*
X33368Y55207D01*
X33405Y55243D01*
X33424Y55290D01*
X33784Y55290D01*
X33784Y55271D01*
X33804Y55223D01*
X33841Y55187D01*
X33888Y55167D01*
X33940Y55167D01*
X34740Y55167D01*
X34788Y55187D01*
X34825Y55223D01*
X34845Y55271D01*
X34845Y55323D01*
X34845Y55923D01*
X34825Y55971D01*
X34788Y56008D01*
X34741Y56027D01*
X34689Y56028D01*
X33889Y56028D01*
X33841Y56008D01*
X33804Y55971D01*
X33793Y55944D01*
X33424Y55944D01*
X33405Y55991D01*
X33368Y56028D01*
X33321Y56047D01*
X33269Y56048D01*
X32469Y56048D01*
X32421Y56028D01*
X32413Y56020D01*
X32413Y56514D01*
X32421Y56507D01*
X32468Y56487D01*
X32520Y56487D01*
X33320Y56487D01*
X33368Y56507D01*
X33405Y56543D01*
X33425Y56591D01*
X33425Y56643D01*
X33425Y57243D01*
X33405Y57291D01*
X33368Y57328D01*
X33321Y57347D01*
X33269Y57348D01*
X32469Y57348D01*
X32421Y57328D01*
X32413Y57320D01*
X32413Y58323D01*
X32389Y58448D01*
X32318Y58554D01*
X32190Y58682D01*
X32205Y58682D01*
X33784Y57103D01*
X33784Y56571D01*
X33804Y56523D01*
X33841Y56487D01*
X33888Y56467D01*
X33940Y56467D01*
X34740Y56467D01*
X34788Y56487D01*
X34825Y56523D01*
X34845Y56571D01*
X34845Y56623D01*
X34845Y57223D01*
X34825Y57271D01*
X34788Y57308D01*
X34741Y57327D01*
X34689Y57328D01*
X34069Y57328D01*
X32835Y58562D01*
X32955Y58562D01*
X33067Y58608D01*
X33153Y58694D01*
X33200Y58806D01*
X33200Y58928D01*
X33153Y59040D01*
X33075Y59119D01*
X33075Y59632D01*
X33669Y59037D01*
X33669Y58927D01*
X33716Y58814D01*
X33801Y58728D01*
X33914Y58682D01*
X34035Y58682D01*
X34147Y58728D01*
X34233Y58814D01*
X34280Y58926D01*
X34280Y59048D01*
X34233Y59160D01*
X34148Y59246D01*
X34035Y59292D01*
X33924Y59293D01*
X33315Y59902D01*
X33315Y60587D01*
X33315Y60587D01*
X33315Y60587D01*
X33312Y60601D01*
X33301Y60656D01*
X33301Y60656D01*
X33262Y60715D01*
X33262Y60715D01*
X32142Y61835D01*
X32084Y61874D01*
X32015Y61887D01*
X30126Y61887D01*
X30048Y61966D01*
X29935Y62012D01*
X29814Y62013D01*
X29702Y61966D01*
X29616Y61880D01*
X29569Y61768D01*
X29569Y61647D01*
X29616Y61534D01*
X29701Y61448D01*
X29814Y61402D01*
X29935Y61402D01*
X30047Y61448D01*
X30126Y61527D01*
X31940Y61527D01*
X32005Y61461D01*
X31975Y61467D01*
X31115Y61467D01*
X31045Y61454D01*
X30987Y61415D01*
X30945Y61372D01*
X30834Y61373D01*
X30722Y61326D01*
X30636Y61240D01*
X30589Y61128D01*
X30589Y61007D01*
X30636Y60894D01*
X30721Y60808D01*
X30834Y60762D01*
X30955Y60762D01*
X31067Y60808D01*
X31153Y60894D01*
X31200Y61006D01*
X31200Y61107D01*
X31900Y61107D01*
X32069Y60937D01*
X31870Y61020D01*
X31505Y61020D01*
X31168Y60881D01*
X30909Y60623D01*
X30769Y60286D01*
X30769Y59921D01*
X30799Y59849D01*
X30507Y60140D01*
X30527Y60148D01*
X30613Y60234D01*
X30660Y60346D01*
X30660Y60468D01*
X30613Y60580D01*
X30528Y60666D01*
X30415Y60712D01*
X30304Y60713D01*
X27562Y63455D01*
X27504Y63494D01*
X27435Y63507D01*
X24295Y63507D01*
X24295Y63813D01*
X24295Y64613D01*
X24275Y64661D01*
X24238Y64698D01*
X24191Y64717D01*
X24139Y64718D01*
X23539Y64718D01*
X23491Y64698D01*
X23454Y64661D01*
X23434Y64613D01*
X23434Y64561D01*
X23434Y63761D01*
X23454Y63713D01*
X23491Y63677D01*
X23538Y63657D01*
X23590Y63657D01*
X24190Y63657D01*
X24238Y63677D01*
X24275Y63713D01*
X24295Y63761D01*
X24295Y63813D01*
X24295Y63507D01*
X22335Y63507D01*
X22265Y63494D01*
X22207Y63455D01*
X21420Y62667D01*
X21420Y62748D01*
X21373Y62860D01*
X21295Y62939D01*
X21295Y63572D01*
X21729Y64007D01*
X22134Y64007D01*
X22134Y63761D01*
X22154Y63713D01*
X22191Y63677D01*
X22238Y63657D01*
X22290Y63657D01*
X22890Y63657D01*
X22938Y63677D01*
X22975Y63713D01*
X22995Y63761D01*
X22995Y63813D01*
X22995Y64613D01*
X22975Y64661D01*
X22938Y64698D01*
X22891Y64717D01*
X22839Y64718D01*
X22239Y64718D01*
X22191Y64698D01*
X22154Y64661D01*
X22134Y64613D01*
X22134Y64561D01*
X22134Y64367D01*
X21655Y64367D01*
X21585Y64354D01*
X21527Y64315D01*
X20987Y63775D01*
X20948Y63716D01*
X20934Y63647D01*
X20934Y62939D01*
X20856Y62860D01*
X20809Y62748D01*
X20809Y62627D01*
X20856Y62514D01*
X20941Y62428D01*
X21054Y62382D01*
X21134Y62382D01*
X20964Y62212D01*
X20806Y62146D01*
X20677Y62017D01*
X20643Y61936D01*
X17103Y61936D01*
X17034Y61923D01*
X16976Y61883D01*
X15243Y60151D01*
X15204Y60092D01*
X15190Y60023D01*
X15190Y59337D01*
X14735Y59337D01*
X14980Y59582D01*
X15120Y59919D01*
X15120Y60284D01*
X14981Y60622D01*
X14723Y60880D01*
X14386Y61020D01*
X14020Y61020D01*
X13683Y60881D01*
X13425Y60623D01*
X13285Y60286D01*
X13284Y59921D01*
X13424Y59583D01*
X13669Y59337D01*
X11376Y59337D01*
X12599Y61539D01*
X14843Y63783D01*
X18085Y65528D01*
X22826Y66526D01*
X24569Y66277D01*
X27065Y65778D01*
X29310Y64781D01*
X31554Y63284D01*
X33550Y61039D01*
X34797Y59045D01*
X35544Y56553D01*
X35544Y48837D01*
X35544Y48837D01*
G37*
G54D27*
X35544Y48837D02*
X35045Y48837D01*
X35045Y51812D01*
X35045Y52503D01*
X35010Y52587D01*
X34945Y52652D01*
X34861Y52687D01*
X34769Y52688D01*
X34542Y52687D01*
X34484Y52630D01*
X34484Y52227D01*
X34987Y52227D01*
X35045Y52284D01*
X35045Y52503D01*
X35045Y51812D01*
X35045Y52030D01*
X34987Y52087D01*
X34484Y52087D01*
X34484Y51684D01*
X34542Y51627D01*
X34769Y51627D01*
X34861Y51627D01*
X34945Y51662D01*
X35010Y51727D01*
X35045Y51812D01*
X35045Y48837D01*
X34345Y48837D01*
X34345Y51684D01*
X34345Y52087D01*
X34345Y52227D01*
X34345Y52630D01*
X34287Y52687D01*
X34060Y52688D01*
X33968Y52687D01*
X33884Y52652D01*
X33819Y52587D01*
X33784Y52503D01*
X33784Y52284D01*
X33842Y52227D01*
X34345Y52227D01*
X34345Y52087D01*
X33842Y52087D01*
X33784Y52030D01*
X33784Y51812D01*
X33819Y51727D01*
X33884Y51662D01*
X33968Y51627D01*
X34060Y51627D01*
X34287Y51627D01*
X34345Y51684D01*
X34345Y48837D01*
X33862Y48837D01*
X33862Y49105D01*
X33862Y50679D01*
X33843Y50727D01*
X33806Y50764D01*
X33758Y50784D01*
X33706Y50784D01*
X32998Y50784D01*
X32950Y50764D01*
X32913Y50728D01*
X32911Y50723D01*
X32877Y50807D01*
X32791Y50893D01*
X32679Y50939D01*
X32557Y50939D01*
X32445Y50893D01*
X32359Y50807D01*
X32313Y50695D01*
X32312Y50573D01*
X32359Y50461D01*
X32445Y50375D01*
X32557Y50329D01*
X32668Y50329D01*
X32893Y50104D01*
X32893Y49053D01*
X32913Y49005D01*
X32949Y48968D01*
X32997Y48949D01*
X33049Y48948D01*
X33758Y48948D01*
X33806Y48968D01*
X33842Y49005D01*
X33862Y49053D01*
X33862Y49105D01*
X33862Y48837D01*
X30544Y48837D01*
X30544Y43837D01*
X29768Y43837D01*
X29768Y45021D01*
X29629Y45359D01*
X29371Y45617D01*
X29033Y45757D01*
X28668Y45758D01*
X28331Y45618D01*
X28073Y45360D01*
X27933Y45023D01*
X27932Y44658D01*
X28072Y44321D01*
X28330Y44062D01*
X28667Y43922D01*
X29032Y43922D01*
X29369Y44061D01*
X29628Y44319D01*
X29768Y44656D01*
X29768Y45021D01*
X29768Y43837D01*
X27294Y43837D01*
X27294Y44284D01*
X27373Y44362D01*
X27419Y44475D01*
X27419Y44596D01*
X27373Y44708D01*
X27287Y44794D01*
X27175Y44841D01*
X27053Y44841D01*
X26941Y44795D01*
X26855Y44709D01*
X26809Y44597D01*
X26809Y44475D01*
X26855Y44363D01*
X26934Y44284D01*
X26934Y43837D01*
X26775Y43837D01*
X26775Y44027D01*
X26761Y44096D01*
X26761Y44096D01*
X26722Y44155D01*
X26722Y44155D01*
X26557Y44319D01*
X26557Y45149D01*
X26557Y45232D01*
X26500Y45290D01*
X26239Y45290D01*
X26239Y44930D01*
X26297Y44873D01*
X26373Y44873D01*
X26457Y44908D01*
X26522Y44973D01*
X26557Y45057D01*
X26557Y45149D01*
X26557Y44319D01*
X26374Y44503D01*
X26316Y44542D01*
X26247Y44555D01*
X26100Y44555D01*
X26100Y44930D01*
X26100Y45290D01*
X25839Y45290D01*
X25782Y45232D01*
X25782Y45149D01*
X25782Y45057D01*
X25817Y44973D01*
X25882Y44908D01*
X25966Y44873D01*
X26042Y44873D01*
X26100Y44930D01*
X26100Y44555D01*
X26082Y44555D01*
X26082Y44657D01*
X26063Y44705D01*
X26026Y44742D01*
X25978Y44761D01*
X25926Y44762D01*
X25611Y44762D01*
X25563Y44742D01*
X25527Y44705D01*
X25507Y44657D01*
X25507Y44605D01*
X25507Y44093D01*
X25526Y44045D01*
X25563Y44009D01*
X25611Y43989D01*
X25663Y43989D01*
X25978Y43989D01*
X26026Y44009D01*
X26062Y44045D01*
X26082Y44093D01*
X26082Y44145D01*
X26082Y44195D01*
X26172Y44195D01*
X26414Y43952D01*
X26414Y43837D01*
X25138Y43837D01*
X25138Y45062D01*
X25151Y45029D01*
X25188Y44993D01*
X25236Y44973D01*
X25288Y44973D01*
X25603Y44973D01*
X25651Y44993D01*
X25687Y45029D01*
X25707Y45077D01*
X25707Y45129D01*
X25707Y45641D01*
X25688Y45689D01*
X25651Y45726D01*
X25603Y45746D01*
X25551Y45746D01*
X25288Y45746D01*
X25279Y45755D01*
X25231Y45787D01*
X25858Y45787D01*
X25817Y45746D01*
X25782Y45661D01*
X25782Y45570D01*
X25782Y45486D01*
X25839Y45429D01*
X26100Y45429D01*
X26100Y45437D01*
X26239Y45437D01*
X26239Y45429D01*
X26500Y45429D01*
X26557Y45486D01*
X26557Y45570D01*
X26557Y45661D01*
X26522Y45746D01*
X26481Y45787D01*
X27655Y45787D01*
X27724Y45801D01*
X27782Y45840D01*
X29462Y47520D01*
X29501Y47578D01*
X29515Y47647D01*
X29515Y48332D01*
X30229Y49047D01*
X31235Y49047D01*
X31304Y49061D01*
X31362Y49100D01*
X31822Y49560D01*
X31861Y49618D01*
X31875Y49687D01*
X31875Y50347D01*
X31861Y50416D01*
X31822Y50475D01*
X31385Y50912D01*
X31385Y51133D01*
X31365Y51181D01*
X31328Y51218D01*
X31281Y51237D01*
X31229Y51238D01*
X30779Y51238D01*
X30555Y51462D01*
X30555Y55867D01*
X30541Y55936D01*
X30502Y55995D01*
X30455Y56042D01*
X30535Y56042D01*
X30647Y56088D01*
X30733Y56174D01*
X30780Y56286D01*
X30780Y56398D01*
X31482Y57100D01*
X31521Y57158D01*
X31535Y57227D01*
X31535Y57796D01*
X31613Y57874D01*
X31660Y57986D01*
X31660Y58108D01*
X31613Y58220D01*
X31528Y58306D01*
X31415Y58352D01*
X31294Y58353D01*
X31222Y58323D01*
X31233Y58334D01*
X31280Y58446D01*
X31280Y58568D01*
X31264Y58606D01*
X31341Y58606D01*
X31759Y58187D01*
X31759Y55930D01*
X31339Y55930D01*
X31277Y55992D01*
X31107Y56063D01*
X30924Y56063D01*
X30755Y55993D01*
X30625Y55864D01*
X30555Y55694D01*
X30555Y55511D01*
X30625Y55342D01*
X30754Y55212D01*
X30923Y55142D01*
X31107Y55142D01*
X31276Y55212D01*
X31339Y55275D01*
X32086Y55275D01*
X32371Y55275D01*
X32384Y55243D01*
X32421Y55207D01*
X32468Y55187D01*
X32520Y55187D01*
X32567Y55187D01*
X32567Y54621D01*
X32458Y54730D01*
X32399Y54769D01*
X32330Y54783D01*
X31439Y54783D01*
X31406Y54863D01*
X31277Y54992D01*
X31107Y55063D01*
X30924Y55063D01*
X30755Y54993D01*
X30625Y54864D01*
X30555Y54694D01*
X30555Y54511D01*
X30625Y54342D01*
X30754Y54212D01*
X30923Y54142D01*
X31107Y54142D01*
X31276Y54212D01*
X31405Y54341D01*
X31439Y54422D01*
X31840Y54422D01*
X31802Y54406D01*
X31716Y54320D01*
X31669Y54208D01*
X31669Y54087D01*
X31716Y53974D01*
X31794Y53896D01*
X31794Y52682D01*
X31476Y52364D01*
X31476Y53135D01*
X31406Y53304D01*
X31277Y53433D01*
X31107Y53504D01*
X30924Y53504D01*
X30755Y53434D01*
X30625Y53304D01*
X30555Y53135D01*
X30555Y52952D01*
X30625Y52783D01*
X30754Y52653D01*
X30923Y52583D01*
X31107Y52583D01*
X31276Y52653D01*
X31405Y52782D01*
X31476Y52951D01*
X31476Y53135D01*
X31476Y52364D01*
X31409Y52297D01*
X31406Y52304D01*
X31277Y52433D01*
X31107Y52504D01*
X30924Y52504D01*
X30755Y52434D01*
X30625Y52304D01*
X30555Y52135D01*
X30555Y51952D01*
X30625Y51783D01*
X30754Y51653D01*
X30923Y51583D01*
X31107Y51583D01*
X31276Y51653D01*
X31405Y51782D01*
X31442Y51869D01*
X31480Y51877D01*
X31538Y51916D01*
X32102Y52480D01*
X32102Y52480D01*
X32102Y52480D01*
X32141Y52538D01*
X32141Y52538D01*
X32152Y52593D01*
X32155Y52607D01*
X32155Y52607D01*
X32155Y52607D01*
X32155Y53896D01*
X32233Y53974D01*
X32276Y54077D01*
X32276Y52807D01*
X32290Y52738D01*
X32329Y52680D01*
X32530Y52479D01*
X32530Y52479D01*
X32588Y52440D01*
X32588Y52440D01*
X32657Y52426D01*
X32657Y52426D01*
X33564Y52426D01*
X33633Y52440D01*
X33691Y52479D01*
X34239Y53027D01*
X34840Y53027D01*
X34888Y53047D01*
X34925Y53083D01*
X34945Y53131D01*
X34945Y53183D01*
X34945Y53783D01*
X34925Y53831D01*
X34888Y53868D01*
X34841Y53887D01*
X34789Y53888D01*
X33989Y53888D01*
X33941Y53868D01*
X33904Y53831D01*
X33884Y53783D01*
X33884Y53731D01*
X33884Y53182D01*
X33489Y52787D01*
X32986Y52787D01*
X33053Y52854D01*
X33100Y52966D01*
X33100Y53078D01*
X34362Y54340D01*
X34401Y54398D01*
X34401Y54398D01*
X34415Y54467D01*
X34415Y54536D01*
X34493Y54614D01*
X34540Y54726D01*
X34540Y54848D01*
X34493Y54960D01*
X34408Y55046D01*
X34295Y55092D01*
X34174Y55093D01*
X34062Y55046D01*
X33976Y54960D01*
X33929Y54848D01*
X33929Y54727D01*
X33976Y54614D01*
X34051Y54539D01*
X33481Y53968D01*
X33459Y54074D01*
X33389Y54180D01*
X33222Y54347D01*
X33222Y55187D01*
X33320Y55187D01*
X33368Y55207D01*
X33405Y55243D01*
X33424Y55290D01*
X33784Y55290D01*
X33784Y55271D01*
X33804Y55223D01*
X33841Y55187D01*
X33888Y55167D01*
X33940Y55167D01*
X34740Y55167D01*
X34788Y55187D01*
X34825Y55223D01*
X34845Y55271D01*
X34845Y55323D01*
X34845Y55923D01*
X34825Y55971D01*
X34788Y56008D01*
X34741Y56027D01*
X34689Y56028D01*
X33889Y56028D01*
X33841Y56008D01*
X33804Y55971D01*
X33793Y55944D01*
X33424Y55944D01*
X33405Y55991D01*
X33368Y56028D01*
X33321Y56047D01*
X33269Y56048D01*
X32469Y56048D01*
X32421Y56028D01*
X32413Y56020D01*
X32413Y56514D01*
X32421Y56507D01*
X32468Y56487D01*
X32520Y56487D01*
X33320Y56487D01*
X33368Y56507D01*
X33405Y56543D01*
X33425Y56591D01*
X33425Y56643D01*
X33425Y57243D01*
X33405Y57291D01*
X33368Y57328D01*
X33321Y57347D01*
X33269Y57348D01*
X32469Y57348D01*
X32421Y57328D01*
X32413Y57320D01*
X32413Y58323D01*
X32389Y58448D01*
X32318Y58554D01*
X32190Y58682D01*
X32205Y58682D01*
X33784Y57103D01*
X33784Y56571D01*
X33804Y56523D01*
X33841Y56487D01*
X33888Y56467D01*
X33940Y56467D01*
X34740Y56467D01*
X34788Y56487D01*
X34825Y56523D01*
X34845Y56571D01*
X34845Y56623D01*
X34845Y57223D01*
X34825Y57271D01*
X34788Y57308D01*
X34741Y57327D01*
X34689Y57328D01*
X34069Y57328D01*
X32835Y58562D01*
X32955Y58562D01*
X33067Y58608D01*
X33153Y58694D01*
X33200Y58806D01*
X33200Y58928D01*
X33153Y59040D01*
X33075Y59119D01*
X33075Y59632D01*
X33669Y59037D01*
X33669Y58927D01*
X33716Y58814D01*
X33801Y58728D01*
X33914Y58682D01*
X34035Y58682D01*
X34147Y58728D01*
X34233Y58814D01*
X34280Y58926D01*
X34280Y59048D01*
X34233Y59160D01*
X34148Y59246D01*
X34035Y59292D01*
X33924Y59293D01*
X33315Y59902D01*
X33315Y60587D01*
X33315Y60587D01*
X33315Y60587D01*
X33312Y60601D01*
X33301Y60656D01*
X33301Y60656D01*
X33262Y60715D01*
X33262Y60715D01*
X32142Y61835D01*
X32084Y61874D01*
X32015Y61887D01*
X30126Y61887D01*
X30048Y61966D01*
X29935Y62012D01*
X29814Y62013D01*
X29702Y61966D01*
X29616Y61880D01*
X29569Y61768D01*
X29569Y61647D01*
X29616Y61534D01*
X29701Y61448D01*
X29814Y61402D01*
X29935Y61402D01*
X30047Y61448D01*
X30126Y61527D01*
X31940Y61527D01*
X32005Y61461D01*
X31975Y61467D01*
X31115Y61467D01*
X31045Y61454D01*
X30987Y61415D01*
X30945Y61372D01*
X30834Y61373D01*
X30722Y61326D01*
X30636Y61240D01*
X30589Y61128D01*
X30589Y61007D01*
X30636Y60894D01*
X30721Y60808D01*
X30834Y60762D01*
X30955Y60762D01*
X31067Y60808D01*
X31153Y60894D01*
X31200Y61006D01*
X31200Y61107D01*
X31900Y61107D01*
X32069Y60937D01*
X31870Y61020D01*
X31505Y61020D01*
X31168Y60881D01*
X30909Y60623D01*
X30769Y60286D01*
X30769Y59921D01*
X30799Y59849D01*
X30507Y60140D01*
X30527Y60148D01*
X30613Y60234D01*
X30660Y60346D01*
X30660Y60468D01*
X30613Y60580D01*
X30528Y60666D01*
X30415Y60712D01*
X30304Y60713D01*
X27562Y63455D01*
X27504Y63494D01*
X27435Y63507D01*
X24295Y63507D01*
X24295Y63813D01*
X24295Y64613D01*
X24275Y64661D01*
X24238Y64698D01*
X24191Y64717D01*
X24139Y64718D01*
X23539Y64718D01*
X23491Y64698D01*
X23454Y64661D01*
X23434Y64613D01*
X23434Y64561D01*
X23434Y63761D01*
X23454Y63713D01*
X23491Y63677D01*
X23538Y63657D01*
X23590Y63657D01*
X24190Y63657D01*
X24238Y63677D01*
X24275Y63713D01*
X24295Y63761D01*
X24295Y63813D01*
X24295Y63507D01*
X22335Y63507D01*
X22265Y63494D01*
X22207Y63455D01*
X21420Y62667D01*
X21420Y62748D01*
X21373Y62860D01*
X21295Y62939D01*
X21295Y63572D01*
X21729Y64007D01*
X22134Y64007D01*
X22134Y63761D01*
X22154Y63713D01*
X22191Y63677D01*
X22238Y63657D01*
X22290Y63657D01*
X22890Y63657D01*
X22938Y63677D01*
X22975Y63713D01*
X22995Y63761D01*
X22995Y63813D01*
X22995Y64613D01*
X22975Y64661D01*
X22938Y64698D01*
X22891Y64717D01*
X22839Y64718D01*
X22239Y64718D01*
X22191Y64698D01*
X22154Y64661D01*
X22134Y64613D01*
X22134Y64561D01*
X22134Y64367D01*
X21655Y64367D01*
X21585Y64354D01*
X21527Y64315D01*
X20987Y63775D01*
X20948Y63716D01*
X20934Y63647D01*
X20934Y62939D01*
X20856Y62860D01*
X20809Y62748D01*
X20809Y62627D01*
X20856Y62514D01*
X20941Y62428D01*
X21054Y62382D01*
X21134Y62382D01*
X20964Y62212D01*
X20806Y62146D01*
X20677Y62017D01*
X20643Y61936D01*
X17103Y61936D01*
X17034Y61923D01*
X16976Y61883D01*
X15243Y60151D01*
X15204Y60092D01*
X15190Y60023D01*
X15190Y59337D01*
X14735Y59337D01*
X14980Y59582D01*
X15120Y59919D01*
X15120Y60284D01*
X14981Y60622D01*
X14723Y60880D01*
X14386Y61020D01*
X14020Y61020D01*
X13683Y60881D01*
X13425Y60623D01*
X13285Y60286D01*
X13284Y59921D01*
X13424Y59583D01*
X13669Y59337D01*
X11376Y59337D01*
X12599Y61539D01*
X14843Y63783D01*
X18085Y65528D01*
X22826Y66526D01*
X24569Y66277D01*
X27065Y65778D01*
X29310Y64781D01*
X31554Y63284D01*
X33550Y61039D01*
X34797Y59045D01*
X35544Y56553D01*
X35544Y48837D01*
G54D10*
G36*
X22532Y40564D02*
X22440Y40472D01*
X22440Y40488D01*
X22383Y40546D01*
X21906Y40546D01*
X21906Y40508D01*
X21766Y40508D01*
X21766Y40546D01*
X21289Y40546D01*
X21232Y40488D01*
X21232Y40460D01*
X21267Y40375D01*
X21331Y40311D01*
X21416Y40275D01*
X21508Y40275D01*
X21709Y40275D01*
X21766Y40333D01*
X21766Y40275D01*
X21766Y40275D01*
X21796Y40275D01*
X21766Y40246D01*
X21200Y39679D01*
X20205Y39679D01*
X20163Y39780D01*
X20117Y39827D01*
X20165Y39827D01*
X20234Y39841D01*
X20292Y39880D01*
X21318Y40905D01*
X21332Y40905D01*
X21332Y40890D01*
X21332Y40861D01*
X21331Y40861D01*
X21267Y40796D01*
X21232Y40711D01*
X21232Y40683D01*
X21289Y40626D01*
X21435Y40626D01*
X21436Y40625D01*
X21488Y40625D01*
X22236Y40625D01*
X22237Y40626D01*
X22383Y40626D01*
X22412Y40655D01*
X22515Y40655D01*
X22532Y40638D01*
X22532Y40564D01*
X22532Y40564D01*
G37*
G54D27*
X22532Y40564D02*
X22440Y40472D01*
X22440Y40488D01*
X22383Y40546D01*
X21906Y40546D01*
X21906Y40508D01*
X21766Y40508D01*
X21766Y40546D01*
X21289Y40546D01*
X21232Y40488D01*
X21232Y40460D01*
X21267Y40375D01*
X21331Y40311D01*
X21416Y40275D01*
X21508Y40275D01*
X21709Y40275D01*
X21766Y40333D01*
X21766Y40275D01*
X21766Y40275D01*
X21796Y40275D01*
X21766Y40246D01*
X21200Y39679D01*
X20205Y39679D01*
X20163Y39780D01*
X20117Y39827D01*
X20165Y39827D01*
X20234Y39841D01*
X20292Y39880D01*
X21318Y40905D01*
X21332Y40905D01*
X21332Y40890D01*
X21332Y40861D01*
X21331Y40861D01*
X21267Y40796D01*
X21232Y40711D01*
X21232Y40683D01*
X21289Y40626D01*
X21435Y40626D01*
X21436Y40625D01*
X21488Y40625D01*
X22236Y40625D01*
X22237Y40626D01*
X22383Y40626D01*
X22412Y40655D01*
X22515Y40655D01*
X22532Y40638D01*
X22532Y40564D01*
G54D10*
G36*
X25149Y42216D02*
X25121Y42284D01*
X25035Y42370D01*
X24923Y42417D01*
X24801Y42417D01*
X24689Y42370D01*
X24658Y42339D01*
X24658Y42339D01*
X24658Y42405D01*
X24630Y42405D01*
X24658Y42433D01*
X24658Y42461D01*
X24623Y42546D01*
X24558Y42611D01*
X24473Y42646D01*
X24382Y42646D01*
X24181Y42646D01*
X24123Y42588D01*
X24123Y42376D01*
X24131Y42376D01*
X24131Y42296D01*
X23976Y42296D01*
X23976Y42376D01*
X23984Y42376D01*
X23984Y42588D01*
X23926Y42646D01*
X23725Y42646D01*
X23633Y42646D01*
X23549Y42611D01*
X23484Y42546D01*
X23462Y42494D01*
X23462Y42495D01*
X23404Y42534D01*
X23335Y42547D01*
X22875Y42547D01*
X22805Y42534D01*
X22747Y42495D01*
X22649Y42396D01*
X22649Y42532D01*
X22727Y42610D01*
X22773Y42723D01*
X22774Y42777D01*
X22811Y42777D01*
X22876Y42750D01*
X22997Y42750D01*
X23060Y42776D01*
X23099Y42682D01*
X23185Y42596D01*
X23297Y42549D01*
X23418Y42549D01*
X23531Y42595D01*
X23617Y42681D01*
X23656Y42777D01*
X24729Y42777D01*
X25149Y42357D01*
X25149Y42216D01*
X25149Y42216D01*
G37*
G54D27*
X25149Y42216D02*
X25121Y42284D01*
X25035Y42370D01*
X24923Y42417D01*
X24801Y42417D01*
X24689Y42370D01*
X24658Y42339D01*
X24658Y42339D01*
X24658Y42405D01*
X24630Y42405D01*
X24658Y42433D01*
X24658Y42461D01*
X24623Y42546D01*
X24558Y42611D01*
X24473Y42646D01*
X24382Y42646D01*
X24181Y42646D01*
X24123Y42588D01*
X24123Y42376D01*
X24131Y42376D01*
X24131Y42296D01*
X23976Y42296D01*
X23976Y42376D01*
X23984Y42376D01*
X23984Y42588D01*
X23926Y42646D01*
X23725Y42646D01*
X23633Y42646D01*
X23549Y42611D01*
X23484Y42546D01*
X23462Y42494D01*
X23462Y42495D01*
X23404Y42534D01*
X23335Y42547D01*
X22875Y42547D01*
X22805Y42534D01*
X22747Y42495D01*
X22649Y42396D01*
X22649Y42532D01*
X22727Y42610D01*
X22773Y42723D01*
X22774Y42777D01*
X22811Y42777D01*
X22876Y42750D01*
X22997Y42750D01*
X23060Y42776D01*
X23099Y42682D01*
X23185Y42596D01*
X23297Y42549D01*
X23418Y42549D01*
X23531Y42595D01*
X23617Y42681D01*
X23656Y42777D01*
X24729Y42777D01*
X25149Y42357D01*
X25149Y42216D01*
G54D10*
G36*
X27284Y40738D02*
X27139Y40738D01*
X27091Y40718D01*
X27054Y40681D01*
X27034Y40633D01*
X27034Y40581D01*
X27034Y40032D01*
X26230Y39227D01*
X23982Y39227D01*
X23845Y39227D01*
X23876Y39258D01*
X23832Y39302D01*
X23919Y39332D01*
X23982Y39533D01*
X23963Y39743D01*
X23919Y39849D01*
X23832Y39879D01*
X23543Y39591D01*
X23549Y39585D01*
X23450Y39487D01*
X23445Y39492D01*
X23439Y39487D01*
X23340Y39585D01*
X23346Y39591D01*
X23340Y39596D01*
X23439Y39695D01*
X23445Y39689D01*
X23701Y39946D01*
X23707Y39948D01*
X23793Y40034D01*
X23840Y40146D01*
X23840Y40268D01*
X23795Y40375D01*
X24453Y40375D01*
X24501Y40395D01*
X24511Y40405D01*
X24897Y40405D01*
X25078Y40224D01*
X25078Y40089D01*
X25058Y40068D01*
X24987Y39962D01*
X24962Y39837D01*
X24962Y39587D01*
X24987Y39462D01*
X25058Y39356D01*
X25164Y39285D01*
X25290Y39260D01*
X25415Y39285D01*
X25521Y39356D01*
X25592Y39462D01*
X25617Y39587D01*
X25617Y39702D01*
X25707Y39792D01*
X25707Y39792D01*
X25707Y39792D01*
X25734Y39832D01*
X25734Y39781D01*
X25754Y39733D01*
X25791Y39697D01*
X25838Y39677D01*
X25890Y39677D01*
X26490Y39677D01*
X26538Y39697D01*
X26575Y39733D01*
X26595Y39781D01*
X26595Y39833D01*
X26595Y40633D01*
X26575Y40681D01*
X26570Y40686D01*
X27021Y40686D01*
X27069Y40706D01*
X27106Y40742D01*
X27126Y40790D01*
X27126Y40842D01*
X27126Y41354D01*
X27106Y41402D01*
X27069Y41439D01*
X27049Y41447D01*
X27069Y41456D01*
X27106Y41492D01*
X27126Y41540D01*
X27126Y41592D01*
X27126Y42104D01*
X27106Y42152D01*
X27069Y42189D01*
X27022Y42208D01*
X26970Y42209D01*
X26380Y42209D01*
X26332Y42189D01*
X26295Y42152D01*
X26275Y42104D01*
X26275Y42052D01*
X26275Y41540D01*
X26295Y41492D01*
X26332Y41456D01*
X26352Y41447D01*
X26332Y41439D01*
X26295Y41402D01*
X26275Y41354D01*
X26275Y41302D01*
X26275Y40790D01*
X26295Y40742D01*
X26300Y40738D01*
X25839Y40738D01*
X25803Y40723D01*
X25803Y42492D01*
X25803Y42492D01*
X25803Y42492D01*
X25798Y42517D01*
X25778Y42617D01*
X25778Y42617D01*
X25707Y42724D01*
X25707Y42724D01*
X25654Y42777D01*
X26550Y42777D01*
X27284Y42042D01*
X27284Y40738D01*
X27284Y40738D01*
G37*
G54D27*
X27284Y40738D02*
X27139Y40738D01*
X27091Y40718D01*
X27054Y40681D01*
X27034Y40633D01*
X27034Y40581D01*
X27034Y40032D01*
X26230Y39227D01*
X23982Y39227D01*
X23845Y39227D01*
X23876Y39258D01*
X23832Y39302D01*
X23919Y39332D01*
X23982Y39533D01*
X23963Y39743D01*
X23919Y39849D01*
X23832Y39879D01*
X23543Y39591D01*
X23549Y39585D01*
X23450Y39487D01*
X23445Y39492D01*
X23439Y39487D01*
X23340Y39585D01*
X23346Y39591D01*
X23340Y39596D01*
X23439Y39695D01*
X23445Y39689D01*
X23701Y39946D01*
X23707Y39948D01*
X23793Y40034D01*
X23840Y40146D01*
X23840Y40268D01*
X23795Y40375D01*
X24453Y40375D01*
X24501Y40395D01*
X24511Y40405D01*
X24897Y40405D01*
X25078Y40224D01*
X25078Y40089D01*
X25058Y40068D01*
X24987Y39962D01*
X24962Y39837D01*
X24962Y39587D01*
X24987Y39462D01*
X25058Y39356D01*
X25164Y39285D01*
X25290Y39260D01*
X25415Y39285D01*
X25521Y39356D01*
X25592Y39462D01*
X25617Y39587D01*
X25617Y39702D01*
X25707Y39792D01*
X25707Y39792D01*
X25707Y39792D01*
X25734Y39832D01*
X25734Y39781D01*
X25754Y39733D01*
X25791Y39697D01*
X25838Y39677D01*
X25890Y39677D01*
X26490Y39677D01*
X26538Y39697D01*
X26575Y39733D01*
X26595Y39781D01*
X26595Y39833D01*
X26595Y40633D01*
X26575Y40681D01*
X26570Y40686D01*
X27021Y40686D01*
X27069Y40706D01*
X27106Y40742D01*
X27126Y40790D01*
X27126Y40842D01*
X27126Y41354D01*
X27106Y41402D01*
X27069Y41439D01*
X27049Y41447D01*
X27069Y41456D01*
X27106Y41492D01*
X27126Y41540D01*
X27126Y41592D01*
X27126Y42104D01*
X27106Y42152D01*
X27069Y42189D01*
X27022Y42208D01*
X26970Y42209D01*
X26380Y42209D01*
X26332Y42189D01*
X26295Y42152D01*
X26275Y42104D01*
X26275Y42052D01*
X26275Y41540D01*
X26295Y41492D01*
X26332Y41456D01*
X26352Y41447D01*
X26332Y41439D01*
X26295Y41402D01*
X26275Y41354D01*
X26275Y41302D01*
X26275Y40790D01*
X26295Y40742D01*
X26300Y40738D01*
X25839Y40738D01*
X25803Y40723D01*
X25803Y42492D01*
X25803Y42492D01*
X25803Y42492D01*
X25798Y42517D01*
X25778Y42617D01*
X25778Y42617D01*
X25707Y42724D01*
X25707Y42724D01*
X25654Y42777D01*
X26550Y42777D01*
X27284Y42042D01*
X27284Y40738D01*
M02*
