M48
;DRILL file {Pcbnew (2013-07-07 BZR 4022)-stable} date 05/07/2015 12:07:21 p. m.
;FORMAT={2:4/ absolute / inch / keep zeros}
FMAT,2
INCH,TZ
T1C0.025
T2C0.032
T3C0.040
T4C0.157
%
G90
G05
M72
T1
X013355Y050879
X013355Y050879
X014495Y057428
X014495Y057428
X015515Y049588
X015515Y049588
X016075Y053278
X016075Y053278
X016495Y059328
X016495Y059328
X016715Y052548
X016715Y052548
X017255Y060488
X017255Y060488
X017508Y049367
X017508Y049367
X018335Y047808
X018335Y047808
X018337Y044920
X018715Y049588
X018715Y049588
X019215Y046428
X019215Y046428
X019231Y041057
X019231Y041057
X019635Y046768
X019713Y050733
X019713Y050733
X019715Y049268
X019715Y049268
X019875Y062348
X019875Y062348
X019895Y047208
X019905Y039608
X019905Y039608
X020499Y045726
X020585Y039874
X020585Y039874
X020943Y042084
X020943Y042084
X021035Y060368
X021035Y060368
X021115Y062688
X021115Y062688
X021255Y044799
X021902Y049819
X021902Y049819
X022469Y042784
X022469Y042784
X022495Y047808
X022495Y047808
X022515Y046288
X022515Y046288
X022555Y058188
X022555Y058188
X022915Y054088
X022915Y054088
X022937Y043056
X022937Y043056
X022941Y041245
X023047Y046284
X023155Y041928
X023255Y051568
X023255Y051568
X023358Y042855
X023358Y042855
X023512Y046319
X023512Y046319
X023535Y040208
X023615Y049948
X023615Y049948
X023866Y064178
X023866Y064178
X024075Y050088
X024075Y050088
X024099Y042758
X024099Y042758
X024135Y054368
X024135Y054368
X024255Y057068
X024255Y057068
X024575Y046888
X024575Y046888
X024744Y050808
X024744Y050808
X024775Y055848
X024775Y055848
X024811Y045146
X024811Y045146
X024835Y047280
X024835Y047280
X024835Y051668
X024835Y051668
X024835Y046408
X024835Y046408
X024862Y042112
X024862Y042112
X025001Y041036
X025001Y041036
X025290Y039588
X025290Y039588
X025555Y054408
X025555Y054408
X025615Y049408
X025615Y049408
X025635Y043665
X025695Y050088
X025695Y050088
X025695Y048508
X025695Y048508
X025732Y051131
X025732Y051131
X025755Y047568
X025755Y047568
X025955Y054888
X025955Y054888
X026035Y058438
X026035Y058438
X026055Y059788
X026055Y059788
X026575Y044828
X026700Y052668
X026700Y052668
X026701Y041823
X026701Y041823
X026701Y041073
X026701Y041073
X027091Y043111
X027091Y043111
X027114Y046898
X027114Y046898
X027114Y044536
X027114Y044536
X027450Y052668
X027450Y052668
X027815Y048348
X027815Y048348
X027895Y049388
X027895Y049388
X027955Y050308
X027955Y050308
X027975Y051148
X027975Y051148
X028855Y060428
X028855Y060428
X029142Y052812
X029142Y052812
X029695Y052948
X029695Y052948
X029755Y047528
X029755Y047528
X029875Y061708
X029875Y061708
X030189Y059174
X030189Y059174
X030355Y060408
X030355Y060408
X030475Y056348
X030475Y056348
X030895Y061068
X030895Y061068
X030975Y058508
X030975Y058508
X031355Y058048
X031355Y058048
X031975Y054148
X031975Y054148
X032155Y058988
X032155Y058988
X032275Y049388
X032275Y049388
X032618Y050634
X032618Y050634
X032795Y053028
X032795Y053028
X032895Y058868
X032895Y058868
X032915Y056948
X032915Y056948
X033158Y053949
X033158Y053949
X033975Y058988
X033975Y058988
X034235Y054788
X034235Y054788
X034755Y049888
X034755Y049888
T2
X014874Y055603
X014874Y054603
X014874Y053044
X014874Y052044
X015371Y057659
X016037Y058405
X017173Y059744
X017989Y060327
X021067Y061756
X022067Y061756
X023823Y061756
X024823Y061756
X027901Y060327
X028717Y059744
X029853Y058405
X030519Y057659
X031016Y055603
X031016Y054603
X031016Y053044
X031016Y052044
T3
X021381Y052138
X022381Y052138
X022445Y039591
X023381Y052138
X023445Y039591
X024381Y052138
X027295Y056888
X027295Y055888
X027295Y054888
X027295Y053888
X028295Y056888
X028295Y055888
X028295Y054888
X028295Y053888
X028955Y050808
X028955Y049808
X029575Y056888
X029575Y055888
X029575Y054888
X029575Y053888
X029955Y050808
X029955Y049808
X030955Y050808
X030955Y049808
T4
X014203Y060103
X017040Y044839
X017040Y041036
X028851Y044840
X028851Y041037
X031687Y060103
T0
M30
