M48
;DRILL file {Pcbnew (2013-07-07 BZR 4022)-stable} date 23/08/2016 11:15:12 p. m.
;FORMAT={2:4/ absolute / inch / keep zeros}
FMAT,2
INCH,TZ
T1C0.025
T2C0.032
T3C0.040
T4C0.157
%
G90
G05
M72
T1
X025055Y042579
X025055Y042579
X026195Y049128
X026195Y049128
X027215Y041288
X027215Y041288
X027775Y044978
X027775Y044978
X028195Y051028
X028195Y051028
X028415Y044248
X028415Y044248
X028955Y052188
X028955Y052188
X029208Y041067
X029208Y041067
X030035Y039508
X030035Y039508
X030415Y041288
X030415Y041288
X030915Y038128
X030915Y038128
X030931Y032757
X030931Y032757
X031413Y042433
X031413Y042433
X031415Y040968
X031415Y040968
X031575Y054048
X031575Y054048
X031605Y031308
X031605Y031308
X031615Y038748
X031615Y038748
X032285Y031574
X032285Y031574
X032643Y033784
X032643Y033784
X032671Y032532
X032671Y032532
X032735Y052068
X032735Y052068
X032815Y054388
X032815Y054388
X033602Y041519
X033602Y041519
X034169Y034484
X034169Y034484
X034195Y039508
X034195Y039508
X034215Y037988
X034215Y037988
X034255Y049888
X034255Y049888
X034615Y045788
X034615Y045788
X034637Y034756
X034637Y034756
X034641Y032945
X034641Y032945
X034747Y037984
X034747Y037984
X034955Y043268
X034955Y043268
X035058Y034555
X035058Y034555
X035102Y032949
X035102Y032949
X035212Y038019
X035212Y038019
X035315Y041648
X035315Y041648
X035566Y055878
X035566Y055878
X035582Y031779
X035582Y031779
X035775Y041788
X035775Y041788
X035799Y034458
X035799Y034458
X035835Y046068
X035835Y046068
X035955Y048768
X035955Y048768
X036275Y038588
X036275Y038588
X036444Y042508
X036444Y042508
X036475Y047548
X036475Y047548
X036511Y036846
X036511Y036846
X036535Y038980
X036535Y038980
X036535Y043368
X036535Y043368
X036535Y038108
X036535Y038108
X036562Y033812
X036562Y033812
X036701Y032736
X036701Y032736
X036990Y031288
X036990Y031288
X037255Y046108
X037255Y046108
X037315Y041108
X037315Y041108
X037335Y035365
X037335Y035365
X037395Y041788
X037395Y041788
X037395Y040208
X037395Y040208
X037432Y042831
X037432Y042831
X037455Y039268
X037455Y039268
X037655Y046588
X037655Y046588
X037735Y050138
X037735Y050138
X037755Y051488
X037755Y051488
X038400Y044368
X038400Y044368
X038401Y033523
X038401Y033523
X038401Y032773
X038401Y032773
X038791Y034811
X038791Y034811
X038814Y038598
X038814Y038598
X038814Y036236
X038814Y036236
X039150Y044368
X039150Y044368
X039515Y040048
X039515Y040048
X039595Y041088
X039595Y041088
X039655Y042008
X039655Y042008
X039675Y042848
X039675Y042848
X040555Y052128
X040555Y052128
X040842Y044512
X040842Y044512
X041395Y044648
X041395Y044648
X041455Y039228
X041455Y039228
X041575Y053408
X041575Y053408
X041889Y050874
X041889Y050874
X042055Y052108
X042055Y052108
X042175Y048048
X042175Y048048
X042595Y052768
X042595Y052768
X042675Y050208
X042675Y050208
X043055Y049748
X043055Y049748
X043675Y045848
X043675Y045848
X043855Y050688
X043855Y050688
X043975Y041088
X043975Y041088
X044318Y042334
X044318Y042334
X044495Y044728
X044495Y044728
X044595Y050568
X044595Y050568
X044615Y048648
X044615Y048648
X044858Y045649
X044858Y045649
X045675Y050688
X045675Y050688
X045935Y046488
X045935Y046488
X046455Y041588
X046455Y041588
T2
X026574Y047303
X026574Y046303
X026574Y044744
X026574Y043744
X027071Y049359
X027737Y050105
X028873Y051444
X029689Y052027
X032767Y053456
X033767Y053456
X035523Y053456
X036523Y053456
X039601Y052027
X040417Y051444
X041553Y050105
X042219Y049359
X042716Y047303
X042716Y046303
X042716Y044744
X042716Y043744
T3
X033081Y043838
X034081Y043838
X034145Y031291
X035081Y043838
X035145Y031291
X036081Y043838
X038995Y048588
X038995Y047588
X038995Y046588
X038995Y045588
X039995Y048588
X039995Y047588
X039995Y046588
X039995Y045588
X040655Y042508
X040655Y041508
X041275Y048588
X041275Y047588
X041275Y046588
X041275Y045588
X041655Y042508
X041655Y041508
X042655Y042508
X042655Y041508
T4
X025903Y051803
X028740Y036539
X028740Y032736
X040551Y036540
X040551Y032737
X043387Y051803
T0
M30
