M48
;DRILL file {Pcbnew (2013-07-07 BZR 4022)-stable} date 05/07/2015 5:47:19 p. m.
;FORMAT={2:4/ absolute / inch / keep zeros}
FMAT,2
INCH,TZ
T1C0.025
T2C0.032
T3C0.039
T4C0.040
%
G90
G05
M72
T1
X020212Y013470
X020752Y014988
X020885Y016994
X021018Y014616
X021114Y016280
X022932Y014188
X023902Y013644
X023916Y017191
X024034Y015744
X024034Y015024
X024874Y015408
X025126Y013932
T2
X019960Y016919
X019960Y013919
T3
X017940Y017060
X017940Y016060
T4
X017206Y014854
X017206Y013854
X018256Y014854
X018256Y013854
T0
M30
