G04 (created by PCBNEW (2013-07-07 BZR 4022)-stable) date 05/07/2015 5:47:00 p. m.*
%MOIN*%
G04 Gerber Fmt 3.4, Leading zero omitted, Abs format*
%FSLAX34Y34*%
G01*
G70*
G90*
G04 APERTURE LIST*
%ADD10C,0.00590551*%
%ADD11C,0.011811*%
%ADD12R,0.06X0.08*%
%ADD13R,0.08X0.06*%
%ADD14O,0.1187X0.0593*%
%ADD15R,0.06X0.06*%
%ADD16C,0.06*%
%ADD17C,0.055*%
%ADD18C,0.035*%
%ADD19C,0.01*%
%ADD20C,0.00606299*%
G04 APERTURE END LIST*
G54D10*
G54D11*
X27726Y14026D02*
X27726Y14401D01*
X27501Y13951D02*
X28288Y14213D01*
X27501Y14476D01*
X27913Y15001D02*
X27913Y14738D01*
X27501Y14738D02*
X28288Y14738D01*
X28288Y15113D01*
X27501Y15863D02*
X27876Y15601D01*
X27501Y15413D02*
X28288Y15413D01*
X28288Y15713D01*
X28251Y15788D01*
X28213Y15826D01*
X28138Y15863D01*
X28026Y15863D01*
X27951Y15826D01*
X27913Y15788D01*
X27876Y15713D01*
X27876Y15413D01*
X27538Y16163D02*
X27501Y16276D01*
X27501Y16463D01*
X27538Y16538D01*
X27576Y16576D01*
X27651Y16613D01*
X27726Y16613D01*
X27801Y16576D01*
X27838Y16538D01*
X27876Y16463D01*
X27913Y16313D01*
X27951Y16238D01*
X27988Y16201D01*
X28063Y16163D01*
X28138Y16163D01*
X28213Y16201D01*
X28251Y16238D01*
X28288Y16313D01*
X28288Y16501D01*
X28251Y16613D01*
G54D12*
X20884Y16993D03*
X22184Y16993D03*
X20884Y13844D03*
X22184Y13844D03*
G54D13*
X19959Y14768D03*
X19959Y16068D03*
G54D14*
X17940Y17060D03*
X17940Y16060D03*
G54D15*
X17206Y13854D03*
G54D16*
X17206Y14854D03*
G54D15*
X18256Y13854D03*
G54D16*
X18256Y14854D03*
G54D17*
X19959Y13918D03*
X19959Y16918D03*
G54D18*
X24034Y15024D03*
X23915Y17190D03*
X20752Y14988D03*
X23902Y13644D03*
X25126Y13932D03*
X21114Y16280D03*
X24874Y15408D03*
X24034Y15744D03*
X20884Y16993D03*
X21018Y14616D03*
X22932Y14188D03*
X20212Y13470D03*
G54D19*
X20511Y16068D02*
X19959Y16068D01*
X21542Y15038D02*
X20511Y16068D01*
X24020Y15038D02*
X21542Y15038D01*
X24034Y15024D02*
X24020Y15038D01*
X19959Y16068D02*
X19959Y16918D01*
X25126Y13932D02*
X25738Y13932D01*
X26070Y14264D02*
X25738Y13932D01*
X26070Y16180D02*
X26070Y14264D01*
X25718Y16532D02*
X26070Y16180D01*
X24374Y16532D02*
X25718Y16532D01*
X23896Y17010D02*
X24374Y16532D01*
X23896Y17171D02*
X23896Y17010D01*
X23896Y17171D02*
X23915Y17190D01*
X20532Y14768D02*
X19959Y14768D01*
X20752Y14988D02*
X20532Y14768D01*
X19959Y14768D02*
X18341Y14768D01*
X18341Y14768D02*
X18256Y14854D01*
X19959Y14768D02*
X19959Y13918D01*
X24838Y13644D02*
X23902Y13644D01*
X25126Y13932D02*
X24838Y13644D01*
X21646Y16280D02*
X21114Y16280D01*
X22524Y15402D02*
X21646Y16280D01*
X24868Y15402D02*
X22524Y15402D01*
X24874Y15408D02*
X24868Y15402D01*
X22670Y16508D02*
X22184Y16993D01*
X23270Y16508D02*
X22670Y16508D01*
X24034Y15744D02*
X23270Y16508D01*
X17206Y13854D02*
X17206Y13922D01*
X17292Y17060D02*
X17940Y17060D01*
X17056Y16824D02*
X17292Y17060D01*
X17056Y15766D02*
X17056Y16824D01*
X17734Y15088D02*
X17056Y15766D01*
X17734Y14450D02*
X17734Y15088D01*
X17206Y13922D02*
X17734Y14450D01*
X20930Y14528D02*
X20930Y13830D01*
X21018Y14616D02*
X20930Y14528D01*
X22574Y13830D02*
X22230Y13830D01*
X22932Y14188D02*
X22574Y13830D01*
X18256Y13854D02*
X18256Y13416D01*
X19846Y13104D02*
X20212Y13470D01*
X18568Y13104D02*
X19846Y13104D01*
X18256Y13416D02*
X18568Y13104D01*
G54D10*
G36*
X30429Y13070D02*
X28578Y13070D01*
X28578Y13787D01*
X28578Y16852D01*
X27179Y16852D01*
X27179Y13787D01*
X28578Y13787D01*
X28578Y13070D01*
X25205Y13070D01*
X25179Y13044D01*
X25179Y15468D01*
X25132Y15580D01*
X25047Y15666D01*
X24934Y15713D01*
X24813Y15713D01*
X24701Y15666D01*
X24616Y15582D01*
X24297Y15582D01*
X24339Y15683D01*
X24339Y15804D01*
X24292Y15916D01*
X24207Y16002D01*
X24094Y16049D01*
X23983Y16049D01*
X23397Y16635D01*
X23339Y16674D01*
X23270Y16688D01*
X22745Y16688D01*
X22614Y16818D01*
X22614Y17419D01*
X22595Y17467D01*
X22558Y17504D01*
X22510Y17523D01*
X22458Y17524D01*
X21858Y17524D01*
X21810Y17504D01*
X21774Y17467D01*
X21754Y17419D01*
X21754Y17367D01*
X21754Y16567D01*
X21774Y16519D01*
X21810Y16483D01*
X21858Y16463D01*
X21910Y16463D01*
X22459Y16463D01*
X22542Y16380D01*
X22542Y16380D01*
X22601Y16341D01*
X22601Y16341D01*
X22670Y16327D01*
X22670Y16327D01*
X23195Y16327D01*
X23728Y15794D01*
X23728Y15683D01*
X23770Y15582D01*
X22598Y15582D01*
X21773Y16407D01*
X21715Y16446D01*
X21646Y16460D01*
X21365Y16460D01*
X21298Y16527D01*
X21314Y16567D01*
X21314Y16619D01*
X21314Y17419D01*
X21295Y17467D01*
X21258Y17504D01*
X21210Y17523D01*
X21158Y17524D01*
X20558Y17524D01*
X20510Y17504D01*
X20474Y17467D01*
X20454Y17419D01*
X20454Y17367D01*
X20454Y16567D01*
X20474Y16519D01*
X20510Y16483D01*
X20558Y16463D01*
X20610Y16463D01*
X20865Y16463D01*
X20855Y16453D01*
X20808Y16340D01*
X20808Y16219D01*
X20855Y16107D01*
X20940Y16021D01*
X21053Y15974D01*
X21174Y15974D01*
X21286Y16021D01*
X21365Y16099D01*
X21571Y16099D01*
X22396Y15274D01*
X22396Y15274D01*
X22454Y15235D01*
X22454Y15235D01*
X22523Y15221D01*
X22524Y15221D01*
X23799Y15221D01*
X23796Y15218D01*
X21616Y15218D01*
X20638Y16196D01*
X20580Y16235D01*
X20511Y16249D01*
X20490Y16249D01*
X20490Y16394D01*
X20470Y16442D01*
X20433Y16479D01*
X20385Y16499D01*
X20334Y16499D01*
X20140Y16499D01*
X20140Y16554D01*
X20189Y16575D01*
X20303Y16689D01*
X20365Y16837D01*
X20365Y16999D01*
X20303Y17148D01*
X20189Y17262D01*
X20040Y17324D01*
X19879Y17324D01*
X19730Y17262D01*
X19616Y17148D01*
X19554Y16999D01*
X19554Y16838D01*
X19616Y16689D01*
X19729Y16575D01*
X19779Y16554D01*
X19779Y16499D01*
X19534Y16499D01*
X19486Y16479D01*
X19449Y16442D01*
X19429Y16394D01*
X19429Y16343D01*
X19429Y15743D01*
X19449Y15695D01*
X19485Y15658D01*
X19533Y15638D01*
X19585Y15638D01*
X20385Y15638D01*
X20433Y15658D01*
X20470Y15694D01*
X20490Y15742D01*
X20490Y15794D01*
X20490Y15834D01*
X21414Y14910D01*
X21414Y14910D01*
X21472Y14871D01*
X21472Y14871D01*
X21541Y14857D01*
X21542Y14857D01*
X23772Y14857D01*
X23775Y14851D01*
X23860Y14765D01*
X23973Y14718D01*
X24094Y14718D01*
X24206Y14765D01*
X24292Y14850D01*
X24339Y14963D01*
X24339Y15084D01*
X24292Y15196D01*
X24268Y15221D01*
X24628Y15221D01*
X24700Y15149D01*
X24813Y15102D01*
X24934Y15102D01*
X25046Y15149D01*
X25132Y15234D01*
X25179Y15347D01*
X25179Y15468D01*
X25179Y13044D01*
X24881Y12744D01*
X23237Y12744D01*
X23237Y14248D01*
X23190Y14360D01*
X23105Y14446D01*
X22992Y14493D01*
X22871Y14493D01*
X22759Y14446D01*
X22673Y14361D01*
X22626Y14248D01*
X22626Y14137D01*
X22614Y14125D01*
X22614Y14269D01*
X22595Y14317D01*
X22558Y14354D01*
X22510Y14374D01*
X22458Y14374D01*
X21858Y14374D01*
X21810Y14354D01*
X21774Y14318D01*
X21754Y14270D01*
X21754Y14218D01*
X21754Y13418D01*
X21774Y13370D01*
X21810Y13333D01*
X21858Y13313D01*
X21910Y13313D01*
X22510Y13313D01*
X22558Y13333D01*
X22595Y13370D01*
X22614Y13418D01*
X22614Y13469D01*
X22614Y13657D01*
X22643Y13663D01*
X22701Y13702D01*
X22881Y13882D01*
X22992Y13882D01*
X23104Y13929D01*
X23190Y14014D01*
X23237Y14127D01*
X23237Y14248D01*
X23237Y12744D01*
X21323Y12744D01*
X21323Y14676D01*
X21276Y14788D01*
X21191Y14874D01*
X21078Y14921D01*
X20957Y14921D01*
X20845Y14874D01*
X20759Y14789D01*
X20712Y14676D01*
X20712Y14555D01*
X20749Y14465D01*
X20749Y14374D01*
X20570Y14374D01*
X20590Y14423D01*
X20590Y15114D01*
X20555Y15199D01*
X20490Y15264D01*
X20405Y15299D01*
X20314Y15299D01*
X20087Y15299D01*
X20029Y15241D01*
X20029Y14838D01*
X20532Y14838D01*
X20590Y14896D01*
X20590Y15114D01*
X20590Y14423D01*
X20590Y14641D01*
X20532Y14699D01*
X20029Y14699D01*
X20029Y14691D01*
X19890Y14691D01*
X19890Y14699D01*
X19890Y14838D01*
X19890Y15241D01*
X19832Y15299D01*
X19605Y15299D01*
X19513Y15299D01*
X19429Y15264D01*
X19364Y15199D01*
X19329Y15114D01*
X19329Y14896D01*
X19387Y14838D01*
X19890Y14838D01*
X19890Y14699D01*
X19387Y14699D01*
X19329Y14641D01*
X19329Y14423D01*
X19364Y14338D01*
X19429Y14273D01*
X19513Y14238D01*
X19551Y14238D01*
X19546Y14233D01*
X19590Y14189D01*
X19505Y14162D01*
X19447Y13970D01*
X19466Y13770D01*
X19505Y13675D01*
X19590Y13648D01*
X19861Y13918D01*
X19855Y13924D01*
X19954Y14023D01*
X19959Y14017D01*
X19965Y14023D01*
X20063Y13924D01*
X20058Y13918D01*
X20063Y13913D01*
X19965Y13814D01*
X19959Y13820D01*
X19861Y13721D01*
X19689Y13549D01*
X19716Y13464D01*
X19896Y13409D01*
X19771Y13284D01*
X18793Y13284D01*
X18793Y14796D01*
X18774Y15006D01*
X18741Y15085D01*
X18741Y15909D01*
X18741Y16210D01*
X18677Y16343D01*
X18677Y17060D01*
X18645Y17223D01*
X18552Y17361D01*
X18414Y17454D01*
X18251Y17486D01*
X17628Y17486D01*
X17465Y17454D01*
X17327Y17361D01*
X17238Y17229D01*
X17222Y17226D01*
X17164Y17187D01*
X16928Y16951D01*
X16889Y16893D01*
X16875Y16824D01*
X16875Y15766D01*
X16889Y15696D01*
X16928Y15638D01*
X17182Y15384D01*
X17053Y15372D01*
X16947Y15328D01*
X16917Y15241D01*
X17206Y14952D01*
X17211Y14958D01*
X17310Y14859D01*
X17304Y14854D01*
X17310Y14848D01*
X17211Y14749D01*
X17206Y14755D01*
X16917Y14466D01*
X16947Y14379D01*
X17148Y14316D01*
X17358Y14335D01*
X17368Y14339D01*
X17313Y14284D01*
X16880Y14284D01*
X16832Y14264D01*
X16795Y14227D01*
X16775Y14180D01*
X16775Y14128D01*
X16775Y13528D01*
X16795Y13480D01*
X16832Y13443D01*
X16879Y13423D01*
X16931Y13423D01*
X17531Y13423D01*
X17579Y13443D01*
X17616Y13480D01*
X17636Y13527D01*
X17636Y13579D01*
X17636Y14097D01*
X17861Y14322D01*
X17900Y14380D01*
X17911Y14434D01*
X17923Y14422D01*
X17967Y14466D01*
X17997Y14379D01*
X18198Y14316D01*
X18408Y14335D01*
X18514Y14379D01*
X18544Y14466D01*
X18256Y14755D01*
X18250Y14749D01*
X18151Y14848D01*
X18157Y14854D01*
X17912Y15099D01*
X17900Y15157D01*
X17861Y15215D01*
X17528Y15548D01*
X17573Y15533D01*
X17870Y15533D01*
X17870Y15990D01*
X17862Y15990D01*
X17862Y16129D01*
X17870Y16129D01*
X17870Y16586D01*
X17573Y16586D01*
X17377Y16520D01*
X17236Y16396D01*
X17236Y16749D01*
X17294Y16807D01*
X17327Y16758D01*
X17465Y16665D01*
X17628Y16633D01*
X18251Y16633D01*
X18414Y16665D01*
X18552Y16758D01*
X18645Y16896D01*
X18677Y17060D01*
X18677Y16343D01*
X18658Y16383D01*
X18502Y16520D01*
X18306Y16586D01*
X18009Y16586D01*
X18009Y16129D01*
X18701Y16129D01*
X18741Y16210D01*
X18741Y15909D01*
X18701Y15990D01*
X18009Y15990D01*
X18009Y15533D01*
X18306Y15533D01*
X18502Y15599D01*
X18658Y15736D01*
X18741Y15909D01*
X18741Y15085D01*
X18730Y15112D01*
X18643Y15142D01*
X18544Y15044D01*
X18544Y15241D01*
X18514Y15328D01*
X18313Y15391D01*
X18103Y15372D01*
X17997Y15328D01*
X17967Y15241D01*
X18256Y14952D01*
X18544Y15241D01*
X18544Y15044D01*
X18354Y14854D01*
X18643Y14565D01*
X18730Y14595D01*
X18793Y14796D01*
X18793Y13284D01*
X18642Y13284D01*
X18503Y13423D01*
X18581Y13423D01*
X18629Y13443D01*
X18666Y13480D01*
X18686Y13527D01*
X18686Y13579D01*
X18686Y14179D01*
X18666Y14227D01*
X18629Y14264D01*
X18582Y14284D01*
X18544Y14284D01*
X18530Y14284D01*
X17930Y14284D01*
X17882Y14264D01*
X17845Y14227D01*
X17825Y14180D01*
X17825Y14128D01*
X17825Y13528D01*
X17845Y13480D01*
X17882Y13443D01*
X17929Y13423D01*
X17981Y13423D01*
X18075Y13423D01*
X18075Y13416D01*
X18089Y13346D01*
X18128Y13288D01*
X18440Y12976D01*
X18440Y12976D01*
X18498Y12937D01*
X18498Y12937D01*
X18567Y12923D01*
X18568Y12923D01*
X19846Y12923D01*
X19915Y12937D01*
X19973Y12976D01*
X20161Y13164D01*
X20272Y13164D01*
X20384Y13211D01*
X20470Y13296D01*
X20493Y13351D01*
X20510Y13333D01*
X20558Y13313D01*
X20610Y13313D01*
X21210Y13313D01*
X21258Y13333D01*
X21295Y13370D01*
X21314Y13418D01*
X21314Y13469D01*
X21314Y14269D01*
X21295Y14317D01*
X21258Y14354D01*
X21210Y14374D01*
X21208Y14374D01*
X21276Y14442D01*
X21323Y14555D01*
X21323Y14676D01*
X21323Y12744D01*
X16700Y12744D01*
X16701Y14668D01*
X16731Y14595D01*
X16818Y14565D01*
X17107Y14854D01*
X16818Y15142D01*
X16731Y15112D01*
X16701Y15016D01*
X16702Y18097D01*
X24885Y18097D01*
X25213Y17763D01*
X30429Y17761D01*
X30429Y13070D01*
X30429Y13070D01*
G37*
G54D20*
X30429Y13070D02*
X28578Y13070D01*
X28578Y13787D01*
X28578Y16852D01*
X27179Y16852D01*
X27179Y13787D01*
X28578Y13787D01*
X28578Y13070D01*
X25205Y13070D01*
X25179Y13044D01*
X25179Y15468D01*
X25132Y15580D01*
X25047Y15666D01*
X24934Y15713D01*
X24813Y15713D01*
X24701Y15666D01*
X24616Y15582D01*
X24297Y15582D01*
X24339Y15683D01*
X24339Y15804D01*
X24292Y15916D01*
X24207Y16002D01*
X24094Y16049D01*
X23983Y16049D01*
X23397Y16635D01*
X23339Y16674D01*
X23270Y16688D01*
X22745Y16688D01*
X22614Y16818D01*
X22614Y17419D01*
X22595Y17467D01*
X22558Y17504D01*
X22510Y17523D01*
X22458Y17524D01*
X21858Y17524D01*
X21810Y17504D01*
X21774Y17467D01*
X21754Y17419D01*
X21754Y17367D01*
X21754Y16567D01*
X21774Y16519D01*
X21810Y16483D01*
X21858Y16463D01*
X21910Y16463D01*
X22459Y16463D01*
X22542Y16380D01*
X22542Y16380D01*
X22601Y16341D01*
X22601Y16341D01*
X22670Y16327D01*
X22670Y16327D01*
X23195Y16327D01*
X23728Y15794D01*
X23728Y15683D01*
X23770Y15582D01*
X22598Y15582D01*
X21773Y16407D01*
X21715Y16446D01*
X21646Y16460D01*
X21365Y16460D01*
X21298Y16527D01*
X21314Y16567D01*
X21314Y16619D01*
X21314Y17419D01*
X21295Y17467D01*
X21258Y17504D01*
X21210Y17523D01*
X21158Y17524D01*
X20558Y17524D01*
X20510Y17504D01*
X20474Y17467D01*
X20454Y17419D01*
X20454Y17367D01*
X20454Y16567D01*
X20474Y16519D01*
X20510Y16483D01*
X20558Y16463D01*
X20610Y16463D01*
X20865Y16463D01*
X20855Y16453D01*
X20808Y16340D01*
X20808Y16219D01*
X20855Y16107D01*
X20940Y16021D01*
X21053Y15974D01*
X21174Y15974D01*
X21286Y16021D01*
X21365Y16099D01*
X21571Y16099D01*
X22396Y15274D01*
X22396Y15274D01*
X22454Y15235D01*
X22454Y15235D01*
X22523Y15221D01*
X22524Y15221D01*
X23799Y15221D01*
X23796Y15218D01*
X21616Y15218D01*
X20638Y16196D01*
X20580Y16235D01*
X20511Y16249D01*
X20490Y16249D01*
X20490Y16394D01*
X20470Y16442D01*
X20433Y16479D01*
X20385Y16499D01*
X20334Y16499D01*
X20140Y16499D01*
X20140Y16554D01*
X20189Y16575D01*
X20303Y16689D01*
X20365Y16837D01*
X20365Y16999D01*
X20303Y17148D01*
X20189Y17262D01*
X20040Y17324D01*
X19879Y17324D01*
X19730Y17262D01*
X19616Y17148D01*
X19554Y16999D01*
X19554Y16838D01*
X19616Y16689D01*
X19729Y16575D01*
X19779Y16554D01*
X19779Y16499D01*
X19534Y16499D01*
X19486Y16479D01*
X19449Y16442D01*
X19429Y16394D01*
X19429Y16343D01*
X19429Y15743D01*
X19449Y15695D01*
X19485Y15658D01*
X19533Y15638D01*
X19585Y15638D01*
X20385Y15638D01*
X20433Y15658D01*
X20470Y15694D01*
X20490Y15742D01*
X20490Y15794D01*
X20490Y15834D01*
X21414Y14910D01*
X21414Y14910D01*
X21472Y14871D01*
X21472Y14871D01*
X21541Y14857D01*
X21542Y14857D01*
X23772Y14857D01*
X23775Y14851D01*
X23860Y14765D01*
X23973Y14718D01*
X24094Y14718D01*
X24206Y14765D01*
X24292Y14850D01*
X24339Y14963D01*
X24339Y15084D01*
X24292Y15196D01*
X24268Y15221D01*
X24628Y15221D01*
X24700Y15149D01*
X24813Y15102D01*
X24934Y15102D01*
X25046Y15149D01*
X25132Y15234D01*
X25179Y15347D01*
X25179Y15468D01*
X25179Y13044D01*
X24881Y12744D01*
X23237Y12744D01*
X23237Y14248D01*
X23190Y14360D01*
X23105Y14446D01*
X22992Y14493D01*
X22871Y14493D01*
X22759Y14446D01*
X22673Y14361D01*
X22626Y14248D01*
X22626Y14137D01*
X22614Y14125D01*
X22614Y14269D01*
X22595Y14317D01*
X22558Y14354D01*
X22510Y14374D01*
X22458Y14374D01*
X21858Y14374D01*
X21810Y14354D01*
X21774Y14318D01*
X21754Y14270D01*
X21754Y14218D01*
X21754Y13418D01*
X21774Y13370D01*
X21810Y13333D01*
X21858Y13313D01*
X21910Y13313D01*
X22510Y13313D01*
X22558Y13333D01*
X22595Y13370D01*
X22614Y13418D01*
X22614Y13469D01*
X22614Y13657D01*
X22643Y13663D01*
X22701Y13702D01*
X22881Y13882D01*
X22992Y13882D01*
X23104Y13929D01*
X23190Y14014D01*
X23237Y14127D01*
X23237Y14248D01*
X23237Y12744D01*
X21323Y12744D01*
X21323Y14676D01*
X21276Y14788D01*
X21191Y14874D01*
X21078Y14921D01*
X20957Y14921D01*
X20845Y14874D01*
X20759Y14789D01*
X20712Y14676D01*
X20712Y14555D01*
X20749Y14465D01*
X20749Y14374D01*
X20570Y14374D01*
X20590Y14423D01*
X20590Y15114D01*
X20555Y15199D01*
X20490Y15264D01*
X20405Y15299D01*
X20314Y15299D01*
X20087Y15299D01*
X20029Y15241D01*
X20029Y14838D01*
X20532Y14838D01*
X20590Y14896D01*
X20590Y15114D01*
X20590Y14423D01*
X20590Y14641D01*
X20532Y14699D01*
X20029Y14699D01*
X20029Y14691D01*
X19890Y14691D01*
X19890Y14699D01*
X19890Y14838D01*
X19890Y15241D01*
X19832Y15299D01*
X19605Y15299D01*
X19513Y15299D01*
X19429Y15264D01*
X19364Y15199D01*
X19329Y15114D01*
X19329Y14896D01*
X19387Y14838D01*
X19890Y14838D01*
X19890Y14699D01*
X19387Y14699D01*
X19329Y14641D01*
X19329Y14423D01*
X19364Y14338D01*
X19429Y14273D01*
X19513Y14238D01*
X19551Y14238D01*
X19546Y14233D01*
X19590Y14189D01*
X19505Y14162D01*
X19447Y13970D01*
X19466Y13770D01*
X19505Y13675D01*
X19590Y13648D01*
X19861Y13918D01*
X19855Y13924D01*
X19954Y14023D01*
X19959Y14017D01*
X19965Y14023D01*
X20063Y13924D01*
X20058Y13918D01*
X20063Y13913D01*
X19965Y13814D01*
X19959Y13820D01*
X19861Y13721D01*
X19689Y13549D01*
X19716Y13464D01*
X19896Y13409D01*
X19771Y13284D01*
X18793Y13284D01*
X18793Y14796D01*
X18774Y15006D01*
X18741Y15085D01*
X18741Y15909D01*
X18741Y16210D01*
X18677Y16343D01*
X18677Y17060D01*
X18645Y17223D01*
X18552Y17361D01*
X18414Y17454D01*
X18251Y17486D01*
X17628Y17486D01*
X17465Y17454D01*
X17327Y17361D01*
X17238Y17229D01*
X17222Y17226D01*
X17164Y17187D01*
X16928Y16951D01*
X16889Y16893D01*
X16875Y16824D01*
X16875Y15766D01*
X16889Y15696D01*
X16928Y15638D01*
X17182Y15384D01*
X17053Y15372D01*
X16947Y15328D01*
X16917Y15241D01*
X17206Y14952D01*
X17211Y14958D01*
X17310Y14859D01*
X17304Y14854D01*
X17310Y14848D01*
X17211Y14749D01*
X17206Y14755D01*
X16917Y14466D01*
X16947Y14379D01*
X17148Y14316D01*
X17358Y14335D01*
X17368Y14339D01*
X17313Y14284D01*
X16880Y14284D01*
X16832Y14264D01*
X16795Y14227D01*
X16775Y14180D01*
X16775Y14128D01*
X16775Y13528D01*
X16795Y13480D01*
X16832Y13443D01*
X16879Y13423D01*
X16931Y13423D01*
X17531Y13423D01*
X17579Y13443D01*
X17616Y13480D01*
X17636Y13527D01*
X17636Y13579D01*
X17636Y14097D01*
X17861Y14322D01*
X17900Y14380D01*
X17911Y14434D01*
X17923Y14422D01*
X17967Y14466D01*
X17997Y14379D01*
X18198Y14316D01*
X18408Y14335D01*
X18514Y14379D01*
X18544Y14466D01*
X18256Y14755D01*
X18250Y14749D01*
X18151Y14848D01*
X18157Y14854D01*
X17912Y15099D01*
X17900Y15157D01*
X17861Y15215D01*
X17528Y15548D01*
X17573Y15533D01*
X17870Y15533D01*
X17870Y15990D01*
X17862Y15990D01*
X17862Y16129D01*
X17870Y16129D01*
X17870Y16586D01*
X17573Y16586D01*
X17377Y16520D01*
X17236Y16396D01*
X17236Y16749D01*
X17294Y16807D01*
X17327Y16758D01*
X17465Y16665D01*
X17628Y16633D01*
X18251Y16633D01*
X18414Y16665D01*
X18552Y16758D01*
X18645Y16896D01*
X18677Y17060D01*
X18677Y16343D01*
X18658Y16383D01*
X18502Y16520D01*
X18306Y16586D01*
X18009Y16586D01*
X18009Y16129D01*
X18701Y16129D01*
X18741Y16210D01*
X18741Y15909D01*
X18701Y15990D01*
X18009Y15990D01*
X18009Y15533D01*
X18306Y15533D01*
X18502Y15599D01*
X18658Y15736D01*
X18741Y15909D01*
X18741Y15085D01*
X18730Y15112D01*
X18643Y15142D01*
X18544Y15044D01*
X18544Y15241D01*
X18514Y15328D01*
X18313Y15391D01*
X18103Y15372D01*
X17997Y15328D01*
X17967Y15241D01*
X18256Y14952D01*
X18544Y15241D01*
X18544Y15044D01*
X18354Y14854D01*
X18643Y14565D01*
X18730Y14595D01*
X18793Y14796D01*
X18793Y13284D01*
X18642Y13284D01*
X18503Y13423D01*
X18581Y13423D01*
X18629Y13443D01*
X18666Y13480D01*
X18686Y13527D01*
X18686Y13579D01*
X18686Y14179D01*
X18666Y14227D01*
X18629Y14264D01*
X18582Y14284D01*
X18544Y14284D01*
X18530Y14284D01*
X17930Y14284D01*
X17882Y14264D01*
X17845Y14227D01*
X17825Y14180D01*
X17825Y14128D01*
X17825Y13528D01*
X17845Y13480D01*
X17882Y13443D01*
X17929Y13423D01*
X17981Y13423D01*
X18075Y13423D01*
X18075Y13416D01*
X18089Y13346D01*
X18128Y13288D01*
X18440Y12976D01*
X18440Y12976D01*
X18498Y12937D01*
X18498Y12937D01*
X18567Y12923D01*
X18568Y12923D01*
X19846Y12923D01*
X19915Y12937D01*
X19973Y12976D01*
X20161Y13164D01*
X20272Y13164D01*
X20384Y13211D01*
X20470Y13296D01*
X20493Y13351D01*
X20510Y13333D01*
X20558Y13313D01*
X20610Y13313D01*
X21210Y13313D01*
X21258Y13333D01*
X21295Y13370D01*
X21314Y13418D01*
X21314Y13469D01*
X21314Y14269D01*
X21295Y14317D01*
X21258Y14354D01*
X21210Y14374D01*
X21208Y14374D01*
X21276Y14442D01*
X21323Y14555D01*
X21323Y14676D01*
X21323Y12744D01*
X16700Y12744D01*
X16701Y14668D01*
X16731Y14595D01*
X16818Y14565D01*
X17107Y14854D01*
X16818Y15142D01*
X16731Y15112D01*
X16701Y15016D01*
X16702Y18097D01*
X24885Y18097D01*
X25213Y17763D01*
X30429Y17761D01*
X30429Y13070D01*
M02*
