M48
;DRILL file {Pcbnew (2013-07-07 BZR 4022)-stable} date 05/07/2015 5:02:08 p. m.
;FORMAT={2:4/ absolute / inch / keep zeros}
FMAT,2
INCH,TZ
T1C0.025
T2C0.032
T3C0.040
%
G90
G05
M72
T1
X032575Y028800
X033067Y029464
X033715Y031360
X033950Y028400
X034052Y026806
X034540Y033305
X034741Y034680
X034839Y030251
X034839Y026412
X034935Y021410
X035036Y029660
X035036Y025920
X035134Y031038
X035626Y023952
X035750Y027050
X036217Y032712
X036800Y028725
X036830Y031970
X036835Y033605
X037000Y031550
X037220Y024775
X037235Y026480
X037398Y029956
X037980Y033740
X038185Y025231
X038265Y029755
X038910Y030785
X039155Y034550
X039525Y021435
X040190Y033995
X040255Y030850
X040805Y031535
X041280Y031660
T2
X032363Y023877
X032363Y020877
X034363Y023877
X034363Y020877
X040138Y023779
X040138Y020779
X042138Y023779
X042138Y020779
T3
X032075Y027814
X032075Y026814
X032075Y025814
X032075Y024814
X033075Y027814
X033075Y026814
X033075Y025814
X033075Y024814
X036201Y021893
X036201Y020893
X037201Y021893
X037201Y020893
X038201Y021893
X038201Y020893
T0
M30
