G04 (created by PCBNEW (2013-07-07 BZR 4022)-stable) date 05/07/2015 5:01:52 p. m.*
%MOIN*%
G04 Gerber Fmt 3.4, Leading zero omitted, Abs format*
%FSLAX34Y34*%
G01*
G70*
G90*
G04 APERTURE LIST*
%ADD10C,0.00590551*%
%ADD11C,0.011811*%
%ADD12C,0.055*%
%ADD13R,0.035X0.055*%
%ADD14R,0.06X0.06*%
%ADD15C,0.06*%
%ADD16C,0.035*%
%ADD17C,0.0393701*%
%ADD18C,0.01*%
G04 APERTURE END LIST*
G54D10*
G54D11*
X38072Y36086D02*
X37791Y36086D01*
X38129Y35917D02*
X37932Y36508D01*
X37735Y35917D01*
X37341Y36226D02*
X37538Y36226D01*
X37538Y35917D02*
X37538Y36508D01*
X37257Y36508D01*
X36694Y35917D02*
X36891Y36198D01*
X37032Y35917D02*
X37032Y36508D01*
X36807Y36508D01*
X36751Y36479D01*
X36723Y36451D01*
X36694Y36395D01*
X36694Y36311D01*
X36723Y36254D01*
X36751Y36226D01*
X36807Y36198D01*
X37032Y36198D01*
X36470Y35945D02*
X36385Y35917D01*
X36245Y35917D01*
X36188Y35945D01*
X36160Y35973D01*
X36132Y36029D01*
X36132Y36086D01*
X36160Y36142D01*
X36188Y36170D01*
X36245Y36198D01*
X36357Y36226D01*
X36413Y36254D01*
X36441Y36283D01*
X36470Y36339D01*
X36470Y36395D01*
X36441Y36451D01*
X36413Y36479D01*
X36357Y36508D01*
X36216Y36508D01*
X36132Y36479D01*
G54D12*
X40138Y23778D03*
X42138Y23778D03*
X40138Y20778D03*
X42138Y20778D03*
X32362Y23876D03*
X34362Y23876D03*
X32362Y20876D03*
X34362Y20876D03*
G54D13*
X39160Y34515D03*
X38410Y34515D03*
G54D14*
X36201Y20892D03*
G54D15*
X36201Y21892D03*
X37201Y20892D03*
X37201Y21892D03*
X38201Y20892D03*
X38201Y21892D03*
G54D14*
X32075Y24813D03*
G54D15*
X33075Y24813D03*
X32075Y25813D03*
X33075Y25813D03*
X32075Y26813D03*
X33075Y26813D03*
X32075Y27813D03*
X33075Y27813D03*
G54D16*
X38265Y29755D03*
X36835Y33605D03*
X34935Y21410D03*
X39525Y21435D03*
X41280Y31660D03*
X35134Y31038D03*
X33067Y29463D03*
X38910Y30785D03*
X37220Y24775D03*
X37235Y26480D03*
X36830Y31970D03*
X34051Y26806D03*
X32575Y28800D03*
X33950Y28400D03*
X36800Y28725D03*
X37000Y31550D03*
X40805Y31535D03*
X34838Y26412D03*
X35035Y29660D03*
X40190Y33995D03*
X40255Y30850D03*
X39155Y34550D03*
X35035Y25920D03*
X38185Y25231D03*
X35626Y23951D03*
X34838Y30250D03*
X37398Y29955D03*
X33715Y31360D03*
X34540Y33305D03*
X35750Y27050D03*
X37980Y33740D03*
X34740Y34680D03*
X36216Y32711D03*
G54D17*
X38265Y32175D02*
X38265Y29755D01*
X36835Y33605D02*
X38265Y32175D01*
G54D18*
X32580Y25309D02*
X32075Y25813D01*
X32580Y24555D02*
X32580Y25309D01*
X32900Y24235D02*
X32580Y24555D01*
X32900Y23095D02*
X32900Y24235D01*
X34835Y21500D02*
X32900Y23095D01*
X34925Y21405D02*
X34835Y21500D01*
X34935Y21410D02*
X34925Y21405D01*
X40525Y22435D02*
X39525Y21435D01*
X40525Y22695D02*
X40525Y22435D01*
X41110Y23280D02*
X40525Y22695D01*
X41110Y24200D02*
X41110Y23280D01*
X39708Y25601D02*
X41110Y24200D01*
X39708Y27146D02*
X39708Y25601D01*
X39310Y27545D02*
X39708Y27146D01*
X39310Y29534D02*
X39310Y27545D01*
X39518Y29743D02*
X39310Y29534D01*
X39936Y29743D02*
X39518Y29743D01*
X40885Y30692D02*
X39936Y29743D01*
X40885Y31049D02*
X40885Y30692D01*
X41270Y31434D02*
X40885Y31049D01*
X41270Y31650D02*
X41270Y31434D01*
X41280Y31660D02*
X41270Y31650D01*
X34642Y31038D02*
X35134Y31038D01*
X33067Y29463D02*
X34642Y31038D01*
X36683Y21375D02*
X36201Y20892D01*
X38650Y21375D02*
X36683Y21375D01*
X38830Y21555D02*
X38650Y21375D01*
X38830Y22125D02*
X38830Y21555D01*
X39950Y23245D02*
X38830Y22125D01*
X40390Y23245D02*
X39950Y23245D01*
X40680Y23535D02*
X40390Y23245D01*
X40680Y24025D02*
X40680Y23535D01*
X39280Y25425D02*
X40680Y24025D01*
X39280Y26865D02*
X39280Y25425D01*
X38830Y27315D02*
X39280Y26865D01*
X38830Y30705D02*
X38830Y27315D01*
X38910Y30785D02*
X38830Y30705D01*
X32075Y27813D02*
X32131Y27813D01*
X36201Y20898D02*
X36201Y20892D01*
X33665Y23435D02*
X36201Y20898D01*
X33665Y27190D02*
X33665Y23435D01*
X33510Y27345D02*
X33665Y27190D01*
X32600Y27345D02*
X33510Y27345D01*
X32131Y27813D02*
X32600Y27345D01*
X37201Y24756D02*
X37201Y21892D01*
X37220Y24775D02*
X37201Y24756D01*
X36390Y27325D02*
X37235Y26480D01*
X36390Y30135D02*
X36390Y27325D01*
X36535Y30280D02*
X36390Y30135D01*
X36535Y31675D02*
X36535Y30280D01*
X36830Y31970D02*
X36535Y31675D01*
X37201Y21892D02*
X37193Y21892D01*
X34051Y25034D02*
X34051Y26806D01*
X37193Y21892D02*
X34051Y25034D01*
X33550Y28800D02*
X32575Y28800D01*
X33950Y28400D02*
X33550Y28800D01*
X36800Y31350D02*
X36800Y28725D01*
X37000Y31550D02*
X36800Y31350D01*
X38792Y20892D02*
X38201Y20892D01*
X39055Y21155D02*
X38792Y20892D01*
X39055Y22025D02*
X39055Y21155D01*
X39955Y22925D02*
X39055Y22025D01*
X40435Y22925D02*
X39955Y22925D01*
X40900Y23390D02*
X40435Y22925D01*
X40900Y24110D02*
X40900Y23390D01*
X39508Y25501D02*
X40900Y24110D01*
X39508Y27031D02*
X39508Y25501D01*
X39030Y27509D02*
X39508Y27031D01*
X39030Y29615D02*
X39030Y27509D01*
X39370Y29955D02*
X39030Y29615D01*
X39865Y29955D02*
X39370Y29955D01*
X40630Y30720D02*
X39865Y29955D01*
X40630Y31360D02*
X40630Y30720D01*
X40805Y31535D02*
X40630Y31360D01*
X34838Y29463D02*
X34838Y26412D01*
X35035Y29660D02*
X34838Y29463D01*
G54D17*
X40100Y31005D02*
X40255Y30850D01*
X40100Y33905D02*
X40100Y31005D01*
X40190Y33995D02*
X40100Y33905D01*
X39160Y34545D02*
X39160Y34515D01*
X39155Y34550D02*
X39160Y34545D01*
X38185Y25329D02*
X38185Y25231D01*
X37594Y25920D02*
X38185Y25329D01*
X37201Y25920D02*
X37594Y25920D01*
X35035Y25920D02*
X37201Y25920D01*
X38201Y21892D02*
X38201Y25215D01*
X38201Y25215D02*
X38185Y25231D01*
G54D18*
X34445Y25132D02*
X35626Y23951D01*
X34445Y29857D02*
X34445Y25132D01*
X34838Y30250D02*
X34445Y29857D01*
G54D17*
X40138Y23778D02*
X39933Y23778D01*
X37398Y28184D02*
X37398Y29955D01*
X38775Y26806D02*
X37398Y28184D01*
X38775Y24936D02*
X38775Y26806D01*
X39933Y23778D02*
X38775Y24936D01*
G54D18*
X33715Y32480D02*
X33715Y31360D01*
X34540Y33305D02*
X33715Y32480D01*
G54D17*
X36216Y32711D02*
X36216Y32541D01*
X35750Y32075D02*
X35750Y27050D01*
X36216Y32541D02*
X35750Y32075D01*
X38410Y34515D02*
X34905Y34515D01*
X34905Y34515D02*
X34740Y34680D01*
G54D18*
X38410Y34170D02*
X38410Y34515D01*
X37980Y33740D02*
X38410Y34170D01*
G54D17*
X36216Y32711D02*
X36118Y32711D01*
X36118Y32711D02*
X34740Y34089D01*
X34740Y34089D02*
X34740Y34680D01*
G54D10*
G36*
X32133Y24763D02*
X32125Y24763D01*
X32125Y24756D01*
X32025Y24756D01*
X32025Y24763D01*
X32017Y24763D01*
X32017Y24863D01*
X32025Y24863D01*
X32025Y24871D01*
X32125Y24871D01*
X32125Y24863D01*
X32133Y24863D01*
X32133Y24763D01*
X32133Y24763D01*
G37*
G54D18*
X32133Y24763D02*
X32125Y24763D01*
X32125Y24756D01*
X32025Y24756D01*
X32025Y24763D01*
X32017Y24763D01*
X32017Y24863D01*
X32025Y24863D01*
X32025Y24871D01*
X32125Y24871D01*
X32125Y24863D01*
X32133Y24863D01*
X32133Y24763D01*
G54D10*
G36*
X39692Y23412D02*
X38617Y22337D01*
X38590Y22295D01*
X38561Y22323D01*
X38516Y22278D01*
X38489Y22373D01*
X38282Y22447D01*
X38064Y22436D01*
X37913Y22373D01*
X37885Y22278D01*
X38201Y21963D01*
X38206Y21968D01*
X38277Y21898D01*
X38271Y21892D01*
X38277Y21887D01*
X38206Y21816D01*
X38201Y21822D01*
X38195Y21816D01*
X38124Y21887D01*
X38130Y21892D01*
X37815Y22207D01*
X37719Y22180D01*
X37700Y22125D01*
X37667Y22203D01*
X37513Y22358D01*
X37501Y22363D01*
X37501Y24455D01*
X37580Y24533D01*
X37644Y24690D01*
X37645Y24859D01*
X37580Y25015D01*
X37461Y25135D01*
X37304Y25199D01*
X37135Y25200D01*
X36979Y25135D01*
X36859Y25016D01*
X36795Y24859D01*
X36794Y24690D01*
X36859Y24534D01*
X36901Y24492D01*
X36901Y22609D01*
X35892Y23617D01*
X35986Y23710D01*
X36051Y23866D01*
X36051Y24035D01*
X35986Y24192D01*
X35867Y24311D01*
X35711Y24376D01*
X35625Y24376D01*
X34745Y25257D01*
X34745Y25991D01*
X34754Y25987D01*
X34923Y25987D01*
X35079Y26051D01*
X35199Y26171D01*
X35263Y26327D01*
X35264Y26496D01*
X35199Y26652D01*
X35138Y26713D01*
X35138Y29243D01*
X35276Y29299D01*
X35303Y29326D01*
X35303Y27050D01*
X35337Y26878D01*
X35434Y26734D01*
X35578Y26637D01*
X35750Y26603D01*
X35921Y26637D01*
X36065Y26734D01*
X36162Y26878D01*
X36196Y27050D01*
X36196Y27093D01*
X36810Y26480D01*
X36809Y26395D01*
X36874Y26239D01*
X36993Y26119D01*
X37150Y26055D01*
X37319Y26054D01*
X37475Y26119D01*
X37595Y26238D01*
X37659Y26395D01*
X37660Y26564D01*
X37595Y26720D01*
X37476Y26840D01*
X37319Y26904D01*
X37234Y26905D01*
X36690Y27449D01*
X36690Y28310D01*
X36715Y28300D01*
X36884Y28299D01*
X36951Y28327D01*
X36951Y28184D01*
X36985Y28013D01*
X37082Y27868D01*
X38329Y26621D01*
X38329Y24936D01*
X38363Y24765D01*
X38460Y24620D01*
X39617Y23462D01*
X39617Y23462D01*
X39692Y23412D01*
X39692Y23412D01*
G37*
G54D18*
X39692Y23412D02*
X38617Y22337D01*
X38590Y22295D01*
X38561Y22323D01*
X38516Y22278D01*
X38489Y22373D01*
X38282Y22447D01*
X38064Y22436D01*
X37913Y22373D01*
X37885Y22278D01*
X38201Y21963D01*
X38206Y21968D01*
X38277Y21898D01*
X38271Y21892D01*
X38277Y21887D01*
X38206Y21816D01*
X38201Y21822D01*
X38195Y21816D01*
X38124Y21887D01*
X38130Y21892D01*
X37815Y22207D01*
X37719Y22180D01*
X37700Y22125D01*
X37667Y22203D01*
X37513Y22358D01*
X37501Y22363D01*
X37501Y24455D01*
X37580Y24533D01*
X37644Y24690D01*
X37645Y24859D01*
X37580Y25015D01*
X37461Y25135D01*
X37304Y25199D01*
X37135Y25200D01*
X36979Y25135D01*
X36859Y25016D01*
X36795Y24859D01*
X36794Y24690D01*
X36859Y24534D01*
X36901Y24492D01*
X36901Y22609D01*
X35892Y23617D01*
X35986Y23710D01*
X36051Y23866D01*
X36051Y24035D01*
X35986Y24192D01*
X35867Y24311D01*
X35711Y24376D01*
X35625Y24376D01*
X34745Y25257D01*
X34745Y25991D01*
X34754Y25987D01*
X34923Y25987D01*
X35079Y26051D01*
X35199Y26171D01*
X35263Y26327D01*
X35264Y26496D01*
X35199Y26652D01*
X35138Y26713D01*
X35138Y29243D01*
X35276Y29299D01*
X35303Y29326D01*
X35303Y27050D01*
X35337Y26878D01*
X35434Y26734D01*
X35578Y26637D01*
X35750Y26603D01*
X35921Y26637D01*
X36065Y26734D01*
X36162Y26878D01*
X36196Y27050D01*
X36196Y27093D01*
X36810Y26480D01*
X36809Y26395D01*
X36874Y26239D01*
X36993Y26119D01*
X37150Y26055D01*
X37319Y26054D01*
X37475Y26119D01*
X37595Y26238D01*
X37659Y26395D01*
X37660Y26564D01*
X37595Y26720D01*
X37476Y26840D01*
X37319Y26904D01*
X37234Y26905D01*
X36690Y27449D01*
X36690Y28310D01*
X36715Y28300D01*
X36884Y28299D01*
X36951Y28327D01*
X36951Y28184D01*
X36985Y28013D01*
X37082Y27868D01*
X38329Y26621D01*
X38329Y24936D01*
X38363Y24765D01*
X38460Y24620D01*
X39617Y23462D01*
X39617Y23462D01*
X39692Y23412D01*
G54D10*
G36*
X42859Y30300D02*
X40918Y30300D01*
X41097Y30480D01*
X41162Y30577D01*
X41184Y30692D01*
X41185Y30692D01*
X41185Y30925D01*
X41482Y31222D01*
X41482Y31222D01*
X41547Y31320D01*
X41548Y31327D01*
X41640Y31418D01*
X41704Y31575D01*
X41705Y31744D01*
X41640Y31900D01*
X41521Y32020D01*
X41364Y32084D01*
X41195Y32085D01*
X41039Y32020D01*
X40952Y31933D01*
X40889Y31959D01*
X40720Y31960D01*
X40564Y31895D01*
X40444Y31776D01*
X40380Y31619D01*
X40379Y31515D01*
X40379Y31515D01*
X40352Y31474D01*
X40330Y31360D01*
X40330Y30844D01*
X39786Y30300D01*
X39585Y30300D01*
X39585Y34289D01*
X39585Y34740D01*
X39584Y34839D01*
X39546Y34931D01*
X39476Y35002D01*
X39384Y35040D01*
X39272Y35040D01*
X39210Y34977D01*
X39210Y34565D01*
X39522Y34565D01*
X39585Y34627D01*
X39585Y34740D01*
X39585Y34289D01*
X39585Y34402D01*
X39522Y34465D01*
X39210Y34465D01*
X39210Y34052D01*
X39272Y33990D01*
X39384Y33989D01*
X39476Y34027D01*
X39546Y34098D01*
X39584Y34190D01*
X39585Y34289D01*
X39585Y30300D01*
X39130Y30300D01*
X39130Y30416D01*
X39150Y30424D01*
X39270Y30543D01*
X39334Y30700D01*
X39335Y30869D01*
X39270Y31025D01*
X39151Y31145D01*
X38994Y31209D01*
X38825Y31210D01*
X38711Y31162D01*
X38711Y32175D01*
X38677Y32346D01*
X38580Y32490D01*
X38580Y32490D01*
X37150Y33920D01*
X37006Y34017D01*
X36835Y34051D01*
X36663Y34017D01*
X36519Y33920D01*
X36422Y33776D01*
X36388Y33605D01*
X36422Y33433D01*
X36519Y33289D01*
X37818Y31989D01*
X37818Y30090D01*
X37810Y30126D01*
X37714Y30271D01*
X37569Y30368D01*
X37398Y30402D01*
X37227Y30368D01*
X37100Y30283D01*
X37100Y31131D01*
X37240Y31189D01*
X37360Y31308D01*
X37424Y31465D01*
X37425Y31634D01*
X37360Y31790D01*
X37254Y31896D01*
X37255Y32054D01*
X37190Y32210D01*
X37071Y32330D01*
X36914Y32394D01*
X36745Y32395D01*
X36607Y32338D01*
X36629Y32370D01*
X36629Y32370D01*
X36663Y32541D01*
X36663Y32711D01*
X36629Y32882D01*
X36532Y33027D01*
X36387Y33124D01*
X36325Y33136D01*
X35393Y34068D01*
X37707Y34068D01*
X37619Y33981D01*
X37555Y33824D01*
X37554Y33655D01*
X37619Y33499D01*
X37738Y33379D01*
X37895Y33315D01*
X38064Y33314D01*
X38220Y33379D01*
X38340Y33498D01*
X38404Y33655D01*
X38405Y33740D01*
X38622Y33957D01*
X38647Y33995D01*
X38726Y34027D01*
X38785Y34086D01*
X38843Y34027D01*
X38935Y33989D01*
X39047Y33990D01*
X39110Y34052D01*
X39110Y34465D01*
X39102Y34465D01*
X39102Y34565D01*
X39110Y34565D01*
X39110Y34977D01*
X39047Y35040D01*
X38935Y35040D01*
X38843Y35002D01*
X38784Y34943D01*
X38726Y35001D01*
X38634Y35039D01*
X38535Y35040D01*
X38185Y35040D01*
X38093Y35002D01*
X38053Y34961D01*
X35090Y34961D01*
X35056Y34996D01*
X34911Y35092D01*
X34740Y35126D01*
X34569Y35092D01*
X34424Y34996D01*
X34327Y34851D01*
X34293Y34680D01*
X34293Y34089D01*
X34327Y33918D01*
X34424Y33773D01*
X34468Y33730D01*
X34455Y33730D01*
X34299Y33665D01*
X34179Y33546D01*
X34115Y33389D01*
X34114Y33304D01*
X33502Y32692D01*
X33437Y32594D01*
X33415Y32480D01*
X33415Y31661D01*
X33354Y31601D01*
X33290Y31444D01*
X33289Y31275D01*
X33354Y31119D01*
X33473Y30999D01*
X33630Y30935D01*
X33799Y30934D01*
X33955Y30999D01*
X34075Y31118D01*
X34139Y31275D01*
X34140Y31444D01*
X34075Y31600D01*
X34015Y31661D01*
X34015Y32355D01*
X34539Y32880D01*
X34624Y32879D01*
X34780Y32944D01*
X34900Y33063D01*
X34964Y33220D01*
X34964Y33233D01*
X35620Y32577D01*
X35434Y32390D01*
X35337Y32246D01*
X35303Y32075D01*
X35303Y31428D01*
X35219Y31463D01*
X35050Y31463D01*
X34893Y31398D01*
X34833Y31338D01*
X34642Y31338D01*
X34527Y31315D01*
X34429Y31250D01*
X33068Y29888D01*
X32983Y29888D01*
X32826Y29824D01*
X32707Y29704D01*
X32642Y29548D01*
X32642Y29379D01*
X32706Y29223D01*
X32737Y29192D01*
X32659Y29224D01*
X32490Y29225D01*
X32334Y29160D01*
X32214Y29041D01*
X32150Y28884D01*
X32149Y28715D01*
X32214Y28559D01*
X32333Y28439D01*
X32490Y28375D01*
X32659Y28374D01*
X32815Y28439D01*
X32876Y28500D01*
X33425Y28500D01*
X33525Y28400D01*
X33524Y28315D01*
X33589Y28159D01*
X33708Y28039D01*
X33865Y27975D01*
X34034Y27974D01*
X34145Y28020D01*
X34145Y27227D01*
X34136Y27231D01*
X33967Y27231D01*
X33957Y27227D01*
X33942Y27304D01*
X33877Y27402D01*
X33877Y27402D01*
X33722Y27557D01*
X33624Y27622D01*
X33593Y27628D01*
X33625Y27704D01*
X33625Y27922D01*
X33541Y28125D01*
X33387Y28279D01*
X33185Y28363D01*
X32966Y28364D01*
X32764Y28280D01*
X32609Y28125D01*
X32575Y28044D01*
X32541Y28125D01*
X32387Y28279D01*
X32185Y28363D01*
X31966Y28364D01*
X31764Y28280D01*
X31609Y28125D01*
X31542Y27965D01*
X31542Y33478D01*
X33284Y35220D01*
X41215Y35220D01*
X42859Y33576D01*
X42859Y30300D01*
X42859Y30300D01*
G37*
G54D18*
X42859Y30300D02*
X40918Y30300D01*
X41097Y30480D01*
X41162Y30577D01*
X41184Y30692D01*
X41185Y30692D01*
X41185Y30925D01*
X41482Y31222D01*
X41482Y31222D01*
X41547Y31320D01*
X41548Y31327D01*
X41640Y31418D01*
X41704Y31575D01*
X41705Y31744D01*
X41640Y31900D01*
X41521Y32020D01*
X41364Y32084D01*
X41195Y32085D01*
X41039Y32020D01*
X40952Y31933D01*
X40889Y31959D01*
X40720Y31960D01*
X40564Y31895D01*
X40444Y31776D01*
X40380Y31619D01*
X40379Y31515D01*
X40379Y31515D01*
X40352Y31474D01*
X40330Y31360D01*
X40330Y30844D01*
X39786Y30300D01*
X39585Y30300D01*
X39585Y34289D01*
X39585Y34740D01*
X39584Y34839D01*
X39546Y34931D01*
X39476Y35002D01*
X39384Y35040D01*
X39272Y35040D01*
X39210Y34977D01*
X39210Y34565D01*
X39522Y34565D01*
X39585Y34627D01*
X39585Y34740D01*
X39585Y34289D01*
X39585Y34402D01*
X39522Y34465D01*
X39210Y34465D01*
X39210Y34052D01*
X39272Y33990D01*
X39384Y33989D01*
X39476Y34027D01*
X39546Y34098D01*
X39584Y34190D01*
X39585Y34289D01*
X39585Y30300D01*
X39130Y30300D01*
X39130Y30416D01*
X39150Y30424D01*
X39270Y30543D01*
X39334Y30700D01*
X39335Y30869D01*
X39270Y31025D01*
X39151Y31145D01*
X38994Y31209D01*
X38825Y31210D01*
X38711Y31162D01*
X38711Y32175D01*
X38677Y32346D01*
X38580Y32490D01*
X38580Y32490D01*
X37150Y33920D01*
X37006Y34017D01*
X36835Y34051D01*
X36663Y34017D01*
X36519Y33920D01*
X36422Y33776D01*
X36388Y33605D01*
X36422Y33433D01*
X36519Y33289D01*
X37818Y31989D01*
X37818Y30090D01*
X37810Y30126D01*
X37714Y30271D01*
X37569Y30368D01*
X37398Y30402D01*
X37227Y30368D01*
X37100Y30283D01*
X37100Y31131D01*
X37240Y31189D01*
X37360Y31308D01*
X37424Y31465D01*
X37425Y31634D01*
X37360Y31790D01*
X37254Y31896D01*
X37255Y32054D01*
X37190Y32210D01*
X37071Y32330D01*
X36914Y32394D01*
X36745Y32395D01*
X36607Y32338D01*
X36629Y32370D01*
X36629Y32370D01*
X36663Y32541D01*
X36663Y32711D01*
X36629Y32882D01*
X36532Y33027D01*
X36387Y33124D01*
X36325Y33136D01*
X35393Y34068D01*
X37707Y34068D01*
X37619Y33981D01*
X37555Y33824D01*
X37554Y33655D01*
X37619Y33499D01*
X37738Y33379D01*
X37895Y33315D01*
X38064Y33314D01*
X38220Y33379D01*
X38340Y33498D01*
X38404Y33655D01*
X38405Y33740D01*
X38622Y33957D01*
X38647Y33995D01*
X38726Y34027D01*
X38785Y34086D01*
X38843Y34027D01*
X38935Y33989D01*
X39047Y33990D01*
X39110Y34052D01*
X39110Y34465D01*
X39102Y34465D01*
X39102Y34565D01*
X39110Y34565D01*
X39110Y34977D01*
X39047Y35040D01*
X38935Y35040D01*
X38843Y35002D01*
X38784Y34943D01*
X38726Y35001D01*
X38634Y35039D01*
X38535Y35040D01*
X38185Y35040D01*
X38093Y35002D01*
X38053Y34961D01*
X35090Y34961D01*
X35056Y34996D01*
X34911Y35092D01*
X34740Y35126D01*
X34569Y35092D01*
X34424Y34996D01*
X34327Y34851D01*
X34293Y34680D01*
X34293Y34089D01*
X34327Y33918D01*
X34424Y33773D01*
X34468Y33730D01*
X34455Y33730D01*
X34299Y33665D01*
X34179Y33546D01*
X34115Y33389D01*
X34114Y33304D01*
X33502Y32692D01*
X33437Y32594D01*
X33415Y32480D01*
X33415Y31661D01*
X33354Y31601D01*
X33290Y31444D01*
X33289Y31275D01*
X33354Y31119D01*
X33473Y30999D01*
X33630Y30935D01*
X33799Y30934D01*
X33955Y30999D01*
X34075Y31118D01*
X34139Y31275D01*
X34140Y31444D01*
X34075Y31600D01*
X34015Y31661D01*
X34015Y32355D01*
X34539Y32880D01*
X34624Y32879D01*
X34780Y32944D01*
X34900Y33063D01*
X34964Y33220D01*
X34964Y33233D01*
X35620Y32577D01*
X35434Y32390D01*
X35337Y32246D01*
X35303Y32075D01*
X35303Y31428D01*
X35219Y31463D01*
X35050Y31463D01*
X34893Y31398D01*
X34833Y31338D01*
X34642Y31338D01*
X34527Y31315D01*
X34429Y31250D01*
X33068Y29888D01*
X32983Y29888D01*
X32826Y29824D01*
X32707Y29704D01*
X32642Y29548D01*
X32642Y29379D01*
X32706Y29223D01*
X32737Y29192D01*
X32659Y29224D01*
X32490Y29225D01*
X32334Y29160D01*
X32214Y29041D01*
X32150Y28884D01*
X32149Y28715D01*
X32214Y28559D01*
X32333Y28439D01*
X32490Y28375D01*
X32659Y28374D01*
X32815Y28439D01*
X32876Y28500D01*
X33425Y28500D01*
X33525Y28400D01*
X33524Y28315D01*
X33589Y28159D01*
X33708Y28039D01*
X33865Y27975D01*
X34034Y27974D01*
X34145Y28020D01*
X34145Y27227D01*
X34136Y27231D01*
X33967Y27231D01*
X33957Y27227D01*
X33942Y27304D01*
X33877Y27402D01*
X33877Y27402D01*
X33722Y27557D01*
X33624Y27622D01*
X33593Y27628D01*
X33625Y27704D01*
X33625Y27922D01*
X33541Y28125D01*
X33387Y28279D01*
X33185Y28363D01*
X32966Y28364D01*
X32764Y28280D01*
X32609Y28125D01*
X32575Y28044D01*
X32541Y28125D01*
X32387Y28279D01*
X32185Y28363D01*
X31966Y28364D01*
X31764Y28280D01*
X31609Y28125D01*
X31542Y27965D01*
X31542Y33478D01*
X33284Y35220D01*
X41215Y35220D01*
X42859Y33576D01*
X42859Y30300D01*
G54D10*
G36*
X42958Y20822D02*
X42668Y20532D01*
X42668Y20702D01*
X42668Y23702D01*
X42656Y23911D01*
X42598Y24051D01*
X42505Y24075D01*
X42208Y23778D01*
X42505Y23481D01*
X42598Y23505D01*
X42668Y23702D01*
X42668Y20702D01*
X42656Y20911D01*
X42598Y21051D01*
X42505Y21075D01*
X42435Y21004D01*
X42435Y21146D01*
X42435Y23410D01*
X42138Y23707D01*
X42067Y23637D01*
X42067Y23778D01*
X41770Y24075D01*
X41677Y24051D01*
X41608Y23854D01*
X41619Y23645D01*
X41677Y23505D01*
X41770Y23481D01*
X42067Y23778D01*
X42067Y23637D01*
X41841Y23410D01*
X41865Y23317D01*
X42062Y23248D01*
X42270Y23259D01*
X42410Y23317D01*
X42435Y23410D01*
X42435Y21146D01*
X42410Y21239D01*
X42213Y21308D01*
X42005Y21297D01*
X41865Y21239D01*
X41841Y21146D01*
X42138Y20849D01*
X42435Y21146D01*
X42435Y21004D01*
X42208Y20778D01*
X42505Y20481D01*
X42598Y20505D01*
X42668Y20702D01*
X42668Y20532D01*
X42435Y20299D01*
X42435Y20410D01*
X42138Y20707D01*
X42067Y20637D01*
X42067Y20778D01*
X41770Y21075D01*
X41677Y21051D01*
X41608Y20854D01*
X41619Y20645D01*
X41677Y20505D01*
X41770Y20481D01*
X42067Y20778D01*
X42067Y20637D01*
X41841Y20410D01*
X41865Y20317D01*
X42062Y20248D01*
X42270Y20259D01*
X42410Y20317D01*
X42435Y20410D01*
X42435Y20299D01*
X41806Y19671D01*
X32892Y19671D01*
X32892Y20801D01*
X32881Y21009D01*
X32823Y21149D01*
X32730Y21174D01*
X32659Y21103D01*
X32659Y21244D01*
X32635Y21337D01*
X32438Y21406D01*
X32229Y21395D01*
X32089Y21337D01*
X32065Y21244D01*
X32362Y20947D01*
X32659Y21244D01*
X32659Y21103D01*
X32433Y20876D01*
X32730Y20579D01*
X32823Y20604D01*
X32892Y20801D01*
X32892Y19671D01*
X32659Y19671D01*
X32659Y20509D01*
X32362Y20806D01*
X32291Y20735D01*
X32291Y20876D01*
X31994Y21174D01*
X31902Y21149D01*
X31832Y20952D01*
X31844Y20744D01*
X31902Y20604D01*
X31994Y20579D01*
X32291Y20876D01*
X32291Y20735D01*
X32065Y20509D01*
X32089Y20416D01*
X32286Y20347D01*
X32495Y20358D01*
X32635Y20416D01*
X32659Y20509D01*
X32659Y19671D01*
X32595Y19671D01*
X31542Y20724D01*
X31542Y24422D01*
X31563Y24372D01*
X31633Y24302D01*
X31725Y24264D01*
X31824Y24263D01*
X31962Y24263D01*
X32025Y24326D01*
X32025Y24263D01*
X32070Y24263D01*
X32065Y24244D01*
X32362Y23947D01*
X32368Y23953D01*
X32438Y23882D01*
X32433Y23876D01*
X32438Y23871D01*
X32368Y23800D01*
X32362Y23806D01*
X32291Y23735D01*
X32291Y23876D01*
X31994Y24174D01*
X31902Y24149D01*
X31832Y23952D01*
X31844Y23744D01*
X31902Y23604D01*
X31994Y23579D01*
X32291Y23876D01*
X32291Y23735D01*
X32065Y23509D01*
X32089Y23416D01*
X32286Y23347D01*
X32495Y23358D01*
X32600Y23401D01*
X32600Y23095D01*
X32602Y23080D01*
X32601Y23066D01*
X32614Y23023D01*
X32622Y22980D01*
X32630Y22968D01*
X32635Y22954D01*
X32663Y22919D01*
X32687Y22882D01*
X32699Y22874D01*
X32709Y22863D01*
X34497Y21389D01*
X34467Y21401D01*
X34258Y21402D01*
X34065Y21322D01*
X33917Y21174D01*
X33837Y20981D01*
X33837Y20772D01*
X33917Y20579D01*
X34064Y20432D01*
X34257Y20352D01*
X34466Y20351D01*
X34659Y20431D01*
X34807Y20579D01*
X34887Y20772D01*
X34887Y20980D01*
X34885Y20985D01*
X35019Y20984D01*
X35175Y21049D01*
X35295Y21168D01*
X35357Y21318D01*
X35651Y21024D01*
X35651Y20543D01*
X35689Y20451D01*
X35759Y20380D01*
X35851Y20342D01*
X35950Y20342D01*
X36550Y20342D01*
X36642Y20380D01*
X36712Y20450D01*
X36751Y20542D01*
X36751Y20565D01*
X36889Y20426D01*
X37091Y20342D01*
X37310Y20342D01*
X37512Y20426D01*
X37667Y20580D01*
X37701Y20662D01*
X37734Y20581D01*
X37889Y20426D01*
X38091Y20342D01*
X38310Y20342D01*
X38512Y20426D01*
X38667Y20580D01*
X38672Y20592D01*
X38792Y20592D01*
X38792Y20592D01*
X38907Y20615D01*
X38907Y20615D01*
X39004Y20680D01*
X39267Y20942D01*
X39332Y21040D01*
X39334Y21053D01*
X39440Y21010D01*
X39609Y21009D01*
X39677Y21038D01*
X39613Y20883D01*
X39613Y20674D01*
X39692Y20481D01*
X39840Y20333D01*
X40033Y20253D01*
X40242Y20253D01*
X40435Y20333D01*
X40583Y20480D01*
X40663Y20673D01*
X40663Y20882D01*
X40583Y21075D01*
X40435Y21223D01*
X40243Y21303D01*
X40034Y21303D01*
X39909Y21251D01*
X39949Y21350D01*
X39950Y21435D01*
X40737Y22222D01*
X40737Y22222D01*
X40802Y22320D01*
X40824Y22435D01*
X40825Y22435D01*
X40825Y22570D01*
X41322Y23067D01*
X41322Y23067D01*
X41387Y23165D01*
X41409Y23279D01*
X41410Y23280D01*
X41410Y24200D01*
X41409Y24200D01*
X41391Y24295D01*
X42001Y24295D01*
X41865Y24239D01*
X41841Y24146D01*
X42138Y23849D01*
X42435Y24146D01*
X42410Y24239D01*
X42250Y24295D01*
X42958Y24295D01*
X42958Y20822D01*
X42958Y20822D01*
G37*
G54D18*
X42958Y20822D02*
X42668Y20532D01*
X42668Y20702D01*
X42668Y23702D01*
X42656Y23911D01*
X42598Y24051D01*
X42505Y24075D01*
X42208Y23778D01*
X42505Y23481D01*
X42598Y23505D01*
X42668Y23702D01*
X42668Y20702D01*
X42656Y20911D01*
X42598Y21051D01*
X42505Y21075D01*
X42435Y21004D01*
X42435Y21146D01*
X42435Y23410D01*
X42138Y23707D01*
X42067Y23637D01*
X42067Y23778D01*
X41770Y24075D01*
X41677Y24051D01*
X41608Y23854D01*
X41619Y23645D01*
X41677Y23505D01*
X41770Y23481D01*
X42067Y23778D01*
X42067Y23637D01*
X41841Y23410D01*
X41865Y23317D01*
X42062Y23248D01*
X42270Y23259D01*
X42410Y23317D01*
X42435Y23410D01*
X42435Y21146D01*
X42410Y21239D01*
X42213Y21308D01*
X42005Y21297D01*
X41865Y21239D01*
X41841Y21146D01*
X42138Y20849D01*
X42435Y21146D01*
X42435Y21004D01*
X42208Y20778D01*
X42505Y20481D01*
X42598Y20505D01*
X42668Y20702D01*
X42668Y20532D01*
X42435Y20299D01*
X42435Y20410D01*
X42138Y20707D01*
X42067Y20637D01*
X42067Y20778D01*
X41770Y21075D01*
X41677Y21051D01*
X41608Y20854D01*
X41619Y20645D01*
X41677Y20505D01*
X41770Y20481D01*
X42067Y20778D01*
X42067Y20637D01*
X41841Y20410D01*
X41865Y20317D01*
X42062Y20248D01*
X42270Y20259D01*
X42410Y20317D01*
X42435Y20410D01*
X42435Y20299D01*
X41806Y19671D01*
X32892Y19671D01*
X32892Y20801D01*
X32881Y21009D01*
X32823Y21149D01*
X32730Y21174D01*
X32659Y21103D01*
X32659Y21244D01*
X32635Y21337D01*
X32438Y21406D01*
X32229Y21395D01*
X32089Y21337D01*
X32065Y21244D01*
X32362Y20947D01*
X32659Y21244D01*
X32659Y21103D01*
X32433Y20876D01*
X32730Y20579D01*
X32823Y20604D01*
X32892Y20801D01*
X32892Y19671D01*
X32659Y19671D01*
X32659Y20509D01*
X32362Y20806D01*
X32291Y20735D01*
X32291Y20876D01*
X31994Y21174D01*
X31902Y21149D01*
X31832Y20952D01*
X31844Y20744D01*
X31902Y20604D01*
X31994Y20579D01*
X32291Y20876D01*
X32291Y20735D01*
X32065Y20509D01*
X32089Y20416D01*
X32286Y20347D01*
X32495Y20358D01*
X32635Y20416D01*
X32659Y20509D01*
X32659Y19671D01*
X32595Y19671D01*
X31542Y20724D01*
X31542Y24422D01*
X31563Y24372D01*
X31633Y24302D01*
X31725Y24264D01*
X31824Y24263D01*
X31962Y24263D01*
X32025Y24326D01*
X32025Y24263D01*
X32070Y24263D01*
X32065Y24244D01*
X32362Y23947D01*
X32368Y23953D01*
X32438Y23882D01*
X32433Y23876D01*
X32438Y23871D01*
X32368Y23800D01*
X32362Y23806D01*
X32291Y23735D01*
X32291Y23876D01*
X31994Y24174D01*
X31902Y24149D01*
X31832Y23952D01*
X31844Y23744D01*
X31902Y23604D01*
X31994Y23579D01*
X32291Y23876D01*
X32291Y23735D01*
X32065Y23509D01*
X32089Y23416D01*
X32286Y23347D01*
X32495Y23358D01*
X32600Y23401D01*
X32600Y23095D01*
X32602Y23080D01*
X32601Y23066D01*
X32614Y23023D01*
X32622Y22980D01*
X32630Y22968D01*
X32635Y22954D01*
X32663Y22919D01*
X32687Y22882D01*
X32699Y22874D01*
X32709Y22863D01*
X34497Y21389D01*
X34467Y21401D01*
X34258Y21402D01*
X34065Y21322D01*
X33917Y21174D01*
X33837Y20981D01*
X33837Y20772D01*
X33917Y20579D01*
X34064Y20432D01*
X34257Y20352D01*
X34466Y20351D01*
X34659Y20431D01*
X34807Y20579D01*
X34887Y20772D01*
X34887Y20980D01*
X34885Y20985D01*
X35019Y20984D01*
X35175Y21049D01*
X35295Y21168D01*
X35357Y21318D01*
X35651Y21024D01*
X35651Y20543D01*
X35689Y20451D01*
X35759Y20380D01*
X35851Y20342D01*
X35950Y20342D01*
X36550Y20342D01*
X36642Y20380D01*
X36712Y20450D01*
X36751Y20542D01*
X36751Y20565D01*
X36889Y20426D01*
X37091Y20342D01*
X37310Y20342D01*
X37512Y20426D01*
X37667Y20580D01*
X37701Y20662D01*
X37734Y20581D01*
X37889Y20426D01*
X38091Y20342D01*
X38310Y20342D01*
X38512Y20426D01*
X38667Y20580D01*
X38672Y20592D01*
X38792Y20592D01*
X38792Y20592D01*
X38907Y20615D01*
X38907Y20615D01*
X39004Y20680D01*
X39267Y20942D01*
X39332Y21040D01*
X39334Y21053D01*
X39440Y21010D01*
X39609Y21009D01*
X39677Y21038D01*
X39613Y20883D01*
X39613Y20674D01*
X39692Y20481D01*
X39840Y20333D01*
X40033Y20253D01*
X40242Y20253D01*
X40435Y20333D01*
X40583Y20480D01*
X40663Y20673D01*
X40663Y20882D01*
X40583Y21075D01*
X40435Y21223D01*
X40243Y21303D01*
X40034Y21303D01*
X39909Y21251D01*
X39949Y21350D01*
X39950Y21435D01*
X40737Y22222D01*
X40737Y22222D01*
X40802Y22320D01*
X40824Y22435D01*
X40825Y22435D01*
X40825Y22570D01*
X41322Y23067D01*
X41322Y23067D01*
X41387Y23165D01*
X41409Y23279D01*
X41410Y23280D01*
X41410Y24200D01*
X41409Y24200D01*
X41391Y24295D01*
X42001Y24295D01*
X41865Y24239D01*
X41841Y24146D01*
X42138Y23849D01*
X42435Y24146D01*
X42410Y24239D01*
X42250Y24295D01*
X42958Y24295D01*
X42958Y20822D01*
M02*
